%TF.GenerationSoftware,KiCad,Pcbnew,9.0.1-9.0.1-0~ubuntu22.04.1*%
%TF.CreationDate,2025-06-14T14:09:09+02:00*%
%TF.ProjectId,recorder,7265636f-7264-4657-922e-6b696361645f,rev?*%
%TF.SameCoordinates,Original*%
%TF.FileFunction,Copper,L1,Top*%
%TF.FilePolarity,Positive*%
%FSLAX46Y46*%
G04 Gerber Fmt 4.6, Leading zero omitted, Abs format (unit mm)*
G04 Created by KiCad (PCBNEW 9.0.1-9.0.1-0~ubuntu22.04.1) date 2025-06-14 14:09:09*
%MOMM*%
%LPD*%
G01*
G04 APERTURE LIST*
G04 Aperture macros list*
%AMRoundRect*
0 Rectangle with rounded corners*
0 $1 Rounding radius*
0 $2 $3 $4 $5 $6 $7 $8 $9 X,Y pos of 4 corners*
0 Add a 4 corners polygon primitive as box body*
4,1,4,$2,$3,$4,$5,$6,$7,$8,$9,$2,$3,0*
0 Add four circle primitives for the rounded corners*
1,1,$1+$1,$2,$3*
1,1,$1+$1,$4,$5*
1,1,$1+$1,$6,$7*
1,1,$1+$1,$8,$9*
0 Add four rect primitives between the rounded corners*
20,1,$1+$1,$2,$3,$4,$5,0*
20,1,$1+$1,$4,$5,$6,$7,0*
20,1,$1+$1,$6,$7,$8,$9,0*
20,1,$1+$1,$8,$9,$2,$3,0*%
%AMFreePoly0*
4,1,60,0.290285,0.196940,0.471397,0.121921,0.634393,0.013010,0.773010,-0.125607,0.881921,-0.288603,0.956940,-0.469715,0.995185,-0.661983,0.995185,-0.858017,0.956940,-1.050285,0.881921,-1.231397,0.773010,-1.394393,0.634393,-1.533010,0.471397,-1.641921,0.290285,-1.716940,0.098017,-1.755185,-0.098017,-1.755185,-0.290285,-1.716940,-0.471397,-1.641921,-0.634393,-1.533010,-0.773010,-1.394393,
-0.881921,-1.231397,-0.956940,-1.050285,-0.995185,-0.858017,-0.995185,-0.681009,-0.600000,-0.681009,-0.600000,-0.838991,-0.559111,-0.991591,-0.480119,-1.128408,-0.368408,-1.240119,-0.231591,-1.319111,-0.078991,-1.360000,0.078991,-1.360000,0.231591,-1.319111,0.368408,-1.240119,0.480119,-1.128408,0.559111,-0.991591,0.600000,-0.838991,0.600000,-0.681009,0.559111,-0.528409,0.480119,-0.391592,
0.368408,-0.279881,0.231591,-0.200889,0.078991,-0.160000,-0.078991,-0.160000,-0.231591,-0.200889,-0.368408,-0.279881,-0.480119,-0.391592,-0.559111,-0.528409,-0.600000,-0.681009,-0.995185,-0.681009,-0.995185,-0.661983,-0.956940,-0.469715,-0.881921,-0.288603,-0.773010,-0.125607,-0.634393,0.013010,-0.471397,0.121921,-0.290285,0.196940,-0.098017,0.235185,0.098017,0.235185,0.290285,0.196940,
0.290285,0.196940,$1*%
G04 Aperture macros list end*
%TA.AperFunction,SMDPad,CuDef*%
%ADD10RoundRect,0.225000X-0.225000X-0.250000X0.225000X-0.250000X0.225000X0.250000X-0.225000X0.250000X0*%
%TD*%
%TA.AperFunction,SMDPad,CuDef*%
%ADD11FreePoly0,90.000000*%
%TD*%
%TA.AperFunction,SMDPad,CuDef*%
%ADD12RoundRect,0.060000X0.140000X-0.290000X0.140000X0.290000X-0.140000X0.290000X-0.140000X-0.290000X0*%
%TD*%
%TA.AperFunction,SMDPad,CuDef*%
%ADD13RoundRect,0.200000X0.200000X0.275000X-0.200000X0.275000X-0.200000X-0.275000X0.200000X-0.275000X0*%
%TD*%
%TA.AperFunction,SMDPad,CuDef*%
%ADD14RoundRect,0.225000X0.250000X-0.225000X0.250000X0.225000X-0.250000X0.225000X-0.250000X-0.225000X0*%
%TD*%
%TA.AperFunction,SMDPad,CuDef*%
%ADD15R,3.149999X3.149999*%
%TD*%
%TA.AperFunction,SMDPad,CuDef*%
%ADD16R,1.207120X0.315831*%
%TD*%
%TA.AperFunction,SMDPad,CuDef*%
%ADD17R,0.315831X1.207120*%
%TD*%
%TA.AperFunction,SMDPad,CuDef*%
%ADD18RoundRect,0.200000X-0.275000X0.200000X-0.275000X-0.200000X0.275000X-0.200000X0.275000X0.200000X0*%
%TD*%
%TA.AperFunction,SMDPad,CuDef*%
%ADD19RoundRect,0.225000X0.225000X0.250000X-0.225000X0.250000X-0.225000X-0.250000X0.225000X-0.250000X0*%
%TD*%
%TA.AperFunction,SMDPad,CuDef*%
%ADD20RoundRect,0.225000X-0.250000X0.225000X-0.250000X-0.225000X0.250000X-0.225000X0.250000X0.225000X0*%
%TD*%
%TA.AperFunction,SMDPad,CuDef*%
%ADD21R,1.750000X1.750000*%
%TD*%
%TA.AperFunction,SMDPad,CuDef*%
%ADD22O,0.960000X0.264000*%
%TD*%
%TA.AperFunction,SMDPad,CuDef*%
%ADD23O,0.264000X0.960000*%
%TD*%
%TA.AperFunction,SMDPad,CuDef*%
%ADD24RoundRect,0.200000X-0.200000X-0.275000X0.200000X-0.275000X0.200000X0.275000X-0.200000X0.275000X0*%
%TD*%
%TA.AperFunction,ComponentPad*%
%ADD25O,1.700000X1.700000*%
%TD*%
%TA.AperFunction,ComponentPad*%
%ADD26R,1.700000X1.700000*%
%TD*%
%TA.AperFunction,SMDPad,CuDef*%
%ADD27RoundRect,0.200000X0.275000X-0.200000X0.275000X0.200000X-0.275000X0.200000X-0.275000X-0.200000X0*%
%TD*%
%TA.AperFunction,ViaPad*%
%ADD28C,0.600000*%
%TD*%
%TA.AperFunction,Conductor*%
%ADD29C,0.300000*%
%TD*%
%TA.AperFunction,Conductor*%
%ADD30C,0.400000*%
%TD*%
%TA.AperFunction,Conductor*%
%ADD31C,0.200000*%
%TD*%
G04 APERTURE END LIST*
D10*
%TO.P,C3,2*%
%TO.N,GND*%
X322061625Y-297999999D03*
%TO.P,C3,1*%
%TO.N,/DVDD*%
X320511625Y-297999999D03*
%TD*%
%TO.P,C7,2*%
%TO.N,GND*%
X662011625Y-297999999D03*
%TO.P,C7,1*%
%TO.N,/DVDD*%
X660461625Y-297999999D03*
%TD*%
%TO.P,C1,2*%
%TO.N,GND*%
X152061625Y-297999999D03*
%TO.P,C1,1*%
%TO.N,/DVDD*%
X150511625Y-297999999D03*
%TD*%
%TO.P,C6,2*%
%TO.N,GND*%
X577011625Y-297999999D03*
%TO.P,C6,1*%
%TO.N,/DVDD*%
X575461625Y-297999999D03*
%TD*%
D11*
%TO.P,U3,5,GND*%
%TO.N,GND*%
X235920000Y-301500000D03*
D12*
%TO.P,U3,4,LR*%
X235200000Y-302350000D03*
%TO.P,U3,3,CLOCK*%
%TO.N,/CLK0*%
X234500000Y-302350000D03*
%TO.P,U3,2,VDD*%
%TO.N,/DVDD*%
X235200000Y-300650000D03*
%TO.P,U3,1,DATA*%
%TO.N,Net-(U3-DATA)*%
X234500000Y-300650000D03*
%TD*%
D10*
%TO.P,C8,2*%
%TO.N,GND*%
X747011625Y-297999999D03*
%TO.P,C8,1*%
%TO.N,/DVDD*%
X745461625Y-297999999D03*
%TD*%
D13*
%TO.P,R2,2*%
%TO.N,/DAT0*%
X232361625Y-297999999D03*
%TO.P,R2,1*%
%TO.N,Net-(U3-DATA)*%
X234011625Y-297999999D03*
%TD*%
D14*
%TO.P,C9,2*%
%TO.N,GND*%
X423019200Y-299950000D03*
%TO.P,C9,1*%
%TO.N,/DVDD*%
X423019200Y-301500000D03*
%TD*%
D10*
%TO.P,C5,2*%
%TO.N,GND*%
X492011625Y-297999999D03*
%TO.P,C5,1*%
%TO.N,/DVDD*%
X490461625Y-297999999D03*
%TD*%
D11*
%TO.P,U6,5,GND*%
%TO.N,GND*%
X490920000Y-301500000D03*
D12*
%TO.P,U6,4,LR*%
%TO.N,/DVDD*%
X490200000Y-302350000D03*
%TO.P,U6,3,CLOCK*%
%TO.N,/CLK1*%
X489500000Y-302350000D03*
%TO.P,U6,2,VDD*%
%TO.N,/DVDD*%
X490200000Y-300650000D03*
%TO.P,U6,1,DATA*%
%TO.N,Net-(U6-DATA)*%
X489500000Y-300650000D03*
%TD*%
D13*
%TO.P,R4,2*%
%TO.N,/DAT1*%
X402350000Y-298000000D03*
%TO.P,R4,1*%
%TO.N,Net-(U5-DATA)*%
X404000000Y-298000000D03*
%TD*%
D11*
%TO.P,U9,5,GND*%
%TO.N,GND*%
X745920000Y-301500000D03*
D12*
%TO.P,U9,4,LR*%
X745200000Y-302350000D03*
%TO.P,U9,3,CLOCK*%
%TO.N,/CLK1*%
X744500000Y-302350000D03*
%TO.P,U9,2,VDD*%
%TO.N,/DVDD*%
X745200000Y-300650000D03*
%TO.P,U9,1,DATA*%
%TO.N,Net-(U9-DATA)*%
X744500000Y-300650000D03*
%TD*%
D10*
%TO.P,C2,2*%
%TO.N,GND*%
X237061625Y-297999999D03*
%TO.P,C2,1*%
%TO.N,/DVDD*%
X235511625Y-297999999D03*
%TD*%
D15*
%TO.P,U10,21,Thermal_Pad*%
%TO.N,GND*%
X417500000Y-301000000D03*
D16*
%TO.P,U10,20,OUT*%
%TO.N,unconnected-(U10-OUT-Pad20)*%
X419875550Y-299700000D03*
%TO.P,U10,19,NC*%
%TO.N,unconnected-(U10-NC-Pad19)*%
X419875550Y-300350001D03*
%TO.P,U10,18,NC*%
%TO.N,unconnected-(U10-NC-Pad18)*%
X419875550Y-301000000D03*
%TO.P,U10,17,NC*%
%TO.N,unconnected-(U10-NC-Pad17)*%
X419875550Y-301650001D03*
%TO.P,U10,16,IN*%
%TO.N,unconnected-(U10-IN-Pad16)*%
X419875550Y-302300000D03*
D17*
%TO.P,U10,15,IN*%
%TO.N,/IOVDD*%
X418800000Y-303375550D03*
%TO.P,U10,14,NR*%
%TO.N,Net-(U10-NR)*%
X418149999Y-303375550D03*
%TO.P,U10,13,EN*%
%TO.N,/IOVDD*%
X417500000Y-303375550D03*
%TO.P,U10,12,0P1V*%
%TO.N,unconnected-(U10-0P1V-Pad12)*%
X416849999Y-303375550D03*
%TO.P,U10,11,0P2V*%
%TO.N,unconnected-(U10-0P2V-Pad11)*%
X416200000Y-303375550D03*
D16*
%TO.P,U10,10,0P4V*%
%TO.N,GND*%
X415124450Y-302300000D03*
%TO.P,U10,9,0P8V*%
%TO.N,unconnected-(U10-0P8V-Pad9)*%
X415124450Y-301650001D03*
%TO.P,U10,8,1P6V*%
%TO.N,unconnected-(U10-1P6V-Pad8)*%
X415124450Y-301000000D03*
%TO.P,U10,7,GND*%
%TO.N,GND*%
X415124450Y-300350001D03*
%TO.P,U10,6,3P2V*%
%TO.N,unconnected-(U10-3P2V-Pad6)*%
X415124450Y-299700000D03*
D17*
%TO.P,U10,5,6P4V1*%
%TO.N,unconnected-(U10-6P4V1-Pad5)*%
X416200000Y-298624450D03*
%TO.P,U10,4,6P4V2*%
%TO.N,unconnected-(U10-6P4V2-Pad4)*%
X416849999Y-298624450D03*
%TO.P,U10,3,SENSE_FB*%
%TO.N,/DVDD*%
X417500000Y-298624450D03*
%TO.P,U10,2,NC*%
%TO.N,unconnected-(U10-NC-Pad2)*%
X418149999Y-298624450D03*
%TO.P,U10,1,OUT*%
%TO.N,/DVDD*%
X418800000Y-298624450D03*
%TD*%
D10*
%TO.P,C12,2*%
%TO.N,GND*%
X419840000Y-305000000D03*
%TO.P,C12,1*%
%TO.N,Net-(U10-NR)*%
X418290000Y-305000000D03*
%TD*%
%TO.P,C4,2*%
%TO.N,GND*%
X407050000Y-298000000D03*
%TO.P,C4,1*%
%TO.N,/DVDD*%
X405500000Y-298000000D03*
%TD*%
D13*
%TO.P,R12,2*%
%TO.N,/CLK0*%
X419500000Y-308500000D03*
%TO.P,R12,1*%
%TO.N,Net-(U2-PDM_CLK0)*%
X421150000Y-308500000D03*
%TD*%
D18*
%TO.P,R9,2*%
%TO.N,/IOVDD*%
X421469200Y-302150000D03*
%TO.P,R9,1*%
%TO.N,/ENABLE*%
X421469200Y-300500000D03*
%TD*%
D11*
%TO.P,U1,5,GND*%
%TO.N,GND*%
X150920000Y-301500000D03*
D12*
%TO.P,U1,4,LR*%
%TO.N,/DVDD*%
X150200000Y-302350000D03*
%TO.P,U1,3,CLOCK*%
%TO.N,/CLK0*%
X149500000Y-302350000D03*
%TO.P,U1,2,VDD*%
%TO.N,/DVDD*%
X150200000Y-300650000D03*
%TO.P,U1,1,DATA*%
%TO.N,Net-(U1-DATA)*%
X149500000Y-300650000D03*
%TD*%
D11*
%TO.P,U8,5,GND*%
%TO.N,GND*%
X660920000Y-301500000D03*
D12*
%TO.P,U8,4,LR*%
%TO.N,/DVDD*%
X660200000Y-302350000D03*
%TO.P,U8,3,CLOCK*%
%TO.N,/CLK1*%
X659500000Y-302350000D03*
%TO.P,U8,2,VDD*%
%TO.N,/DVDD*%
X660200000Y-300650000D03*
%TO.P,U8,1,DATA*%
%TO.N,Net-(U8-DATA)*%
X659500000Y-300650000D03*
%TD*%
D13*
%TO.P,R1,2*%
%TO.N,/DAT0*%
X147350000Y-298000000D03*
%TO.P,R1,1*%
%TO.N,Net-(U1-DATA)*%
X149000000Y-298000000D03*
%TD*%
%TO.P,R7,2*%
%TO.N,/DAT3*%
X657350000Y-297999999D03*
%TO.P,R7,1*%
%TO.N,Net-(U8-DATA)*%
X659000000Y-297999999D03*
%TD*%
D19*
%TO.P,C14,2*%
%TO.N,GND*%
X415290000Y-305000000D03*
%TO.P,C14,1*%
%TO.N,/IOVDD*%
X416840000Y-305000000D03*
%TD*%
D20*
%TO.P,C10,2*%
%TO.N,GND*%
X423019200Y-304775000D03*
%TO.P,C10,1*%
%TO.N,/IOVDD*%
X423019200Y-303225000D03*
%TD*%
D21*
%TO.P,U2,17,EPAD*%
%TO.N,GND*%
X426163800Y-302250000D03*
D22*
%TO.P,U2,16,IOVDD*%
%TO.N,/IOVDD*%
X424679200Y-303000000D03*
%TO.P,U2,15,GND*%
%TO.N,GND*%
X424679200Y-302500000D03*
%TO.P,U2,14,DVDD*%
%TO.N,/DVDD*%
X424679200Y-302000000D03*
%TO.P,U2,13,EN*%
%TO.N,/ENABLE*%
X424679200Y-301500000D03*
D23*
%TO.P,U2,12,ADDR/CONFIG*%
%TO.N,GND*%
X425413800Y-300765400D03*
%TO.P,U2,11,SDATA*%
%TO.N,Net-(U2-SDATA)*%
X425913800Y-300765400D03*
%TO.P,U2,10,BLCK*%
%TO.N,/SCLK*%
X426413800Y-300765400D03*
%TO.P,U2,9,FSYNC*%
%TO.N,/FS*%
X426913800Y-300765400D03*
D22*
%TO.P,U2,8,SDA*%
%TO.N,/SDA*%
X427648400Y-301500000D03*
%TO.P,U2,7,SCL*%
%TO.N,/SCL*%
X427648400Y-302000000D03*
%TO.P,U2,6,PDM_DAT3*%
%TO.N,/DAT3*%
X427648400Y-302500000D03*
%TO.P,U2,5,PDM_DAT2*%
%TO.N,/DAT2*%
X427648400Y-303000000D03*
D23*
%TO.P,U2,4,PDM_CLK1*%
%TO.N,Net-(U2-PDM_CLK1)*%
X426913800Y-303734600D03*
%TO.P,U2,3,PDM_DAT1*%
%TO.N,/DAT1*%
X426413800Y-303734600D03*
%TO.P,U2,2,PDM_DAT0*%
%TO.N,/DAT0*%
X425913800Y-303734600D03*
%TO.P,U2,1,PDM_CLK0*%
%TO.N,Net-(U2-PDM_CLK0)*%
X425413800Y-303734600D03*
%TD*%
D13*
%TO.P,R5,2*%
%TO.N,/DAT2*%
X487361625Y-297999999D03*
%TO.P,R5,1*%
%TO.N,Net-(U6-DATA)*%
X489011625Y-297999999D03*
%TD*%
%TO.P,R3,2*%
%TO.N,/DAT1*%
X317361625Y-297999999D03*
%TO.P,R3,1*%
%TO.N,Net-(U4-DATA)*%
X319011625Y-297999999D03*
%TD*%
D24*
%TO.P,R13,2*%
%TO.N,/CLK1*%
X432650000Y-310000000D03*
%TO.P,R13,1*%
%TO.N,Net-(U2-PDM_CLK1)*%
X431000000Y-310000000D03*
%TD*%
D13*
%TO.P,R8,2*%
%TO.N,/DAT3*%
X742361625Y-297999999D03*
%TO.P,R8,1*%
%TO.N,Net-(U9-DATA)*%
X744011625Y-297999999D03*
%TD*%
%TO.P,R6,2*%
%TO.N,/DAT2*%
X572350000Y-297999999D03*
%TO.P,R6,1*%
%TO.N,Net-(U7-DATA)*%
X574000000Y-297999999D03*
%TD*%
D25*
%TO.P,J1,40,I2S0_DOUT*%
%TO.N,unconnected-(J1-I2S0_DOUT-Pad40)*%
X433178810Y-302040000D03*
%TO.P,J1,39,GND*%
%TO.N,unconnected-(J1-GND-Pad39)*%
X433178810Y-299500000D03*
%TO.P,J1,38,I2S0_DIN*%
%TO.N,/DIN*%
X435718810Y-302040000D03*
%TO.P,J1,37,SPI1_MOSI*%
%TO.N,unconnected-(J1-SPI1_MOSI-Pad37)*%
X435718810Y-299500000D03*
%TO.P,J1,36,UART1_CTS*%
%TO.N,unconnected-(J1-UART1_CTS-Pad36)*%
X438258810Y-302040000D03*
%TO.P,J1,35,I2S0_FS*%
%TO.N,/FS*%
X438258810Y-299500000D03*
%TO.P,J1,34,GND*%
%TO.N,unconnected-(J1-GND-Pad34)*%
X440798810Y-302040000D03*
%TO.P,J1,33,GPIO13*%
%TO.N,unconnected-(J1-GPIO13-Pad33)*%
X440798810Y-299500000D03*
%TO.P,J1,32,GPIO07*%
%TO.N,unconnected-(J1-GPIO07-Pad32)*%
X443338810Y-302040000D03*
%TO.P,J1,31,GPIO11*%
%TO.N,unconnected-(J1-GPIO11-Pad31)*%
X443338810Y-299500000D03*
%TO.P,J1,30,GND*%
%TO.N,unconnected-(J1-GND-Pad30)*%
X445878810Y-302040000D03*
%TO.P,J1,29,GPIO01*%
%TO.N,unconnected-(J1-GPIO01-Pad29)*%
X445878810Y-299500000D03*
%TO.P,J1,28,I2C0_SCL*%
%TO.N,/SCL*%
X448418810Y-302040000D03*
%TO.P,J1,27,I2C0_SDA*%
%TO.N,/SDA*%
X448418810Y-299500000D03*
%TO.P,J1,26,SPI0_CS1*%
%TO.N,unconnected-(J1-SPI0_CS1-Pad26)*%
X450958810Y-302040000D03*
%TO.P,J1,25,GND*%
%TO.N,unconnected-(J1-GND-Pad25)*%
X450958810Y-299500000D03*
%TO.P,J1,24,SPI0_CS0*%
%TO.N,unconnected-(J1-SPI0_CS0-Pad24)*%
X453498810Y-302040000D03*
%TO.P,J1,23,SPI0_SCK*%
%TO.N,unconnected-(J1-SPI0_SCK-Pad23)*%
X453498810Y-299500000D03*
%TO.P,J1,22,SPI1_MISO*%
%TO.N,unconnected-(J1-SPI1_MISO-Pad22)*%
X456038810Y-302040000D03*
%TO.P,J1,21,SPI_MISO*%
%TO.N,unconnected-(J1-SPI_MISO-Pad21)*%
X456038810Y-299500000D03*
%TO.P,J1,20,GND*%
%TO.N,unconnected-(J1-GND-Pad20)*%
X458578810Y-302040000D03*
%TO.P,J1,19,SPI0_MOSI*%
%TO.N,unconnected-(J1-SPI0_MOSI-Pad19)*%
X458578810Y-299500000D03*
%TO.P,J1,18,SPI1_CS0*%
%TO.N,unconnected-(J1-SPI1_CS0-Pad18)*%
X461118810Y-302040000D03*
%TO.P,J1,17,3V3*%
%TO.N,unconnected-(J1-3V3-Pad17)*%
X461118810Y-299500000D03*
%TO.P,J1,16,SPI1_CS1*%
%TO.N,unconnected-(J1-SPI1_CS1-Pad16)*%
X463658810Y-302040000D03*
%TO.P,J1,15,GPIO12*%
%TO.N,unconnected-(J1-GPIO12-Pad15)*%
X463658810Y-299500000D03*
%TO.P,J1,14,GND*%
%TO.N,unconnected-(J1-GND-Pad14)*%
X466198810Y-302040000D03*
%TO.P,J1,13,SPI1_SCK*%
%TO.N,unconnected-(J1-SPI1_SCK-Pad13)*%
X466198810Y-299500000D03*
%TO.P,J1,12,I2S0_SCLK*%
%TO.N,/SCLK*%
X468738810Y-302040000D03*
%TO.P,J1,11,UART_RTS*%
%TO.N,unconnected-(J1-UART_RTS-Pad11)*%
X468738810Y-299500000D03*
%TO.P,J1,10,UART1_RXD*%
%TO.N,unconnected-(J1-UART1_RXD-Pad10)*%
X471278810Y-302040000D03*
%TO.P,J1,9,GND*%
%TO.N,unconnected-(J1-GND-Pad9)*%
X471278810Y-299500000D03*
%TO.P,J1,8,UART1_TXD*%
%TO.N,unconnected-(J1-UART1_TXD-Pad8)*%
X473818810Y-302040000D03*
%TO.P,J1,7,GPIO09*%
%TO.N,unconnected-(J1-GPIO09-Pad7)*%
X473818810Y-299500000D03*
%TO.P,J1,6,GND*%
%TO.N,GND*%
X476358810Y-302040000D03*
%TO.P,J1,5,I2C1_SCL*%
%TO.N,unconnected-(J1-I2C1_SCL-Pad5)*%
X476358810Y-299500000D03*
%TO.P,J1,4,5V*%
%TO.N,unconnected-(J1-5V-Pad4)*%
X478898810Y-302040000D03*
%TO.P,J1,3,I2C1_SDA*%
%TO.N,unconnected-(J1-I2C1_SDA-Pad3)*%
X478898810Y-299500000D03*
%TO.P,J1,2,5V*%
%TO.N,unconnected-(J1-5V-Pad2)*%
X481438810Y-302040000D03*
D26*
%TO.P,J1,1,3V3*%
%TO.N,/IOVDD*%
X481438810Y-299500000D03*
%TD*%
D11*
%TO.P,U4,5,GND*%
%TO.N,GND*%
X320920000Y-301500000D03*
D12*
%TO.P,U4,4,LR*%
%TO.N,/DVDD*%
X320200000Y-302350000D03*
%TO.P,U4,3,CLOCK*%
%TO.N,/CLK0*%
X319500000Y-302350000D03*
%TO.P,U4,2,VDD*%
%TO.N,/DVDD*%
X320200000Y-300650000D03*
%TO.P,U4,1,DATA*%
%TO.N,Net-(U4-DATA)*%
X319500000Y-300650000D03*
%TD*%
D14*
%TO.P,C11,2*%
%TO.N,GND*%
X424500000Y-297500000D03*
%TO.P,C11,1*%
%TO.N,/ENABLE*%
X424500000Y-299050000D03*
%TD*%
D11*
%TO.P,U5,5,GND*%
%TO.N,GND*%
X405920000Y-301500000D03*
D12*
%TO.P,U5,4,LR*%
X405200000Y-302350000D03*
%TO.P,U5,3,CLOCK*%
%TO.N,/CLK0*%
X404500000Y-302350000D03*
%TO.P,U5,2,VDD*%
%TO.N,/DVDD*%
X405200000Y-300650000D03*
%TO.P,U5,1,DATA*%
%TO.N,Net-(U5-DATA)*%
X404500000Y-300650000D03*
%TD*%
D11*
%TO.P,U7,5,GND*%
%TO.N,GND*%
X575920000Y-301500000D03*
D12*
%TO.P,U7,4,LR*%
X575200000Y-302350000D03*
%TO.P,U7,3,CLOCK*%
%TO.N,/CLK1*%
X574500000Y-302350000D03*
%TO.P,U7,2,VDD*%
%TO.N,/DVDD*%
X575200000Y-300650000D03*
%TO.P,U7,1,DATA*%
%TO.N,Net-(U7-DATA)*%
X574500000Y-300650000D03*
%TD*%
D27*
%TO.P,R14,2*%
%TO.N,Net-(U2-SDATA)*%
X430500000Y-301000000D03*
%TO.P,R14,1*%
%TO.N,/DIN*%
X430500000Y-302650000D03*
%TD*%
D19*
%TO.P,C13,2*%
%TO.N,GND*%
X415840000Y-297000000D03*
%TO.P,C13,1*%
%TO.N,/DVDD*%
X417390000Y-297000000D03*
%TD*%
D28*
%TO.N,/DAT3*%
X742500000Y-299500000D03*
X657500000Y-300000000D03*
X428969200Y-302500000D03*
%TO.N,/DAT2*%
X487500000Y-300000000D03*
X572500000Y-299500000D03*
X433500000Y-305500000D03*
%TO.N,/DAT1*%
X402000000Y-299500000D03*
X317361625Y-299361625D03*
X426969200Y-305500000D03*
%TO.N,/DAT0*%
X232500000Y-299500000D03*
X424969200Y-306500000D03*
X147500000Y-300000000D03*
%TO.N,/SCLK*%
X429500000Y-304500000D03*
X426563800Y-299891165D03*
%TO.N,/SDA*%
X428618796Y-300526197D03*
%TO.N,/SCL*%
X428804377Y-301304377D03*
%TO.N,/FS*%
X427750000Y-299750000D03*
X430100000Y-297400000D03*
%TO.N,/IOVDD*%
X421469200Y-303000000D03*
%TO.N,/DVDD*%
X405500000Y-297000000D03*
X490461625Y-297000000D03*
X575461625Y-297038375D03*
X418750000Y-296750000D03*
X424053132Y-300932459D03*
X745461625Y-297038375D03*
X320511625Y-297011625D03*
X660461625Y-297038375D03*
X150511625Y-297011625D03*
X235511625Y-297011625D03*
%TO.N,GND*%
X238500000Y-301500000D03*
X405200000Y-303300000D03*
X153000000Y-298000000D03*
X578500000Y-298000000D03*
X578500000Y-301500000D03*
X235200000Y-303300000D03*
X493500000Y-298000000D03*
X748000000Y-298000000D03*
X493469669Y-301469669D03*
X323500000Y-301500000D03*
X748500000Y-301500000D03*
X413619199Y-300350001D03*
X153500000Y-301500000D03*
X575200000Y-303500000D03*
X413669200Y-302300000D03*
X323000000Y-298000000D03*
X425500000Y-297500000D03*
X238000000Y-298000000D03*
X423019200Y-299050000D03*
X420969200Y-304000000D03*
X408500000Y-301500000D03*
X745200000Y-303300000D03*
X663000000Y-298000000D03*
X414469200Y-297000000D03*
X417500000Y-301000000D03*
X414969200Y-304000000D03*
X426163800Y-302250000D03*
X663500000Y-301500000D03*
X425069200Y-300050000D03*
X421969200Y-304000000D03*
X408000000Y-298000000D03*
%TD*%
D29*
%TO.N,Net-(U2-SDATA)*%
X425913800Y-300765400D02*
X425913800Y-299586200D01*
X425913800Y-299586200D02*
X426500000Y-299000000D01*
X428500000Y-299000000D02*
X430500000Y-301000000D01*
X426500000Y-299000000D02*
X428500000Y-299000000D01*
D30*
%TO.N,Net-(U2-PDM_CLK1)*%
X429500000Y-307030800D02*
X429500000Y-308500000D01*
X429500000Y-308500000D02*
X431000000Y-310000000D01*
X426913800Y-304444600D02*
X429500000Y-307030800D01*
X426913800Y-303734600D02*
X426913800Y-304444600D01*
%TO.N,Net-(U2-PDM_CLK0)*%
X421368200Y-308601000D02*
X421251000Y-308601000D01*
X425413800Y-303734600D02*
X425413800Y-304555400D01*
X425413800Y-304555400D02*
X421368200Y-308601000D01*
X421251000Y-308601000D02*
X421150000Y-308500000D01*
D31*
%TO.N,/CLK1*%
X703000000Y-303500000D02*
X743350000Y-303500000D01*
D29*
X616500000Y-306000000D02*
X615500000Y-305000000D01*
X617500000Y-305000000D02*
X619000000Y-305000000D01*
X702000000Y-305500000D02*
X702000000Y-304500000D01*
X613000000Y-306000000D02*
X532500000Y-306000000D01*
X619000000Y-305000000D02*
X620000000Y-306000000D01*
D31*
X532000000Y-304500000D02*
X533000000Y-303500000D01*
D29*
X614000000Y-305000000D02*
X613000000Y-306000000D01*
D31*
X743350000Y-303500000D02*
X744500000Y-302350000D01*
D29*
X620000000Y-306000000D02*
X701500000Y-306000000D01*
D31*
X532000000Y-304500000D02*
X531000000Y-303500000D01*
D30*
X478500000Y-310000000D02*
X479000000Y-309500000D01*
D31*
X701000000Y-303500000D02*
X660000000Y-303500000D01*
X701500000Y-304000000D02*
X701000000Y-303500000D01*
D30*
X616500000Y-307000000D02*
X616500000Y-306000000D01*
D29*
X532000000Y-305500000D02*
X532000000Y-304500000D01*
D31*
X489500000Y-303000000D02*
X489500000Y-302350000D01*
D29*
X616500000Y-306000000D02*
X617500000Y-305000000D01*
X701500000Y-306000000D02*
X702000000Y-305500000D01*
D30*
X613500000Y-310000000D02*
X616500000Y-307000000D01*
D31*
X703000000Y-303500000D02*
X702000000Y-304500000D01*
D29*
X615500000Y-305000000D02*
X614000000Y-305000000D01*
D30*
X432650000Y-310000000D02*
X478500000Y-310000000D01*
D31*
X573350000Y-303500000D02*
X574500000Y-302350000D01*
X659500000Y-303000000D02*
X659500000Y-302350000D01*
X490000000Y-303500000D02*
X489500000Y-303000000D01*
X660000000Y-303500000D02*
X659500000Y-303000000D01*
D30*
X479000000Y-309500000D02*
X482000000Y-309500000D01*
D31*
X531000000Y-303500000D02*
X490000000Y-303500000D01*
D30*
X482000000Y-309500000D02*
X482500000Y-310000000D01*
D31*
X533000000Y-303500000D02*
X573350000Y-303500000D01*
D30*
X482500000Y-310000000D02*
X613500000Y-310000000D01*
D31*
X701500000Y-304000000D02*
X702000000Y-304500000D01*
D29*
X532500000Y-306000000D02*
X532000000Y-305500000D01*
D30*
%TO.N,/CLK0*%
X347359268Y-306500000D02*
G75*
G02*
X348359300Y-307500000I32J-1000000D01*
G01*
X288359268Y-307500000D02*
G75*
G03*
X289359268Y-308500032I1000032J0D01*
G01*
X314359268Y-307500000D02*
G75*
G02*
X315359268Y-306499968I1000032J0D01*
G01*
X329359268Y-308500000D02*
G75*
G03*
X330359300Y-307500000I32J1000000D01*
G01*
X303359268Y-306500000D02*
G75*
G02*
X304359300Y-307500000I32J-1000000D01*
G01*
X286359268Y-307500000D02*
G75*
G02*
X287359268Y-306499968I1000032J0D01*
G01*
X345359268Y-308500000D02*
G75*
G03*
X346359300Y-307500000I32J1000000D01*
G01*
X297359268Y-308500000D02*
G75*
G03*
X298359300Y-307500000I32J1000000D01*
G01*
X299359268Y-306500000D02*
G75*
G02*
X300359300Y-307500000I32J-1000000D01*
G01*
X348359268Y-307500000D02*
G75*
G03*
X349359268Y-308500032I1000032J0D01*
G01*
X296359268Y-307500000D02*
G75*
G03*
X297359268Y-308500032I1000032J0D01*
G01*
X330359268Y-307500000D02*
G75*
G02*
X331359268Y-306499968I1000032J0D01*
G01*
X289359268Y-308500000D02*
G75*
G03*
X290359300Y-307500000I32J1000000D01*
G01*
X342359268Y-307500000D02*
G75*
G02*
X343359268Y-306499968I1000032J0D01*
G01*
X323359268Y-306500000D02*
G75*
G02*
X324359300Y-307500000I32J-1000000D01*
G01*
X309359268Y-308500000D02*
G75*
G03*
X310359300Y-307500000I32J1000000D01*
G01*
X324359268Y-307500000D02*
G75*
G03*
X325359268Y-308500032I1000032J0D01*
G01*
X290359268Y-307500000D02*
G75*
G02*
X291359268Y-306499968I1000032J0D01*
G01*
X306359268Y-307500000D02*
G75*
G02*
X307359268Y-306499968I1000032J0D01*
G01*
X319359268Y-306500000D02*
G75*
G02*
X320359300Y-307500000I32J-1000000D01*
G01*
X301359268Y-308500000D02*
G75*
G03*
X302359300Y-307500000I32J1000000D01*
G01*
X338359268Y-307500000D02*
G75*
G02*
X339359268Y-306499968I1000032J0D01*
G01*
X349359268Y-308500000D02*
G75*
G03*
X350359300Y-307500000I32J1000000D01*
G01*
X311359268Y-306500000D02*
G75*
G02*
X312359300Y-307500000I32J-1000000D01*
G01*
X321359268Y-308500000D02*
G75*
G03*
X322359300Y-307500000I32J1000000D01*
G01*
X317359268Y-308500000D02*
G75*
G03*
X318359300Y-307500000I32J1000000D01*
G01*
X351359268Y-306500000D02*
G75*
G02*
X352359300Y-307500000I32J-1000000D01*
G01*
X284359268Y-307500000D02*
G75*
G03*
X285359268Y-308500032I1000032J0D01*
G01*
X292359268Y-307500000D02*
G75*
G03*
X293359268Y-308500032I1000032J0D01*
G01*
X334359268Y-307500000D02*
G75*
G02*
X335359268Y-306499968I1000032J0D01*
G01*
X339359268Y-306500000D02*
G75*
G02*
X340359300Y-307500000I32J-1000000D01*
G01*
X293359268Y-308500000D02*
G75*
G03*
X294359300Y-307500000I32J1000000D01*
G01*
X352359268Y-307500000D02*
G75*
G03*
X353359268Y-308500032I1000032J0D01*
G01*
X294359268Y-307500000D02*
G75*
G02*
X295359268Y-306499968I1000032J0D01*
G01*
X316359268Y-307500000D02*
G75*
G03*
X317359268Y-308500032I1000032J0D01*
G01*
X328359268Y-307500000D02*
G75*
G03*
X329359268Y-308500032I1000032J0D01*
G01*
X346359268Y-307500000D02*
G75*
G02*
X347359268Y-306499968I1000032J0D01*
G01*
X307359268Y-306500000D02*
G75*
G02*
X308359300Y-307500000I32J-1000000D01*
G01*
X337359268Y-308500000D02*
G75*
G03*
X338359300Y-307500000I32J1000000D01*
G01*
X322359268Y-307500000D02*
G75*
G02*
X323359268Y-306499968I1000032J0D01*
G01*
X343359268Y-306500000D02*
G75*
G02*
X344359300Y-307500000I32J-1000000D01*
G01*
X285359268Y-308500000D02*
G75*
G03*
X286359300Y-307500000I32J1000000D01*
G01*
X282359268Y-307500000D02*
G75*
G02*
X283359268Y-306499968I1000032J0D01*
G01*
X335359268Y-306500000D02*
G75*
G02*
X336359300Y-307500000I32J-1000000D01*
G01*
X313359268Y-308500000D02*
G75*
G03*
X314359300Y-307500000I32J1000000D01*
G01*
X332359268Y-307500000D02*
G75*
G03*
X333359268Y-308500032I1000032J0D01*
G01*
X281359268Y-308500000D02*
G75*
G03*
X282359300Y-307500000I32J1000000D01*
G01*
X308359268Y-307500000D02*
G75*
G03*
X309359268Y-308500032I1000032J0D01*
G01*
X336359268Y-307500000D02*
G75*
G03*
X337359268Y-308500032I1000032J0D01*
G01*
X310359268Y-307500000D02*
G75*
G02*
X311359268Y-306499968I1000032J0D01*
G01*
X300359268Y-307500000D02*
G75*
G03*
X301359268Y-308500032I1000032J0D01*
G01*
X287359268Y-306500000D02*
G75*
G02*
X288359300Y-307500000I32J-1000000D01*
G01*
X331359268Y-306500000D02*
G75*
G02*
X332359300Y-307500000I32J-1000000D01*
G01*
X318359268Y-307500000D02*
G75*
G02*
X319359268Y-306499968I1000032J0D01*
G01*
X295359268Y-306500000D02*
G75*
G02*
X296359300Y-307500000I32J-1000000D01*
G01*
X305359268Y-308500000D02*
G75*
G03*
X306359300Y-307500000I32J1000000D01*
G01*
X312359268Y-307500000D02*
G75*
G03*
X313359268Y-308500032I1000032J0D01*
G01*
X341359268Y-308500000D02*
G75*
G03*
X342359300Y-307500000I32J1000000D01*
G01*
X325359268Y-308500000D02*
G75*
G03*
X326359300Y-307500000I32J1000000D01*
G01*
X344359268Y-307500000D02*
G75*
G03*
X345359268Y-308500032I1000032J0D01*
G01*
X320359268Y-307500000D02*
G75*
G03*
X321359268Y-308500032I1000032J0D01*
G01*
X302359268Y-307500000D02*
G75*
G02*
X303359268Y-306499968I1000032J0D01*
G01*
X333359268Y-308500000D02*
G75*
G03*
X334359300Y-307500000I32J1000000D01*
G01*
X327359268Y-306500000D02*
G75*
G02*
X328359300Y-307500000I32J-1000000D01*
G01*
X315359268Y-306500000D02*
G75*
G02*
X316359300Y-307500000I32J-1000000D01*
G01*
X298359268Y-307500000D02*
G75*
G02*
X299359268Y-306499968I1000032J0D01*
G01*
X304359268Y-307500000D02*
G75*
G03*
X305359268Y-308500032I1000032J0D01*
G01*
X350359268Y-307500000D02*
G75*
G02*
X351359268Y-306499968I1000032J0D01*
G01*
X291359268Y-306500000D02*
G75*
G02*
X292359300Y-307500000I32J-1000000D01*
G01*
X326359268Y-307500000D02*
G75*
G02*
X327359268Y-306499968I1000032J0D01*
G01*
X340359268Y-307500000D02*
G75*
G03*
X341359268Y-308500032I1000032J0D01*
G01*
X283359268Y-306500000D02*
G75*
G02*
X284359300Y-307500000I32J-1000000D01*
G01*
D29*
X191000000Y-304500000D02*
X191500000Y-305000000D01*
D31*
X404150000Y-302000000D02*
X404500000Y-302350000D01*
D29*
X191000000Y-302500000D02*
X191000000Y-304500000D01*
D30*
X276500000Y-307000000D02*
X278000000Y-308500000D01*
D29*
X276000000Y-305000000D02*
X276500000Y-305500000D01*
X277000000Y-305000000D02*
X361000000Y-305000000D01*
D31*
X364000000Y-302000000D02*
X404150000Y-302000000D01*
D29*
X191500000Y-305000000D02*
X276000000Y-305000000D01*
D31*
X189500000Y-300000000D02*
X191000000Y-301500000D01*
D30*
X353359268Y-308500000D02*
X353653268Y-308500000D01*
D29*
X361500000Y-305000000D02*
X362000000Y-304500000D01*
D31*
X320000000Y-303500000D02*
X323500000Y-303500000D01*
X362000000Y-304000000D02*
X360000000Y-302000000D01*
X150000000Y-304000000D02*
X152500000Y-304000000D01*
D30*
X278000000Y-308500000D02*
X281359268Y-308500000D01*
X276500000Y-305500000D02*
X276500000Y-307000000D01*
D31*
X360000000Y-302000000D02*
X359000000Y-302000000D01*
X319500000Y-302350000D02*
X319500000Y-303000000D01*
X228500000Y-300000000D02*
X230850000Y-302350000D01*
X152500000Y-304000000D02*
X156500000Y-300000000D01*
X191000000Y-301500000D02*
X192500000Y-300000000D01*
D29*
X361500000Y-305000000D02*
X361000000Y-305000000D01*
X362000000Y-304500000D02*
X362000000Y-304000000D01*
D31*
X149500000Y-302350000D02*
X149500000Y-303500000D01*
X149500000Y-303500000D02*
X150000000Y-304000000D01*
X359000000Y-302000000D02*
X325000000Y-302000000D01*
D29*
X191000000Y-301500000D02*
X191000000Y-302500000D01*
D31*
X319500000Y-303000000D02*
X320000000Y-303500000D01*
X230850000Y-302350000D02*
X234500000Y-302350000D01*
X323500000Y-303500000D02*
X325000000Y-302000000D01*
D30*
X353653268Y-308500000D02*
X419500000Y-308500000D01*
D31*
X156500000Y-300000000D02*
X189500000Y-300000000D01*
X362000000Y-304000000D02*
X364000000Y-302000000D01*
X192500000Y-300000000D02*
X228500000Y-300000000D01*
D29*
X276500000Y-305500000D02*
X277000000Y-305000000D01*
D31*
%TO.N,Net-(U9-DATA)*%
X744000000Y-300000000D02*
X744011625Y-299988375D01*
X744011625Y-299988375D02*
X744011625Y-297999999D01*
X744500000Y-300650000D02*
X744000000Y-300150000D01*
X744000000Y-300150000D02*
X744000000Y-300000000D01*
%TO.N,Net-(U8-DATA)*%
X659500000Y-300650000D02*
X659000000Y-300150000D01*
X659000000Y-300150000D02*
X659000000Y-297999999D01*
D30*
%TO.N,/DAT3*%
X427648400Y-302500000D02*
X428969200Y-302500000D01*
D29*
X657500000Y-299500000D02*
X657350000Y-299350000D01*
X657500000Y-300000000D02*
X657500000Y-299500000D01*
X742500000Y-298138374D02*
X742361625Y-297999999D01*
X742500000Y-299500000D02*
X742500000Y-298138374D01*
X657350000Y-299350000D02*
X657350000Y-297999999D01*
D31*
%TO.N,Net-(U7-DATA)*%
X574000000Y-300150000D02*
X574000000Y-297999999D01*
X574500000Y-300650000D02*
X574000000Y-300150000D01*
%TO.N,Net-(U6-DATA)*%
X489500000Y-300650000D02*
X489000000Y-300150000D01*
X489011625Y-299988375D02*
X489011625Y-297999999D01*
X489000000Y-300150000D02*
X489000000Y-300000000D01*
X489000000Y-300000000D02*
X489011625Y-299988375D01*
D29*
%TO.N,/DAT2*%
X572500000Y-298149999D02*
X572350000Y-297999999D01*
X487500000Y-300000000D02*
X487500000Y-299500000D01*
X487500000Y-299500000D02*
X487361625Y-299361625D01*
D30*
X433500000Y-305500000D02*
X429484600Y-305500000D01*
X427648400Y-303663800D02*
X427648400Y-303000000D01*
D29*
X572500000Y-299500000D02*
X572500000Y-298149999D01*
X487361625Y-299361625D02*
X487361625Y-297999999D01*
D30*
X429484600Y-305500000D02*
X427648400Y-303663800D01*
D31*
%TO.N,Net-(U5-DATA)*%
X404500000Y-300650000D02*
X404000000Y-300150000D01*
X404000000Y-300150000D02*
X404000000Y-298000000D01*
D29*
%TO.N,/DAT1*%
X317361625Y-299361625D02*
X317361625Y-297999999D01*
X402000000Y-298350000D02*
X402350000Y-298000000D01*
D30*
X426969200Y-305500000D02*
X426969200Y-305421114D01*
X426969200Y-305421114D02*
X426413800Y-304865714D01*
D29*
X402000000Y-299500000D02*
X402000000Y-298350000D01*
D30*
X426413800Y-304865714D02*
X426413800Y-303734600D01*
D31*
%TO.N,Net-(U4-DATA)*%
X319000000Y-298011624D02*
X319011625Y-297999999D01*
X319000000Y-300150000D02*
X319000000Y-298011624D01*
X319500000Y-300650000D02*
X319000000Y-300150000D01*
%TO.N,Net-(U3-DATA)*%
X234011625Y-299988375D02*
X234011625Y-297999999D01*
X234000000Y-300150000D02*
X234000000Y-300000000D01*
X234500000Y-300650000D02*
X234000000Y-300150000D01*
X234000000Y-300000000D02*
X234011625Y-299988375D01*
D29*
%TO.N,/DAT0*%
X147500000Y-300000000D02*
X147500000Y-299500000D01*
X232500000Y-299500000D02*
X232500000Y-298138374D01*
X232500000Y-298138374D02*
X232361625Y-297999999D01*
D30*
X424969200Y-306500000D02*
X425913800Y-305555400D01*
X425913800Y-305555400D02*
X425913800Y-303734600D01*
D29*
X147350000Y-299350000D02*
X147350000Y-298000000D01*
X147500000Y-299500000D02*
X147350000Y-299350000D01*
D31*
%TO.N,Net-(U1-DATA)*%
X149500000Y-300650000D02*
X149000000Y-300150000D01*
X149000000Y-300150000D02*
X149000000Y-298000000D01*
D29*
%TO.N,/SCLK*%
X426413800Y-300041165D02*
X426413800Y-300765400D01*
X466278810Y-304500000D02*
X468738810Y-302040000D01*
X429500000Y-304500000D02*
X466278810Y-304500000D01*
X426563800Y-299891165D02*
X426413800Y-300041165D01*
D31*
%TO.N,/SDA*%
X428618796Y-300526197D02*
X428473803Y-300526197D01*
X427648400Y-301351600D02*
X427648400Y-301500000D01*
X428473803Y-300526197D02*
X427648400Y-301351600D01*
%TO.N,/SCL*%
X428108754Y-302000000D02*
X427648400Y-302000000D01*
X428804377Y-301304377D02*
X428108754Y-302000000D01*
D29*
%TO.N,/DIN*%
X431350000Y-303500000D02*
X430500000Y-302650000D01*
X434258810Y-303500000D02*
X431350000Y-303500000D01*
X435718810Y-302040000D02*
X434258810Y-303500000D01*
D31*
%TO.N,/FS*%
X427750000Y-299750000D02*
X426913800Y-300586200D01*
X430100000Y-297400000D02*
X430500000Y-297000000D01*
X426913800Y-300586200D02*
X426913800Y-300765400D01*
X430500000Y-297000000D02*
X435758810Y-297000000D01*
X435758810Y-297000000D02*
X438258810Y-299500000D01*
%TO.N,Net-(U10-NR)*%
X418149999Y-304859999D02*
X418290000Y-305000000D01*
X418149999Y-303375550D02*
X418149999Y-304859999D01*
%TO.N,/ENABLE*%
X423918200Y-298449000D02*
X424469200Y-299000000D01*
X424679200Y-301500000D02*
X424679200Y-300710000D01*
X424469200Y-300500000D02*
X424469200Y-299000000D01*
X422520200Y-298449000D02*
X423918200Y-298449000D01*
X421469200Y-299500000D02*
X422520200Y-298449000D01*
X421469200Y-300500000D02*
X421469200Y-299500000D01*
X424679200Y-300710000D02*
X424469200Y-300500000D01*
%TO.N,/IOVDD*%
X417500000Y-304340000D02*
X416840000Y-305000000D01*
X417616000Y-305776000D02*
X416840000Y-305000000D01*
X418739110Y-305776000D02*
X417616000Y-305776000D01*
X421469200Y-302150000D02*
X421793200Y-302474000D01*
X419041000Y-305474110D02*
X418739110Y-305776000D01*
X422268200Y-302474000D02*
X423019200Y-303225000D01*
X424218846Y-303000000D02*
X424679200Y-303000000D01*
X417500000Y-303375550D02*
X417500000Y-304340000D01*
X421793200Y-302474000D02*
X422268200Y-302474000D01*
D29*
X421469200Y-302150000D02*
X421469200Y-303000000D01*
D31*
X420243650Y-303375550D02*
X418800000Y-303375550D01*
X421469200Y-302150000D02*
X420243650Y-303375550D01*
X423993846Y-303225000D02*
X424218846Y-303000000D01*
X418800000Y-303375550D02*
X419041000Y-303616550D01*
X423019200Y-303225000D02*
X423993846Y-303225000D01*
X419041000Y-303616550D02*
X419041000Y-305474110D01*
%TO.N,/DVDD*%
X745461625Y-297999999D02*
X745461625Y-297038375D01*
D30*
X418579200Y-296579200D02*
X417390000Y-296579200D01*
D31*
X320500000Y-297000000D02*
X320511625Y-297011625D01*
X575500000Y-297000000D02*
X575461625Y-297038375D01*
X320200000Y-302350000D02*
X320200000Y-300650000D01*
X320511625Y-298000000D02*
X320511625Y-297011625D01*
X417390000Y-297000000D02*
X417390000Y-296579200D01*
X745500000Y-300350000D02*
X745500000Y-298038374D01*
D30*
X418750000Y-296750000D02*
X418579200Y-296579200D01*
D29*
X417390000Y-297000000D02*
X417979110Y-297000000D01*
D31*
X575461625Y-300388375D02*
X575461625Y-297999999D01*
X660200000Y-300300000D02*
X660461625Y-300038375D01*
X745200000Y-300650000D02*
X745500000Y-300350000D01*
X405500000Y-300350000D02*
X405500000Y-298000000D01*
X424036741Y-300932459D02*
X423469200Y-301500000D01*
X660461625Y-297999999D02*
X660461625Y-297038375D01*
X424679200Y-302000000D02*
X423519200Y-302000000D01*
X150511625Y-300338375D02*
X150200000Y-300650000D01*
D29*
X417500000Y-297030800D02*
X417500000Y-298624450D01*
D31*
X745500000Y-298038374D02*
X745461625Y-297999999D01*
D29*
X418800000Y-297820890D02*
X418800000Y-298624450D01*
D31*
X150200000Y-302350000D02*
X150200000Y-300650000D01*
X490461625Y-300038375D02*
X490461625Y-297999999D01*
X150500000Y-297000000D02*
X150511625Y-297011625D01*
X490200000Y-300650000D02*
X490200000Y-300300000D01*
X660200000Y-300650000D02*
X660200000Y-300300000D01*
X423519200Y-302000000D02*
X423019200Y-301500000D01*
D29*
X417979110Y-297000000D02*
X418800000Y-297820890D01*
D31*
X405200000Y-300650000D02*
X405500000Y-300350000D01*
X490200000Y-302350000D02*
X490200000Y-300650000D01*
X660200000Y-302350000D02*
X660200000Y-300650000D01*
X660500000Y-297000000D02*
X660461625Y-297038375D01*
X417469200Y-297000000D02*
X417500000Y-297030800D01*
X417390000Y-297000000D02*
X417469200Y-297000000D01*
X235500000Y-297000000D02*
X235511625Y-297011625D01*
X660461625Y-300038375D02*
X660461625Y-297999999D01*
X490461625Y-297999999D02*
X490461625Y-297000000D01*
X490200000Y-300300000D02*
X490461625Y-300038375D01*
X424053132Y-300932459D02*
X424036741Y-300932459D01*
X320200000Y-300200000D02*
X320511625Y-299888375D01*
X235511625Y-298000000D02*
X235511625Y-297011625D01*
X745500000Y-297000000D02*
X745461625Y-297038375D01*
X405500000Y-298000000D02*
X405500000Y-297000000D01*
X235511625Y-297999999D02*
X235511625Y-300338375D01*
X575461625Y-297999999D02*
X575461625Y-297038375D01*
X320511625Y-297999999D02*
X320511625Y-298000000D01*
X235511625Y-297999999D02*
X235511625Y-298000000D01*
X423469200Y-301500000D02*
X423019200Y-301500000D01*
X150511625Y-297999999D02*
X150511625Y-300338375D01*
X320200000Y-300650000D02*
X320200000Y-300200000D01*
X150511625Y-297999999D02*
X150511625Y-297011625D01*
X575200000Y-300650000D02*
X575461625Y-300388375D01*
X320511625Y-299888375D02*
X320511625Y-297999999D01*
X235511625Y-300338375D02*
X235200000Y-300650000D01*
%TO.N,GND*%
X405920000Y-301217926D02*
X406388926Y-300749000D01*
X424550000Y-297500000D02*
X425500000Y-297500000D01*
X414969200Y-304000000D02*
X415290000Y-304320800D01*
X236388926Y-300749000D02*
X237011074Y-300749000D01*
X407011074Y-300749000D02*
X407500000Y-301237926D01*
X747000000Y-298000000D02*
X748000000Y-298000000D01*
X745920000Y-301500000D02*
X745920000Y-301217926D01*
X661388926Y-300749000D02*
X662011074Y-300749000D01*
X322451000Y-301500000D02*
X323500000Y-301500000D01*
X425019200Y-300000000D02*
X424969200Y-300000000D01*
X322011074Y-300749000D02*
X322451000Y-301188926D01*
X419969200Y-305000000D02*
X420969200Y-304000000D01*
X492500000Y-301500000D02*
X493500000Y-301500000D01*
X421969200Y-304000000D02*
X422244200Y-304000000D01*
X152500000Y-301237926D02*
X152500000Y-301500000D01*
X425913800Y-302500000D02*
X426163800Y-302250000D01*
X492000001Y-297999999D02*
X492000000Y-298000000D01*
X662500000Y-301237926D02*
X662500000Y-301500000D01*
X577500000Y-301500000D02*
X578500000Y-301500000D01*
X662000001Y-297999999D02*
X662000000Y-298000000D01*
X321388926Y-300749000D02*
X322011074Y-300749000D01*
X235920000Y-301217926D02*
X236388926Y-300749000D01*
X425413800Y-300765400D02*
X425460200Y-300811800D01*
X492500000Y-301237926D02*
X492500000Y-301500000D01*
X575920000Y-301500000D02*
X575920000Y-301217926D01*
X747500000Y-301237926D02*
X747500000Y-301500000D01*
X577011074Y-300749000D02*
X577500000Y-301237926D01*
X425460200Y-301546400D02*
X426163800Y-302250000D01*
X575920000Y-301630000D02*
X575200000Y-302350000D01*
X575920000Y-301500000D02*
X575920000Y-301630000D01*
X407500000Y-301500000D02*
X408500000Y-301500000D01*
X237011074Y-300749000D02*
X237500000Y-301237926D01*
X406388926Y-300749000D02*
X407011074Y-300749000D01*
X237500000Y-301237926D02*
X237500000Y-301500000D01*
X405920000Y-301500000D02*
X405920000Y-301217926D01*
X235920000Y-301500000D02*
X235920000Y-301217926D01*
X745200000Y-302350000D02*
X745200000Y-302220000D01*
X577500000Y-301237926D02*
X577500000Y-301500000D01*
X152011074Y-300749000D02*
X152500000Y-301237926D01*
X323000000Y-298000000D02*
X322061625Y-297999999D01*
X492011625Y-297999999D02*
X492000001Y-297999999D01*
X747011625Y-297999999D02*
X747000001Y-297999999D01*
X745920000Y-301217926D02*
X746388926Y-300749000D01*
X235200000Y-302350000D02*
X235200000Y-302220000D01*
X235200000Y-302220000D02*
X235920000Y-301500000D01*
X492011074Y-300749000D02*
X492500000Y-301237926D01*
X415124450Y-302300000D02*
X413669200Y-302300000D01*
X413619199Y-300350001D02*
X415124450Y-300350001D01*
X575200000Y-303500000D02*
X575200000Y-302350000D01*
X415290000Y-304320800D02*
X415290000Y-305000000D01*
X419840000Y-305000000D02*
X419969200Y-305000000D01*
X320920000Y-301500000D02*
X320920000Y-301217926D01*
X745200000Y-303300000D02*
X745200000Y-302350000D01*
X575920000Y-301217926D02*
X576388926Y-300749000D01*
X493500000Y-301500000D02*
X493469669Y-301469669D01*
X152061625Y-297999999D02*
X153000000Y-298000000D01*
X425460200Y-300811800D02*
X425460200Y-301546400D01*
X235200000Y-303300000D02*
X235200000Y-302350000D01*
X425069200Y-300050000D02*
X425019200Y-300000000D01*
X662011074Y-300749000D02*
X662500000Y-301237926D01*
X576388926Y-300749000D02*
X577011074Y-300749000D01*
X405200000Y-302350000D02*
X405200000Y-302220000D01*
X237500000Y-301500000D02*
X238500000Y-301500000D01*
X407500000Y-301237926D02*
X407500000Y-301500000D01*
X746388926Y-300749000D02*
X747011074Y-300749000D01*
X405200000Y-303300000D02*
X405200000Y-302350000D01*
X747000001Y-297999999D02*
X747000000Y-298000000D01*
X747011074Y-300749000D02*
X747500000Y-301237926D01*
X423019200Y-299050000D02*
X423019200Y-299950000D01*
X492000000Y-298000000D02*
X493500000Y-298000000D01*
X662000000Y-298000000D02*
X663000000Y-298000000D01*
X320920000Y-301217926D02*
X321388926Y-300749000D01*
X238000000Y-298000000D02*
X237061625Y-297999999D01*
X662500000Y-301500000D02*
X663500000Y-301500000D01*
X424679200Y-302500000D02*
X425913800Y-302500000D01*
X491388926Y-300749000D02*
X492011074Y-300749000D01*
X660920000Y-301217926D02*
X661388926Y-300749000D01*
X414469200Y-297000000D02*
X415840000Y-297000000D01*
X747500000Y-301500000D02*
X748500000Y-301500000D01*
X490920000Y-301217926D02*
X491388926Y-300749000D01*
X150920000Y-301217926D02*
X151388926Y-300749000D01*
X745200000Y-302220000D02*
X745920000Y-301500000D01*
X490920000Y-301500000D02*
X490920000Y-301217926D01*
X408000000Y-298000000D02*
X407050000Y-298000000D01*
X422244200Y-304000000D02*
X423019200Y-304775000D01*
X151388926Y-300749000D02*
X152011074Y-300749000D01*
X405200000Y-302220000D02*
X405920000Y-301500000D01*
X660920000Y-301500000D02*
X660920000Y-301217926D01*
X425413800Y-300444600D02*
X425413800Y-300765400D01*
X322451000Y-301188926D02*
X322451000Y-301500000D01*
X150920000Y-301500000D02*
X150920000Y-301217926D01*
X424969200Y-300000000D02*
X425413800Y-300444600D01*
X662011625Y-297999999D02*
X662000001Y-297999999D01*
X152500000Y-301500000D02*
X153500000Y-301500000D01*
X577011625Y-297999999D02*
X578500000Y-298000000D01*
%TD*%
M02*
