M48
; DRILL file {KiCad 9.0.1-9.0.1-0~ubuntu22.04.1} date 2025-06-14T14:09:10+0200
; FORMAT={-:-/ absolute / inch / decimal}
; #@! TF.CreationDate,2025-06-14T14:09:10+02:00
; #@! TF.GenerationSoftware,Kicad,Pcbnew,9.0.1-9.0.1-0~ubuntu22.04.1
; #@! TF.FileFunction,Plated,1,4,PTH
FMAT,2
INCH
; #@! TA.AperFunction,Plated,PTH,ViaDrill
T1C0.0118
; #@! TA.AperFunction,Plated,PTH,ComponentDrill
T2C0.0394
%
G90
G05
T1
X5.8071Y-11.811
X9.1535Y-11.7913
X12.4946Y-11.7859
X15.8268Y-11.7913
X16.5933Y-11.9291
X16.7311Y-12.0669
X16.7939Y-11.8067
X16.8098Y-12.0276
X16.8406Y-11.8012
X16.8748Y-11.8317
X16.8821Y-11.8624
X16.8886Y-11.9094
X16.9094Y-11.9882
X16.9331Y-11.7087
X17.0669Y-12.0276
X19.1929Y-11.811
X22.5394Y-11.7913
X25.8858Y-11.811
X29.2323Y-11.7913
T2
X17.0543Y-11.7913
X17.0543Y-11.8913
X17.1543Y-11.7913
X17.1543Y-11.8913
X17.2543Y-11.7913
X17.2543Y-11.8913
X17.3543Y-11.7913
X17.3543Y-11.8913
X17.4543Y-11.7913
X17.4543Y-11.8913
X17.5543Y-11.7913
X17.5543Y-11.8913
X17.6543Y-11.7913
X17.6543Y-11.8913
X17.7543Y-11.7913
X17.7543Y-11.8913
X17.8543Y-11.7913
X17.8543Y-11.8913
X17.9543Y-11.7913
X17.9543Y-11.8913
X18.0543Y-11.7913
X18.0543Y-11.8913
X18.1543Y-11.7913
X18.1543Y-11.8913
X18.2543Y-11.7913
X18.2543Y-11.8913
X18.3543Y-11.7913
X18.3543Y-11.8913
X18.4543Y-11.7913
X18.4543Y-11.8913
X18.5543Y-11.7913
X18.5543Y-11.8913
X18.6543Y-11.7913
X18.6543Y-11.8913
X18.7543Y-11.7913
X18.7543Y-11.8913
X18.8543Y-11.7913
X18.8543Y-11.8913
X18.9543Y-11.7913
X18.9543Y-11.8913
M30
