%TF.GenerationSoftware,KiCad,Pcbnew,9.0.1-9.0.1-0~ubuntu22.04.1*%
%TF.CreationDate,2025-06-14T14:09:09+02:00*%
%TF.ProjectId,recorder,7265636f-7264-4657-922e-6b696361645f,rev?*%
%TF.SameCoordinates,Original*%
%TF.FileFunction,Soldermask,Top*%
%TF.FilePolarity,Negative*%
%FSLAX46Y46*%
G04 Gerber Fmt 4.6, Leading zero omitted, Abs format (unit mm)*
G04 Created by KiCad (PCBNEW 9.0.1-9.0.1-0~ubuntu22.04.1) date 2025-06-14 14:09:09*
%MOMM*%
%LPD*%
G01*
G04 APERTURE LIST*
G04 Aperture macros list*
%AMRoundRect*
0 Rectangle with rounded corners*
0 $1 Rounding radius*
0 $2 $3 $4 $5 $6 $7 $8 $9 X,Y pos of 4 corners*
0 Add a 4 corners polygon primitive as box body*
4,1,4,$2,$3,$4,$5,$6,$7,$8,$9,$2,$3,0*
0 Add four circle primitives for the rounded corners*
1,1,$1+$1,$2,$3*
1,1,$1+$1,$4,$5*
1,1,$1+$1,$6,$7*
1,1,$1+$1,$8,$9*
0 Add four rect primitives between the rounded corners*
20,1,$1+$1,$2,$3,$4,$5,0*
20,1,$1+$1,$4,$5,$6,$7,0*
20,1,$1+$1,$6,$7,$8,$9,0*
20,1,$1+$1,$8,$9,$2,$3,0*%
%AMFreePoly0*
4,1,92,0.117526,0.333263,0.309794,0.295018,0.328553,0.289328,0.509665,0.214309,0.526954,0.205068,0.689950,0.096157,0.705104,0.083721,0.843721,-0.054896,0.856157,-0.070050,0.965068,-0.233046,0.974309,-0.250335,1.049328,-0.431447,1.055018,-0.450206,1.093263,-0.642474,1.095185,-0.661983,1.095185,-0.858017,1.093263,-0.877526,1.055018,-1.069794,1.049328,-1.088553,0.974309,-1.269665,
0.965068,-1.286954,0.856157,-1.449950,0.843721,-1.465104,0.705104,-1.603721,0.689950,-1.616157,0.526954,-1.725068,0.509665,-1.734309,0.328553,-1.809328,0.309794,-1.815018,0.117526,-1.853263,0.098017,-1.855185,-0.098017,-1.855185,-0.117526,-1.853263,-0.309794,-1.815018,-0.328553,-1.809328,-0.509665,-1.734309,-0.526954,-1.725068,-0.689950,-1.616157,-0.705104,-1.603721,-0.843721,-1.465104,
-0.856157,-1.449950,-0.965068,-1.286954,-0.974309,-1.269665,-1.049328,-1.088553,-1.055018,-1.069794,-1.093263,-0.877526,-1.095185,-0.858017,-1.095185,-0.694175,-0.500000,-0.694175,-0.500000,-0.825824,-0.465924,-0.952995,-0.400101,-1.067003,-0.307003,-1.160101,-0.192995,-1.225924,-0.065824,-1.260000,0.065824,-1.260000,0.192995,-1.225924,0.307003,-1.160101,0.400101,-1.067003,0.465924,-0.952995,
0.500000,-0.825824,0.500000,-0.694175,0.465924,-0.567004,0.400101,-0.452996,0.307003,-0.359898,0.192995,-0.294075,0.065824,-0.260000,-0.065824,-0.260000,-0.192995,-0.294075,-0.307003,-0.359898,-0.400101,-0.452996,-0.465924,-0.567004,-0.500000,-0.694175,-1.095185,-0.694175,-1.095185,-0.661983,-1.093263,-0.642474,-1.055018,-0.450206,-1.049328,-0.431447,-0.974309,-0.250335,-0.965068,-0.233046,
-0.856157,-0.070050,-0.843721,-0.054896,-0.705104,0.083721,-0.689950,0.096157,-0.526954,0.205068,-0.509665,0.214309,-0.328553,0.289328,-0.309794,0.295018,-0.117526,0.333263,-0.098017,0.335185,0.098017,0.335185,0.117526,0.333263,0.117526,0.333263,$1*%
G04 Aperture macros list end*
%ADD10RoundRect,0.225000X-0.225000X-0.250000X0.225000X-0.250000X0.225000X0.250000X-0.225000X0.250000X0*%
%ADD11FreePoly0,90.000000*%
%ADD12RoundRect,0.090000X0.210000X-0.360000X0.210000X0.360000X-0.210000X0.360000X-0.210000X-0.360000X0*%
%ADD13RoundRect,0.200000X0.200000X0.275000X-0.200000X0.275000X-0.200000X-0.275000X0.200000X-0.275000X0*%
%ADD14RoundRect,0.225000X0.250000X-0.225000X0.250000X0.225000X-0.250000X0.225000X-0.250000X-0.225000X0*%
%ADD15R,3.149999X3.149999*%
%ADD16R,1.207120X0.315831*%
%ADD17R,0.315831X1.207120*%
%ADD18RoundRect,0.200000X-0.275000X0.200000X-0.275000X-0.200000X0.275000X-0.200000X0.275000X0.200000X0*%
%ADD19RoundRect,0.225000X0.225000X0.250000X-0.225000X0.250000X-0.225000X-0.250000X0.225000X-0.250000X0*%
%ADD20RoundRect,0.225000X-0.250000X0.225000X-0.250000X-0.225000X0.250000X-0.225000X0.250000X0.225000X0*%
%ADD21R,1.750000X1.750000*%
%ADD22O,0.960000X0.264000*%
%ADD23O,0.264000X0.960000*%
%ADD24RoundRect,0.200000X-0.200000X-0.275000X0.200000X-0.275000X0.200000X0.275000X-0.200000X0.275000X0*%
%ADD25O,1.700000X1.700000*%
%ADD26R,1.700000X1.700000*%
%ADD27RoundRect,0.200000X0.275000X-0.200000X0.275000X0.200000X-0.275000X0.200000X-0.275000X-0.200000X0*%
G04 APERTURE END LIST*
D10*
%TO.C,C3*%
X322061625Y-297999999D03*
X320511625Y-297999999D03*
%TD*%
%TO.C,C7*%
X662011625Y-297999999D03*
X660461625Y-297999999D03*
%TD*%
%TO.C,C1*%
X152061625Y-297999999D03*
X150511625Y-297999999D03*
%TD*%
%TO.C,C6*%
X577011625Y-297999999D03*
X575461625Y-297999999D03*
%TD*%
D11*
%TO.C,U3*%
X235920000Y-301500000D03*
D12*
X235200000Y-302350000D03*
X234500000Y-302350000D03*
X235200000Y-300650000D03*
X234500000Y-300650000D03*
%TD*%
D10*
%TO.C,C8*%
X747011625Y-297999999D03*
X745461625Y-297999999D03*
%TD*%
D13*
%TO.C,R2*%
X232361625Y-297999999D03*
X234011625Y-297999999D03*
%TD*%
D14*
%TO.C,C9*%
X423019200Y-299950000D03*
X423019200Y-301500000D03*
%TD*%
D10*
%TO.C,C5*%
X492011625Y-297999999D03*
X490461625Y-297999999D03*
%TD*%
D11*
%TO.C,U6*%
X490920000Y-301500000D03*
D12*
X490200000Y-302350000D03*
X489500000Y-302350000D03*
X490200000Y-300650000D03*
X489500000Y-300650000D03*
%TD*%
D13*
%TO.C,R4*%
X402350000Y-298000000D03*
X404000000Y-298000000D03*
%TD*%
D11*
%TO.C,U9*%
X745920000Y-301500000D03*
D12*
X745200000Y-302350000D03*
X744500000Y-302350000D03*
X745200000Y-300650000D03*
X744500000Y-300650000D03*
%TD*%
D10*
%TO.C,C2*%
X237061625Y-297999999D03*
X235511625Y-297999999D03*
%TD*%
D15*
%TO.C,U10*%
X417500000Y-301000000D03*
D16*
X419875550Y-299700000D03*
X419875550Y-300350001D03*
X419875550Y-301000000D03*
X419875550Y-301650001D03*
X419875550Y-302300000D03*
D17*
X418800000Y-303375550D03*
X418149999Y-303375550D03*
X417500000Y-303375550D03*
X416849999Y-303375550D03*
X416200000Y-303375550D03*
D16*
X415124450Y-302300000D03*
X415124450Y-301650001D03*
X415124450Y-301000000D03*
X415124450Y-300350001D03*
X415124450Y-299700000D03*
D17*
X416200000Y-298624450D03*
X416849999Y-298624450D03*
X417500000Y-298624450D03*
X418149999Y-298624450D03*
X418800000Y-298624450D03*
%TD*%
D10*
%TO.C,C12*%
X419840000Y-305000000D03*
X418290000Y-305000000D03*
%TD*%
%TO.C,C4*%
X407050000Y-298000000D03*
X405500000Y-298000000D03*
%TD*%
D13*
%TO.C,R12*%
X419500000Y-308500000D03*
X421150000Y-308500000D03*
%TD*%
D18*
%TO.C,R9*%
X421469200Y-302150000D03*
X421469200Y-300500000D03*
%TD*%
D11*
%TO.C,U1*%
X150920000Y-301500000D03*
D12*
X150200000Y-302350000D03*
X149500000Y-302350000D03*
X150200000Y-300650000D03*
X149500000Y-300650000D03*
%TD*%
D11*
%TO.C,U8*%
X660920000Y-301500000D03*
D12*
X660200000Y-302350000D03*
X659500000Y-302350000D03*
X660200000Y-300650000D03*
X659500000Y-300650000D03*
%TD*%
D13*
%TO.C,R1*%
X147350000Y-298000000D03*
X149000000Y-298000000D03*
%TD*%
%TO.C,R7*%
X657350000Y-297999999D03*
X659000000Y-297999999D03*
%TD*%
D19*
%TO.C,C14*%
X415290000Y-305000000D03*
X416840000Y-305000000D03*
%TD*%
D20*
%TO.C,C10*%
X423019200Y-304775000D03*
X423019200Y-303225000D03*
%TD*%
D21*
%TO.C,U2*%
X426163800Y-302250000D03*
D22*
X424679200Y-303000000D03*
X424679200Y-302500000D03*
X424679200Y-302000000D03*
X424679200Y-301500000D03*
D23*
X425413800Y-300765400D03*
X425913800Y-300765400D03*
X426413800Y-300765400D03*
X426913800Y-300765400D03*
D22*
X427648400Y-301500000D03*
X427648400Y-302000000D03*
X427648400Y-302500000D03*
X427648400Y-303000000D03*
D23*
X426913800Y-303734600D03*
X426413800Y-303734600D03*
X425913800Y-303734600D03*
X425413800Y-303734600D03*
%TD*%
D13*
%TO.C,R5*%
X487361625Y-297999999D03*
X489011625Y-297999999D03*
%TD*%
%TO.C,R3*%
X317361625Y-297999999D03*
X319011625Y-297999999D03*
%TD*%
D24*
%TO.C,R13*%
X432650000Y-310000000D03*
X431000000Y-310000000D03*
%TD*%
D13*
%TO.C,R8*%
X742361625Y-297999999D03*
X744011625Y-297999999D03*
%TD*%
%TO.C,R6*%
X572350000Y-297999999D03*
X574000000Y-297999999D03*
%TD*%
D25*
%TO.C,J1*%
X433178810Y-302040000D03*
X433178810Y-299500000D03*
X435718810Y-302040000D03*
X435718810Y-299500000D03*
X438258810Y-302040000D03*
X438258810Y-299500000D03*
X440798810Y-302040000D03*
X440798810Y-299500000D03*
X443338810Y-302040000D03*
X443338810Y-299500000D03*
X445878810Y-302040000D03*
X445878810Y-299500000D03*
X448418810Y-302040000D03*
X448418810Y-299500000D03*
X450958810Y-302040000D03*
X450958810Y-299500000D03*
X453498810Y-302040000D03*
X453498810Y-299500000D03*
X456038810Y-302040000D03*
X456038810Y-299500000D03*
X458578810Y-302040000D03*
X458578810Y-299500000D03*
X461118810Y-302040000D03*
X461118810Y-299500000D03*
X463658810Y-302040000D03*
X463658810Y-299500000D03*
X466198810Y-302040000D03*
X466198810Y-299500000D03*
X468738810Y-302040000D03*
X468738810Y-299500000D03*
X471278810Y-302040000D03*
X471278810Y-299500000D03*
X473818810Y-302040000D03*
X473818810Y-299500000D03*
X476358810Y-302040000D03*
X476358810Y-299500000D03*
X478898810Y-302040000D03*
X478898810Y-299500000D03*
X481438810Y-302040000D03*
D26*
X481438810Y-299500000D03*
%TD*%
D11*
%TO.C,U4*%
X320920000Y-301500000D03*
D12*
X320200000Y-302350000D03*
X319500000Y-302350000D03*
X320200000Y-300650000D03*
X319500000Y-300650000D03*
%TD*%
D14*
%TO.C,C11*%
X424500000Y-297500000D03*
X424500000Y-299050000D03*
%TD*%
D11*
%TO.C,U5*%
X405920000Y-301500000D03*
D12*
X405200000Y-302350000D03*
X404500000Y-302350000D03*
X405200000Y-300650000D03*
X404500000Y-300650000D03*
%TD*%
D11*
%TO.C,U7*%
X575920000Y-301500000D03*
D12*
X575200000Y-302350000D03*
X574500000Y-302350000D03*
X575200000Y-300650000D03*
X574500000Y-300650000D03*
%TD*%
D27*
%TO.C,R14*%
X430500000Y-301000000D03*
X430500000Y-302650000D03*
%TD*%
D19*
%TO.C,C13*%
X415840000Y-297000000D03*
X417390000Y-297000000D03*
%TD*%
M02*
