%TF.GenerationSoftware,KiCad,Pcbnew,9.0.1-9.0.1-0~ubuntu22.04.1*%
%TF.CreationDate,2025-06-14T14:29:27+02:00*%
%TF.ProjectId,recorder,7265636f-7264-4657-922e-6b696361645f,rev?*%
%TF.SameCoordinates,Original*%
%TF.FileFunction,Copper,L3,Inr*%
%TF.FilePolarity,Positive*%
%FSLAX46Y46*%
G04 Gerber Fmt 4.6, Leading zero omitted, Abs format (unit mm)*
G04 Created by KiCad (PCBNEW 9.0.1-9.0.1-0~ubuntu22.04.1) date 2025-06-14 14:29:27*
%MOMM*%
%LPD*%
G01*
G04 APERTURE LIST*
%TA.AperFunction,ComponentPad*%
%ADD10R,1.700000X1.700000*%
%TD*%
%TA.AperFunction,ComponentPad*%
%ADD11O,1.700000X1.700000*%
%TD*%
%TA.AperFunction,ViaPad*%
%ADD12C,0.600000*%
%TD*%
G04 APERTURE END LIST*
D10*
%TO.N,/IOVDD*%
%TO.C,J1*%
X336438810Y15500000D03*
D11*
%TO.N,unconnected-(J1-5V-Pad2)*%
X336438810Y12960000D03*
%TO.N,unconnected-(J1-I2C1_SDA-Pad3)*%
X333898810Y15500000D03*
%TO.N,unconnected-(J1-5V-Pad4)*%
X333898810Y12960000D03*
%TO.N,unconnected-(J1-I2C1_SCL-Pad5)*%
X331358810Y15500000D03*
%TO.N,GND*%
X331358810Y12960000D03*
%TO.N,unconnected-(J1-GPIO09-Pad7)*%
X328818810Y15500000D03*
%TO.N,unconnected-(J1-UART1_TXD-Pad8)*%
X328818810Y12960000D03*
%TO.N,unconnected-(J1-GND-Pad9)*%
X326278810Y15500000D03*
%TO.N,unconnected-(J1-UART1_RXD-Pad10)*%
X326278810Y12960000D03*
%TO.N,unconnected-(J1-UART_RTS-Pad11)*%
X323738810Y15500000D03*
%TO.N,/SCLK*%
X323738810Y12960000D03*
%TO.N,unconnected-(J1-SPI1_SCK-Pad13)*%
X321198810Y15500000D03*
%TO.N,unconnected-(J1-GND-Pad14)*%
X321198810Y12960000D03*
%TO.N,unconnected-(J1-GPIO12-Pad15)*%
X318658810Y15500000D03*
%TO.N,unconnected-(J1-SPI1_CS1-Pad16)*%
X318658810Y12960000D03*
%TO.N,unconnected-(J1-3V3-Pad17)*%
X316118810Y15500000D03*
%TO.N,unconnected-(J1-SPI1_CS0-Pad18)*%
X316118810Y12960000D03*
%TO.N,unconnected-(J1-SPI0_MOSI-Pad19)*%
X313578810Y15500000D03*
%TO.N,unconnected-(J1-GND-Pad20)*%
X313578810Y12960000D03*
%TO.N,unconnected-(J1-SPI_MISO-Pad21)*%
X311038810Y15500000D03*
%TO.N,unconnected-(J1-SPI1_MISO-Pad22)*%
X311038810Y12960000D03*
%TO.N,unconnected-(J1-SPI0_SCK-Pad23)*%
X308498810Y15500000D03*
%TO.N,unconnected-(J1-SPI0_CS0-Pad24)*%
X308498810Y12960000D03*
%TO.N,unconnected-(J1-GND-Pad25)*%
X305958810Y15500000D03*
%TO.N,unconnected-(J1-SPI0_CS1-Pad26)*%
X305958810Y12960000D03*
%TO.N,/SDA*%
X303418810Y15500000D03*
%TO.N,/SCL*%
X303418810Y12960000D03*
%TO.N,unconnected-(J1-GPIO01-Pad29)*%
X300878810Y15500000D03*
%TO.N,unconnected-(J1-GND-Pad30)*%
X300878810Y12960000D03*
%TO.N,unconnected-(J1-GPIO11-Pad31)*%
X298338810Y15500000D03*
%TO.N,unconnected-(J1-GPIO07-Pad32)*%
X298338810Y12960000D03*
%TO.N,unconnected-(J1-GPIO13-Pad33)*%
X295798810Y15500000D03*
%TO.N,unconnected-(J1-GND-Pad34)*%
X295798810Y12960000D03*
%TO.N,/FS*%
X293258810Y15500000D03*
%TO.N,unconnected-(J1-UART1_CTS-Pad36)*%
X293258810Y12960000D03*
%TO.N,unconnected-(J1-SPI1_MOSI-Pad37)*%
X290718810Y15500000D03*
%TO.N,/DIN*%
X290718810Y12960000D03*
%TO.N,unconnected-(J1-GND-Pad39)*%
X288178810Y15500000D03*
%TO.N,unconnected-(J1-I2S0_DOUT-Pad40)*%
X288178810Y12960000D03*
%TD*%
D12*
%TO.N,/DVDD*%
X90511625Y17988375D03*
X5511625Y17988375D03*
X515461625Y17961625D03*
X175511625Y17988375D03*
X600461625Y17961625D03*
X279053132Y14067541D03*
X273750000Y18250000D03*
X430461625Y17961625D03*
X345461625Y18000000D03*
X260500000Y18000000D03*
%TO.N,/IOVDD*%
X276469200Y12000000D03*
%TO.N,/FS*%
X285100000Y17600000D03*
X282750000Y15250000D03*
%TO.N,/SCL*%
X283804377Y13695623D03*
%TO.N,/SDA*%
X283618796Y14473803D03*
%TO.N,/SCLK*%
X281563800Y15108835D03*
X284500000Y10500000D03*
%TO.N,/DAT0*%
X2500000Y15000000D03*
X279969200Y8500000D03*
X87500000Y15500000D03*
%TO.N,/DAT1*%
X281969200Y9500000D03*
X172361625Y15638375D03*
X257000000Y15500000D03*
%TO.N,/DAT2*%
X288500000Y9500000D03*
X427500000Y15500000D03*
X342500000Y15000000D03*
%TO.N,/DAT3*%
X283969200Y12500000D03*
X512500000Y15000000D03*
X597500000Y15500000D03*
%TD*%
%TA.AperFunction,Conductor*%
%TO.N,/DVDD*%
G36*
X600002702Y19499383D02*
G01*
X600386771Y19482614D01*
X600397506Y19481674D01*
X600775971Y19431848D01*
X600786597Y19429975D01*
X601159284Y19347352D01*
X601169710Y19344558D01*
X601533765Y19229773D01*
X601543911Y19226080D01*
X601896578Y19080000D01*
X601906369Y19075434D01*
X602244942Y18899184D01*
X602254310Y18893776D01*
X602576244Y18688682D01*
X602585105Y18682477D01*
X602887930Y18450111D01*
X602896217Y18443157D01*
X603177635Y18185285D01*
X603185284Y18177636D01*
X603443156Y17896218D01*
X603450110Y17887931D01*
X603682476Y17585106D01*
X603688681Y17576245D01*
X603893775Y17254311D01*
X603899183Y17244943D01*
X604075430Y16906377D01*
X604080002Y16896573D01*
X604226075Y16543922D01*
X604229775Y16533756D01*
X604344554Y16169722D01*
X604347354Y16159273D01*
X604429971Y15786611D01*
X604431849Y15775958D01*
X604481671Y15397527D01*
X604482614Y15386751D01*
X604499382Y15002703D01*
X604499500Y14997294D01*
X604499500Y5002707D01*
X604499382Y4997298D01*
X604482614Y4613250D01*
X604481671Y4602474D01*
X604431849Y4224043D01*
X604429971Y4213390D01*
X604347354Y3840728D01*
X604344554Y3830279D01*
X604229775Y3466245D01*
X604226075Y3456079D01*
X604080002Y3103428D01*
X604075430Y3093624D01*
X603899183Y2755058D01*
X603893775Y2745690D01*
X603688681Y2423756D01*
X603682476Y2414895D01*
X603450110Y2112070D01*
X603443156Y2103783D01*
X603185284Y1822365D01*
X603177635Y1814716D01*
X602896217Y1556844D01*
X602887930Y1549890D01*
X602585105Y1317524D01*
X602576244Y1311319D01*
X602254310Y1106225D01*
X602244942Y1100817D01*
X601906376Y924570D01*
X601896572Y919998D01*
X601543921Y773925D01*
X601533755Y770225D01*
X601169721Y655446D01*
X601159272Y652646D01*
X600786610Y570029D01*
X600775957Y568151D01*
X600397526Y518329D01*
X600386750Y517386D01*
X600002703Y500618D01*
X599997294Y500500D01*
X5002706Y500500D01*
X4997297Y500618D01*
X4613249Y517386D01*
X4602473Y518329D01*
X4224042Y568151D01*
X4213389Y570029D01*
X3840727Y652646D01*
X3830278Y655446D01*
X3466244Y770225D01*
X3456078Y773925D01*
X3103427Y919998D01*
X3093623Y924570D01*
X2755057Y1100817D01*
X2745689Y1106225D01*
X2423755Y1311319D01*
X2414894Y1317524D01*
X2112069Y1549890D01*
X2103782Y1556844D01*
X1822364Y1814716D01*
X1814715Y1822365D01*
X1556843Y2103783D01*
X1549889Y2112070D01*
X1317523Y2414895D01*
X1311318Y2423756D01*
X1106224Y2745690D01*
X1100816Y2755058D01*
X924566Y3093631D01*
X919997Y3103428D01*
X918813Y3106287D01*
X271149500Y3106287D01*
X271149500Y2893714D01*
X271172944Y2745690D01*
X271182754Y2683757D01*
X271215773Y2582134D01*
X271248444Y2481586D01*
X271344951Y2292180D01*
X271469890Y2120214D01*
X271620213Y1969891D01*
X271792179Y1844952D01*
X271792181Y1844951D01*
X271792184Y1844949D01*
X271981588Y1748443D01*
X272183757Y1682754D01*
X272393713Y1649500D01*
X272393714Y1649500D01*
X272606286Y1649500D01*
X272606287Y1649500D01*
X272816243Y1682754D01*
X273018412Y1748443D01*
X273207816Y1844949D01*
X273229789Y1860914D01*
X273379786Y1969891D01*
X273379788Y1969894D01*
X273379792Y1969896D01*
X273530104Y2120208D01*
X273530106Y2120212D01*
X273530109Y2120214D01*
X273655048Y2292180D01*
X273655047Y2292180D01*
X273655051Y2292184D01*
X273751557Y2481588D01*
X273817246Y2683757D01*
X273850500Y2893713D01*
X273850500Y3106287D01*
X334149500Y3106287D01*
X334149500Y2893714D01*
X334172944Y2745690D01*
X334182754Y2683757D01*
X334215773Y2582134D01*
X334248444Y2481586D01*
X334344951Y2292180D01*
X334469890Y2120214D01*
X334620213Y1969891D01*
X334792179Y1844952D01*
X334792181Y1844951D01*
X334792184Y1844949D01*
X334981588Y1748443D01*
X335183757Y1682754D01*
X335393713Y1649500D01*
X335393714Y1649500D01*
X335606286Y1649500D01*
X335606287Y1649500D01*
X335816243Y1682754D01*
X336018412Y1748443D01*
X336207816Y1844949D01*
X336229789Y1860914D01*
X336379786Y1969891D01*
X336379788Y1969894D01*
X336379792Y1969896D01*
X336530104Y2120208D01*
X336530106Y2120212D01*
X336530109Y2120214D01*
X336655048Y2292180D01*
X336655047Y2292180D01*
X336655051Y2292184D01*
X336751557Y2481588D01*
X336817246Y2683757D01*
X336850500Y2893713D01*
X336850500Y3106287D01*
X336817246Y3316243D01*
X336751557Y3518412D01*
X336655051Y3707816D01*
X336655049Y3707819D01*
X336655048Y3707821D01*
X336530109Y3879787D01*
X336379786Y4030110D01*
X336207820Y4155049D01*
X336018414Y4251556D01*
X336018413Y4251557D01*
X336018412Y4251557D01*
X335816243Y4317246D01*
X335816241Y4317247D01*
X335816240Y4317247D01*
X335654957Y4342792D01*
X335606287Y4350500D01*
X335393713Y4350500D01*
X335345042Y4342792D01*
X335183760Y4317247D01*
X334981585Y4251556D01*
X334792179Y4155049D01*
X334620213Y4030110D01*
X334469890Y3879787D01*
X334344951Y3707821D01*
X334248444Y3518415D01*
X334182753Y3316240D01*
X334149500Y3106287D01*
X273850500Y3106287D01*
X273817246Y3316243D01*
X273751557Y3518412D01*
X273655051Y3707816D01*
X273655049Y3707819D01*
X273655048Y3707821D01*
X273530109Y3879787D01*
X273379786Y4030110D01*
X273207820Y4155049D01*
X273018414Y4251556D01*
X273018413Y4251557D01*
X273018412Y4251557D01*
X272816243Y4317246D01*
X272816241Y4317247D01*
X272816240Y4317247D01*
X272654957Y4342792D01*
X272606287Y4350500D01*
X272393713Y4350500D01*
X272345042Y4342792D01*
X272183760Y4317247D01*
X271981585Y4251556D01*
X271792179Y4155049D01*
X271620213Y4030110D01*
X271469890Y3879787D01*
X271344951Y3707821D01*
X271248444Y3518415D01*
X271182753Y3316240D01*
X271149500Y3106287D01*
X918813Y3106287D01*
X773920Y3456089D01*
X770224Y3466245D01*
X753775Y3518415D01*
X655442Y3830290D01*
X652648Y3840716D01*
X570025Y4213403D01*
X568152Y4224029D01*
X518326Y4602494D01*
X517386Y4613229D01*
X500618Y4997298D01*
X500500Y5002707D01*
X500500Y7606287D01*
X289527824Y7606287D01*
X289527824Y7393714D01*
X289561077Y7183761D01*
X289626768Y6981586D01*
X289723275Y6792180D01*
X289848214Y6620214D01*
X289998537Y6469891D01*
X290170503Y6344952D01*
X290170505Y6344951D01*
X290170508Y6344949D01*
X290359912Y6248443D01*
X290562081Y6182754D01*
X290772037Y6149500D01*
X290772038Y6149500D01*
X290984610Y6149500D01*
X290984611Y6149500D01*
X291194567Y6182754D01*
X291396736Y6248443D01*
X291586140Y6344949D01*
X291608113Y6360914D01*
X291758110Y6469891D01*
X291758112Y6469894D01*
X291758116Y6469896D01*
X291908428Y6620208D01*
X291908430Y6620212D01*
X291908433Y6620214D01*
X292033372Y6792180D01*
X292033371Y6792180D01*
X292033375Y6792184D01*
X292129881Y6981588D01*
X292195570Y7183757D01*
X292228824Y7393713D01*
X292228824Y7606287D01*
X315775951Y7606287D01*
X315775951Y7393714D01*
X315809204Y7183761D01*
X315874895Y6981586D01*
X315971402Y6792180D01*
X316096341Y6620214D01*
X316246664Y6469891D01*
X316418630Y6344952D01*
X316418632Y6344951D01*
X316418635Y6344949D01*
X316608039Y6248443D01*
X316810208Y6182754D01*
X317020164Y6149500D01*
X317020165Y6149500D01*
X317232737Y6149500D01*
X317232738Y6149500D01*
X317442694Y6182754D01*
X317644863Y6248443D01*
X317834267Y6344949D01*
X317856240Y6360914D01*
X318006237Y6469891D01*
X318006239Y6469894D01*
X318006243Y6469896D01*
X318156555Y6620208D01*
X318156557Y6620212D01*
X318156560Y6620214D01*
X318281499Y6792180D01*
X318281498Y6792180D01*
X318281502Y6792184D01*
X318378008Y6981588D01*
X318443697Y7183757D01*
X318476951Y7393713D01*
X318476951Y7606287D01*
X318443697Y7816243D01*
X318378008Y8018412D01*
X318281502Y8207816D01*
X318281500Y8207819D01*
X318281499Y8207821D01*
X318156560Y8379787D01*
X318006237Y8530110D01*
X317834271Y8655049D01*
X317644865Y8751556D01*
X317644864Y8751557D01*
X317644863Y8751557D01*
X317442694Y8817246D01*
X317442692Y8817247D01*
X317442691Y8817247D01*
X317281408Y8842792D01*
X317232738Y8850500D01*
X317020164Y8850500D01*
X316971493Y8842792D01*
X316810211Y8817247D01*
X316608036Y8751556D01*
X316418630Y8655049D01*
X316246664Y8530110D01*
X316096341Y8379787D01*
X315971402Y8207821D01*
X315874895Y8018415D01*
X315809204Y7816240D01*
X315775951Y7606287D01*
X292228824Y7606287D01*
X292195570Y7816243D01*
X292129881Y8018412D01*
X292033375Y8207816D01*
X292033373Y8207819D01*
X292033372Y8207821D01*
X291908433Y8379787D01*
X291758110Y8530110D01*
X291586144Y8655049D01*
X291396738Y8751556D01*
X291396737Y8751557D01*
X291396736Y8751557D01*
X291194567Y8817246D01*
X291194565Y8817247D01*
X291194564Y8817247D01*
X291033281Y8842792D01*
X290984611Y8850500D01*
X290772037Y8850500D01*
X290723366Y8842792D01*
X290562084Y8817247D01*
X290359909Y8751556D01*
X290170503Y8655049D01*
X289998537Y8530110D01*
X289848214Y8379787D01*
X289723275Y8207821D01*
X289626768Y8018415D01*
X289561077Y7816240D01*
X289527824Y7606287D01*
X500500Y7606287D01*
X500500Y8578847D01*
X279168700Y8578847D01*
X279168700Y8421154D01*
X279199461Y8266511D01*
X279199464Y8266499D01*
X279259802Y8120828D01*
X279259809Y8120815D01*
X279347410Y7989712D01*
X279347413Y7989708D01*
X279458907Y7878214D01*
X279458911Y7878211D01*
X279590014Y7790610D01*
X279590027Y7790603D01*
X279735698Y7730265D01*
X279735703Y7730263D01*
X279890353Y7699501D01*
X279890356Y7699500D01*
X279890358Y7699500D01*
X280048044Y7699500D01*
X280048045Y7699501D01*
X280100056Y7709847D01*
X280202694Y7730262D01*
X280202697Y7730263D01*
X280348372Y7790603D01*
X280348372Y7790604D01*
X280348379Y7790606D01*
X280479489Y7878211D01*
X280590989Y7989711D01*
X280678594Y8120821D01*
X280738937Y8266503D01*
X280769700Y8421158D01*
X280769700Y8578842D01*
X280769700Y8578845D01*
X280769699Y8578847D01*
X280738938Y8733490D01*
X280738937Y8733497D01*
X280715280Y8790610D01*
X280678597Y8879173D01*
X280678590Y8879186D01*
X280590989Y9010289D01*
X280590986Y9010293D01*
X280479492Y9121787D01*
X280479488Y9121790D01*
X280348385Y9209391D01*
X280348372Y9209398D01*
X280202701Y9269736D01*
X280202689Y9269739D01*
X280048045Y9300500D01*
X280048042Y9300500D01*
X279890358Y9300500D01*
X279890355Y9300500D01*
X279735710Y9269739D01*
X279735698Y9269736D01*
X279590027Y9209398D01*
X279590014Y9209391D01*
X279458911Y9121790D01*
X279458907Y9121787D01*
X279347413Y9010293D01*
X279347410Y9010289D01*
X279259809Y8879186D01*
X279259802Y8879173D01*
X279199464Y8733502D01*
X279199461Y8733490D01*
X279168700Y8578847D01*
X500500Y8578847D01*
X500500Y9578847D01*
X281168700Y9578847D01*
X281168700Y9421154D01*
X281199461Y9266511D01*
X281199464Y9266499D01*
X281259802Y9120828D01*
X281259809Y9120815D01*
X281347410Y8989712D01*
X281347413Y8989708D01*
X281458907Y8878214D01*
X281458911Y8878211D01*
X281590014Y8790610D01*
X281590027Y8790603D01*
X281727883Y8733502D01*
X281735703Y8730263D01*
X281890353Y8699501D01*
X281890356Y8699500D01*
X281890358Y8699500D01*
X282048044Y8699500D01*
X282048045Y8699501D01*
X282202697Y8730263D01*
X282348379Y8790606D01*
X282479489Y8878211D01*
X282590989Y8989711D01*
X282678594Y9120821D01*
X282738937Y9266503D01*
X282769700Y9421158D01*
X282769700Y9578842D01*
X282769700Y9578845D01*
X282769699Y9578847D01*
X287699500Y9578847D01*
X287699500Y9421154D01*
X287730261Y9266511D01*
X287730264Y9266499D01*
X287790602Y9120828D01*
X287790609Y9120815D01*
X287878210Y8989712D01*
X287878213Y8989708D01*
X287989707Y8878214D01*
X287989711Y8878211D01*
X288120814Y8790610D01*
X288120827Y8790603D01*
X288258683Y8733502D01*
X288266503Y8730263D01*
X288421153Y8699501D01*
X288421156Y8699500D01*
X288421158Y8699500D01*
X288578844Y8699500D01*
X288578845Y8699501D01*
X288733497Y8730263D01*
X288879179Y8790606D01*
X289010289Y8878211D01*
X289121789Y8989711D01*
X289209394Y9120821D01*
X289269737Y9266503D01*
X289300500Y9421158D01*
X289300500Y9578842D01*
X289300500Y9578845D01*
X289300499Y9578847D01*
X289269738Y9733490D01*
X289269737Y9733497D01*
X289209794Y9878214D01*
X289209397Y9879173D01*
X289209390Y9879186D01*
X289121789Y10010289D01*
X289121786Y10010293D01*
X289010292Y10121787D01*
X289010288Y10121790D01*
X288879185Y10209391D01*
X288879172Y10209398D01*
X288733501Y10269736D01*
X288733489Y10269739D01*
X288578845Y10300500D01*
X288578842Y10300500D01*
X288421158Y10300500D01*
X288421155Y10300500D01*
X288266510Y10269739D01*
X288266498Y10269736D01*
X288120827Y10209398D01*
X288120814Y10209391D01*
X287989711Y10121790D01*
X287989707Y10121787D01*
X287878213Y10010293D01*
X287878210Y10010289D01*
X287790609Y9879186D01*
X287790602Y9879173D01*
X287730264Y9733502D01*
X287730261Y9733490D01*
X287699500Y9578847D01*
X282769699Y9578847D01*
X282738938Y9733490D01*
X282738937Y9733497D01*
X282678994Y9878214D01*
X282678597Y9879173D01*
X282678590Y9879186D01*
X282590989Y10010289D01*
X282590986Y10010293D01*
X282479492Y10121787D01*
X282479488Y10121790D01*
X282348385Y10209391D01*
X282348372Y10209398D01*
X282202701Y10269736D01*
X282202689Y10269739D01*
X282048045Y10300500D01*
X282048042Y10300500D01*
X281890358Y10300500D01*
X281890355Y10300500D01*
X281735710Y10269739D01*
X281735698Y10269736D01*
X281590027Y10209398D01*
X281590014Y10209391D01*
X281458911Y10121790D01*
X281458907Y10121787D01*
X281347413Y10010293D01*
X281347410Y10010289D01*
X281259809Y9879186D01*
X281259802Y9879173D01*
X281199464Y9733502D01*
X281199461Y9733490D01*
X281168700Y9578847D01*
X500500Y9578847D01*
X500500Y10578847D01*
X283699500Y10578847D01*
X283699500Y10421154D01*
X283730261Y10266511D01*
X283730264Y10266499D01*
X283790602Y10120828D01*
X283790609Y10120815D01*
X283878210Y9989712D01*
X283878213Y9989708D01*
X283989707Y9878214D01*
X283989711Y9878211D01*
X284120814Y9790610D01*
X284120827Y9790603D01*
X284258683Y9733502D01*
X284266503Y9730263D01*
X284421153Y9699501D01*
X284421156Y9699500D01*
X284421158Y9699500D01*
X284578844Y9699500D01*
X284578845Y9699501D01*
X284589179Y9701557D01*
X284614287Y9706550D01*
X284614292Y9706551D01*
X284699800Y9723561D01*
X284733497Y9730263D01*
X284879179Y9790606D01*
X285010289Y9878211D01*
X285121789Y9989711D01*
X285209394Y10120821D01*
X285269737Y10266503D01*
X285300500Y10421158D01*
X285300500Y10578842D01*
X285300500Y10578845D01*
X285300499Y10578847D01*
X285269738Y10733490D01*
X285269737Y10733497D01*
X285269735Y10733502D01*
X285209397Y10879173D01*
X285209390Y10879186D01*
X285121789Y11010289D01*
X285121786Y11010293D01*
X285010292Y11121787D01*
X285010288Y11121790D01*
X284879185Y11209391D01*
X284879172Y11209398D01*
X284733501Y11269736D01*
X284733489Y11269739D01*
X284578845Y11300500D01*
X284578842Y11300500D01*
X284421158Y11300500D01*
X284421155Y11300500D01*
X284266510Y11269739D01*
X284266498Y11269736D01*
X284120827Y11209398D01*
X284120814Y11209391D01*
X283989711Y11121790D01*
X283989707Y11121787D01*
X283878213Y11010293D01*
X283878210Y11010289D01*
X283790609Y10879186D01*
X283790602Y10879173D01*
X283730264Y10733502D01*
X283730261Y10733490D01*
X283699500Y10578847D01*
X500500Y10578847D01*
X500500Y12078847D01*
X275668700Y12078847D01*
X275668700Y11921154D01*
X275699461Y11766511D01*
X275699464Y11766499D01*
X275759802Y11620828D01*
X275759809Y11620815D01*
X275847410Y11489712D01*
X275847413Y11489708D01*
X275958907Y11378214D01*
X275958911Y11378211D01*
X276090014Y11290610D01*
X276090027Y11290603D01*
X276235698Y11230265D01*
X276235703Y11230263D01*
X276390353Y11199501D01*
X276390356Y11199500D01*
X276390358Y11199500D01*
X276548044Y11199500D01*
X276548045Y11199501D01*
X276702697Y11230263D01*
X276848379Y11290606D01*
X276979489Y11378211D01*
X277090989Y11489711D01*
X277178594Y11620821D01*
X277238937Y11766503D01*
X277269700Y11921158D01*
X277269700Y12078842D01*
X277269700Y12078845D01*
X277269699Y12078847D01*
X277238938Y12233490D01*
X277238937Y12233497D01*
X277206528Y12311741D01*
X277178597Y12379173D01*
X277178590Y12379186D01*
X277090989Y12510289D01*
X277090986Y12510293D01*
X276979492Y12621787D01*
X276979488Y12621790D01*
X276848385Y12709391D01*
X276848372Y12709398D01*
X276702701Y12769736D01*
X276702689Y12769739D01*
X276548045Y12800500D01*
X276548042Y12800500D01*
X276390358Y12800500D01*
X276390355Y12800500D01*
X276235710Y12769739D01*
X276235698Y12769736D01*
X276090027Y12709398D01*
X276090014Y12709391D01*
X275958911Y12621790D01*
X275958907Y12621787D01*
X275847413Y12510293D01*
X275847410Y12510289D01*
X275759809Y12379186D01*
X275759802Y12379173D01*
X275699464Y12233502D01*
X275699461Y12233490D01*
X275668700Y12078847D01*
X500500Y12078847D01*
X500500Y13435929D01*
X6049499Y13435929D01*
X6074497Y13310262D01*
X6074499Y13310256D01*
X6123533Y13191876D01*
X6123538Y13191867D01*
X6194723Y13085332D01*
X6194726Y13085328D01*
X6285327Y12994727D01*
X6285331Y12994724D01*
X6391866Y12923539D01*
X6391872Y12923536D01*
X6391873Y12923535D01*
X6510256Y12874499D01*
X6510260Y12874499D01*
X6510261Y12874498D01*
X6635928Y12849500D01*
X6635931Y12849500D01*
X6764071Y12849500D01*
X6848615Y12866318D01*
X6889744Y12874499D01*
X7008127Y12923535D01*
X7114669Y12994724D01*
X7205276Y13085331D01*
X7276465Y13191873D01*
X7325501Y13310256D01*
X7333682Y13351385D01*
X7350500Y13435929D01*
X91049499Y13435929D01*
X91074497Y13310262D01*
X91074499Y13310256D01*
X91123533Y13191876D01*
X91123538Y13191867D01*
X91194723Y13085332D01*
X91194726Y13085328D01*
X91285327Y12994727D01*
X91285331Y12994724D01*
X91391866Y12923539D01*
X91391872Y12923536D01*
X91391873Y12923535D01*
X91510256Y12874499D01*
X91510260Y12874499D01*
X91510261Y12874498D01*
X91635928Y12849500D01*
X91635931Y12849500D01*
X91764071Y12849500D01*
X91848615Y12866318D01*
X91889744Y12874499D01*
X92008127Y12923535D01*
X92114669Y12994724D01*
X92205276Y13085331D01*
X92276465Y13191873D01*
X92325501Y13310256D01*
X92333682Y13351385D01*
X92350500Y13435929D01*
X176049499Y13435929D01*
X176074497Y13310262D01*
X176074499Y13310256D01*
X176123533Y13191876D01*
X176123538Y13191867D01*
X176194723Y13085332D01*
X176194726Y13085328D01*
X176285327Y12994727D01*
X176285331Y12994724D01*
X176391866Y12923539D01*
X176391872Y12923536D01*
X176391873Y12923535D01*
X176510256Y12874499D01*
X176510260Y12874499D01*
X176510261Y12874498D01*
X176635928Y12849500D01*
X176635931Y12849500D01*
X176764071Y12849500D01*
X176848615Y12866318D01*
X176889744Y12874499D01*
X177008127Y12923535D01*
X177114669Y12994724D01*
X177205276Y13085331D01*
X177276465Y13191873D01*
X177325501Y13310256D01*
X177333682Y13351385D01*
X177350500Y13435929D01*
X261049499Y13435929D01*
X261074497Y13310262D01*
X261074499Y13310256D01*
X261123533Y13191876D01*
X261123538Y13191867D01*
X261194723Y13085332D01*
X261194726Y13085328D01*
X261285327Y12994727D01*
X261285331Y12994724D01*
X261391866Y12923539D01*
X261391872Y12923536D01*
X261391873Y12923535D01*
X261510256Y12874499D01*
X261510260Y12874499D01*
X261510261Y12874498D01*
X261635928Y12849500D01*
X261635931Y12849500D01*
X261764071Y12849500D01*
X261848615Y12866318D01*
X261889744Y12874499D01*
X262008127Y12923535D01*
X262114669Y12994724D01*
X262205276Y13085331D01*
X262276465Y13191873D01*
X262325501Y13310256D01*
X262333682Y13351385D01*
X262350500Y13435929D01*
X262350500Y13564072D01*
X262325502Y13689739D01*
X262325501Y13689740D01*
X262325501Y13689744D01*
X262276465Y13808127D01*
X262276464Y13808128D01*
X262276461Y13808134D01*
X262205276Y13914669D01*
X262205273Y13914673D01*
X262114672Y14005274D01*
X262114668Y14005277D01*
X262008133Y14076462D01*
X262008124Y14076467D01*
X261889744Y14125501D01*
X261889738Y14125503D01*
X261764071Y14150500D01*
X261764069Y14150500D01*
X261635931Y14150500D01*
X261635929Y14150500D01*
X261510261Y14125503D01*
X261510255Y14125501D01*
X261391875Y14076467D01*
X261391866Y14076462D01*
X261285331Y14005277D01*
X261285327Y14005274D01*
X261194726Y13914673D01*
X261194723Y13914669D01*
X261123538Y13808134D01*
X261123533Y13808125D01*
X261074499Y13689745D01*
X261074497Y13689739D01*
X261049500Y13564072D01*
X261049500Y13564069D01*
X261049500Y13435931D01*
X261049500Y13435929D01*
X261049499Y13435929D01*
X177350500Y13435929D01*
X177350500Y13564072D01*
X177325502Y13689739D01*
X177325501Y13689740D01*
X177325501Y13689744D01*
X177276465Y13808127D01*
X177276464Y13808128D01*
X177276461Y13808134D01*
X177205276Y13914669D01*
X177205273Y13914673D01*
X177114672Y14005274D01*
X177114668Y14005277D01*
X177008133Y14076462D01*
X177008124Y14076467D01*
X176889744Y14125501D01*
X176889738Y14125503D01*
X176764071Y14150500D01*
X176764069Y14150500D01*
X176635931Y14150500D01*
X176635929Y14150500D01*
X176510261Y14125503D01*
X176510255Y14125501D01*
X176391875Y14076467D01*
X176391866Y14076462D01*
X176285331Y14005277D01*
X176285327Y14005274D01*
X176194726Y13914673D01*
X176194723Y13914669D01*
X176123538Y13808134D01*
X176123533Y13808125D01*
X176074499Y13689745D01*
X176074497Y13689739D01*
X176049500Y13564072D01*
X176049500Y13564069D01*
X176049500Y13435931D01*
X176049500Y13435929D01*
X176049499Y13435929D01*
X92350500Y13435929D01*
X92350500Y13564072D01*
X92325502Y13689739D01*
X92325501Y13689740D01*
X92325501Y13689744D01*
X92276465Y13808127D01*
X92276464Y13808128D01*
X92276461Y13808134D01*
X92205276Y13914669D01*
X92205273Y13914673D01*
X92114672Y14005274D01*
X92114668Y14005277D01*
X92008133Y14076462D01*
X92008124Y14076467D01*
X91889744Y14125501D01*
X91889738Y14125503D01*
X91764071Y14150500D01*
X91764069Y14150500D01*
X91635931Y14150500D01*
X91635929Y14150500D01*
X91510261Y14125503D01*
X91510255Y14125501D01*
X91391875Y14076467D01*
X91391866Y14076462D01*
X91285331Y14005277D01*
X91285327Y14005274D01*
X91194726Y13914673D01*
X91194723Y13914669D01*
X91123538Y13808134D01*
X91123533Y13808125D01*
X91074499Y13689745D01*
X91074497Y13689739D01*
X91049500Y13564072D01*
X91049500Y13564069D01*
X91049500Y13435931D01*
X91049500Y13435929D01*
X91049499Y13435929D01*
X7350500Y13435929D01*
X7350500Y13564072D01*
X7325502Y13689739D01*
X7325501Y13689740D01*
X7325501Y13689744D01*
X7276465Y13808127D01*
X7276464Y13808128D01*
X7276461Y13808134D01*
X7205276Y13914669D01*
X7205273Y13914673D01*
X7114672Y14005274D01*
X7114668Y14005277D01*
X7008133Y14076462D01*
X7008124Y14076467D01*
X6889744Y14125501D01*
X6889738Y14125503D01*
X6764071Y14150500D01*
X6764069Y14150500D01*
X6635931Y14150500D01*
X6635929Y14150500D01*
X6510261Y14125503D01*
X6510255Y14125501D01*
X6391875Y14076467D01*
X6391866Y14076462D01*
X6285331Y14005277D01*
X6285327Y14005274D01*
X6194726Y13914673D01*
X6194723Y13914669D01*
X6123538Y13808134D01*
X6123533Y13808125D01*
X6074499Y13689745D01*
X6074497Y13689739D01*
X6049500Y13564072D01*
X6049500Y13564069D01*
X6049500Y13435931D01*
X6049500Y13435929D01*
X6049499Y13435929D01*
X500500Y13435929D01*
X500500Y14997294D01*
X500618Y15002702D01*
X501809Y15029989D01*
X503942Y15078847D01*
X1699500Y15078847D01*
X1699500Y14921154D01*
X1730261Y14766511D01*
X1730264Y14766499D01*
X1790602Y14620828D01*
X1790609Y14620815D01*
X1878210Y14489712D01*
X1878213Y14489708D01*
X1989707Y14378214D01*
X1989711Y14378211D01*
X2120814Y14290610D01*
X2120827Y14290603D01*
X2254323Y14235308D01*
X2266503Y14230263D01*
X2363460Y14210977D01*
X2421153Y14199501D01*
X2421156Y14199500D01*
X2421158Y14199500D01*
X2578844Y14199500D01*
X2578845Y14199501D01*
X2733497Y14230263D01*
X2879179Y14290606D01*
X3010289Y14378211D01*
X3121789Y14489711D01*
X3209394Y14620821D01*
X3269737Y14766503D01*
X3300500Y14921158D01*
X3300500Y15078842D01*
X3300500Y15078845D01*
X3300499Y15078847D01*
X3279742Y15183197D01*
X3269737Y15233497D01*
X3266537Y15241222D01*
X3209397Y15379173D01*
X3209390Y15379186D01*
X3121790Y15510288D01*
X3121784Y15510295D01*
X3053232Y15578847D01*
X86699500Y15578847D01*
X86699500Y15421154D01*
X86730261Y15266511D01*
X86730264Y15266499D01*
X86790602Y15120828D01*
X86790609Y15120815D01*
X86878210Y14989712D01*
X86878213Y14989708D01*
X86989707Y14878214D01*
X86989711Y14878211D01*
X87120814Y14790610D01*
X87120827Y14790603D01*
X87266498Y14730265D01*
X87266503Y14730263D01*
X87421153Y14699501D01*
X87421156Y14699500D01*
X87421158Y14699500D01*
X87578844Y14699500D01*
X87578845Y14699501D01*
X87733497Y14730263D01*
X87879179Y14790606D01*
X88010289Y14878211D01*
X88121789Y14989711D01*
X88209394Y15120821D01*
X88269737Y15266503D01*
X88300500Y15421158D01*
X88300500Y15578842D01*
X88300500Y15578845D01*
X88300499Y15578847D01*
X88276576Y15699118D01*
X88272974Y15717222D01*
X171561125Y15717222D01*
X171561125Y15559529D01*
X171591886Y15404886D01*
X171591889Y15404874D01*
X171652227Y15259203D01*
X171652234Y15259190D01*
X171739835Y15128087D01*
X171739838Y15128083D01*
X171851332Y15016589D01*
X171851336Y15016586D01*
X171982439Y14928985D01*
X171982452Y14928978D01*
X172111962Y14875334D01*
X172128128Y14868638D01*
X172282778Y14837876D01*
X172282781Y14837875D01*
X172282783Y14837875D01*
X172440469Y14837875D01*
X172440470Y14837876D01*
X172595122Y14868638D01*
X172721913Y14921156D01*
X172740797Y14928978D01*
X172740797Y14928979D01*
X172740804Y14928981D01*
X172871914Y15016586D01*
X172983414Y15128086D01*
X173071019Y15259196D01*
X173077277Y15274303D01*
X173107302Y15346792D01*
X173131362Y15404878D01*
X173162125Y15559533D01*
X173162125Y15578847D01*
X256199500Y15578847D01*
X256199500Y15421154D01*
X256230261Y15266511D01*
X256230264Y15266499D01*
X256290602Y15120828D01*
X256290609Y15120815D01*
X256378210Y14989712D01*
X256378213Y14989708D01*
X256489707Y14878214D01*
X256489711Y14878211D01*
X256620814Y14790610D01*
X256620827Y14790603D01*
X256766498Y14730265D01*
X256766503Y14730263D01*
X256921153Y14699501D01*
X256921156Y14699500D01*
X256921158Y14699500D01*
X257078844Y14699500D01*
X257078845Y14699501D01*
X257233497Y14730263D01*
X257379179Y14790606D01*
X257510289Y14878211D01*
X257621789Y14989711D01*
X257709394Y15120821D01*
X257735233Y15183201D01*
X257737089Y15187682D01*
X280763300Y15187682D01*
X280763300Y15029989D01*
X280794061Y14875346D01*
X280794064Y14875334D01*
X280854402Y14729663D01*
X280854409Y14729650D01*
X280942010Y14598547D01*
X280942013Y14598543D01*
X281053507Y14487049D01*
X281053511Y14487046D01*
X281184614Y14399445D01*
X281184627Y14399438D01*
X281316170Y14344952D01*
X281330303Y14339098D01*
X281484953Y14308336D01*
X281484956Y14308335D01*
X281484958Y14308335D01*
X281642644Y14308335D01*
X281642645Y14308336D01*
X281797297Y14339098D01*
X281942979Y14399441D01*
X282074089Y14487046D01*
X282153093Y14566051D01*
X282214414Y14599534D01*
X282284106Y14594550D01*
X282309659Y14581473D01*
X282370821Y14540606D01*
X282370823Y14540605D01*
X282370827Y14540603D01*
X282516498Y14480265D01*
X282516503Y14480263D01*
X282671153Y14449501D01*
X282671156Y14449500D01*
X282671158Y14449500D01*
X282705683Y14449500D01*
X282772722Y14429815D01*
X282818477Y14377011D01*
X282827300Y14349692D01*
X282849057Y14240312D01*
X282849060Y14240302D01*
X282909398Y14094631D01*
X282909405Y14094618D01*
X283000391Y13958449D01*
X282998902Y13957455D01*
X283022912Y13900913D01*
X283021363Y13862375D01*
X283003877Y13774464D01*
X283003877Y13616777D01*
X283034638Y13462134D01*
X283034641Y13462122D01*
X283094979Y13316451D01*
X283094986Y13316438D01*
X283182587Y13185335D01*
X283182590Y13185331D01*
X283279546Y13088375D01*
X283313031Y13027052D01*
X283308047Y12957360D01*
X283294968Y12931804D01*
X283259808Y12879184D01*
X283259802Y12879173D01*
X283199464Y12733502D01*
X283199461Y12733490D01*
X283168700Y12578847D01*
X283168700Y12421154D01*
X283199461Y12266511D01*
X283199464Y12266499D01*
X283259802Y12120828D01*
X283259809Y12120815D01*
X283347410Y11989712D01*
X283347413Y11989708D01*
X283458907Y11878214D01*
X283458911Y11878211D01*
X283590014Y11790610D01*
X283590027Y11790603D01*
X283735698Y11730265D01*
X283735703Y11730263D01*
X283845389Y11708445D01*
X283890353Y11699501D01*
X283890356Y11699500D01*
X283890358Y11699500D01*
X284048044Y11699500D01*
X284048045Y11699501D01*
X284202697Y11730263D01*
X284348379Y11790606D01*
X284479489Y11878211D01*
X284590989Y11989711D01*
X284678594Y12120821D01*
X284738937Y12266503D01*
X284769700Y12421158D01*
X284769700Y12578842D01*
X284769700Y12578845D01*
X284769699Y12578847D01*
X284761157Y12621790D01*
X284738937Y12733497D01*
X284738935Y12733502D01*
X284678597Y12879173D01*
X284678590Y12879186D01*
X284590989Y13010289D01*
X284590986Y13010293D01*
X284494030Y13107249D01*
X284460545Y13168572D01*
X284465529Y13238264D01*
X284478610Y13263822D01*
X284513766Y13316436D01*
X284513767Y13316439D01*
X284513771Y13316444D01*
X284574114Y13462126D01*
X284604877Y13616781D01*
X284604877Y13774465D01*
X284604877Y13774468D01*
X284604876Y13774470D01*
X284574114Y13929120D01*
X284564087Y13953327D01*
X284513774Y14074796D01*
X284513767Y14074809D01*
X284422782Y14210977D01*
X284424274Y14211975D01*
X284400262Y14268485D01*
X284401808Y14307049D01*
X284419296Y14394961D01*
X284419296Y14552645D01*
X284419296Y14552648D01*
X284419295Y14552650D01*
X284413172Y14583431D01*
X284388533Y14707300D01*
X284388531Y14707305D01*
X284328193Y14852976D01*
X284328186Y14852989D01*
X284240585Y14984092D01*
X284240582Y14984096D01*
X284129088Y15095590D01*
X284129084Y15095593D01*
X283997981Y15183194D01*
X283997968Y15183201D01*
X283852297Y15243539D01*
X283852285Y15243542D01*
X283697641Y15274303D01*
X283697638Y15274303D01*
X283663113Y15274303D01*
X283637644Y15281782D01*
X283611376Y15285612D01*
X283604639Y15291473D01*
X283596074Y15293988D01*
X283578693Y15314047D01*
X283558664Y15331472D01*
X283554384Y15342100D01*
X283550319Y15346792D01*
X283544066Y15363606D01*
X283542551Y15368804D01*
X283519737Y15483497D01*
X283468876Y15606287D01*
X286828310Y15606287D01*
X286828310Y15393713D01*
X286829413Y15386751D01*
X286852462Y15241221D01*
X286861564Y15183757D01*
X286926439Y14984092D01*
X286927254Y14981586D01*
X287023761Y14792180D01*
X287148700Y14620214D01*
X287299023Y14469891D01*
X287470992Y14344950D01*
X287479756Y14340484D01*
X287530552Y14292509D01*
X287547346Y14224688D01*
X287524808Y14158553D01*
X287479756Y14119516D01*
X287470992Y14115051D01*
X287299023Y13990110D01*
X287148700Y13839787D01*
X287023761Y13667821D01*
X286927254Y13478415D01*
X286861563Y13276240D01*
X286828310Y13066287D01*
X286828310Y12853714D01*
X286851168Y12709391D01*
X286861564Y12643757D01*
X286904929Y12510293D01*
X286927254Y12441586D01*
X287023761Y12252180D01*
X287148700Y12080214D01*
X287299023Y11929891D01*
X287470989Y11804952D01*
X287470991Y11804951D01*
X287470994Y11804949D01*
X287660398Y11708443D01*
X287862567Y11642754D01*
X288072523Y11609500D01*
X288072524Y11609500D01*
X288285096Y11609500D01*
X288285097Y11609500D01*
X288495053Y11642754D01*
X288697222Y11708443D01*
X288886626Y11804949D01*
X288908599Y11820914D01*
X289058596Y11929891D01*
X289058598Y11929894D01*
X289058602Y11929896D01*
X289208914Y12080208D01*
X289208916Y12080212D01*
X289208919Y12080214D01*
X289333858Y12252180D01*
X289333857Y12252180D01*
X289333861Y12252184D01*
X289338324Y12260946D01*
X289386298Y12311741D01*
X289454118Y12328537D01*
X289520254Y12306001D01*
X289559296Y12260944D01*
X289563761Y12252180D01*
X289688700Y12080214D01*
X289839023Y11929891D01*
X290010989Y11804952D01*
X290010991Y11804951D01*
X290010994Y11804949D01*
X290200398Y11708443D01*
X290402567Y11642754D01*
X290612523Y11609500D01*
X290612524Y11609500D01*
X290825096Y11609500D01*
X290825097Y11609500D01*
X291035053Y11642754D01*
X291237222Y11708443D01*
X291426626Y11804949D01*
X291448599Y11820914D01*
X291598596Y11929891D01*
X291598598Y11929894D01*
X291598602Y11929896D01*
X291748914Y12080208D01*
X291748916Y12080212D01*
X291748919Y12080214D01*
X291873858Y12252180D01*
X291873857Y12252180D01*
X291873861Y12252184D01*
X291878324Y12260946D01*
X291926298Y12311741D01*
X291994118Y12328537D01*
X292060254Y12306001D01*
X292099296Y12260944D01*
X292103761Y12252180D01*
X292228700Y12080214D01*
X292379023Y11929891D01*
X292550989Y11804952D01*
X292550991Y11804951D01*
X292550994Y11804949D01*
X292740398Y11708443D01*
X292942567Y11642754D01*
X293152523Y11609500D01*
X293152524Y11609500D01*
X293365096Y11609500D01*
X293365097Y11609500D01*
X293575053Y11642754D01*
X293777222Y11708443D01*
X293966626Y11804949D01*
X293988599Y11820914D01*
X294138596Y11929891D01*
X294138598Y11929894D01*
X294138602Y11929896D01*
X294288914Y12080208D01*
X294288916Y12080212D01*
X294288919Y12080214D01*
X294413858Y12252180D01*
X294413857Y12252180D01*
X294413861Y12252184D01*
X294418324Y12260946D01*
X294466298Y12311741D01*
X294534118Y12328537D01*
X294600254Y12306001D01*
X294639296Y12260944D01*
X294643761Y12252180D01*
X294768700Y12080214D01*
X294919023Y11929891D01*
X295090989Y11804952D01*
X295090991Y11804951D01*
X295090994Y11804949D01*
X295280398Y11708443D01*
X295482567Y11642754D01*
X295692523Y11609500D01*
X295692524Y11609500D01*
X295905096Y11609500D01*
X295905097Y11609500D01*
X296115053Y11642754D01*
X296317222Y11708443D01*
X296506626Y11804949D01*
X296528599Y11820914D01*
X296678596Y11929891D01*
X296678598Y11929894D01*
X296678602Y11929896D01*
X296828914Y12080208D01*
X296828916Y12080212D01*
X296828919Y12080214D01*
X296953858Y12252180D01*
X296953857Y12252180D01*
X296953861Y12252184D01*
X296958324Y12260946D01*
X297006298Y12311741D01*
X297074118Y12328537D01*
X297140254Y12306001D01*
X297179296Y12260944D01*
X297183761Y12252180D01*
X297308700Y12080214D01*
X297459023Y11929891D01*
X297630989Y11804952D01*
X297630991Y11804951D01*
X297630994Y11804949D01*
X297820398Y11708443D01*
X298022567Y11642754D01*
X298232523Y11609500D01*
X298232524Y11609500D01*
X298445096Y11609500D01*
X298445097Y11609500D01*
X298655053Y11642754D01*
X298857222Y11708443D01*
X299046626Y11804949D01*
X299068599Y11820914D01*
X299218596Y11929891D01*
X299218598Y11929894D01*
X299218602Y11929896D01*
X299368914Y12080208D01*
X299368916Y12080212D01*
X299368919Y12080214D01*
X299493858Y12252180D01*
X299493857Y12252180D01*
X299493861Y12252184D01*
X299498324Y12260946D01*
X299546298Y12311741D01*
X299614118Y12328537D01*
X299680254Y12306001D01*
X299719296Y12260944D01*
X299723761Y12252180D01*
X299848700Y12080214D01*
X299999023Y11929891D01*
X300170989Y11804952D01*
X300170991Y11804951D01*
X300170994Y11804949D01*
X300360398Y11708443D01*
X300562567Y11642754D01*
X300772523Y11609500D01*
X300772524Y11609500D01*
X300985096Y11609500D01*
X300985097Y11609500D01*
X301195053Y11642754D01*
X301397222Y11708443D01*
X301586626Y11804949D01*
X301608599Y11820914D01*
X301758596Y11929891D01*
X301758598Y11929894D01*
X301758602Y11929896D01*
X301908914Y12080208D01*
X301908916Y12080212D01*
X301908919Y12080214D01*
X302033858Y12252180D01*
X302033857Y12252180D01*
X302033861Y12252184D01*
X302038324Y12260946D01*
X302086298Y12311741D01*
X302154118Y12328537D01*
X302220254Y12306001D01*
X302259296Y12260944D01*
X302263761Y12252180D01*
X302388700Y12080214D01*
X302539023Y11929891D01*
X302710989Y11804952D01*
X302710991Y11804951D01*
X302710994Y11804949D01*
X302900398Y11708443D01*
X303102567Y11642754D01*
X303312523Y11609500D01*
X303312524Y11609500D01*
X303525096Y11609500D01*
X303525097Y11609500D01*
X303735053Y11642754D01*
X303937222Y11708443D01*
X304126626Y11804949D01*
X304148599Y11820914D01*
X304298596Y11929891D01*
X304298598Y11929894D01*
X304298602Y11929896D01*
X304448914Y12080208D01*
X304448916Y12080212D01*
X304448919Y12080214D01*
X304573858Y12252180D01*
X304573857Y12252180D01*
X304573861Y12252184D01*
X304578324Y12260946D01*
X304626298Y12311741D01*
X304694118Y12328537D01*
X304760254Y12306001D01*
X304799296Y12260944D01*
X304803761Y12252180D01*
X304928700Y12080214D01*
X305079023Y11929891D01*
X305250989Y11804952D01*
X305250991Y11804951D01*
X305250994Y11804949D01*
X305440398Y11708443D01*
X305642567Y11642754D01*
X305852523Y11609500D01*
X305852524Y11609500D01*
X306065096Y11609500D01*
X306065097Y11609500D01*
X306275053Y11642754D01*
X306477222Y11708443D01*
X306666626Y11804949D01*
X306688599Y11820914D01*
X306838596Y11929891D01*
X306838598Y11929894D01*
X306838602Y11929896D01*
X306988914Y12080208D01*
X306988916Y12080212D01*
X306988919Y12080214D01*
X307113858Y12252180D01*
X307113857Y12252180D01*
X307113861Y12252184D01*
X307118324Y12260946D01*
X307166298Y12311741D01*
X307234118Y12328537D01*
X307300254Y12306001D01*
X307339296Y12260944D01*
X307343761Y12252180D01*
X307468700Y12080214D01*
X307619023Y11929891D01*
X307790989Y11804952D01*
X307790991Y11804951D01*
X307790994Y11804949D01*
X307980398Y11708443D01*
X308182567Y11642754D01*
X308392523Y11609500D01*
X308392524Y11609500D01*
X308605096Y11609500D01*
X308605097Y11609500D01*
X308815053Y11642754D01*
X309017222Y11708443D01*
X309206626Y11804949D01*
X309228599Y11820914D01*
X309378596Y11929891D01*
X309378598Y11929894D01*
X309378602Y11929896D01*
X309528914Y12080208D01*
X309528916Y12080212D01*
X309528919Y12080214D01*
X309653858Y12252180D01*
X309653857Y12252180D01*
X309653861Y12252184D01*
X309658324Y12260946D01*
X309706298Y12311741D01*
X309774118Y12328537D01*
X309840254Y12306001D01*
X309879296Y12260944D01*
X309883761Y12252180D01*
X310008700Y12080214D01*
X310159023Y11929891D01*
X310330989Y11804952D01*
X310330991Y11804951D01*
X310330994Y11804949D01*
X310520398Y11708443D01*
X310722567Y11642754D01*
X310932523Y11609500D01*
X310932524Y11609500D01*
X311145096Y11609500D01*
X311145097Y11609500D01*
X311355053Y11642754D01*
X311557222Y11708443D01*
X311746626Y11804949D01*
X311768599Y11820914D01*
X311918596Y11929891D01*
X311918598Y11929894D01*
X311918602Y11929896D01*
X312068914Y12080208D01*
X312068916Y12080212D01*
X312068919Y12080214D01*
X312193858Y12252180D01*
X312193857Y12252180D01*
X312193861Y12252184D01*
X312198324Y12260946D01*
X312246298Y12311741D01*
X312314118Y12328537D01*
X312380254Y12306001D01*
X312419296Y12260944D01*
X312423761Y12252180D01*
X312548700Y12080214D01*
X312699023Y11929891D01*
X312870989Y11804952D01*
X312870991Y11804951D01*
X312870994Y11804949D01*
X313060398Y11708443D01*
X313262567Y11642754D01*
X313472523Y11609500D01*
X313472524Y11609500D01*
X313685096Y11609500D01*
X313685097Y11609500D01*
X313895053Y11642754D01*
X314097222Y11708443D01*
X314286626Y11804949D01*
X314308599Y11820914D01*
X314458596Y11929891D01*
X314458598Y11929894D01*
X314458602Y11929896D01*
X314608914Y12080208D01*
X314608916Y12080212D01*
X314608919Y12080214D01*
X314733858Y12252180D01*
X314733857Y12252180D01*
X314733861Y12252184D01*
X314738324Y12260946D01*
X314786298Y12311741D01*
X314854118Y12328537D01*
X314920254Y12306001D01*
X314959296Y12260944D01*
X314963761Y12252180D01*
X315088700Y12080214D01*
X315239023Y11929891D01*
X315410989Y11804952D01*
X315410991Y11804951D01*
X315410994Y11804949D01*
X315600398Y11708443D01*
X315802567Y11642754D01*
X316012523Y11609500D01*
X316012524Y11609500D01*
X316225096Y11609500D01*
X316225097Y11609500D01*
X316435053Y11642754D01*
X316637222Y11708443D01*
X316826626Y11804949D01*
X316848599Y11820914D01*
X316998596Y11929891D01*
X316998598Y11929894D01*
X316998602Y11929896D01*
X317148914Y12080208D01*
X317148916Y12080212D01*
X317148919Y12080214D01*
X317273858Y12252180D01*
X317273857Y12252180D01*
X317273861Y12252184D01*
X317278324Y12260946D01*
X317326298Y12311741D01*
X317394118Y12328537D01*
X317460254Y12306001D01*
X317499296Y12260944D01*
X317503761Y12252180D01*
X317628700Y12080214D01*
X317779023Y11929891D01*
X317950989Y11804952D01*
X317950991Y11804951D01*
X317950994Y11804949D01*
X318140398Y11708443D01*
X318342567Y11642754D01*
X318552523Y11609500D01*
X318552524Y11609500D01*
X318765096Y11609500D01*
X318765097Y11609500D01*
X318975053Y11642754D01*
X319177222Y11708443D01*
X319366626Y11804949D01*
X319388599Y11820914D01*
X319538596Y11929891D01*
X319538598Y11929894D01*
X319538602Y11929896D01*
X319688914Y12080208D01*
X319688916Y12080212D01*
X319688919Y12080214D01*
X319813858Y12252180D01*
X319813857Y12252180D01*
X319813861Y12252184D01*
X319818324Y12260946D01*
X319866298Y12311741D01*
X319934118Y12328537D01*
X320000254Y12306001D01*
X320039296Y12260944D01*
X320043761Y12252180D01*
X320168700Y12080214D01*
X320319023Y11929891D01*
X320490989Y11804952D01*
X320490991Y11804951D01*
X320490994Y11804949D01*
X320680398Y11708443D01*
X320882567Y11642754D01*
X321092523Y11609500D01*
X321092524Y11609500D01*
X321305096Y11609500D01*
X321305097Y11609500D01*
X321515053Y11642754D01*
X321717222Y11708443D01*
X321906626Y11804949D01*
X321928599Y11820914D01*
X322078596Y11929891D01*
X322078598Y11929894D01*
X322078602Y11929896D01*
X322228914Y12080208D01*
X322228916Y12080212D01*
X322228919Y12080214D01*
X322353858Y12252180D01*
X322353857Y12252180D01*
X322353861Y12252184D01*
X322358324Y12260946D01*
X322406298Y12311741D01*
X322474118Y12328537D01*
X322540254Y12306001D01*
X322579296Y12260944D01*
X322583761Y12252180D01*
X322708700Y12080214D01*
X322859023Y11929891D01*
X323030989Y11804952D01*
X323030991Y11804951D01*
X323030994Y11804949D01*
X323220398Y11708443D01*
X323422567Y11642754D01*
X323632523Y11609500D01*
X323632524Y11609500D01*
X323845096Y11609500D01*
X323845097Y11609500D01*
X324055053Y11642754D01*
X324257222Y11708443D01*
X324446626Y11804949D01*
X324468599Y11820914D01*
X324618596Y11929891D01*
X324618598Y11929894D01*
X324618602Y11929896D01*
X324768914Y12080208D01*
X324768916Y12080212D01*
X324768919Y12080214D01*
X324893858Y12252180D01*
X324893857Y12252180D01*
X324893861Y12252184D01*
X324898324Y12260946D01*
X324946298Y12311741D01*
X325014118Y12328537D01*
X325080254Y12306001D01*
X325119296Y12260944D01*
X325123761Y12252180D01*
X325248700Y12080214D01*
X325399023Y11929891D01*
X325570989Y11804952D01*
X325570991Y11804951D01*
X325570994Y11804949D01*
X325760398Y11708443D01*
X325962567Y11642754D01*
X326172523Y11609500D01*
X326172524Y11609500D01*
X326385096Y11609500D01*
X326385097Y11609500D01*
X326595053Y11642754D01*
X326797222Y11708443D01*
X326986626Y11804949D01*
X327008599Y11820914D01*
X327158596Y11929891D01*
X327158598Y11929894D01*
X327158602Y11929896D01*
X327308914Y12080208D01*
X327308916Y12080212D01*
X327308919Y12080214D01*
X327433858Y12252180D01*
X327433857Y12252180D01*
X327433861Y12252184D01*
X327438324Y12260946D01*
X327486298Y12311741D01*
X327554118Y12328537D01*
X327620254Y12306001D01*
X327659296Y12260944D01*
X327663761Y12252180D01*
X327788700Y12080214D01*
X327939023Y11929891D01*
X328110989Y11804952D01*
X328110991Y11804951D01*
X328110994Y11804949D01*
X328300398Y11708443D01*
X328502567Y11642754D01*
X328712523Y11609500D01*
X328712524Y11609500D01*
X328925096Y11609500D01*
X328925097Y11609500D01*
X329135053Y11642754D01*
X329337222Y11708443D01*
X329526626Y11804949D01*
X329548599Y11820914D01*
X329698596Y11929891D01*
X329698598Y11929894D01*
X329698602Y11929896D01*
X329848914Y12080208D01*
X329848916Y12080212D01*
X329848919Y12080214D01*
X329973858Y12252180D01*
X329973857Y12252180D01*
X329973861Y12252184D01*
X329978324Y12260946D01*
X330026298Y12311741D01*
X330094118Y12328537D01*
X330160254Y12306001D01*
X330199296Y12260944D01*
X330203761Y12252180D01*
X330328700Y12080214D01*
X330479023Y11929891D01*
X330650989Y11804952D01*
X330650991Y11804951D01*
X330650994Y11804949D01*
X330840398Y11708443D01*
X331042567Y11642754D01*
X331252523Y11609500D01*
X331252524Y11609500D01*
X331465096Y11609500D01*
X331465097Y11609500D01*
X331675053Y11642754D01*
X331877222Y11708443D01*
X332066626Y11804949D01*
X332088599Y11820914D01*
X332238596Y11929891D01*
X332238598Y11929894D01*
X332238602Y11929896D01*
X332388914Y12080208D01*
X332388916Y12080212D01*
X332388919Y12080214D01*
X332513858Y12252180D01*
X332513857Y12252180D01*
X332513861Y12252184D01*
X332518324Y12260946D01*
X332566298Y12311741D01*
X332634118Y12328537D01*
X332700254Y12306001D01*
X332739296Y12260944D01*
X332743761Y12252180D01*
X332868700Y12080214D01*
X333019023Y11929891D01*
X333190989Y11804952D01*
X333190991Y11804951D01*
X333190994Y11804949D01*
X333380398Y11708443D01*
X333582567Y11642754D01*
X333792523Y11609500D01*
X333792524Y11609500D01*
X334005096Y11609500D01*
X334005097Y11609500D01*
X334215053Y11642754D01*
X334417222Y11708443D01*
X334606626Y11804949D01*
X334628599Y11820914D01*
X334778596Y11929891D01*
X334778598Y11929894D01*
X334778602Y11929896D01*
X334928914Y12080208D01*
X334928916Y12080212D01*
X334928919Y12080214D01*
X335053858Y12252180D01*
X335053857Y12252180D01*
X335053861Y12252184D01*
X335058324Y12260946D01*
X335106298Y12311741D01*
X335174118Y12328537D01*
X335240254Y12306001D01*
X335279296Y12260944D01*
X335283761Y12252180D01*
X335408700Y12080214D01*
X335559023Y11929891D01*
X335730989Y11804952D01*
X335730991Y11804951D01*
X335730994Y11804949D01*
X335920398Y11708443D01*
X336122567Y11642754D01*
X336332523Y11609500D01*
X336332524Y11609500D01*
X336545096Y11609500D01*
X336545097Y11609500D01*
X336755053Y11642754D01*
X336957222Y11708443D01*
X337146626Y11804949D01*
X337168599Y11820914D01*
X337318596Y11929891D01*
X337318598Y11929894D01*
X337318602Y11929896D01*
X337468914Y12080208D01*
X337468916Y12080212D01*
X337468919Y12080214D01*
X337593858Y12252180D01*
X337593857Y12252180D01*
X337593861Y12252184D01*
X337690367Y12441588D01*
X337756056Y12643757D01*
X337789310Y12853713D01*
X337789310Y13066287D01*
X337756056Y13276243D01*
X337704171Y13435929D01*
X346049499Y13435929D01*
X346074497Y13310262D01*
X346074499Y13310256D01*
X346123533Y13191876D01*
X346123538Y13191867D01*
X346194723Y13085332D01*
X346194726Y13085328D01*
X346285327Y12994727D01*
X346285331Y12994724D01*
X346391866Y12923539D01*
X346391872Y12923536D01*
X346391873Y12923535D01*
X346510256Y12874499D01*
X346510260Y12874499D01*
X346510261Y12874498D01*
X346635928Y12849500D01*
X346635931Y12849500D01*
X346764071Y12849500D01*
X346848615Y12866318D01*
X346889744Y12874499D01*
X347008127Y12923535D01*
X347114669Y12994724D01*
X347205276Y13085331D01*
X347276465Y13191873D01*
X347325501Y13310256D01*
X347333682Y13351385D01*
X347350500Y13435929D01*
X431049499Y13435929D01*
X431074497Y13310262D01*
X431074499Y13310256D01*
X431123533Y13191876D01*
X431123538Y13191867D01*
X431194723Y13085332D01*
X431194726Y13085328D01*
X431285327Y12994727D01*
X431285331Y12994724D01*
X431391866Y12923539D01*
X431391872Y12923536D01*
X431391873Y12923535D01*
X431510256Y12874499D01*
X431510260Y12874499D01*
X431510261Y12874498D01*
X431635928Y12849500D01*
X431635931Y12849500D01*
X431764071Y12849500D01*
X431848615Y12866318D01*
X431889744Y12874499D01*
X432008127Y12923535D01*
X432114669Y12994724D01*
X432205276Y13085331D01*
X432276465Y13191873D01*
X432325501Y13310256D01*
X432333682Y13351385D01*
X432350500Y13435929D01*
X516049499Y13435929D01*
X516074497Y13310262D01*
X516074499Y13310256D01*
X516123533Y13191876D01*
X516123538Y13191867D01*
X516194723Y13085332D01*
X516194726Y13085328D01*
X516285327Y12994727D01*
X516285331Y12994724D01*
X516391866Y12923539D01*
X516391872Y12923536D01*
X516391873Y12923535D01*
X516510256Y12874499D01*
X516510260Y12874499D01*
X516510261Y12874498D01*
X516635928Y12849500D01*
X516635931Y12849500D01*
X516764071Y12849500D01*
X516848615Y12866318D01*
X516889744Y12874499D01*
X517008127Y12923535D01*
X517114669Y12994724D01*
X517205276Y13085331D01*
X517276465Y13191873D01*
X517325501Y13310256D01*
X517333682Y13351385D01*
X517350500Y13435929D01*
X601049499Y13435929D01*
X601074497Y13310262D01*
X601074499Y13310256D01*
X601123533Y13191876D01*
X601123538Y13191867D01*
X601194723Y13085332D01*
X601194726Y13085328D01*
X601285327Y12994727D01*
X601285331Y12994724D01*
X601391866Y12923539D01*
X601391872Y12923536D01*
X601391873Y12923535D01*
X601510256Y12874499D01*
X601510260Y12874499D01*
X601510261Y12874498D01*
X601635928Y12849500D01*
X601635931Y12849500D01*
X601764071Y12849500D01*
X601848615Y12866318D01*
X601889744Y12874499D01*
X602008127Y12923535D01*
X602114669Y12994724D01*
X602205276Y13085331D01*
X602276465Y13191873D01*
X602325501Y13310256D01*
X602333682Y13351385D01*
X602350500Y13435929D01*
X602350500Y13564072D01*
X602325502Y13689739D01*
X602325501Y13689740D01*
X602325501Y13689744D01*
X602276465Y13808127D01*
X602276464Y13808128D01*
X602276461Y13808134D01*
X602205276Y13914669D01*
X602205273Y13914673D01*
X602114672Y14005274D01*
X602114668Y14005277D01*
X602008133Y14076462D01*
X602008124Y14076467D01*
X601889744Y14125501D01*
X601889738Y14125503D01*
X601764071Y14150500D01*
X601764069Y14150500D01*
X601635931Y14150500D01*
X601635929Y14150500D01*
X601510261Y14125503D01*
X601510255Y14125501D01*
X601391875Y14076467D01*
X601391866Y14076462D01*
X601285331Y14005277D01*
X601285327Y14005274D01*
X601194726Y13914673D01*
X601194723Y13914669D01*
X601123538Y13808134D01*
X601123533Y13808125D01*
X601074499Y13689745D01*
X601074497Y13689739D01*
X601049500Y13564072D01*
X601049500Y13564069D01*
X601049500Y13435931D01*
X601049500Y13435929D01*
X601049499Y13435929D01*
X517350500Y13435929D01*
X517350500Y13564072D01*
X517325502Y13689739D01*
X517325501Y13689740D01*
X517325501Y13689744D01*
X517276465Y13808127D01*
X517276464Y13808128D01*
X517276461Y13808134D01*
X517205276Y13914669D01*
X517205273Y13914673D01*
X517114672Y14005274D01*
X517114668Y14005277D01*
X517008133Y14076462D01*
X517008124Y14076467D01*
X516889744Y14125501D01*
X516889738Y14125503D01*
X516764071Y14150500D01*
X516764069Y14150500D01*
X516635931Y14150500D01*
X516635929Y14150500D01*
X516510261Y14125503D01*
X516510255Y14125501D01*
X516391875Y14076467D01*
X516391866Y14076462D01*
X516285331Y14005277D01*
X516285327Y14005274D01*
X516194726Y13914673D01*
X516194723Y13914669D01*
X516123538Y13808134D01*
X516123533Y13808125D01*
X516074499Y13689745D01*
X516074497Y13689739D01*
X516049500Y13564072D01*
X516049500Y13564069D01*
X516049500Y13435931D01*
X516049500Y13435929D01*
X516049499Y13435929D01*
X432350500Y13435929D01*
X432350500Y13564072D01*
X432325502Y13689739D01*
X432325501Y13689740D01*
X432325501Y13689744D01*
X432276465Y13808127D01*
X432276464Y13808128D01*
X432276461Y13808134D01*
X432205276Y13914669D01*
X432205273Y13914673D01*
X432114672Y14005274D01*
X432114668Y14005277D01*
X432008133Y14076462D01*
X432008124Y14076467D01*
X431889744Y14125501D01*
X431889738Y14125503D01*
X431764071Y14150500D01*
X431764069Y14150500D01*
X431635931Y14150500D01*
X431635929Y14150500D01*
X431510261Y14125503D01*
X431510255Y14125501D01*
X431391875Y14076467D01*
X431391866Y14076462D01*
X431285331Y14005277D01*
X431285327Y14005274D01*
X431194726Y13914673D01*
X431194723Y13914669D01*
X431123538Y13808134D01*
X431123533Y13808125D01*
X431074499Y13689745D01*
X431074497Y13689739D01*
X431049500Y13564072D01*
X431049500Y13564069D01*
X431049500Y13435931D01*
X431049500Y13435929D01*
X431049499Y13435929D01*
X347350500Y13435929D01*
X347350500Y13564072D01*
X347325502Y13689739D01*
X347325501Y13689740D01*
X347325501Y13689744D01*
X347276465Y13808127D01*
X347276464Y13808128D01*
X347276461Y13808134D01*
X347205276Y13914669D01*
X347205273Y13914673D01*
X347114672Y14005274D01*
X347114668Y14005277D01*
X347008133Y14076462D01*
X347008124Y14076467D01*
X346889744Y14125501D01*
X346889738Y14125503D01*
X346764071Y14150500D01*
X346764069Y14150500D01*
X346635931Y14150500D01*
X346635929Y14150500D01*
X346510261Y14125503D01*
X346510255Y14125501D01*
X346391875Y14076467D01*
X346391866Y14076462D01*
X346285331Y14005277D01*
X346285327Y14005274D01*
X346194726Y13914673D01*
X346194723Y13914669D01*
X346123538Y13808134D01*
X346123533Y13808125D01*
X346074499Y13689745D01*
X346074497Y13689739D01*
X346049500Y13564072D01*
X346049500Y13564069D01*
X346049500Y13435931D01*
X346049500Y13435929D01*
X346049499Y13435929D01*
X337704171Y13435929D01*
X337690367Y13478412D01*
X337690365Y13478415D01*
X337690365Y13478417D01*
X337672303Y13513865D01*
X337672302Y13513866D01*
X337593861Y13667816D01*
X337593859Y13667819D01*
X337593858Y13667821D01*
X337468919Y13839787D01*
X337355379Y13953327D01*
X337321894Y14014650D01*
X337326878Y14084342D01*
X337368750Y14140275D01*
X337399725Y14157190D01*
X337531141Y14206204D01*
X337646356Y14292454D01*
X337732606Y14407669D01*
X337782901Y14542517D01*
X337789310Y14602127D01*
X337789309Y15078847D01*
X341699500Y15078847D01*
X341699500Y14921154D01*
X341730261Y14766511D01*
X341730264Y14766499D01*
X341790602Y14620828D01*
X341790609Y14620815D01*
X341878210Y14489712D01*
X341878213Y14489708D01*
X341989707Y14378214D01*
X341989711Y14378211D01*
X342120814Y14290610D01*
X342120827Y14290603D01*
X342254323Y14235308D01*
X342266503Y14230263D01*
X342363460Y14210977D01*
X342421153Y14199501D01*
X342421156Y14199500D01*
X342421158Y14199500D01*
X342578844Y14199500D01*
X342578845Y14199501D01*
X342733497Y14230263D01*
X342879179Y14290606D01*
X343010289Y14378211D01*
X343121789Y14489711D01*
X343209394Y14620821D01*
X343269737Y14766503D01*
X343300500Y14921158D01*
X343300500Y15078842D01*
X343300500Y15078845D01*
X343300499Y15078847D01*
X343279742Y15183197D01*
X343269737Y15233497D01*
X343266537Y15241222D01*
X343209397Y15379173D01*
X343209390Y15379186D01*
X343121790Y15510288D01*
X343121784Y15510295D01*
X343053232Y15578847D01*
X426699500Y15578847D01*
X426699500Y15421154D01*
X426730261Y15266511D01*
X426730264Y15266499D01*
X426790602Y15120828D01*
X426790609Y15120815D01*
X426878210Y14989712D01*
X426878213Y14989708D01*
X426989707Y14878214D01*
X426989711Y14878211D01*
X427120814Y14790610D01*
X427120827Y14790603D01*
X427266498Y14730265D01*
X427266503Y14730263D01*
X427421153Y14699501D01*
X427421156Y14699500D01*
X427421158Y14699500D01*
X427578844Y14699500D01*
X427578845Y14699501D01*
X427733497Y14730263D01*
X427879179Y14790606D01*
X428010289Y14878211D01*
X428121789Y14989711D01*
X428181348Y15078847D01*
X511699500Y15078847D01*
X511699500Y14921154D01*
X511730261Y14766511D01*
X511730264Y14766499D01*
X511790602Y14620828D01*
X511790609Y14620815D01*
X511878210Y14489712D01*
X511878213Y14489708D01*
X511989707Y14378214D01*
X511989711Y14378211D01*
X512120814Y14290610D01*
X512120827Y14290603D01*
X512254323Y14235308D01*
X512266503Y14230263D01*
X512363460Y14210977D01*
X512421153Y14199501D01*
X512421156Y14199500D01*
X512421158Y14199500D01*
X512578844Y14199500D01*
X512578845Y14199501D01*
X512733497Y14230263D01*
X512879179Y14290606D01*
X513010289Y14378211D01*
X513121789Y14489711D01*
X513209394Y14620821D01*
X513269737Y14766503D01*
X513300500Y14921158D01*
X513300500Y15078842D01*
X513300500Y15078845D01*
X513300499Y15078847D01*
X513279742Y15183197D01*
X513269737Y15233497D01*
X513266537Y15241222D01*
X513209397Y15379173D01*
X513209390Y15379186D01*
X513121790Y15510288D01*
X513121784Y15510295D01*
X513053232Y15578847D01*
X596699500Y15578847D01*
X596699500Y15421154D01*
X596730261Y15266511D01*
X596730264Y15266499D01*
X596790602Y15120828D01*
X596790609Y15120815D01*
X596878210Y14989712D01*
X596878213Y14989708D01*
X596989707Y14878214D01*
X596989711Y14878211D01*
X597120814Y14790610D01*
X597120827Y14790603D01*
X597266498Y14730265D01*
X597266503Y14730263D01*
X597421153Y14699501D01*
X597421156Y14699500D01*
X597421158Y14699500D01*
X597578844Y14699500D01*
X597578845Y14699501D01*
X597733497Y14730263D01*
X597879179Y14790606D01*
X598010289Y14878211D01*
X598121789Y14989711D01*
X598209394Y15120821D01*
X598269737Y15266503D01*
X598300500Y15421158D01*
X598300500Y15578842D01*
X598300500Y15578845D01*
X598300499Y15578847D01*
X598292487Y15619124D01*
X598269737Y15733497D01*
X598259048Y15759302D01*
X598209397Y15879173D01*
X598209390Y15879186D01*
X598121789Y16010289D01*
X598121786Y16010293D01*
X598010292Y16121787D01*
X598010288Y16121790D01*
X597879185Y16209391D01*
X597879172Y16209398D01*
X597733501Y16269736D01*
X597733489Y16269739D01*
X597578845Y16300500D01*
X597578842Y16300500D01*
X597421158Y16300500D01*
X597421155Y16300500D01*
X597266510Y16269739D01*
X597266498Y16269736D01*
X597120827Y16209398D01*
X597120814Y16209391D01*
X596989711Y16121790D01*
X596989707Y16121787D01*
X596878213Y16010293D01*
X596878210Y16010289D01*
X596790609Y15879186D01*
X596790602Y15879173D01*
X596730264Y15733502D01*
X596730261Y15733490D01*
X596699500Y15578847D01*
X513053232Y15578847D01*
X513010292Y15621787D01*
X513010288Y15621790D01*
X512879185Y15709391D01*
X512879172Y15709398D01*
X512733501Y15769736D01*
X512733489Y15769739D01*
X512578845Y15800500D01*
X512578842Y15800500D01*
X512421158Y15800500D01*
X512421155Y15800500D01*
X512266510Y15769739D01*
X512266498Y15769736D01*
X512120827Y15709398D01*
X512120814Y15709391D01*
X511989711Y15621790D01*
X511989707Y15621787D01*
X511878213Y15510293D01*
X511878210Y15510289D01*
X511790609Y15379186D01*
X511790602Y15379173D01*
X511730264Y15233502D01*
X511730261Y15233490D01*
X511699500Y15078847D01*
X428181348Y15078847D01*
X428209394Y15120821D01*
X428269737Y15266503D01*
X428300500Y15421158D01*
X428300500Y15578842D01*
X428300500Y15578845D01*
X428300499Y15578847D01*
X428292487Y15619124D01*
X428269737Y15733497D01*
X428259048Y15759302D01*
X428209397Y15879173D01*
X428209390Y15879186D01*
X428121789Y16010289D01*
X428121786Y16010293D01*
X428010292Y16121787D01*
X428010288Y16121790D01*
X427879185Y16209391D01*
X427879172Y16209398D01*
X427733501Y16269736D01*
X427733489Y16269739D01*
X427578845Y16300500D01*
X427578842Y16300500D01*
X427421158Y16300500D01*
X427421155Y16300500D01*
X427266510Y16269739D01*
X427266498Y16269736D01*
X427120827Y16209398D01*
X427120814Y16209391D01*
X426989711Y16121790D01*
X426989707Y16121787D01*
X426878213Y16010293D01*
X426878210Y16010289D01*
X426790609Y15879186D01*
X426790602Y15879173D01*
X426730264Y15733502D01*
X426730261Y15733490D01*
X426699500Y15578847D01*
X343053232Y15578847D01*
X343010292Y15621787D01*
X343010288Y15621790D01*
X342879185Y15709391D01*
X342879172Y15709398D01*
X342733501Y15769736D01*
X342733489Y15769739D01*
X342578845Y15800500D01*
X342578842Y15800500D01*
X342421158Y15800500D01*
X342421155Y15800500D01*
X342266510Y15769739D01*
X342266498Y15769736D01*
X342120827Y15709398D01*
X342120814Y15709391D01*
X341989711Y15621790D01*
X341989707Y15621787D01*
X341878213Y15510293D01*
X341878210Y15510289D01*
X341790609Y15379186D01*
X341790602Y15379173D01*
X341730264Y15233502D01*
X341730261Y15233490D01*
X341699500Y15078847D01*
X337789309Y15078847D01*
X337789309Y15510288D01*
X337789309Y16397871D01*
X337789308Y16397877D01*
X337782901Y16457484D01*
X337732607Y16592329D01*
X337732603Y16592336D01*
X337646357Y16707545D01*
X337646354Y16707548D01*
X337531145Y16793794D01*
X337531138Y16793798D01*
X337396292Y16844092D01*
X337396293Y16844092D01*
X337336693Y16850499D01*
X337336691Y16850500D01*
X337336683Y16850500D01*
X337336674Y16850500D01*
X335540939Y16850500D01*
X335540933Y16850499D01*
X335481326Y16844092D01*
X335346481Y16793798D01*
X335346474Y16793794D01*
X335231265Y16707548D01*
X335231262Y16707545D01*
X335145016Y16592336D01*
X335145013Y16592331D01*
X335095999Y16460917D01*
X335054127Y16404984D01*
X334988663Y16380567D01*
X334920390Y16395419D01*
X334892136Y16416570D01*
X334778596Y16530110D01*
X334606630Y16655049D01*
X334417224Y16751556D01*
X334417223Y16751557D01*
X334417222Y16751557D01*
X334215053Y16817246D01*
X334215051Y16817247D01*
X334215050Y16817247D01*
X334053767Y16842792D01*
X334005097Y16850500D01*
X333792523Y16850500D01*
X333743852Y16842792D01*
X333582570Y16817247D01*
X333380395Y16751556D01*
X333190989Y16655049D01*
X333019023Y16530110D01*
X332868700Y16379787D01*
X332743759Y16207818D01*
X332739294Y16199054D01*
X332691319Y16148258D01*
X332623498Y16131464D01*
X332557363Y16154002D01*
X332518326Y16199054D01*
X332513860Y16207818D01*
X332388919Y16379787D01*
X332238596Y16530110D01*
X332066630Y16655049D01*
X331877224Y16751556D01*
X331877223Y16751557D01*
X331877222Y16751557D01*
X331675053Y16817246D01*
X331675051Y16817247D01*
X331675050Y16817247D01*
X331513767Y16842792D01*
X331465097Y16850500D01*
X331252523Y16850500D01*
X331203852Y16842792D01*
X331042570Y16817247D01*
X330840395Y16751556D01*
X330650989Y16655049D01*
X330479023Y16530110D01*
X330328700Y16379787D01*
X330203759Y16207818D01*
X330199294Y16199054D01*
X330151319Y16148258D01*
X330083498Y16131464D01*
X330017363Y16154002D01*
X329978326Y16199054D01*
X329973860Y16207818D01*
X329848919Y16379787D01*
X329698596Y16530110D01*
X329526630Y16655049D01*
X329337224Y16751556D01*
X329337223Y16751557D01*
X329337222Y16751557D01*
X329135053Y16817246D01*
X329135051Y16817247D01*
X329135050Y16817247D01*
X328973767Y16842792D01*
X328925097Y16850500D01*
X328712523Y16850500D01*
X328663852Y16842792D01*
X328502570Y16817247D01*
X328300395Y16751556D01*
X328110989Y16655049D01*
X327939023Y16530110D01*
X327788700Y16379787D01*
X327663759Y16207818D01*
X327659294Y16199054D01*
X327611319Y16148258D01*
X327543498Y16131464D01*
X327477363Y16154002D01*
X327438326Y16199054D01*
X327433860Y16207818D01*
X327308919Y16379787D01*
X327158596Y16530110D01*
X326986630Y16655049D01*
X326797224Y16751556D01*
X326797223Y16751557D01*
X326797222Y16751557D01*
X326595053Y16817246D01*
X326595051Y16817247D01*
X326595050Y16817247D01*
X326433767Y16842792D01*
X326385097Y16850500D01*
X326172523Y16850500D01*
X326123852Y16842792D01*
X325962570Y16817247D01*
X325760395Y16751556D01*
X325570989Y16655049D01*
X325399023Y16530110D01*
X325248700Y16379787D01*
X325123759Y16207818D01*
X325119294Y16199054D01*
X325071319Y16148258D01*
X325003498Y16131464D01*
X324937363Y16154002D01*
X324898326Y16199054D01*
X324893860Y16207818D01*
X324768919Y16379787D01*
X324618596Y16530110D01*
X324446630Y16655049D01*
X324257224Y16751556D01*
X324257223Y16751557D01*
X324257222Y16751557D01*
X324055053Y16817246D01*
X324055051Y16817247D01*
X324055050Y16817247D01*
X323893767Y16842792D01*
X323845097Y16850500D01*
X323632523Y16850500D01*
X323583852Y16842792D01*
X323422570Y16817247D01*
X323220395Y16751556D01*
X323030989Y16655049D01*
X322859023Y16530110D01*
X322708700Y16379787D01*
X322583759Y16207818D01*
X322579294Y16199054D01*
X322531319Y16148258D01*
X322463498Y16131464D01*
X322397363Y16154002D01*
X322358326Y16199054D01*
X322353860Y16207818D01*
X322228919Y16379787D01*
X322078596Y16530110D01*
X321906630Y16655049D01*
X321717224Y16751556D01*
X321717223Y16751557D01*
X321717222Y16751557D01*
X321515053Y16817246D01*
X321515051Y16817247D01*
X321515050Y16817247D01*
X321353767Y16842792D01*
X321305097Y16850500D01*
X321092523Y16850500D01*
X321043852Y16842792D01*
X320882570Y16817247D01*
X320680395Y16751556D01*
X320490989Y16655049D01*
X320319023Y16530110D01*
X320168700Y16379787D01*
X320043759Y16207818D01*
X320039294Y16199054D01*
X319991319Y16148258D01*
X319923498Y16131464D01*
X319857363Y16154002D01*
X319818326Y16199054D01*
X319813860Y16207818D01*
X319688919Y16379787D01*
X319538596Y16530110D01*
X319366630Y16655049D01*
X319177224Y16751556D01*
X319177223Y16751557D01*
X319177222Y16751557D01*
X318975053Y16817246D01*
X318975051Y16817247D01*
X318975050Y16817247D01*
X318813767Y16842792D01*
X318765097Y16850500D01*
X318552523Y16850500D01*
X318503852Y16842792D01*
X318342570Y16817247D01*
X318140395Y16751556D01*
X317950989Y16655049D01*
X317779023Y16530110D01*
X317628700Y16379787D01*
X317503759Y16207818D01*
X317499294Y16199054D01*
X317451319Y16148258D01*
X317383498Y16131464D01*
X317317363Y16154002D01*
X317278326Y16199054D01*
X317273860Y16207818D01*
X317148919Y16379787D01*
X316998596Y16530110D01*
X316826630Y16655049D01*
X316637224Y16751556D01*
X316637223Y16751557D01*
X316637222Y16751557D01*
X316435053Y16817246D01*
X316435051Y16817247D01*
X316435050Y16817247D01*
X316273767Y16842792D01*
X316225097Y16850500D01*
X316012523Y16850500D01*
X315963852Y16842792D01*
X315802570Y16817247D01*
X315600395Y16751556D01*
X315410989Y16655049D01*
X315239023Y16530110D01*
X315088700Y16379787D01*
X314963759Y16207818D01*
X314959294Y16199054D01*
X314911319Y16148258D01*
X314843498Y16131464D01*
X314777363Y16154002D01*
X314738326Y16199054D01*
X314733860Y16207818D01*
X314608919Y16379787D01*
X314458596Y16530110D01*
X314286630Y16655049D01*
X314097224Y16751556D01*
X314097223Y16751557D01*
X314097222Y16751557D01*
X313895053Y16817246D01*
X313895051Y16817247D01*
X313895050Y16817247D01*
X313733767Y16842792D01*
X313685097Y16850500D01*
X313472523Y16850500D01*
X313423852Y16842792D01*
X313262570Y16817247D01*
X313060395Y16751556D01*
X312870989Y16655049D01*
X312699023Y16530110D01*
X312548700Y16379787D01*
X312423759Y16207818D01*
X312419294Y16199054D01*
X312371319Y16148258D01*
X312303498Y16131464D01*
X312237363Y16154002D01*
X312198326Y16199054D01*
X312193860Y16207818D01*
X312068919Y16379787D01*
X311918596Y16530110D01*
X311746630Y16655049D01*
X311557224Y16751556D01*
X311557223Y16751557D01*
X311557222Y16751557D01*
X311355053Y16817246D01*
X311355051Y16817247D01*
X311355050Y16817247D01*
X311193767Y16842792D01*
X311145097Y16850500D01*
X310932523Y16850500D01*
X310883852Y16842792D01*
X310722570Y16817247D01*
X310520395Y16751556D01*
X310330989Y16655049D01*
X310159023Y16530110D01*
X310008700Y16379787D01*
X309883759Y16207818D01*
X309879294Y16199054D01*
X309831319Y16148258D01*
X309763498Y16131464D01*
X309697363Y16154002D01*
X309658326Y16199054D01*
X309653860Y16207818D01*
X309528919Y16379787D01*
X309378596Y16530110D01*
X309206630Y16655049D01*
X309017224Y16751556D01*
X309017223Y16751557D01*
X309017222Y16751557D01*
X308815053Y16817246D01*
X308815051Y16817247D01*
X308815050Y16817247D01*
X308653767Y16842792D01*
X308605097Y16850500D01*
X308392523Y16850500D01*
X308343852Y16842792D01*
X308182570Y16817247D01*
X307980395Y16751556D01*
X307790989Y16655049D01*
X307619023Y16530110D01*
X307468700Y16379787D01*
X307343759Y16207818D01*
X307339294Y16199054D01*
X307291319Y16148258D01*
X307223498Y16131464D01*
X307157363Y16154002D01*
X307118326Y16199054D01*
X307113860Y16207818D01*
X306988919Y16379787D01*
X306838596Y16530110D01*
X306666630Y16655049D01*
X306477224Y16751556D01*
X306477223Y16751557D01*
X306477222Y16751557D01*
X306275053Y16817246D01*
X306275051Y16817247D01*
X306275050Y16817247D01*
X306113767Y16842792D01*
X306065097Y16850500D01*
X305852523Y16850500D01*
X305803852Y16842792D01*
X305642570Y16817247D01*
X305440395Y16751556D01*
X305250989Y16655049D01*
X305079023Y16530110D01*
X304928700Y16379787D01*
X304803759Y16207818D01*
X304799294Y16199054D01*
X304751319Y16148258D01*
X304683498Y16131464D01*
X304617363Y16154002D01*
X304578326Y16199054D01*
X304573860Y16207818D01*
X304448919Y16379787D01*
X304298596Y16530110D01*
X304126630Y16655049D01*
X303937224Y16751556D01*
X303937223Y16751557D01*
X303937222Y16751557D01*
X303735053Y16817246D01*
X303735051Y16817247D01*
X303735050Y16817247D01*
X303573767Y16842792D01*
X303525097Y16850500D01*
X303312523Y16850500D01*
X303263852Y16842792D01*
X303102570Y16817247D01*
X302900395Y16751556D01*
X302710989Y16655049D01*
X302539023Y16530110D01*
X302388700Y16379787D01*
X302263759Y16207818D01*
X302259294Y16199054D01*
X302211319Y16148258D01*
X302143498Y16131464D01*
X302077363Y16154002D01*
X302038326Y16199054D01*
X302033860Y16207818D01*
X301908919Y16379787D01*
X301758596Y16530110D01*
X301586630Y16655049D01*
X301397224Y16751556D01*
X301397223Y16751557D01*
X301397222Y16751557D01*
X301195053Y16817246D01*
X301195051Y16817247D01*
X301195050Y16817247D01*
X301033767Y16842792D01*
X300985097Y16850500D01*
X300772523Y16850500D01*
X300723852Y16842792D01*
X300562570Y16817247D01*
X300360395Y16751556D01*
X300170989Y16655049D01*
X299999023Y16530110D01*
X299848700Y16379787D01*
X299723759Y16207818D01*
X299719294Y16199054D01*
X299671319Y16148258D01*
X299603498Y16131464D01*
X299537363Y16154002D01*
X299498326Y16199054D01*
X299493860Y16207818D01*
X299368919Y16379787D01*
X299218596Y16530110D01*
X299046630Y16655049D01*
X298857224Y16751556D01*
X298857223Y16751557D01*
X298857222Y16751557D01*
X298655053Y16817246D01*
X298655051Y16817247D01*
X298655050Y16817247D01*
X298493767Y16842792D01*
X298445097Y16850500D01*
X298232523Y16850500D01*
X298183852Y16842792D01*
X298022570Y16817247D01*
X297820395Y16751556D01*
X297630989Y16655049D01*
X297459023Y16530110D01*
X297308700Y16379787D01*
X297183759Y16207818D01*
X297179294Y16199054D01*
X297131319Y16148258D01*
X297063498Y16131464D01*
X296997363Y16154002D01*
X296958326Y16199054D01*
X296953860Y16207818D01*
X296828919Y16379787D01*
X296678596Y16530110D01*
X296506630Y16655049D01*
X296317224Y16751556D01*
X296317223Y16751557D01*
X296317222Y16751557D01*
X296115053Y16817246D01*
X296115051Y16817247D01*
X296115050Y16817247D01*
X295953767Y16842792D01*
X295905097Y16850500D01*
X295692523Y16850500D01*
X295643852Y16842792D01*
X295482570Y16817247D01*
X295280395Y16751556D01*
X295090989Y16655049D01*
X294919023Y16530110D01*
X294768700Y16379787D01*
X294643759Y16207818D01*
X294639294Y16199054D01*
X294591319Y16148258D01*
X294523498Y16131464D01*
X294457363Y16154002D01*
X294418326Y16199054D01*
X294413860Y16207818D01*
X294288919Y16379787D01*
X294138596Y16530110D01*
X293966630Y16655049D01*
X293777224Y16751556D01*
X293777223Y16751557D01*
X293777222Y16751557D01*
X293575053Y16817246D01*
X293575051Y16817247D01*
X293575050Y16817247D01*
X293413767Y16842792D01*
X293365097Y16850500D01*
X293152523Y16850500D01*
X293103852Y16842792D01*
X292942570Y16817247D01*
X292740395Y16751556D01*
X292550989Y16655049D01*
X292379023Y16530110D01*
X292228700Y16379787D01*
X292103759Y16207818D01*
X292099294Y16199054D01*
X292051319Y16148258D01*
X291983498Y16131464D01*
X291917363Y16154002D01*
X291878326Y16199054D01*
X291873860Y16207818D01*
X291748919Y16379787D01*
X291598596Y16530110D01*
X291426630Y16655049D01*
X291237224Y16751556D01*
X291237223Y16751557D01*
X291237222Y16751557D01*
X291035053Y16817246D01*
X291035051Y16817247D01*
X291035050Y16817247D01*
X290873767Y16842792D01*
X290825097Y16850500D01*
X290612523Y16850500D01*
X290563852Y16842792D01*
X290402570Y16817247D01*
X290200395Y16751556D01*
X290010989Y16655049D01*
X289839023Y16530110D01*
X289688700Y16379787D01*
X289563759Y16207818D01*
X289559294Y16199054D01*
X289511319Y16148258D01*
X289443498Y16131464D01*
X289377363Y16154002D01*
X289338326Y16199054D01*
X289333860Y16207818D01*
X289208919Y16379787D01*
X289058596Y16530110D01*
X288886630Y16655049D01*
X288697224Y16751556D01*
X288697223Y16751557D01*
X288697222Y16751557D01*
X288495053Y16817246D01*
X288495051Y16817247D01*
X288495050Y16817247D01*
X288333767Y16842792D01*
X288285097Y16850500D01*
X288072523Y16850500D01*
X288023852Y16842792D01*
X287862570Y16817247D01*
X287660395Y16751556D01*
X287470989Y16655049D01*
X287299023Y16530110D01*
X287148700Y16379787D01*
X287023761Y16207821D01*
X286927254Y16018415D01*
X286927253Y16018413D01*
X286927253Y16018412D01*
X286926974Y16017554D01*
X286861563Y15816240D01*
X286844640Y15709391D01*
X286828310Y15606287D01*
X283468876Y15606287D01*
X283459394Y15629179D01*
X283459393Y15629180D01*
X283459390Y15629186D01*
X283371789Y15760289D01*
X283371786Y15760293D01*
X283260292Y15871787D01*
X283260288Y15871790D01*
X283129185Y15959391D01*
X283129172Y15959398D01*
X282983501Y16019736D01*
X282983489Y16019739D01*
X282828845Y16050500D01*
X282828842Y16050500D01*
X282671158Y16050500D01*
X282671155Y16050500D01*
X282516510Y16019739D01*
X282516498Y16019736D01*
X282370827Y15959398D01*
X282370814Y15959391D01*
X282239711Y15871790D01*
X282239707Y15871787D01*
X282160708Y15792787D01*
X282099385Y15759302D01*
X282029693Y15764286D01*
X282004136Y15777366D01*
X281942985Y15818226D01*
X281942972Y15818233D01*
X281797301Y15878571D01*
X281797289Y15878574D01*
X281642645Y15909335D01*
X281642642Y15909335D01*
X281484958Y15909335D01*
X281484955Y15909335D01*
X281330310Y15878574D01*
X281330298Y15878571D01*
X281184627Y15818233D01*
X281184614Y15818226D01*
X281053511Y15730625D01*
X281053507Y15730622D01*
X280942013Y15619128D01*
X280942010Y15619124D01*
X280854409Y15488021D01*
X280854402Y15488008D01*
X280794064Y15342337D01*
X280794061Y15342325D01*
X280763300Y15187682D01*
X257737089Y15187682D01*
X257759265Y15241221D01*
X257759265Y15241222D01*
X257760226Y15243542D01*
X257769737Y15266503D01*
X257800500Y15421158D01*
X257800500Y15578842D01*
X257800500Y15578845D01*
X257800499Y15578847D01*
X257792487Y15619124D01*
X257769737Y15733497D01*
X257759048Y15759302D01*
X257709397Y15879173D01*
X257709390Y15879186D01*
X257621789Y16010289D01*
X257621786Y16010293D01*
X257510292Y16121787D01*
X257510288Y16121790D01*
X257379185Y16209391D01*
X257379172Y16209398D01*
X257233501Y16269736D01*
X257233489Y16269739D01*
X257078845Y16300500D01*
X257078842Y16300500D01*
X256921158Y16300500D01*
X256921155Y16300500D01*
X256766510Y16269739D01*
X256766498Y16269736D01*
X256620827Y16209398D01*
X256620814Y16209391D01*
X256489711Y16121790D01*
X256489707Y16121787D01*
X256378213Y16010293D01*
X256378210Y16010289D01*
X256290609Y15879186D01*
X256290602Y15879173D01*
X256230264Y15733502D01*
X256230261Y15733490D01*
X256199500Y15578847D01*
X173162125Y15578847D01*
X173162125Y15717217D01*
X173162125Y15717220D01*
X173162124Y15717222D01*
X173153557Y15760289D01*
X173131362Y15871872D01*
X173128335Y15879179D01*
X173071022Y16017548D01*
X173071015Y16017561D01*
X172983414Y16148664D01*
X172983411Y16148668D01*
X172871917Y16260162D01*
X172871913Y16260165D01*
X172740810Y16347766D01*
X172740797Y16347773D01*
X172595126Y16408111D01*
X172595114Y16408114D01*
X172440470Y16438875D01*
X172440467Y16438875D01*
X172282783Y16438875D01*
X172282780Y16438875D01*
X172128135Y16408114D01*
X172128123Y16408111D01*
X171982452Y16347773D01*
X171982439Y16347766D01*
X171851336Y16260165D01*
X171851332Y16260162D01*
X171739838Y16148668D01*
X171739835Y16148664D01*
X171652234Y16017561D01*
X171652227Y16017548D01*
X171591889Y15871877D01*
X171591886Y15871865D01*
X171561125Y15717222D01*
X88272974Y15717222D01*
X88269738Y15733490D01*
X88269737Y15733497D01*
X88259048Y15759302D01*
X88209397Y15879173D01*
X88209390Y15879186D01*
X88121789Y16010289D01*
X88121786Y16010293D01*
X88010292Y16121787D01*
X88010288Y16121790D01*
X87879185Y16209391D01*
X87879172Y16209398D01*
X87733501Y16269736D01*
X87733489Y16269739D01*
X87578845Y16300500D01*
X87578842Y16300500D01*
X87421158Y16300500D01*
X87421155Y16300500D01*
X87266510Y16269739D01*
X87266498Y16269736D01*
X87120827Y16209398D01*
X87120814Y16209391D01*
X86989711Y16121790D01*
X86989707Y16121787D01*
X86878213Y16010293D01*
X86878210Y16010289D01*
X86790609Y15879186D01*
X86790602Y15879173D01*
X86730264Y15733502D01*
X86730261Y15733490D01*
X86699500Y15578847D01*
X3053232Y15578847D01*
X3010292Y15621787D01*
X3010288Y15621790D01*
X2879185Y15709391D01*
X2879172Y15709398D01*
X2733501Y15769736D01*
X2733489Y15769739D01*
X2578845Y15800500D01*
X2578842Y15800500D01*
X2421158Y15800500D01*
X2421155Y15800500D01*
X2266510Y15769739D01*
X2266498Y15769736D01*
X2120827Y15709398D01*
X2120814Y15709391D01*
X1989711Y15621790D01*
X1989707Y15621787D01*
X1878213Y15510293D01*
X1878210Y15510289D01*
X1790609Y15379186D01*
X1790602Y15379173D01*
X1730264Y15233502D01*
X1730261Y15233490D01*
X1699500Y15078847D01*
X503942Y15078847D01*
X517386Y15386774D01*
X518326Y15397505D01*
X568152Y15775975D01*
X570025Y15786595D01*
X652649Y16159291D01*
X655440Y16169705D01*
X770230Y16533773D01*
X773917Y16543905D01*
X920003Y16896588D01*
X924561Y16906362D01*
X1100822Y17244955D01*
X1106217Y17254300D01*
X1311325Y17576256D01*
X1317515Y17585095D01*
X1389453Y17678847D01*
X284299500Y17678847D01*
X284299500Y17521154D01*
X284330261Y17366511D01*
X284330264Y17366499D01*
X284390602Y17220828D01*
X284390609Y17220815D01*
X284478210Y17089712D01*
X284478213Y17089708D01*
X284589707Y16978214D01*
X284589711Y16978211D01*
X284720814Y16890610D01*
X284720827Y16890603D01*
X284833119Y16844091D01*
X284866503Y16830263D01*
X285021153Y16799501D01*
X285021156Y16799500D01*
X285021158Y16799500D01*
X285178844Y16799500D01*
X285178845Y16799501D01*
X285333497Y16830263D01*
X285479179Y16890606D01*
X285610289Y16978211D01*
X285721789Y17089711D01*
X285809394Y17220821D01*
X285869737Y17366503D01*
X285900500Y17521158D01*
X285900500Y17678842D01*
X285900500Y17678845D01*
X285900499Y17678847D01*
X285869738Y17833490D01*
X285869737Y17833497D01*
X285847190Y17887931D01*
X285809397Y17979173D01*
X285809390Y17979186D01*
X285721789Y18110289D01*
X285721786Y18110293D01*
X285610292Y18221787D01*
X285610288Y18221790D01*
X285479185Y18309391D01*
X285479172Y18309398D01*
X285333501Y18369736D01*
X285333489Y18369739D01*
X285178845Y18400500D01*
X285178842Y18400500D01*
X285021158Y18400500D01*
X285021155Y18400500D01*
X284866510Y18369739D01*
X284866498Y18369736D01*
X284720827Y18309398D01*
X284720814Y18309391D01*
X284589711Y18221790D01*
X284589707Y18221787D01*
X284478213Y18110293D01*
X284478210Y18110289D01*
X284390609Y17979186D01*
X284390602Y17979173D01*
X284330264Y17833502D01*
X284330261Y17833490D01*
X284299500Y17678847D01*
X1389453Y17678847D01*
X1549905Y17887952D01*
X1556834Y17896209D01*
X1814726Y18177648D01*
X1822352Y18185274D01*
X2103791Y18443166D01*
X2112060Y18450104D01*
X2414905Y18682485D01*
X2423744Y18688675D01*
X2745700Y18893783D01*
X2755045Y18899178D01*
X3093638Y19075439D01*
X3103412Y19079997D01*
X3456095Y19226083D01*
X3466227Y19229770D01*
X3830295Y19344560D01*
X3840709Y19347351D01*
X4213405Y19429975D01*
X4224025Y19431848D01*
X4602495Y19481674D01*
X4613226Y19482614D01*
X4997297Y19499383D01*
X5002706Y19499500D01*
X5065892Y19499500D01*
X599934108Y19499500D01*
X599997294Y19499500D01*
X600002702Y19499383D01*
G37*
%TD.AperFunction*%
%TD*%
M02*
