%TF.GenerationSoftware,KiCad,Pcbnew,9.0.1-9.0.1-0~ubuntu22.04.1*%
%TF.CreationDate,2025-06-14T14:09:09+02:00*%
%TF.ProjectId,recorder,7265636f-7264-4657-922e-6b696361645f,rev?*%
%TF.SameCoordinates,Original*%
%TF.FileFunction,Copper,L2,Inr*%
%TF.FilePolarity,Positive*%
%FSLAX46Y46*%
G04 Gerber Fmt 4.6, Leading zero omitted, Abs format (unit mm)*
G04 Created by KiCad (PCBNEW 9.0.1-9.0.1-0~ubuntu22.04.1) date 2025-06-14 14:09:09*
%MOMM*%
%LPD*%
G01*
G04 APERTURE LIST*
%TA.AperFunction,ComponentPad*%
%ADD10O,1.700000X1.700000*%
%TD*%
%TA.AperFunction,ComponentPad*%
%ADD11R,1.700000X1.700000*%
%TD*%
%TA.AperFunction,ViaPad*%
%ADD12C,0.600000*%
%TD*%
%TA.AperFunction,Conductor*%
%ADD13C,0.200000*%
%TD*%
G04 APERTURE END LIST*
D10*
%TO.N,unconnected-(J1-I2S0_DOUT-Pad40)*%
%TO.C,J1*%
X433178810Y-302040000D03*
%TO.N,unconnected-(J1-GND-Pad39)*%
X433178810Y-299500000D03*
%TO.N,/DIN*%
X435718810Y-302040000D03*
%TO.N,unconnected-(J1-SPI1_MOSI-Pad37)*%
X435718810Y-299500000D03*
%TO.N,unconnected-(J1-UART1_CTS-Pad36)*%
X438258810Y-302040000D03*
%TO.N,/FS*%
X438258810Y-299500000D03*
%TO.N,unconnected-(J1-GND-Pad34)*%
X440798810Y-302040000D03*
%TO.N,unconnected-(J1-GPIO13-Pad33)*%
X440798810Y-299500000D03*
%TO.N,unconnected-(J1-GPIO07-Pad32)*%
X443338810Y-302040000D03*
%TO.N,unconnected-(J1-GPIO11-Pad31)*%
X443338810Y-299500000D03*
%TO.N,unconnected-(J1-GND-Pad30)*%
X445878810Y-302040000D03*
%TO.N,unconnected-(J1-GPIO01-Pad29)*%
X445878810Y-299500000D03*
%TO.N,/SCL*%
X448418810Y-302040000D03*
%TO.N,/SDA*%
X448418810Y-299500000D03*
%TO.N,unconnected-(J1-SPI0_CS1-Pad26)*%
X450958810Y-302040000D03*
%TO.N,unconnected-(J1-GND-Pad25)*%
X450958810Y-299500000D03*
%TO.N,unconnected-(J1-SPI0_CS0-Pad24)*%
X453498810Y-302040000D03*
%TO.N,unconnected-(J1-SPI0_SCK-Pad23)*%
X453498810Y-299500000D03*
%TO.N,unconnected-(J1-SPI1_MISO-Pad22)*%
X456038810Y-302040000D03*
%TO.N,unconnected-(J1-SPI_MISO-Pad21)*%
X456038810Y-299500000D03*
%TO.N,unconnected-(J1-GND-Pad20)*%
X458578810Y-302040000D03*
%TO.N,unconnected-(J1-SPI0_MOSI-Pad19)*%
X458578810Y-299500000D03*
%TO.N,unconnected-(J1-SPI1_CS0-Pad18)*%
X461118810Y-302040000D03*
%TO.N,unconnected-(J1-3V3-Pad17)*%
X461118810Y-299500000D03*
%TO.N,unconnected-(J1-SPI1_CS1-Pad16)*%
X463658810Y-302040000D03*
%TO.N,unconnected-(J1-GPIO12-Pad15)*%
X463658810Y-299500000D03*
%TO.N,unconnected-(J1-GND-Pad14)*%
X466198810Y-302040000D03*
%TO.N,unconnected-(J1-SPI1_SCK-Pad13)*%
X466198810Y-299500000D03*
%TO.N,/SCLK*%
X468738810Y-302040000D03*
%TO.N,unconnected-(J1-UART_RTS-Pad11)*%
X468738810Y-299500000D03*
%TO.N,unconnected-(J1-UART1_RXD-Pad10)*%
X471278810Y-302040000D03*
%TO.N,unconnected-(J1-GND-Pad9)*%
X471278810Y-299500000D03*
%TO.N,unconnected-(J1-UART1_TXD-Pad8)*%
X473818810Y-302040000D03*
%TO.N,unconnected-(J1-GPIO09-Pad7)*%
X473818810Y-299500000D03*
%TO.N,GND*%
X476358810Y-302040000D03*
%TO.N,unconnected-(J1-I2C1_SCL-Pad5)*%
X476358810Y-299500000D03*
%TO.N,unconnected-(J1-5V-Pad4)*%
X478898810Y-302040000D03*
%TO.N,unconnected-(J1-I2C1_SDA-Pad3)*%
X478898810Y-299500000D03*
%TO.N,unconnected-(J1-5V-Pad2)*%
X481438810Y-302040000D03*
D11*
%TO.N,/IOVDD*%
X481438810Y-299500000D03*
%TD*%
D12*
%TO.N,/DAT3*%
X742500000Y-299500000D03*
X657500000Y-300000000D03*
X428969200Y-302500000D03*
%TO.N,/DAT2*%
X487500000Y-300000000D03*
X572500000Y-299500000D03*
X433500000Y-305500000D03*
%TO.N,/DAT1*%
X402000000Y-299500000D03*
X317361625Y-299361625D03*
X426969200Y-305500000D03*
%TO.N,/DAT0*%
X232500000Y-299500000D03*
X424969200Y-306500000D03*
X147500000Y-300000000D03*
%TO.N,/SCLK*%
X429500000Y-304500000D03*
X426563800Y-299891165D03*
%TO.N,/SDA*%
X428618796Y-300526197D03*
%TO.N,/SCL*%
X428804377Y-301304377D03*
%TO.N,/FS*%
X427750000Y-299750000D03*
X430100000Y-297400000D03*
%TO.N,/IOVDD*%
X421469200Y-303000000D03*
%TO.N,/DVDD*%
X405500000Y-297000000D03*
X490461625Y-297000000D03*
X575461625Y-297038375D03*
X418750000Y-296750000D03*
X424053132Y-300932459D03*
X745461625Y-297038375D03*
X320511625Y-297011625D03*
X660461625Y-297038375D03*
X150511625Y-297011625D03*
X235511625Y-297011625D03*
%TO.N,GND*%
X238500000Y-301500000D03*
X405200000Y-303300000D03*
X153000000Y-298000000D03*
X578500000Y-298000000D03*
X578500000Y-301500000D03*
X235200000Y-303300000D03*
X493500000Y-298000000D03*
X748000000Y-298000000D03*
X493469669Y-301469669D03*
X323500000Y-301500000D03*
X748500000Y-301500000D03*
X413619199Y-300350001D03*
X153500000Y-301500000D03*
X575200000Y-303500000D03*
X413669200Y-302300000D03*
X323000000Y-298000000D03*
X425500000Y-297500000D03*
X238000000Y-298000000D03*
X423019200Y-299050000D03*
X420969200Y-304000000D03*
X408500000Y-301500000D03*
X745200000Y-303300000D03*
X663000000Y-298000000D03*
X414469200Y-297000000D03*
X417500000Y-301000000D03*
X414969200Y-304000000D03*
X426163800Y-302250000D03*
X663500000Y-301500000D03*
X425069200Y-300050000D03*
X421969200Y-304000000D03*
X408000000Y-298000000D03*
%TD*%
D13*
%TO.N,GND*%
X477818810Y-303500000D02*
X476358810Y-302040000D01*
X476358810Y-302141190D02*
X475000000Y-303500000D01*
X476358810Y-302040000D02*
X476358810Y-302141190D01*
%TD*%
%TA.AperFunction,Conductor*%
%TO.N,GND*%
G36*
X745002702Y-295500617D02*
G01*
X745386771Y-295517386D01*
X745397506Y-295518326D01*
X745775971Y-295568152D01*
X745786597Y-295570025D01*
X746159284Y-295652648D01*
X746169710Y-295655442D01*
X746533765Y-295770227D01*
X746543911Y-295773920D01*
X746896578Y-295920000D01*
X746906369Y-295924566D01*
X747129272Y-296040602D01*
X747244942Y-296100816D01*
X747254309Y-296106223D01*
X747543732Y-296290606D01*
X747576244Y-296311318D01*
X747585105Y-296317523D01*
X747887930Y-296549889D01*
X747896217Y-296556843D01*
X748177635Y-296814715D01*
X748185284Y-296822364D01*
X748443156Y-297103782D01*
X748450110Y-297112069D01*
X748682476Y-297414894D01*
X748688681Y-297423755D01*
X748893775Y-297745689D01*
X748899183Y-297755057D01*
X749075430Y-298093623D01*
X749080002Y-298103427D01*
X749226075Y-298456078D01*
X749229775Y-298466244D01*
X749344554Y-298830278D01*
X749347354Y-298840727D01*
X749429971Y-299213389D01*
X749431849Y-299224042D01*
X749481671Y-299602473D01*
X749482614Y-299613249D01*
X749499382Y-299997297D01*
X749499500Y-300002706D01*
X749499500Y-309997293D01*
X749499382Y-310002702D01*
X749482614Y-310386750D01*
X749481671Y-310397526D01*
X749431849Y-310775957D01*
X749429971Y-310786610D01*
X749347354Y-311159272D01*
X749344554Y-311169721D01*
X749229775Y-311533755D01*
X749226075Y-311543921D01*
X749080002Y-311896572D01*
X749075430Y-311906376D01*
X748899183Y-312244942D01*
X748893775Y-312254310D01*
X748688681Y-312576244D01*
X748682476Y-312585105D01*
X748450110Y-312887930D01*
X748443156Y-312896217D01*
X748185284Y-313177635D01*
X748177635Y-313185284D01*
X747896217Y-313443156D01*
X747887930Y-313450110D01*
X747585105Y-313682476D01*
X747576244Y-313688681D01*
X747254310Y-313893775D01*
X747244942Y-313899183D01*
X746906376Y-314075430D01*
X746896572Y-314080002D01*
X746543921Y-314226075D01*
X746533755Y-314229775D01*
X746169721Y-314344554D01*
X746159272Y-314347354D01*
X745786610Y-314429971D01*
X745775957Y-314431849D01*
X745397526Y-314481671D01*
X745386750Y-314482614D01*
X745002703Y-314499382D01*
X744997294Y-314499500D01*
X150002706Y-314499500D01*
X149997297Y-314499382D01*
X149613249Y-314482614D01*
X149602473Y-314481671D01*
X149224042Y-314431849D01*
X149213389Y-314429971D01*
X148840727Y-314347354D01*
X148830278Y-314344554D01*
X148466244Y-314229775D01*
X148456078Y-314226075D01*
X148103427Y-314080002D01*
X148093623Y-314075430D01*
X147755057Y-313899183D01*
X147745689Y-313893775D01*
X147423755Y-313688681D01*
X147414894Y-313682476D01*
X147112069Y-313450110D01*
X147103782Y-313443156D01*
X146822364Y-313185284D01*
X146814715Y-313177635D01*
X146556843Y-312896217D01*
X146549889Y-312887930D01*
X146317523Y-312585105D01*
X146311318Y-312576244D01*
X146106224Y-312254310D01*
X146100816Y-312244942D01*
X145924566Y-311906369D01*
X145919997Y-311896572D01*
X145918813Y-311893713D01*
X416149500Y-311893713D01*
X416149500Y-312106286D01*
X416172944Y-312254310D01*
X416182754Y-312316243D01*
X416215773Y-312417866D01*
X416248444Y-312518414D01*
X416344951Y-312707820D01*
X416469890Y-312879786D01*
X416620213Y-313030109D01*
X416792179Y-313155048D01*
X416792181Y-313155049D01*
X416792184Y-313155051D01*
X416981588Y-313251557D01*
X417183757Y-313317246D01*
X417393713Y-313350500D01*
X417393714Y-313350500D01*
X417606286Y-313350500D01*
X417606287Y-313350500D01*
X417816243Y-313317246D01*
X418018412Y-313251557D01*
X418207816Y-313155051D01*
X418229789Y-313139086D01*
X418379786Y-313030109D01*
X418379788Y-313030106D01*
X418379792Y-313030104D01*
X418530104Y-312879792D01*
X418530106Y-312879788D01*
X418530109Y-312879786D01*
X418655048Y-312707820D01*
X418655047Y-312707820D01*
X418655051Y-312707816D01*
X418751557Y-312518412D01*
X418817246Y-312316243D01*
X418850500Y-312106287D01*
X418850500Y-311893713D01*
X479149500Y-311893713D01*
X479149500Y-312106286D01*
X479172944Y-312254310D01*
X479182754Y-312316243D01*
X479215773Y-312417866D01*
X479248444Y-312518414D01*
X479344951Y-312707820D01*
X479469890Y-312879786D01*
X479620213Y-313030109D01*
X479792179Y-313155048D01*
X479792181Y-313155049D01*
X479792184Y-313155051D01*
X479981588Y-313251557D01*
X480183757Y-313317246D01*
X480393713Y-313350500D01*
X480393714Y-313350500D01*
X480606286Y-313350500D01*
X480606287Y-313350500D01*
X480816243Y-313317246D01*
X481018412Y-313251557D01*
X481207816Y-313155051D01*
X481229789Y-313139086D01*
X481379786Y-313030109D01*
X481379788Y-313030106D01*
X481379792Y-313030104D01*
X481530104Y-312879792D01*
X481530106Y-312879788D01*
X481530109Y-312879786D01*
X481655048Y-312707820D01*
X481655047Y-312707820D01*
X481655051Y-312707816D01*
X481751557Y-312518412D01*
X481817246Y-312316243D01*
X481850500Y-312106287D01*
X481850500Y-311893713D01*
X481817246Y-311683757D01*
X481751557Y-311481588D01*
X481655051Y-311292184D01*
X481655049Y-311292181D01*
X481655048Y-311292179D01*
X481530109Y-311120213D01*
X481379786Y-310969890D01*
X481207820Y-310844951D01*
X481018414Y-310748444D01*
X481018413Y-310748443D01*
X481018412Y-310748443D01*
X480816243Y-310682754D01*
X480816241Y-310682753D01*
X480816240Y-310682753D01*
X480654957Y-310657208D01*
X480606287Y-310649500D01*
X480393713Y-310649500D01*
X480345042Y-310657208D01*
X480183760Y-310682753D01*
X479981585Y-310748444D01*
X479792179Y-310844951D01*
X479620213Y-310969890D01*
X479469890Y-311120213D01*
X479344951Y-311292179D01*
X479248444Y-311481585D01*
X479182753Y-311683760D01*
X479149500Y-311893713D01*
X418850500Y-311893713D01*
X418817246Y-311683757D01*
X418751557Y-311481588D01*
X418655051Y-311292184D01*
X418655049Y-311292181D01*
X418655048Y-311292179D01*
X418530109Y-311120213D01*
X418379786Y-310969890D01*
X418207820Y-310844951D01*
X418018414Y-310748444D01*
X418018413Y-310748443D01*
X418018412Y-310748443D01*
X417816243Y-310682754D01*
X417816241Y-310682753D01*
X417816240Y-310682753D01*
X417654957Y-310657208D01*
X417606287Y-310649500D01*
X417393713Y-310649500D01*
X417345042Y-310657208D01*
X417183760Y-310682753D01*
X416981585Y-310748444D01*
X416792179Y-310844951D01*
X416620213Y-310969890D01*
X416469890Y-311120213D01*
X416344951Y-311292179D01*
X416248444Y-311481585D01*
X416182753Y-311683760D01*
X416149500Y-311893713D01*
X145918813Y-311893713D01*
X145773920Y-311543911D01*
X145770224Y-311533755D01*
X145753775Y-311481585D01*
X145655442Y-311169710D01*
X145652648Y-311159284D01*
X145570025Y-310786597D01*
X145568152Y-310775971D01*
X145518326Y-310397506D01*
X145517386Y-310386771D01*
X145500618Y-310002702D01*
X145500500Y-309997293D01*
X145500500Y-307393713D01*
X434527824Y-307393713D01*
X434527824Y-307606286D01*
X434561077Y-307816239D01*
X434626768Y-308018414D01*
X434723275Y-308207820D01*
X434848214Y-308379786D01*
X434998537Y-308530109D01*
X435170503Y-308655048D01*
X435170505Y-308655049D01*
X435170508Y-308655051D01*
X435359912Y-308751557D01*
X435562081Y-308817246D01*
X435772037Y-308850500D01*
X435772038Y-308850500D01*
X435984610Y-308850500D01*
X435984611Y-308850500D01*
X436194567Y-308817246D01*
X436396736Y-308751557D01*
X436586140Y-308655051D01*
X436608113Y-308639086D01*
X436758110Y-308530109D01*
X436758112Y-308530106D01*
X436758116Y-308530104D01*
X436908428Y-308379792D01*
X436908430Y-308379788D01*
X436908433Y-308379786D01*
X437033372Y-308207820D01*
X437033371Y-308207820D01*
X437033375Y-308207816D01*
X437129881Y-308018412D01*
X437195570Y-307816243D01*
X437228824Y-307606287D01*
X437228824Y-307393713D01*
X460775951Y-307393713D01*
X460775951Y-307606286D01*
X460809204Y-307816239D01*
X460874895Y-308018414D01*
X460971402Y-308207820D01*
X461096341Y-308379786D01*
X461246664Y-308530109D01*
X461418630Y-308655048D01*
X461418632Y-308655049D01*
X461418635Y-308655051D01*
X461608039Y-308751557D01*
X461810208Y-308817246D01*
X462020164Y-308850500D01*
X462020165Y-308850500D01*
X462232737Y-308850500D01*
X462232738Y-308850500D01*
X462442694Y-308817246D01*
X462644863Y-308751557D01*
X462834267Y-308655051D01*
X462856240Y-308639086D01*
X463006237Y-308530109D01*
X463006239Y-308530106D01*
X463006243Y-308530104D01*
X463156555Y-308379792D01*
X463156557Y-308379788D01*
X463156560Y-308379786D01*
X463281499Y-308207820D01*
X463281498Y-308207820D01*
X463281502Y-308207816D01*
X463378008Y-308018412D01*
X463443697Y-307816243D01*
X463476951Y-307606287D01*
X463476951Y-307393713D01*
X463443697Y-307183757D01*
X463378008Y-306981588D01*
X463281502Y-306792184D01*
X463281500Y-306792181D01*
X463281499Y-306792179D01*
X463156560Y-306620213D01*
X463006237Y-306469890D01*
X462834271Y-306344951D01*
X462644865Y-306248444D01*
X462644864Y-306248443D01*
X462644863Y-306248443D01*
X462442694Y-306182754D01*
X462442692Y-306182753D01*
X462442691Y-306182753D01*
X462281408Y-306157208D01*
X462232738Y-306149500D01*
X462020164Y-306149500D01*
X461971493Y-306157208D01*
X461810211Y-306182753D01*
X461608036Y-306248444D01*
X461418630Y-306344951D01*
X461246664Y-306469890D01*
X461096341Y-306620213D01*
X460971402Y-306792179D01*
X460874895Y-306981585D01*
X460809204Y-307183760D01*
X460775951Y-307393713D01*
X437228824Y-307393713D01*
X437195570Y-307183757D01*
X437129881Y-306981588D01*
X437033375Y-306792184D01*
X437033373Y-306792181D01*
X437033372Y-306792179D01*
X436908433Y-306620213D01*
X436758110Y-306469890D01*
X436586144Y-306344951D01*
X436396738Y-306248444D01*
X436396737Y-306248443D01*
X436396736Y-306248443D01*
X436194567Y-306182754D01*
X436194565Y-306182753D01*
X436194564Y-306182753D01*
X436033281Y-306157208D01*
X435984611Y-306149500D01*
X435772037Y-306149500D01*
X435723366Y-306157208D01*
X435562084Y-306182753D01*
X435359909Y-306248444D01*
X435170503Y-306344951D01*
X434998537Y-306469890D01*
X434848214Y-306620213D01*
X434723275Y-306792179D01*
X434626768Y-306981585D01*
X434561077Y-307183760D01*
X434527824Y-307393713D01*
X145500500Y-307393713D01*
X145500500Y-306421153D01*
X424168700Y-306421153D01*
X424168700Y-306578846D01*
X424199461Y-306733489D01*
X424199464Y-306733501D01*
X424259802Y-306879172D01*
X424259809Y-306879185D01*
X424347410Y-307010288D01*
X424347413Y-307010292D01*
X424458907Y-307121786D01*
X424458911Y-307121789D01*
X424590014Y-307209390D01*
X424590027Y-307209397D01*
X424735698Y-307269735D01*
X424735703Y-307269737D01*
X424890353Y-307300499D01*
X424890356Y-307300500D01*
X424890358Y-307300500D01*
X425048044Y-307300500D01*
X425048045Y-307300499D01*
X425100056Y-307290153D01*
X425202694Y-307269738D01*
X425202697Y-307269737D01*
X425348372Y-307209397D01*
X425348372Y-307209396D01*
X425348379Y-307209394D01*
X425479489Y-307121789D01*
X425590989Y-307010289D01*
X425678594Y-306879179D01*
X425738937Y-306733497D01*
X425769700Y-306578842D01*
X425769700Y-306421158D01*
X425769700Y-306421155D01*
X425769699Y-306421153D01*
X425738938Y-306266510D01*
X425738937Y-306266503D01*
X425715280Y-306209390D01*
X425678597Y-306120827D01*
X425678590Y-306120814D01*
X425590989Y-305989711D01*
X425590986Y-305989707D01*
X425479492Y-305878213D01*
X425479488Y-305878210D01*
X425348385Y-305790609D01*
X425348372Y-305790602D01*
X425202701Y-305730264D01*
X425202689Y-305730261D01*
X425048045Y-305699500D01*
X425048042Y-305699500D01*
X424890358Y-305699500D01*
X424890355Y-305699500D01*
X424735710Y-305730261D01*
X424735698Y-305730264D01*
X424590027Y-305790602D01*
X424590014Y-305790609D01*
X424458911Y-305878210D01*
X424458907Y-305878213D01*
X424347413Y-305989707D01*
X424347410Y-305989711D01*
X424259809Y-306120814D01*
X424259802Y-306120827D01*
X424199464Y-306266498D01*
X424199461Y-306266510D01*
X424168700Y-306421153D01*
X145500500Y-306421153D01*
X145500500Y-305421153D01*
X426168700Y-305421153D01*
X426168700Y-305578846D01*
X426199461Y-305733489D01*
X426199464Y-305733501D01*
X426259802Y-305879172D01*
X426259809Y-305879185D01*
X426347410Y-306010288D01*
X426347413Y-306010292D01*
X426458907Y-306121786D01*
X426458911Y-306121789D01*
X426590014Y-306209390D01*
X426590027Y-306209397D01*
X426727883Y-306266498D01*
X426735703Y-306269737D01*
X426890353Y-306300499D01*
X426890356Y-306300500D01*
X426890358Y-306300500D01*
X427048044Y-306300500D01*
X427048045Y-306300499D01*
X427202697Y-306269737D01*
X427348379Y-306209394D01*
X427479489Y-306121789D01*
X427590989Y-306010289D01*
X427678594Y-305879179D01*
X427738937Y-305733497D01*
X427769700Y-305578842D01*
X427769700Y-305421158D01*
X427769700Y-305421155D01*
X427769699Y-305421153D01*
X432699500Y-305421153D01*
X432699500Y-305578846D01*
X432730261Y-305733489D01*
X432730264Y-305733501D01*
X432790602Y-305879172D01*
X432790609Y-305879185D01*
X432878210Y-306010288D01*
X432878213Y-306010292D01*
X432989707Y-306121786D01*
X432989711Y-306121789D01*
X433120814Y-306209390D01*
X433120827Y-306209397D01*
X433258683Y-306266498D01*
X433266503Y-306269737D01*
X433421153Y-306300499D01*
X433421156Y-306300500D01*
X433421158Y-306300500D01*
X433578844Y-306300500D01*
X433578845Y-306300499D01*
X433733497Y-306269737D01*
X433879179Y-306209394D01*
X434010289Y-306121789D01*
X434121789Y-306010289D01*
X434209394Y-305879179D01*
X434269737Y-305733497D01*
X434300500Y-305578842D01*
X434300500Y-305421158D01*
X434300500Y-305421155D01*
X434300499Y-305421153D01*
X434269738Y-305266510D01*
X434269737Y-305266503D01*
X434209794Y-305121786D01*
X434209397Y-305120827D01*
X434209390Y-305120814D01*
X434121789Y-304989711D01*
X434121786Y-304989707D01*
X434010292Y-304878213D01*
X434010288Y-304878210D01*
X433879185Y-304790609D01*
X433879172Y-304790602D01*
X433733501Y-304730264D01*
X433733489Y-304730261D01*
X433578845Y-304699500D01*
X433578842Y-304699500D01*
X433421158Y-304699500D01*
X433421155Y-304699500D01*
X433266510Y-304730261D01*
X433266498Y-304730264D01*
X433120827Y-304790602D01*
X433120814Y-304790609D01*
X432989711Y-304878210D01*
X432989707Y-304878213D01*
X432878213Y-304989707D01*
X432878210Y-304989711D01*
X432790609Y-305120814D01*
X432790602Y-305120827D01*
X432730264Y-305266498D01*
X432730261Y-305266510D01*
X432699500Y-305421153D01*
X427769699Y-305421153D01*
X427738938Y-305266510D01*
X427738937Y-305266503D01*
X427678994Y-305121786D01*
X427678597Y-305120827D01*
X427678590Y-305120814D01*
X427590989Y-304989711D01*
X427590986Y-304989707D01*
X427479492Y-304878213D01*
X427479488Y-304878210D01*
X427348385Y-304790609D01*
X427348372Y-304790602D01*
X427202701Y-304730264D01*
X427202689Y-304730261D01*
X427048045Y-304699500D01*
X427048042Y-304699500D01*
X426890358Y-304699500D01*
X426890355Y-304699500D01*
X426735710Y-304730261D01*
X426735698Y-304730264D01*
X426590027Y-304790602D01*
X426590014Y-304790609D01*
X426458911Y-304878210D01*
X426458907Y-304878213D01*
X426347413Y-304989707D01*
X426347410Y-304989711D01*
X426259809Y-305120814D01*
X426259802Y-305120827D01*
X426199464Y-305266498D01*
X426199461Y-305266510D01*
X426168700Y-305421153D01*
X145500500Y-305421153D01*
X145500500Y-304421153D01*
X428699500Y-304421153D01*
X428699500Y-304578846D01*
X428730261Y-304733489D01*
X428730264Y-304733501D01*
X428790602Y-304879172D01*
X428790609Y-304879185D01*
X428878210Y-305010288D01*
X428878213Y-305010292D01*
X428989707Y-305121786D01*
X428989711Y-305121789D01*
X429120814Y-305209390D01*
X429120827Y-305209397D01*
X429258683Y-305266498D01*
X429266503Y-305269737D01*
X429421153Y-305300499D01*
X429421156Y-305300500D01*
X429421158Y-305300500D01*
X429578844Y-305300500D01*
X429578845Y-305300499D01*
X429589179Y-305298443D01*
X429614287Y-305293450D01*
X429614292Y-305293449D01*
X429699800Y-305276439D01*
X429733497Y-305269737D01*
X429879179Y-305209394D01*
X430010289Y-305121789D01*
X430121789Y-305010289D01*
X430209394Y-304879179D01*
X430269737Y-304733497D01*
X430300500Y-304578842D01*
X430300500Y-304421158D01*
X430300500Y-304421155D01*
X430300499Y-304421153D01*
X430269738Y-304266510D01*
X430269737Y-304266503D01*
X430269735Y-304266498D01*
X430209397Y-304120827D01*
X430209390Y-304120814D01*
X430121789Y-303989711D01*
X430121786Y-303989707D01*
X430010292Y-303878213D01*
X430010288Y-303878210D01*
X429879185Y-303790609D01*
X429879172Y-303790602D01*
X429733501Y-303730264D01*
X429733489Y-303730261D01*
X429578845Y-303699500D01*
X429578842Y-303699500D01*
X429421158Y-303699500D01*
X429421155Y-303699500D01*
X429266510Y-303730261D01*
X429266498Y-303730264D01*
X429120827Y-303790602D01*
X429120814Y-303790609D01*
X428989711Y-303878210D01*
X428989707Y-303878213D01*
X428878213Y-303989707D01*
X428878210Y-303989711D01*
X428790609Y-304120814D01*
X428790602Y-304120827D01*
X428730264Y-304266498D01*
X428730261Y-304266510D01*
X428699500Y-304421153D01*
X145500500Y-304421153D01*
X145500500Y-302921153D01*
X420668700Y-302921153D01*
X420668700Y-303078846D01*
X420699461Y-303233489D01*
X420699464Y-303233501D01*
X420759802Y-303379172D01*
X420759809Y-303379185D01*
X420847410Y-303510288D01*
X420847413Y-303510292D01*
X420958907Y-303621786D01*
X420958911Y-303621789D01*
X421090014Y-303709390D01*
X421090027Y-303709397D01*
X421235698Y-303769735D01*
X421235703Y-303769737D01*
X421390353Y-303800499D01*
X421390356Y-303800500D01*
X421390358Y-303800500D01*
X421548044Y-303800500D01*
X421548045Y-303800499D01*
X421702697Y-303769737D01*
X421848379Y-303709394D01*
X421979489Y-303621789D01*
X422090989Y-303510289D01*
X422178594Y-303379179D01*
X422238937Y-303233497D01*
X422269700Y-303078842D01*
X422269700Y-302921158D01*
X422269700Y-302921155D01*
X422269699Y-302921153D01*
X422238938Y-302766510D01*
X422238937Y-302766503D01*
X422231198Y-302747820D01*
X422178597Y-302620827D01*
X422178590Y-302620814D01*
X422090989Y-302489711D01*
X422090986Y-302489707D01*
X421979492Y-302378213D01*
X421979488Y-302378210D01*
X421848385Y-302290609D01*
X421848372Y-302290602D01*
X421702701Y-302230264D01*
X421702689Y-302230261D01*
X421548045Y-302199500D01*
X421548042Y-302199500D01*
X421390358Y-302199500D01*
X421390355Y-302199500D01*
X421235710Y-302230261D01*
X421235698Y-302230264D01*
X421090027Y-302290602D01*
X421090014Y-302290609D01*
X420958911Y-302378210D01*
X420958907Y-302378213D01*
X420847413Y-302489707D01*
X420847410Y-302489711D01*
X420759809Y-302620814D01*
X420759802Y-302620827D01*
X420699464Y-302766498D01*
X420699461Y-302766510D01*
X420668700Y-302921153D01*
X145500500Y-302921153D01*
X145500500Y-301564071D01*
X151049499Y-301564071D01*
X151074497Y-301689738D01*
X151074499Y-301689744D01*
X151123533Y-301808124D01*
X151123538Y-301808133D01*
X151194723Y-301914668D01*
X151194726Y-301914672D01*
X151285327Y-302005273D01*
X151285331Y-302005276D01*
X151391866Y-302076461D01*
X151391872Y-302076464D01*
X151391873Y-302076465D01*
X151510256Y-302125501D01*
X151510260Y-302125501D01*
X151510261Y-302125502D01*
X151635928Y-302150500D01*
X151635931Y-302150500D01*
X151764071Y-302150500D01*
X151848615Y-302133682D01*
X151889744Y-302125501D01*
X152008127Y-302076465D01*
X152114669Y-302005276D01*
X152205276Y-301914669D01*
X152276465Y-301808127D01*
X152325501Y-301689744D01*
X152335416Y-301639901D01*
X152350500Y-301564071D01*
X236049499Y-301564071D01*
X236074497Y-301689738D01*
X236074499Y-301689744D01*
X236123533Y-301808124D01*
X236123538Y-301808133D01*
X236194723Y-301914668D01*
X236194726Y-301914672D01*
X236285327Y-302005273D01*
X236285331Y-302005276D01*
X236391866Y-302076461D01*
X236391872Y-302076464D01*
X236391873Y-302076465D01*
X236510256Y-302125501D01*
X236510260Y-302125501D01*
X236510261Y-302125502D01*
X236635928Y-302150500D01*
X236635931Y-302150500D01*
X236764071Y-302150500D01*
X236848615Y-302133682D01*
X236889744Y-302125501D01*
X237008127Y-302076465D01*
X237114669Y-302005276D01*
X237205276Y-301914669D01*
X237276465Y-301808127D01*
X237325501Y-301689744D01*
X237335416Y-301639901D01*
X237350500Y-301564071D01*
X321049499Y-301564071D01*
X321074497Y-301689738D01*
X321074499Y-301689744D01*
X321123533Y-301808124D01*
X321123538Y-301808133D01*
X321194723Y-301914668D01*
X321194726Y-301914672D01*
X321285327Y-302005273D01*
X321285331Y-302005276D01*
X321391866Y-302076461D01*
X321391872Y-302076464D01*
X321391873Y-302076465D01*
X321510256Y-302125501D01*
X321510260Y-302125501D01*
X321510261Y-302125502D01*
X321635928Y-302150500D01*
X321635931Y-302150500D01*
X321764071Y-302150500D01*
X321848615Y-302133682D01*
X321889744Y-302125501D01*
X322008127Y-302076465D01*
X322114669Y-302005276D01*
X322205276Y-301914669D01*
X322276465Y-301808127D01*
X322325501Y-301689744D01*
X322335416Y-301639901D01*
X322350500Y-301564071D01*
X406049499Y-301564071D01*
X406074497Y-301689738D01*
X406074499Y-301689744D01*
X406123533Y-301808124D01*
X406123538Y-301808133D01*
X406194723Y-301914668D01*
X406194726Y-301914672D01*
X406285327Y-302005273D01*
X406285331Y-302005276D01*
X406391866Y-302076461D01*
X406391872Y-302076464D01*
X406391873Y-302076465D01*
X406510256Y-302125501D01*
X406510260Y-302125501D01*
X406510261Y-302125502D01*
X406635928Y-302150500D01*
X406635931Y-302150500D01*
X406764071Y-302150500D01*
X406848615Y-302133682D01*
X406889744Y-302125501D01*
X407008127Y-302076465D01*
X407114669Y-302005276D01*
X407205276Y-301914669D01*
X407276465Y-301808127D01*
X407325501Y-301689744D01*
X407335416Y-301639901D01*
X407350500Y-301564071D01*
X407350500Y-301435928D01*
X407325502Y-301310261D01*
X407325501Y-301310260D01*
X407325501Y-301310256D01*
X407276465Y-301191873D01*
X407276464Y-301191872D01*
X407276461Y-301191866D01*
X407205276Y-301085331D01*
X407205273Y-301085327D01*
X407114672Y-300994726D01*
X407114668Y-300994723D01*
X407048674Y-300950627D01*
X407008133Y-300923538D01*
X407008124Y-300923533D01*
X406889744Y-300874499D01*
X406889738Y-300874497D01*
X406784743Y-300853612D01*
X423252632Y-300853612D01*
X423252632Y-301011305D01*
X423283393Y-301165948D01*
X423283396Y-301165960D01*
X423343734Y-301311631D01*
X423343741Y-301311644D01*
X423431342Y-301442747D01*
X423431345Y-301442751D01*
X423542839Y-301554245D01*
X423542843Y-301554248D01*
X423673946Y-301641849D01*
X423673959Y-301641856D01*
X423774648Y-301683562D01*
X423819635Y-301702196D01*
X423928029Y-301723757D01*
X423974285Y-301732958D01*
X423974288Y-301732959D01*
X423974290Y-301732959D01*
X424131976Y-301732959D01*
X424131977Y-301732958D01*
X424286629Y-301702196D01*
X424432311Y-301641853D01*
X424563421Y-301554248D01*
X424674921Y-301442748D01*
X424762526Y-301311638D01*
X424763099Y-301310256D01*
X424822867Y-301165960D01*
X424822869Y-301165956D01*
X424853632Y-301011301D01*
X424853632Y-300853617D01*
X424853632Y-300853614D01*
X424853631Y-300853612D01*
X424835998Y-300764966D01*
X424822869Y-300698962D01*
X424807104Y-300660902D01*
X424762529Y-300553286D01*
X424762522Y-300553273D01*
X424674921Y-300422170D01*
X424674918Y-300422166D01*
X424563424Y-300310672D01*
X424563420Y-300310669D01*
X424432317Y-300223068D01*
X424432304Y-300223061D01*
X424286633Y-300162723D01*
X424286621Y-300162720D01*
X424131977Y-300131959D01*
X424131974Y-300131959D01*
X423974290Y-300131959D01*
X423974287Y-300131959D01*
X423819642Y-300162720D01*
X423819630Y-300162723D01*
X423673959Y-300223061D01*
X423673946Y-300223068D01*
X423542843Y-300310669D01*
X423542839Y-300310672D01*
X423431345Y-300422166D01*
X423431342Y-300422170D01*
X423343741Y-300553273D01*
X423343734Y-300553286D01*
X423283396Y-300698957D01*
X423283393Y-300698969D01*
X423252632Y-300853612D01*
X406784743Y-300853612D01*
X406764071Y-300849500D01*
X406764069Y-300849500D01*
X406635931Y-300849500D01*
X406635929Y-300849500D01*
X406510261Y-300874497D01*
X406510255Y-300874499D01*
X406391875Y-300923533D01*
X406391866Y-300923538D01*
X406285331Y-300994723D01*
X406285327Y-300994726D01*
X406194726Y-301085327D01*
X406194723Y-301085331D01*
X406123538Y-301191866D01*
X406123533Y-301191875D01*
X406074499Y-301310255D01*
X406074497Y-301310261D01*
X406049500Y-301435928D01*
X406049500Y-301435931D01*
X406049500Y-301564069D01*
X406049500Y-301564071D01*
X406049499Y-301564071D01*
X322350500Y-301564071D01*
X322350500Y-301435928D01*
X322325502Y-301310261D01*
X322325501Y-301310260D01*
X322325501Y-301310256D01*
X322276465Y-301191873D01*
X322276464Y-301191872D01*
X322276461Y-301191866D01*
X322205276Y-301085331D01*
X322205273Y-301085327D01*
X322114672Y-300994726D01*
X322114668Y-300994723D01*
X322008133Y-300923538D01*
X322008124Y-300923533D01*
X321889744Y-300874499D01*
X321889738Y-300874497D01*
X321764071Y-300849500D01*
X321764069Y-300849500D01*
X321635931Y-300849500D01*
X321635929Y-300849500D01*
X321510261Y-300874497D01*
X321510255Y-300874499D01*
X321391875Y-300923533D01*
X321391866Y-300923538D01*
X321285331Y-300994723D01*
X321285327Y-300994726D01*
X321194726Y-301085327D01*
X321194723Y-301085331D01*
X321123538Y-301191866D01*
X321123533Y-301191875D01*
X321074499Y-301310255D01*
X321074497Y-301310261D01*
X321049500Y-301435928D01*
X321049500Y-301435931D01*
X321049500Y-301564069D01*
X321049500Y-301564071D01*
X321049499Y-301564071D01*
X237350500Y-301564071D01*
X237350500Y-301435928D01*
X237325502Y-301310261D01*
X237325501Y-301310260D01*
X237325501Y-301310256D01*
X237276465Y-301191873D01*
X237276464Y-301191872D01*
X237276461Y-301191866D01*
X237205276Y-301085331D01*
X237205273Y-301085327D01*
X237114672Y-300994726D01*
X237114668Y-300994723D01*
X237008133Y-300923538D01*
X237008124Y-300923533D01*
X236889744Y-300874499D01*
X236889738Y-300874497D01*
X236764071Y-300849500D01*
X236764069Y-300849500D01*
X236635931Y-300849500D01*
X236635929Y-300849500D01*
X236510261Y-300874497D01*
X236510255Y-300874499D01*
X236391875Y-300923533D01*
X236391866Y-300923538D01*
X236285331Y-300994723D01*
X236285327Y-300994726D01*
X236194726Y-301085327D01*
X236194723Y-301085331D01*
X236123538Y-301191866D01*
X236123533Y-301191875D01*
X236074499Y-301310255D01*
X236074497Y-301310261D01*
X236049500Y-301435928D01*
X236049500Y-301435931D01*
X236049500Y-301564069D01*
X236049500Y-301564071D01*
X236049499Y-301564071D01*
X152350500Y-301564071D01*
X152350500Y-301435928D01*
X152325502Y-301310261D01*
X152325501Y-301310260D01*
X152325501Y-301310256D01*
X152276465Y-301191873D01*
X152276464Y-301191872D01*
X152276461Y-301191866D01*
X152205276Y-301085331D01*
X152205273Y-301085327D01*
X152114672Y-300994726D01*
X152114668Y-300994723D01*
X152008133Y-300923538D01*
X152008124Y-300923533D01*
X151889744Y-300874499D01*
X151889738Y-300874497D01*
X151764071Y-300849500D01*
X151764069Y-300849500D01*
X151635931Y-300849500D01*
X151635929Y-300849500D01*
X151510261Y-300874497D01*
X151510255Y-300874499D01*
X151391875Y-300923533D01*
X151391866Y-300923538D01*
X151285331Y-300994723D01*
X151285327Y-300994726D01*
X151194726Y-301085327D01*
X151194723Y-301085331D01*
X151123538Y-301191866D01*
X151123533Y-301191875D01*
X151074499Y-301310255D01*
X151074497Y-301310261D01*
X151049500Y-301435928D01*
X151049500Y-301435931D01*
X151049500Y-301564069D01*
X151049500Y-301564071D01*
X151049499Y-301564071D01*
X145500500Y-301564071D01*
X145500500Y-300002706D01*
X145500618Y-299997298D01*
X145501809Y-299970011D01*
X145503942Y-299921153D01*
X146699500Y-299921153D01*
X146699500Y-300078846D01*
X146730261Y-300233489D01*
X146730264Y-300233501D01*
X146790602Y-300379172D01*
X146790609Y-300379185D01*
X146878210Y-300510288D01*
X146878213Y-300510292D01*
X146989707Y-300621786D01*
X146989711Y-300621789D01*
X147120814Y-300709390D01*
X147120827Y-300709397D01*
X147266498Y-300769735D01*
X147266503Y-300769737D01*
X147363460Y-300789023D01*
X147421153Y-300800499D01*
X147421156Y-300800500D01*
X147421158Y-300800500D01*
X147578844Y-300800500D01*
X147578845Y-300800499D01*
X147733497Y-300769737D01*
X147879179Y-300709394D01*
X148010289Y-300621789D01*
X148121789Y-300510289D01*
X148209394Y-300379179D01*
X148269737Y-300233497D01*
X148300500Y-300078842D01*
X148300500Y-299921158D01*
X148300500Y-299921155D01*
X148300499Y-299921153D01*
X148279742Y-299816803D01*
X148269737Y-299766503D01*
X148266537Y-299758778D01*
X148209397Y-299620827D01*
X148209390Y-299620814D01*
X148121790Y-299489712D01*
X148121784Y-299489705D01*
X148053232Y-299421153D01*
X231699500Y-299421153D01*
X231699500Y-299578846D01*
X231730261Y-299733489D01*
X231730264Y-299733501D01*
X231790602Y-299879172D01*
X231790609Y-299879185D01*
X231878210Y-300010288D01*
X231878213Y-300010292D01*
X231989707Y-300121786D01*
X231989711Y-300121789D01*
X232120814Y-300209390D01*
X232120827Y-300209397D01*
X232266498Y-300269735D01*
X232266503Y-300269737D01*
X232421153Y-300300499D01*
X232421156Y-300300500D01*
X232421158Y-300300500D01*
X232578844Y-300300500D01*
X232578845Y-300300499D01*
X232733497Y-300269737D01*
X232879179Y-300209394D01*
X233010289Y-300121789D01*
X233121789Y-300010289D01*
X233209394Y-299879179D01*
X233269737Y-299733497D01*
X233300500Y-299578842D01*
X233300500Y-299421158D01*
X233300500Y-299421155D01*
X233300499Y-299421153D01*
X233276576Y-299300882D01*
X233272974Y-299282778D01*
X316561125Y-299282778D01*
X316561125Y-299440471D01*
X316591886Y-299595114D01*
X316591889Y-299595126D01*
X316652227Y-299740797D01*
X316652234Y-299740810D01*
X316739835Y-299871913D01*
X316739838Y-299871917D01*
X316851332Y-299983411D01*
X316851336Y-299983414D01*
X316982439Y-300071015D01*
X316982452Y-300071022D01*
X317111962Y-300124666D01*
X317128128Y-300131362D01*
X317282778Y-300162124D01*
X317282781Y-300162125D01*
X317282783Y-300162125D01*
X317440469Y-300162125D01*
X317440470Y-300162124D01*
X317595122Y-300131362D01*
X317721913Y-300078844D01*
X317740797Y-300071022D01*
X317740797Y-300071021D01*
X317740804Y-300071019D01*
X317871914Y-299983414D01*
X317983414Y-299871914D01*
X318071019Y-299740804D01*
X318077277Y-299725697D01*
X318107302Y-299653208D01*
X318131362Y-299595122D01*
X318162125Y-299440467D01*
X318162125Y-299421153D01*
X401199500Y-299421153D01*
X401199500Y-299578846D01*
X401230261Y-299733489D01*
X401230264Y-299733501D01*
X401290602Y-299879172D01*
X401290609Y-299879185D01*
X401378210Y-300010288D01*
X401378213Y-300010292D01*
X401489707Y-300121786D01*
X401489711Y-300121789D01*
X401620814Y-300209390D01*
X401620827Y-300209397D01*
X401766498Y-300269735D01*
X401766503Y-300269737D01*
X401921153Y-300300499D01*
X401921156Y-300300500D01*
X401921158Y-300300500D01*
X402078844Y-300300500D01*
X402078845Y-300300499D01*
X402233497Y-300269737D01*
X402379179Y-300209394D01*
X402510289Y-300121789D01*
X402621789Y-300010289D01*
X402709394Y-299879179D01*
X402735233Y-299816799D01*
X402737089Y-299812318D01*
X425763300Y-299812318D01*
X425763300Y-299970011D01*
X425794061Y-300124654D01*
X425794064Y-300124666D01*
X425854402Y-300270337D01*
X425854409Y-300270350D01*
X425942010Y-300401453D01*
X425942013Y-300401457D01*
X426053507Y-300512951D01*
X426053511Y-300512954D01*
X426184614Y-300600555D01*
X426184627Y-300600562D01*
X426330298Y-300660900D01*
X426330303Y-300660902D01*
X426484953Y-300691664D01*
X426484956Y-300691665D01*
X426484958Y-300691665D01*
X426642644Y-300691665D01*
X426642645Y-300691664D01*
X426797297Y-300660902D01*
X426942979Y-300600559D01*
X427074089Y-300512954D01*
X427153093Y-300433949D01*
X427214414Y-300400466D01*
X427284106Y-300405450D01*
X427309659Y-300418527D01*
X427370821Y-300459394D01*
X427370823Y-300459395D01*
X427370827Y-300459397D01*
X427516498Y-300519735D01*
X427516503Y-300519737D01*
X427671153Y-300550499D01*
X427671156Y-300550500D01*
X427671158Y-300550500D01*
X427705683Y-300550500D01*
X427772722Y-300570185D01*
X427818477Y-300622989D01*
X427827300Y-300650308D01*
X427849057Y-300759688D01*
X427849060Y-300759698D01*
X427909398Y-300905369D01*
X427909405Y-300905382D01*
X428000391Y-301041551D01*
X427998902Y-301042545D01*
X428022912Y-301099087D01*
X428021363Y-301137625D01*
X428003877Y-301225536D01*
X428003877Y-301383223D01*
X428034638Y-301537866D01*
X428034641Y-301537878D01*
X428094979Y-301683549D01*
X428094986Y-301683562D01*
X428182587Y-301814665D01*
X428182590Y-301814669D01*
X428279546Y-301911625D01*
X428313031Y-301972948D01*
X428308047Y-302042640D01*
X428294968Y-302068196D01*
X428259808Y-302120816D01*
X428259802Y-302120827D01*
X428199464Y-302266498D01*
X428199461Y-302266510D01*
X428168700Y-302421153D01*
X428168700Y-302578846D01*
X428199461Y-302733489D01*
X428199464Y-302733501D01*
X428259802Y-302879172D01*
X428259809Y-302879185D01*
X428347410Y-303010288D01*
X428347413Y-303010292D01*
X428458907Y-303121786D01*
X428458911Y-303121789D01*
X428590014Y-303209390D01*
X428590027Y-303209397D01*
X428735698Y-303269735D01*
X428735703Y-303269737D01*
X428845389Y-303291555D01*
X428890353Y-303300499D01*
X428890356Y-303300500D01*
X428890358Y-303300500D01*
X429048044Y-303300500D01*
X429048045Y-303300499D01*
X429202697Y-303269737D01*
X429348379Y-303209394D01*
X429479489Y-303121789D01*
X429590989Y-303010289D01*
X429678594Y-302879179D01*
X429738937Y-302733497D01*
X429769700Y-302578842D01*
X429769700Y-302421158D01*
X429769700Y-302421155D01*
X429769699Y-302421153D01*
X429761157Y-302378210D01*
X429738937Y-302266503D01*
X429725057Y-302232993D01*
X429678597Y-302120827D01*
X429678590Y-302120814D01*
X429590989Y-301989711D01*
X429590986Y-301989707D01*
X429494030Y-301892751D01*
X429460545Y-301831428D01*
X429465529Y-301761736D01*
X429478610Y-301736178D01*
X429513766Y-301683564D01*
X429513767Y-301683561D01*
X429513771Y-301683556D01*
X429574114Y-301537874D01*
X429604877Y-301383219D01*
X429604877Y-301225535D01*
X429604877Y-301225532D01*
X429604876Y-301225530D01*
X429574114Y-301070880D01*
X429564087Y-301046673D01*
X429513774Y-300925204D01*
X429513767Y-300925191D01*
X429422782Y-300789023D01*
X429424274Y-300788025D01*
X429400262Y-300731515D01*
X429401808Y-300692951D01*
X429419296Y-300605039D01*
X429419296Y-300447355D01*
X429419296Y-300447352D01*
X429419295Y-300447350D01*
X429414286Y-300422170D01*
X429388533Y-300292700D01*
X429388531Y-300292695D01*
X429328193Y-300147024D01*
X429328186Y-300147011D01*
X429240585Y-300015908D01*
X429240582Y-300015904D01*
X429129088Y-299904410D01*
X429129084Y-299904407D01*
X428997981Y-299816806D01*
X428997968Y-299816799D01*
X428852297Y-299756461D01*
X428852285Y-299756458D01*
X428697641Y-299725697D01*
X428697638Y-299725697D01*
X428663113Y-299725697D01*
X428637644Y-299718218D01*
X428611376Y-299714388D01*
X428604639Y-299708527D01*
X428596074Y-299706012D01*
X428578693Y-299685953D01*
X428558664Y-299668528D01*
X428554384Y-299657900D01*
X428550319Y-299653208D01*
X428544066Y-299636394D01*
X428542551Y-299631196D01*
X428519737Y-299516503D01*
X428468876Y-299393713D01*
X431828310Y-299393713D01*
X431828310Y-299606287D01*
X431829413Y-299613249D01*
X431852462Y-299758779D01*
X431861564Y-299816243D01*
X431926439Y-300015908D01*
X431927254Y-300018414D01*
X432023761Y-300207820D01*
X432148700Y-300379786D01*
X432299023Y-300530109D01*
X432470992Y-300655050D01*
X432479756Y-300659516D01*
X432530552Y-300707491D01*
X432547346Y-300775312D01*
X432524808Y-300841447D01*
X432479756Y-300880484D01*
X432470992Y-300884949D01*
X432299023Y-301009890D01*
X432148700Y-301160213D01*
X432023761Y-301332179D01*
X431927254Y-301521585D01*
X431861563Y-301723760D01*
X431848201Y-301808124D01*
X431828310Y-301933713D01*
X431828310Y-302146287D01*
X431836738Y-302199500D01*
X431851168Y-302290609D01*
X431861564Y-302356243D01*
X431904929Y-302489707D01*
X431927254Y-302558414D01*
X432023761Y-302747820D01*
X432148700Y-302919786D01*
X432299023Y-303070109D01*
X432470989Y-303195048D01*
X432470991Y-303195049D01*
X432470994Y-303195051D01*
X432660398Y-303291557D01*
X432862567Y-303357246D01*
X433072523Y-303390500D01*
X433072524Y-303390500D01*
X433285096Y-303390500D01*
X433285097Y-303390500D01*
X433495053Y-303357246D01*
X433697222Y-303291557D01*
X433886626Y-303195051D01*
X433908599Y-303179086D01*
X434058596Y-303070109D01*
X434058598Y-303070106D01*
X434058602Y-303070104D01*
X434208914Y-302919792D01*
X434208916Y-302919788D01*
X434208919Y-302919786D01*
X434333858Y-302747820D01*
X434333857Y-302747820D01*
X434333861Y-302747816D01*
X434338324Y-302739054D01*
X434386298Y-302688259D01*
X434454118Y-302671463D01*
X434520254Y-302693999D01*
X434559296Y-302739056D01*
X434563761Y-302747820D01*
X434688700Y-302919786D01*
X434839023Y-303070109D01*
X435010989Y-303195048D01*
X435010991Y-303195049D01*
X435010994Y-303195051D01*
X435200398Y-303291557D01*
X435402567Y-303357246D01*
X435612523Y-303390500D01*
X435612524Y-303390500D01*
X435825096Y-303390500D01*
X435825097Y-303390500D01*
X436035053Y-303357246D01*
X436237222Y-303291557D01*
X436426626Y-303195051D01*
X436448599Y-303179086D01*
X436598596Y-303070109D01*
X436598598Y-303070106D01*
X436598602Y-303070104D01*
X436748914Y-302919792D01*
X436748916Y-302919788D01*
X436748919Y-302919786D01*
X436873858Y-302747820D01*
X436873857Y-302747820D01*
X436873861Y-302747816D01*
X436878324Y-302739054D01*
X436926298Y-302688259D01*
X436994118Y-302671463D01*
X437060254Y-302693999D01*
X437099296Y-302739056D01*
X437103761Y-302747820D01*
X437228700Y-302919786D01*
X437379023Y-303070109D01*
X437550989Y-303195048D01*
X437550991Y-303195049D01*
X437550994Y-303195051D01*
X437740398Y-303291557D01*
X437942567Y-303357246D01*
X438152523Y-303390500D01*
X438152524Y-303390500D01*
X438365096Y-303390500D01*
X438365097Y-303390500D01*
X438575053Y-303357246D01*
X438777222Y-303291557D01*
X438966626Y-303195051D01*
X438988599Y-303179086D01*
X439138596Y-303070109D01*
X439138598Y-303070106D01*
X439138602Y-303070104D01*
X439288914Y-302919792D01*
X439288916Y-302919788D01*
X439288919Y-302919786D01*
X439413858Y-302747820D01*
X439413857Y-302747820D01*
X439413861Y-302747816D01*
X439418324Y-302739054D01*
X439466298Y-302688259D01*
X439534118Y-302671463D01*
X439600254Y-302693999D01*
X439639296Y-302739056D01*
X439643761Y-302747820D01*
X439768700Y-302919786D01*
X439919023Y-303070109D01*
X440090989Y-303195048D01*
X440090991Y-303195049D01*
X440090994Y-303195051D01*
X440280398Y-303291557D01*
X440482567Y-303357246D01*
X440692523Y-303390500D01*
X440692524Y-303390500D01*
X440905096Y-303390500D01*
X440905097Y-303390500D01*
X441115053Y-303357246D01*
X441317222Y-303291557D01*
X441506626Y-303195051D01*
X441528599Y-303179086D01*
X441678596Y-303070109D01*
X441678598Y-303070106D01*
X441678602Y-303070104D01*
X441828914Y-302919792D01*
X441828916Y-302919788D01*
X441828919Y-302919786D01*
X441953858Y-302747820D01*
X441953857Y-302747820D01*
X441953861Y-302747816D01*
X441958324Y-302739054D01*
X442006298Y-302688259D01*
X442074118Y-302671463D01*
X442140254Y-302693999D01*
X442179296Y-302739056D01*
X442183761Y-302747820D01*
X442308700Y-302919786D01*
X442459023Y-303070109D01*
X442630989Y-303195048D01*
X442630991Y-303195049D01*
X442630994Y-303195051D01*
X442820398Y-303291557D01*
X443022567Y-303357246D01*
X443232523Y-303390500D01*
X443232524Y-303390500D01*
X443445096Y-303390500D01*
X443445097Y-303390500D01*
X443655053Y-303357246D01*
X443857222Y-303291557D01*
X444046626Y-303195051D01*
X444068599Y-303179086D01*
X444218596Y-303070109D01*
X444218598Y-303070106D01*
X444218602Y-303070104D01*
X444368914Y-302919792D01*
X444368916Y-302919788D01*
X444368919Y-302919786D01*
X444493858Y-302747820D01*
X444493857Y-302747820D01*
X444493861Y-302747816D01*
X444498324Y-302739054D01*
X444546298Y-302688259D01*
X444614118Y-302671463D01*
X444680254Y-302693999D01*
X444719296Y-302739056D01*
X444723761Y-302747820D01*
X444848700Y-302919786D01*
X444999023Y-303070109D01*
X445170989Y-303195048D01*
X445170991Y-303195049D01*
X445170994Y-303195051D01*
X445360398Y-303291557D01*
X445562567Y-303357246D01*
X445772523Y-303390500D01*
X445772524Y-303390500D01*
X445985096Y-303390500D01*
X445985097Y-303390500D01*
X446195053Y-303357246D01*
X446397222Y-303291557D01*
X446586626Y-303195051D01*
X446608599Y-303179086D01*
X446758596Y-303070109D01*
X446758598Y-303070106D01*
X446758602Y-303070104D01*
X446908914Y-302919792D01*
X446908916Y-302919788D01*
X446908919Y-302919786D01*
X447033858Y-302747820D01*
X447033857Y-302747820D01*
X447033861Y-302747816D01*
X447038324Y-302739054D01*
X447086298Y-302688259D01*
X447154118Y-302671463D01*
X447220254Y-302693999D01*
X447259296Y-302739056D01*
X447263761Y-302747820D01*
X447388700Y-302919786D01*
X447539023Y-303070109D01*
X447710989Y-303195048D01*
X447710991Y-303195049D01*
X447710994Y-303195051D01*
X447900398Y-303291557D01*
X448102567Y-303357246D01*
X448312523Y-303390500D01*
X448312524Y-303390500D01*
X448525096Y-303390500D01*
X448525097Y-303390500D01*
X448735053Y-303357246D01*
X448937222Y-303291557D01*
X449126626Y-303195051D01*
X449148599Y-303179086D01*
X449298596Y-303070109D01*
X449298598Y-303070106D01*
X449298602Y-303070104D01*
X449448914Y-302919792D01*
X449448916Y-302919788D01*
X449448919Y-302919786D01*
X449573858Y-302747820D01*
X449573857Y-302747820D01*
X449573861Y-302747816D01*
X449578324Y-302739054D01*
X449626298Y-302688259D01*
X449694118Y-302671463D01*
X449760254Y-302693999D01*
X449799296Y-302739056D01*
X449803761Y-302747820D01*
X449928700Y-302919786D01*
X450079023Y-303070109D01*
X450250989Y-303195048D01*
X450250991Y-303195049D01*
X450250994Y-303195051D01*
X450440398Y-303291557D01*
X450642567Y-303357246D01*
X450852523Y-303390500D01*
X450852524Y-303390500D01*
X451065096Y-303390500D01*
X451065097Y-303390500D01*
X451275053Y-303357246D01*
X451477222Y-303291557D01*
X451666626Y-303195051D01*
X451688599Y-303179086D01*
X451838596Y-303070109D01*
X451838598Y-303070106D01*
X451838602Y-303070104D01*
X451988914Y-302919792D01*
X451988916Y-302919788D01*
X451988919Y-302919786D01*
X452113858Y-302747820D01*
X452113857Y-302747820D01*
X452113861Y-302747816D01*
X452118324Y-302739054D01*
X452166298Y-302688259D01*
X452234118Y-302671463D01*
X452300254Y-302693999D01*
X452339296Y-302739056D01*
X452343761Y-302747820D01*
X452468700Y-302919786D01*
X452619023Y-303070109D01*
X452790989Y-303195048D01*
X452790991Y-303195049D01*
X452790994Y-303195051D01*
X452980398Y-303291557D01*
X453182567Y-303357246D01*
X453392523Y-303390500D01*
X453392524Y-303390500D01*
X453605096Y-303390500D01*
X453605097Y-303390500D01*
X453815053Y-303357246D01*
X454017222Y-303291557D01*
X454206626Y-303195051D01*
X454228599Y-303179086D01*
X454378596Y-303070109D01*
X454378598Y-303070106D01*
X454378602Y-303070104D01*
X454528914Y-302919792D01*
X454528916Y-302919788D01*
X454528919Y-302919786D01*
X454653858Y-302747820D01*
X454653857Y-302747820D01*
X454653861Y-302747816D01*
X454658324Y-302739054D01*
X454706298Y-302688259D01*
X454774118Y-302671463D01*
X454840254Y-302693999D01*
X454879296Y-302739056D01*
X454883761Y-302747820D01*
X455008700Y-302919786D01*
X455159023Y-303070109D01*
X455330989Y-303195048D01*
X455330991Y-303195049D01*
X455330994Y-303195051D01*
X455520398Y-303291557D01*
X455722567Y-303357246D01*
X455932523Y-303390500D01*
X455932524Y-303390500D01*
X456145096Y-303390500D01*
X456145097Y-303390500D01*
X456355053Y-303357246D01*
X456557222Y-303291557D01*
X456746626Y-303195051D01*
X456768599Y-303179086D01*
X456918596Y-303070109D01*
X456918598Y-303070106D01*
X456918602Y-303070104D01*
X457068914Y-302919792D01*
X457068916Y-302919788D01*
X457068919Y-302919786D01*
X457193858Y-302747820D01*
X457193857Y-302747820D01*
X457193861Y-302747816D01*
X457198324Y-302739054D01*
X457246298Y-302688259D01*
X457314118Y-302671463D01*
X457380254Y-302693999D01*
X457419296Y-302739056D01*
X457423761Y-302747820D01*
X457548700Y-302919786D01*
X457699023Y-303070109D01*
X457870989Y-303195048D01*
X457870991Y-303195049D01*
X457870994Y-303195051D01*
X458060398Y-303291557D01*
X458262567Y-303357246D01*
X458472523Y-303390500D01*
X458472524Y-303390500D01*
X458685096Y-303390500D01*
X458685097Y-303390500D01*
X458895053Y-303357246D01*
X459097222Y-303291557D01*
X459286626Y-303195051D01*
X459308599Y-303179086D01*
X459458596Y-303070109D01*
X459458598Y-303070106D01*
X459458602Y-303070104D01*
X459608914Y-302919792D01*
X459608916Y-302919788D01*
X459608919Y-302919786D01*
X459733858Y-302747820D01*
X459733857Y-302747820D01*
X459733861Y-302747816D01*
X459738324Y-302739054D01*
X459786298Y-302688259D01*
X459854118Y-302671463D01*
X459920254Y-302693999D01*
X459959296Y-302739056D01*
X459963761Y-302747820D01*
X460088700Y-302919786D01*
X460239023Y-303070109D01*
X460410989Y-303195048D01*
X460410991Y-303195049D01*
X460410994Y-303195051D01*
X460600398Y-303291557D01*
X460802567Y-303357246D01*
X461012523Y-303390500D01*
X461012524Y-303390500D01*
X461225096Y-303390500D01*
X461225097Y-303390500D01*
X461435053Y-303357246D01*
X461637222Y-303291557D01*
X461826626Y-303195051D01*
X461848599Y-303179086D01*
X461998596Y-303070109D01*
X461998598Y-303070106D01*
X461998602Y-303070104D01*
X462148914Y-302919792D01*
X462148916Y-302919788D01*
X462148919Y-302919786D01*
X462273858Y-302747820D01*
X462273857Y-302747820D01*
X462273861Y-302747816D01*
X462278324Y-302739054D01*
X462326298Y-302688259D01*
X462394118Y-302671463D01*
X462460254Y-302693999D01*
X462499296Y-302739056D01*
X462503761Y-302747820D01*
X462628700Y-302919786D01*
X462779023Y-303070109D01*
X462950989Y-303195048D01*
X462950991Y-303195049D01*
X462950994Y-303195051D01*
X463140398Y-303291557D01*
X463342567Y-303357246D01*
X463552523Y-303390500D01*
X463552524Y-303390500D01*
X463765096Y-303390500D01*
X463765097Y-303390500D01*
X463975053Y-303357246D01*
X464177222Y-303291557D01*
X464366626Y-303195051D01*
X464388599Y-303179086D01*
X464538596Y-303070109D01*
X464538598Y-303070106D01*
X464538602Y-303070104D01*
X464688914Y-302919792D01*
X464688916Y-302919788D01*
X464688919Y-302919786D01*
X464813858Y-302747820D01*
X464813857Y-302747820D01*
X464813861Y-302747816D01*
X464818324Y-302739054D01*
X464866298Y-302688259D01*
X464934118Y-302671463D01*
X465000254Y-302693999D01*
X465039296Y-302739056D01*
X465043761Y-302747820D01*
X465168700Y-302919786D01*
X465319023Y-303070109D01*
X465490989Y-303195048D01*
X465490991Y-303195049D01*
X465490994Y-303195051D01*
X465680398Y-303291557D01*
X465882567Y-303357246D01*
X466092523Y-303390500D01*
X466092524Y-303390500D01*
X466305096Y-303390500D01*
X466305097Y-303390500D01*
X466515053Y-303357246D01*
X466717222Y-303291557D01*
X466906626Y-303195051D01*
X466928599Y-303179086D01*
X467078596Y-303070109D01*
X467078598Y-303070106D01*
X467078602Y-303070104D01*
X467228914Y-302919792D01*
X467228916Y-302919788D01*
X467228919Y-302919786D01*
X467353858Y-302747820D01*
X467353857Y-302747820D01*
X467353861Y-302747816D01*
X467358324Y-302739054D01*
X467406298Y-302688259D01*
X467474118Y-302671463D01*
X467540254Y-302693999D01*
X467579296Y-302739056D01*
X467583761Y-302747820D01*
X467708700Y-302919786D01*
X467859023Y-303070109D01*
X468030989Y-303195048D01*
X468030991Y-303195049D01*
X468030994Y-303195051D01*
X468220398Y-303291557D01*
X468422567Y-303357246D01*
X468632523Y-303390500D01*
X468632524Y-303390500D01*
X468845096Y-303390500D01*
X468845097Y-303390500D01*
X469055053Y-303357246D01*
X469257222Y-303291557D01*
X469446626Y-303195051D01*
X469468599Y-303179086D01*
X469618596Y-303070109D01*
X469618598Y-303070106D01*
X469618602Y-303070104D01*
X469768914Y-302919792D01*
X469768916Y-302919788D01*
X469768919Y-302919786D01*
X469893858Y-302747820D01*
X469893857Y-302747820D01*
X469893861Y-302747816D01*
X469898324Y-302739054D01*
X469946298Y-302688259D01*
X470014118Y-302671463D01*
X470080254Y-302693999D01*
X470119296Y-302739056D01*
X470123761Y-302747820D01*
X470248700Y-302919786D01*
X470399023Y-303070109D01*
X470570989Y-303195048D01*
X470570991Y-303195049D01*
X470570994Y-303195051D01*
X470760398Y-303291557D01*
X470962567Y-303357246D01*
X471172523Y-303390500D01*
X471172524Y-303390500D01*
X471385096Y-303390500D01*
X471385097Y-303390500D01*
X471595053Y-303357246D01*
X471797222Y-303291557D01*
X471986626Y-303195051D01*
X472008599Y-303179086D01*
X472158596Y-303070109D01*
X472158598Y-303070106D01*
X472158602Y-303070104D01*
X472308914Y-302919792D01*
X472308916Y-302919788D01*
X472308919Y-302919786D01*
X472433858Y-302747820D01*
X472433857Y-302747820D01*
X472433861Y-302747816D01*
X472438324Y-302739054D01*
X472486298Y-302688259D01*
X472554118Y-302671463D01*
X472620254Y-302693999D01*
X472659296Y-302739056D01*
X472663761Y-302747820D01*
X472788700Y-302919786D01*
X472939023Y-303070109D01*
X473110989Y-303195048D01*
X473110991Y-303195049D01*
X473110994Y-303195051D01*
X473300398Y-303291557D01*
X473502567Y-303357246D01*
X473712523Y-303390500D01*
X473712524Y-303390500D01*
X473925096Y-303390500D01*
X473925097Y-303390500D01*
X474135053Y-303357246D01*
X474337222Y-303291557D01*
X474526626Y-303195051D01*
X474548599Y-303179086D01*
X474698596Y-303070109D01*
X474698598Y-303070106D01*
X474698602Y-303070104D01*
X474848914Y-302919792D01*
X474848916Y-302919788D01*
X474848919Y-302919786D01*
X474960284Y-302766503D01*
X474973861Y-302747816D01*
X474978603Y-302738508D01*
X475026573Y-302687711D01*
X475094393Y-302670911D01*
X475160529Y-302693445D01*
X475199573Y-302738500D01*
X475204187Y-302747555D01*
X475329082Y-302919459D01*
X475329086Y-302919464D01*
X475479345Y-303069723D01*
X475479350Y-303069727D01*
X475651252Y-303194620D01*
X475840592Y-303291095D01*
X476042681Y-303356757D01*
X476108810Y-303367231D01*
X476108810Y-302473012D01*
X476165817Y-302505925D01*
X476292984Y-302540000D01*
X476424636Y-302540000D01*
X476551803Y-302505925D01*
X476608810Y-302473012D01*
X476608810Y-303367230D01*
X476674936Y-303356757D01*
X476674939Y-303356757D01*
X476877027Y-303291095D01*
X477066367Y-303194620D01*
X477238269Y-303069727D01*
X477238274Y-303069723D01*
X477388533Y-302919464D01*
X477388537Y-302919459D01*
X477513430Y-302747558D01*
X477518042Y-302738507D01*
X477566015Y-302687709D01*
X477633835Y-302670912D01*
X477699971Y-302693447D01*
X477739014Y-302738504D01*
X477743759Y-302747817D01*
X477868700Y-302919786D01*
X478019023Y-303070109D01*
X478190989Y-303195048D01*
X478190991Y-303195049D01*
X478190994Y-303195051D01*
X478380398Y-303291557D01*
X478582567Y-303357246D01*
X478792523Y-303390500D01*
X478792524Y-303390500D01*
X479005096Y-303390500D01*
X479005097Y-303390500D01*
X479215053Y-303357246D01*
X479417222Y-303291557D01*
X479606626Y-303195051D01*
X479628599Y-303179086D01*
X479778596Y-303070109D01*
X479778598Y-303070106D01*
X479778602Y-303070104D01*
X479928914Y-302919792D01*
X479928916Y-302919788D01*
X479928919Y-302919786D01*
X480053858Y-302747820D01*
X480053857Y-302747820D01*
X480053861Y-302747816D01*
X480058324Y-302739054D01*
X480106298Y-302688259D01*
X480174118Y-302671463D01*
X480240254Y-302693999D01*
X480279296Y-302739056D01*
X480283761Y-302747820D01*
X480408700Y-302919786D01*
X480559023Y-303070109D01*
X480730989Y-303195048D01*
X480730991Y-303195049D01*
X480730994Y-303195051D01*
X480920398Y-303291557D01*
X481122567Y-303357246D01*
X481332523Y-303390500D01*
X481332524Y-303390500D01*
X481545096Y-303390500D01*
X481545097Y-303390500D01*
X481755053Y-303357246D01*
X481957222Y-303291557D01*
X482146626Y-303195051D01*
X482168599Y-303179086D01*
X482318596Y-303070109D01*
X482318598Y-303070106D01*
X482318602Y-303070104D01*
X482468914Y-302919792D01*
X482468916Y-302919788D01*
X482468919Y-302919786D01*
X482593858Y-302747820D01*
X482593857Y-302747820D01*
X482593861Y-302747816D01*
X482690367Y-302558412D01*
X482756056Y-302356243D01*
X482789310Y-302146287D01*
X482789310Y-301933713D01*
X482756056Y-301723757D01*
X482704171Y-301564071D01*
X491049499Y-301564071D01*
X491074497Y-301689738D01*
X491074499Y-301689744D01*
X491123533Y-301808124D01*
X491123538Y-301808133D01*
X491194723Y-301914668D01*
X491194726Y-301914672D01*
X491285327Y-302005273D01*
X491285331Y-302005276D01*
X491391866Y-302076461D01*
X491391872Y-302076464D01*
X491391873Y-302076465D01*
X491510256Y-302125501D01*
X491510260Y-302125501D01*
X491510261Y-302125502D01*
X491635928Y-302150500D01*
X491635931Y-302150500D01*
X491764071Y-302150500D01*
X491848615Y-302133682D01*
X491889744Y-302125501D01*
X492008127Y-302076465D01*
X492114669Y-302005276D01*
X492205276Y-301914669D01*
X492276465Y-301808127D01*
X492325501Y-301689744D01*
X492335416Y-301639901D01*
X492350500Y-301564071D01*
X576049499Y-301564071D01*
X576074497Y-301689738D01*
X576074499Y-301689744D01*
X576123533Y-301808124D01*
X576123538Y-301808133D01*
X576194723Y-301914668D01*
X576194726Y-301914672D01*
X576285327Y-302005273D01*
X576285331Y-302005276D01*
X576391866Y-302076461D01*
X576391872Y-302076464D01*
X576391873Y-302076465D01*
X576510256Y-302125501D01*
X576510260Y-302125501D01*
X576510261Y-302125502D01*
X576635928Y-302150500D01*
X576635931Y-302150500D01*
X576764071Y-302150500D01*
X576848615Y-302133682D01*
X576889744Y-302125501D01*
X577008127Y-302076465D01*
X577114669Y-302005276D01*
X577205276Y-301914669D01*
X577276465Y-301808127D01*
X577325501Y-301689744D01*
X577335416Y-301639901D01*
X577350500Y-301564071D01*
X661049499Y-301564071D01*
X661074497Y-301689738D01*
X661074499Y-301689744D01*
X661123533Y-301808124D01*
X661123538Y-301808133D01*
X661194723Y-301914668D01*
X661194726Y-301914672D01*
X661285327Y-302005273D01*
X661285331Y-302005276D01*
X661391866Y-302076461D01*
X661391872Y-302076464D01*
X661391873Y-302076465D01*
X661510256Y-302125501D01*
X661510260Y-302125501D01*
X661510261Y-302125502D01*
X661635928Y-302150500D01*
X661635931Y-302150500D01*
X661764071Y-302150500D01*
X661848615Y-302133682D01*
X661889744Y-302125501D01*
X662008127Y-302076465D01*
X662114669Y-302005276D01*
X662205276Y-301914669D01*
X662276465Y-301808127D01*
X662325501Y-301689744D01*
X662335416Y-301639901D01*
X662350500Y-301564071D01*
X746049499Y-301564071D01*
X746074497Y-301689738D01*
X746074499Y-301689744D01*
X746123533Y-301808124D01*
X746123538Y-301808133D01*
X746194723Y-301914668D01*
X746194726Y-301914672D01*
X746285327Y-302005273D01*
X746285331Y-302005276D01*
X746391866Y-302076461D01*
X746391872Y-302076464D01*
X746391873Y-302076465D01*
X746510256Y-302125501D01*
X746510260Y-302125501D01*
X746510261Y-302125502D01*
X746635928Y-302150500D01*
X746635931Y-302150500D01*
X746764071Y-302150500D01*
X746848615Y-302133682D01*
X746889744Y-302125501D01*
X747008127Y-302076465D01*
X747114669Y-302005276D01*
X747205276Y-301914669D01*
X747276465Y-301808127D01*
X747325501Y-301689744D01*
X747335416Y-301639901D01*
X747350500Y-301564071D01*
X747350500Y-301435928D01*
X747325502Y-301310261D01*
X747325501Y-301310260D01*
X747325501Y-301310256D01*
X747276465Y-301191873D01*
X747276464Y-301191872D01*
X747276461Y-301191866D01*
X747205276Y-301085331D01*
X747205273Y-301085327D01*
X747114672Y-300994726D01*
X747114668Y-300994723D01*
X747008133Y-300923538D01*
X747008124Y-300923533D01*
X746889744Y-300874499D01*
X746889738Y-300874497D01*
X746764071Y-300849500D01*
X746764069Y-300849500D01*
X746635931Y-300849500D01*
X746635929Y-300849500D01*
X746510261Y-300874497D01*
X746510255Y-300874499D01*
X746391875Y-300923533D01*
X746391866Y-300923538D01*
X746285331Y-300994723D01*
X746285327Y-300994726D01*
X746194726Y-301085327D01*
X746194723Y-301085331D01*
X746123538Y-301191866D01*
X746123533Y-301191875D01*
X746074499Y-301310255D01*
X746074497Y-301310261D01*
X746049500Y-301435928D01*
X746049500Y-301435931D01*
X746049500Y-301564069D01*
X746049500Y-301564071D01*
X746049499Y-301564071D01*
X662350500Y-301564071D01*
X662350500Y-301435928D01*
X662325502Y-301310261D01*
X662325501Y-301310260D01*
X662325501Y-301310256D01*
X662276465Y-301191873D01*
X662276464Y-301191872D01*
X662276461Y-301191866D01*
X662205276Y-301085331D01*
X662205273Y-301085327D01*
X662114672Y-300994726D01*
X662114668Y-300994723D01*
X662008133Y-300923538D01*
X662008124Y-300923533D01*
X661889744Y-300874499D01*
X661889738Y-300874497D01*
X661764071Y-300849500D01*
X661764069Y-300849500D01*
X661635931Y-300849500D01*
X661635929Y-300849500D01*
X661510261Y-300874497D01*
X661510255Y-300874499D01*
X661391875Y-300923533D01*
X661391866Y-300923538D01*
X661285331Y-300994723D01*
X661285327Y-300994726D01*
X661194726Y-301085327D01*
X661194723Y-301085331D01*
X661123538Y-301191866D01*
X661123533Y-301191875D01*
X661074499Y-301310255D01*
X661074497Y-301310261D01*
X661049500Y-301435928D01*
X661049500Y-301435931D01*
X661049500Y-301564069D01*
X661049500Y-301564071D01*
X661049499Y-301564071D01*
X577350500Y-301564071D01*
X577350500Y-301435928D01*
X577325502Y-301310261D01*
X577325501Y-301310260D01*
X577325501Y-301310256D01*
X577276465Y-301191873D01*
X577276464Y-301191872D01*
X577276461Y-301191866D01*
X577205276Y-301085331D01*
X577205273Y-301085327D01*
X577114672Y-300994726D01*
X577114668Y-300994723D01*
X577008133Y-300923538D01*
X577008124Y-300923533D01*
X576889744Y-300874499D01*
X576889738Y-300874497D01*
X576764071Y-300849500D01*
X576764069Y-300849500D01*
X576635931Y-300849500D01*
X576635929Y-300849500D01*
X576510261Y-300874497D01*
X576510255Y-300874499D01*
X576391875Y-300923533D01*
X576391866Y-300923538D01*
X576285331Y-300994723D01*
X576285327Y-300994726D01*
X576194726Y-301085327D01*
X576194723Y-301085331D01*
X576123538Y-301191866D01*
X576123533Y-301191875D01*
X576074499Y-301310255D01*
X576074497Y-301310261D01*
X576049500Y-301435928D01*
X576049500Y-301435931D01*
X576049500Y-301564069D01*
X576049500Y-301564071D01*
X576049499Y-301564071D01*
X492350500Y-301564071D01*
X492350500Y-301435928D01*
X492325502Y-301310261D01*
X492325501Y-301310260D01*
X492325501Y-301310256D01*
X492276465Y-301191873D01*
X492276464Y-301191872D01*
X492276461Y-301191866D01*
X492205276Y-301085331D01*
X492205273Y-301085327D01*
X492114672Y-300994726D01*
X492114668Y-300994723D01*
X492008133Y-300923538D01*
X492008124Y-300923533D01*
X491889744Y-300874499D01*
X491889738Y-300874497D01*
X491764071Y-300849500D01*
X491764069Y-300849500D01*
X491635931Y-300849500D01*
X491635929Y-300849500D01*
X491510261Y-300874497D01*
X491510255Y-300874499D01*
X491391875Y-300923533D01*
X491391866Y-300923538D01*
X491285331Y-300994723D01*
X491285327Y-300994726D01*
X491194726Y-301085327D01*
X491194723Y-301085331D01*
X491123538Y-301191866D01*
X491123533Y-301191875D01*
X491074499Y-301310255D01*
X491074497Y-301310261D01*
X491049500Y-301435928D01*
X491049500Y-301435931D01*
X491049500Y-301564069D01*
X491049500Y-301564071D01*
X491049499Y-301564071D01*
X482704171Y-301564071D01*
X482690367Y-301521588D01*
X482690365Y-301521585D01*
X482690365Y-301521583D01*
X482672303Y-301486135D01*
X482672302Y-301486134D01*
X482593861Y-301332184D01*
X482593859Y-301332181D01*
X482593858Y-301332179D01*
X482468919Y-301160213D01*
X482355379Y-301046673D01*
X482321894Y-300985350D01*
X482326878Y-300915658D01*
X482368750Y-300859725D01*
X482399725Y-300842810D01*
X482531141Y-300793796D01*
X482646356Y-300707546D01*
X482732606Y-300592331D01*
X482782901Y-300457483D01*
X482789310Y-300397873D01*
X482789309Y-299921153D01*
X486699500Y-299921153D01*
X486699500Y-300078846D01*
X486730261Y-300233489D01*
X486730264Y-300233501D01*
X486790602Y-300379172D01*
X486790609Y-300379185D01*
X486878210Y-300510288D01*
X486878213Y-300510292D01*
X486989707Y-300621786D01*
X486989711Y-300621789D01*
X487120814Y-300709390D01*
X487120827Y-300709397D01*
X487266498Y-300769735D01*
X487266503Y-300769737D01*
X487363460Y-300789023D01*
X487421153Y-300800499D01*
X487421156Y-300800500D01*
X487421158Y-300800500D01*
X487578844Y-300800500D01*
X487578845Y-300800499D01*
X487733497Y-300769737D01*
X487879179Y-300709394D01*
X488010289Y-300621789D01*
X488121789Y-300510289D01*
X488209394Y-300379179D01*
X488269737Y-300233497D01*
X488300500Y-300078842D01*
X488300500Y-299921158D01*
X488300500Y-299921155D01*
X488300499Y-299921153D01*
X488279742Y-299816803D01*
X488269737Y-299766503D01*
X488266537Y-299758778D01*
X488209397Y-299620827D01*
X488209390Y-299620814D01*
X488121790Y-299489712D01*
X488121784Y-299489705D01*
X488053232Y-299421153D01*
X571699500Y-299421153D01*
X571699500Y-299578846D01*
X571730261Y-299733489D01*
X571730264Y-299733501D01*
X571790602Y-299879172D01*
X571790609Y-299879185D01*
X571878210Y-300010288D01*
X571878213Y-300010292D01*
X571989707Y-300121786D01*
X571989711Y-300121789D01*
X572120814Y-300209390D01*
X572120827Y-300209397D01*
X572266498Y-300269735D01*
X572266503Y-300269737D01*
X572421153Y-300300499D01*
X572421156Y-300300500D01*
X572421158Y-300300500D01*
X572578844Y-300300500D01*
X572578845Y-300300499D01*
X572733497Y-300269737D01*
X572879179Y-300209394D01*
X573010289Y-300121789D01*
X573121789Y-300010289D01*
X573181348Y-299921153D01*
X656699500Y-299921153D01*
X656699500Y-300078846D01*
X656730261Y-300233489D01*
X656730264Y-300233501D01*
X656790602Y-300379172D01*
X656790609Y-300379185D01*
X656878210Y-300510288D01*
X656878213Y-300510292D01*
X656989707Y-300621786D01*
X656989711Y-300621789D01*
X657120814Y-300709390D01*
X657120827Y-300709397D01*
X657266498Y-300769735D01*
X657266503Y-300769737D01*
X657363460Y-300789023D01*
X657421153Y-300800499D01*
X657421156Y-300800500D01*
X657421158Y-300800500D01*
X657578844Y-300800500D01*
X657578845Y-300800499D01*
X657733497Y-300769737D01*
X657879179Y-300709394D01*
X658010289Y-300621789D01*
X658121789Y-300510289D01*
X658209394Y-300379179D01*
X658269737Y-300233497D01*
X658300500Y-300078842D01*
X658300500Y-299921158D01*
X658300500Y-299921155D01*
X658300499Y-299921153D01*
X658279742Y-299816803D01*
X658269737Y-299766503D01*
X658266537Y-299758778D01*
X658209397Y-299620827D01*
X658209390Y-299620814D01*
X658121790Y-299489712D01*
X658121784Y-299489705D01*
X658053232Y-299421153D01*
X741699500Y-299421153D01*
X741699500Y-299578846D01*
X741730261Y-299733489D01*
X741730264Y-299733501D01*
X741790602Y-299879172D01*
X741790609Y-299879185D01*
X741878210Y-300010288D01*
X741878213Y-300010292D01*
X741989707Y-300121786D01*
X741989711Y-300121789D01*
X742120814Y-300209390D01*
X742120827Y-300209397D01*
X742266498Y-300269735D01*
X742266503Y-300269737D01*
X742421153Y-300300499D01*
X742421156Y-300300500D01*
X742421158Y-300300500D01*
X742578844Y-300300500D01*
X742578845Y-300300499D01*
X742733497Y-300269737D01*
X742879179Y-300209394D01*
X743010289Y-300121789D01*
X743121789Y-300010289D01*
X743209394Y-299879179D01*
X743269737Y-299733497D01*
X743300500Y-299578842D01*
X743300500Y-299421158D01*
X743300500Y-299421155D01*
X743300499Y-299421153D01*
X743292487Y-299380876D01*
X743269737Y-299266503D01*
X743259048Y-299240698D01*
X743209397Y-299120827D01*
X743209390Y-299120814D01*
X743121789Y-298989711D01*
X743121786Y-298989707D01*
X743010292Y-298878213D01*
X743010288Y-298878210D01*
X742879185Y-298790609D01*
X742879172Y-298790602D01*
X742733501Y-298730264D01*
X742733489Y-298730261D01*
X742578845Y-298699500D01*
X742578842Y-298699500D01*
X742421158Y-298699500D01*
X742421155Y-298699500D01*
X742266510Y-298730261D01*
X742266498Y-298730264D01*
X742120827Y-298790602D01*
X742120814Y-298790609D01*
X741989711Y-298878210D01*
X741989707Y-298878213D01*
X741878213Y-298989707D01*
X741878210Y-298989711D01*
X741790609Y-299120814D01*
X741790602Y-299120827D01*
X741730264Y-299266498D01*
X741730261Y-299266510D01*
X741699500Y-299421153D01*
X658053232Y-299421153D01*
X658010292Y-299378213D01*
X658010288Y-299378210D01*
X657879185Y-299290609D01*
X657879172Y-299290602D01*
X657733501Y-299230264D01*
X657733489Y-299230261D01*
X657578845Y-299199500D01*
X657578842Y-299199500D01*
X657421158Y-299199500D01*
X657421155Y-299199500D01*
X657266510Y-299230261D01*
X657266498Y-299230264D01*
X657120827Y-299290602D01*
X657120814Y-299290609D01*
X656989711Y-299378210D01*
X656989707Y-299378213D01*
X656878213Y-299489707D01*
X656878210Y-299489711D01*
X656790609Y-299620814D01*
X656790602Y-299620827D01*
X656730264Y-299766498D01*
X656730261Y-299766510D01*
X656699500Y-299921153D01*
X573181348Y-299921153D01*
X573209394Y-299879179D01*
X573269737Y-299733497D01*
X573300500Y-299578842D01*
X573300500Y-299421158D01*
X573300500Y-299421155D01*
X573300499Y-299421153D01*
X573292487Y-299380876D01*
X573269737Y-299266503D01*
X573259048Y-299240698D01*
X573209397Y-299120827D01*
X573209390Y-299120814D01*
X573121789Y-298989711D01*
X573121786Y-298989707D01*
X573010292Y-298878213D01*
X573010288Y-298878210D01*
X572879185Y-298790609D01*
X572879172Y-298790602D01*
X572733501Y-298730264D01*
X572733489Y-298730261D01*
X572578845Y-298699500D01*
X572578842Y-298699500D01*
X572421158Y-298699500D01*
X572421155Y-298699500D01*
X572266510Y-298730261D01*
X572266498Y-298730264D01*
X572120827Y-298790602D01*
X572120814Y-298790609D01*
X571989711Y-298878210D01*
X571989707Y-298878213D01*
X571878213Y-298989707D01*
X571878210Y-298989711D01*
X571790609Y-299120814D01*
X571790602Y-299120827D01*
X571730264Y-299266498D01*
X571730261Y-299266510D01*
X571699500Y-299421153D01*
X488053232Y-299421153D01*
X488010292Y-299378213D01*
X488010288Y-299378210D01*
X487879185Y-299290609D01*
X487879172Y-299290602D01*
X487733501Y-299230264D01*
X487733489Y-299230261D01*
X487578845Y-299199500D01*
X487578842Y-299199500D01*
X487421158Y-299199500D01*
X487421155Y-299199500D01*
X487266510Y-299230261D01*
X487266498Y-299230264D01*
X487120827Y-299290602D01*
X487120814Y-299290609D01*
X486989711Y-299378210D01*
X486989707Y-299378213D01*
X486878213Y-299489707D01*
X486878210Y-299489711D01*
X486790609Y-299620814D01*
X486790602Y-299620827D01*
X486730264Y-299766498D01*
X486730261Y-299766510D01*
X486699500Y-299921153D01*
X482789309Y-299921153D01*
X482789309Y-299489712D01*
X482789309Y-298602129D01*
X482789308Y-298602123D01*
X482782901Y-298542516D01*
X482732607Y-298407671D01*
X482732603Y-298407664D01*
X482646357Y-298292455D01*
X482646354Y-298292452D01*
X482531145Y-298206206D01*
X482531138Y-298206202D01*
X482396292Y-298155908D01*
X482396293Y-298155908D01*
X482336693Y-298149501D01*
X482336691Y-298149500D01*
X482336683Y-298149500D01*
X482336674Y-298149500D01*
X480540939Y-298149500D01*
X480540933Y-298149501D01*
X480481326Y-298155908D01*
X480346481Y-298206202D01*
X480346474Y-298206206D01*
X480231265Y-298292452D01*
X480231262Y-298292455D01*
X480145016Y-298407664D01*
X480145013Y-298407669D01*
X480095999Y-298539083D01*
X480054127Y-298595016D01*
X479988663Y-298619433D01*
X479920390Y-298604581D01*
X479892136Y-298583430D01*
X479778596Y-298469890D01*
X479606630Y-298344951D01*
X479417224Y-298248444D01*
X479417223Y-298248443D01*
X479417222Y-298248443D01*
X479215053Y-298182754D01*
X479215051Y-298182753D01*
X479215050Y-298182753D01*
X479053767Y-298157208D01*
X479005097Y-298149500D01*
X478792523Y-298149500D01*
X478743852Y-298157208D01*
X478582570Y-298182753D01*
X478380395Y-298248444D01*
X478190989Y-298344951D01*
X478019023Y-298469890D01*
X477868700Y-298620213D01*
X477743759Y-298792182D01*
X477739294Y-298800946D01*
X477691319Y-298851742D01*
X477623498Y-298868536D01*
X477557363Y-298845998D01*
X477518326Y-298800946D01*
X477513860Y-298792182D01*
X477388919Y-298620213D01*
X477238596Y-298469890D01*
X477066630Y-298344951D01*
X476877224Y-298248444D01*
X476877223Y-298248443D01*
X476877222Y-298248443D01*
X476675053Y-298182754D01*
X476675051Y-298182753D01*
X476675050Y-298182753D01*
X476513767Y-298157208D01*
X476465097Y-298149500D01*
X476252523Y-298149500D01*
X476203852Y-298157208D01*
X476042570Y-298182753D01*
X475840395Y-298248444D01*
X475650989Y-298344951D01*
X475479023Y-298469890D01*
X475328700Y-298620213D01*
X475203759Y-298792182D01*
X475199294Y-298800946D01*
X475151319Y-298851742D01*
X475083498Y-298868536D01*
X475017363Y-298845998D01*
X474978326Y-298800946D01*
X474973860Y-298792182D01*
X474848919Y-298620213D01*
X474698596Y-298469890D01*
X474526630Y-298344951D01*
X474337224Y-298248444D01*
X474337223Y-298248443D01*
X474337222Y-298248443D01*
X474135053Y-298182754D01*
X474135051Y-298182753D01*
X474135050Y-298182753D01*
X473973767Y-298157208D01*
X473925097Y-298149500D01*
X473712523Y-298149500D01*
X473663852Y-298157208D01*
X473502570Y-298182753D01*
X473300395Y-298248444D01*
X473110989Y-298344951D01*
X472939023Y-298469890D01*
X472788700Y-298620213D01*
X472663759Y-298792182D01*
X472659294Y-298800946D01*
X472611319Y-298851742D01*
X472543498Y-298868536D01*
X472477363Y-298845998D01*
X472438326Y-298800946D01*
X472433860Y-298792182D01*
X472308919Y-298620213D01*
X472158596Y-298469890D01*
X471986630Y-298344951D01*
X471797224Y-298248444D01*
X471797223Y-298248443D01*
X471797222Y-298248443D01*
X471595053Y-298182754D01*
X471595051Y-298182753D01*
X471595050Y-298182753D01*
X471433767Y-298157208D01*
X471385097Y-298149500D01*
X471172523Y-298149500D01*
X471123852Y-298157208D01*
X470962570Y-298182753D01*
X470760395Y-298248444D01*
X470570989Y-298344951D01*
X470399023Y-298469890D01*
X470248700Y-298620213D01*
X470123759Y-298792182D01*
X470119294Y-298800946D01*
X470071319Y-298851742D01*
X470003498Y-298868536D01*
X469937363Y-298845998D01*
X469898326Y-298800946D01*
X469893860Y-298792182D01*
X469768919Y-298620213D01*
X469618596Y-298469890D01*
X469446630Y-298344951D01*
X469257224Y-298248444D01*
X469257223Y-298248443D01*
X469257222Y-298248443D01*
X469055053Y-298182754D01*
X469055051Y-298182753D01*
X469055050Y-298182753D01*
X468893767Y-298157208D01*
X468845097Y-298149500D01*
X468632523Y-298149500D01*
X468583852Y-298157208D01*
X468422570Y-298182753D01*
X468220395Y-298248444D01*
X468030989Y-298344951D01*
X467859023Y-298469890D01*
X467708700Y-298620213D01*
X467583759Y-298792182D01*
X467579294Y-298800946D01*
X467531319Y-298851742D01*
X467463498Y-298868536D01*
X467397363Y-298845998D01*
X467358326Y-298800946D01*
X467353860Y-298792182D01*
X467228919Y-298620213D01*
X467078596Y-298469890D01*
X466906630Y-298344951D01*
X466717224Y-298248444D01*
X466717223Y-298248443D01*
X466717222Y-298248443D01*
X466515053Y-298182754D01*
X466515051Y-298182753D01*
X466515050Y-298182753D01*
X466353767Y-298157208D01*
X466305097Y-298149500D01*
X466092523Y-298149500D01*
X466043852Y-298157208D01*
X465882570Y-298182753D01*
X465680395Y-298248444D01*
X465490989Y-298344951D01*
X465319023Y-298469890D01*
X465168700Y-298620213D01*
X465043759Y-298792182D01*
X465039294Y-298800946D01*
X464991319Y-298851742D01*
X464923498Y-298868536D01*
X464857363Y-298845998D01*
X464818326Y-298800946D01*
X464813860Y-298792182D01*
X464688919Y-298620213D01*
X464538596Y-298469890D01*
X464366630Y-298344951D01*
X464177224Y-298248444D01*
X464177223Y-298248443D01*
X464177222Y-298248443D01*
X463975053Y-298182754D01*
X463975051Y-298182753D01*
X463975050Y-298182753D01*
X463813767Y-298157208D01*
X463765097Y-298149500D01*
X463552523Y-298149500D01*
X463503852Y-298157208D01*
X463342570Y-298182753D01*
X463140395Y-298248444D01*
X462950989Y-298344951D01*
X462779023Y-298469890D01*
X462628700Y-298620213D01*
X462503759Y-298792182D01*
X462499294Y-298800946D01*
X462451319Y-298851742D01*
X462383498Y-298868536D01*
X462317363Y-298845998D01*
X462278326Y-298800946D01*
X462273860Y-298792182D01*
X462148919Y-298620213D01*
X461998596Y-298469890D01*
X461826630Y-298344951D01*
X461637224Y-298248444D01*
X461637223Y-298248443D01*
X461637222Y-298248443D01*
X461435053Y-298182754D01*
X461435051Y-298182753D01*
X461435050Y-298182753D01*
X461273767Y-298157208D01*
X461225097Y-298149500D01*
X461012523Y-298149500D01*
X460963852Y-298157208D01*
X460802570Y-298182753D01*
X460600395Y-298248444D01*
X460410989Y-298344951D01*
X460239023Y-298469890D01*
X460088700Y-298620213D01*
X459963759Y-298792182D01*
X459959294Y-298800946D01*
X459911319Y-298851742D01*
X459843498Y-298868536D01*
X459777363Y-298845998D01*
X459738326Y-298800946D01*
X459733860Y-298792182D01*
X459608919Y-298620213D01*
X459458596Y-298469890D01*
X459286630Y-298344951D01*
X459097224Y-298248444D01*
X459097223Y-298248443D01*
X459097222Y-298248443D01*
X458895053Y-298182754D01*
X458895051Y-298182753D01*
X458895050Y-298182753D01*
X458733767Y-298157208D01*
X458685097Y-298149500D01*
X458472523Y-298149500D01*
X458423852Y-298157208D01*
X458262570Y-298182753D01*
X458060395Y-298248444D01*
X457870989Y-298344951D01*
X457699023Y-298469890D01*
X457548700Y-298620213D01*
X457423759Y-298792182D01*
X457419294Y-298800946D01*
X457371319Y-298851742D01*
X457303498Y-298868536D01*
X457237363Y-298845998D01*
X457198326Y-298800946D01*
X457193860Y-298792182D01*
X457068919Y-298620213D01*
X456918596Y-298469890D01*
X456746630Y-298344951D01*
X456557224Y-298248444D01*
X456557223Y-298248443D01*
X456557222Y-298248443D01*
X456355053Y-298182754D01*
X456355051Y-298182753D01*
X456355050Y-298182753D01*
X456193767Y-298157208D01*
X456145097Y-298149500D01*
X455932523Y-298149500D01*
X455883852Y-298157208D01*
X455722570Y-298182753D01*
X455520395Y-298248444D01*
X455330989Y-298344951D01*
X455159023Y-298469890D01*
X455008700Y-298620213D01*
X454883759Y-298792182D01*
X454879294Y-298800946D01*
X454831319Y-298851742D01*
X454763498Y-298868536D01*
X454697363Y-298845998D01*
X454658326Y-298800946D01*
X454653860Y-298792182D01*
X454528919Y-298620213D01*
X454378596Y-298469890D01*
X454206630Y-298344951D01*
X454017224Y-298248444D01*
X454017223Y-298248443D01*
X454017222Y-298248443D01*
X453815053Y-298182754D01*
X453815051Y-298182753D01*
X453815050Y-298182753D01*
X453653767Y-298157208D01*
X453605097Y-298149500D01*
X453392523Y-298149500D01*
X453343852Y-298157208D01*
X453182570Y-298182753D01*
X452980395Y-298248444D01*
X452790989Y-298344951D01*
X452619023Y-298469890D01*
X452468700Y-298620213D01*
X452343759Y-298792182D01*
X452339294Y-298800946D01*
X452291319Y-298851742D01*
X452223498Y-298868536D01*
X452157363Y-298845998D01*
X452118326Y-298800946D01*
X452113860Y-298792182D01*
X451988919Y-298620213D01*
X451838596Y-298469890D01*
X451666630Y-298344951D01*
X451477224Y-298248444D01*
X451477223Y-298248443D01*
X451477222Y-298248443D01*
X451275053Y-298182754D01*
X451275051Y-298182753D01*
X451275050Y-298182753D01*
X451113767Y-298157208D01*
X451065097Y-298149500D01*
X450852523Y-298149500D01*
X450803852Y-298157208D01*
X450642570Y-298182753D01*
X450440395Y-298248444D01*
X450250989Y-298344951D01*
X450079023Y-298469890D01*
X449928700Y-298620213D01*
X449803759Y-298792182D01*
X449799294Y-298800946D01*
X449751319Y-298851742D01*
X449683498Y-298868536D01*
X449617363Y-298845998D01*
X449578326Y-298800946D01*
X449573860Y-298792182D01*
X449448919Y-298620213D01*
X449298596Y-298469890D01*
X449126630Y-298344951D01*
X448937224Y-298248444D01*
X448937223Y-298248443D01*
X448937222Y-298248443D01*
X448735053Y-298182754D01*
X448735051Y-298182753D01*
X448735050Y-298182753D01*
X448573767Y-298157208D01*
X448525097Y-298149500D01*
X448312523Y-298149500D01*
X448263852Y-298157208D01*
X448102570Y-298182753D01*
X447900395Y-298248444D01*
X447710989Y-298344951D01*
X447539023Y-298469890D01*
X447388700Y-298620213D01*
X447263759Y-298792182D01*
X447259294Y-298800946D01*
X447211319Y-298851742D01*
X447143498Y-298868536D01*
X447077363Y-298845998D01*
X447038326Y-298800946D01*
X447033860Y-298792182D01*
X446908919Y-298620213D01*
X446758596Y-298469890D01*
X446586630Y-298344951D01*
X446397224Y-298248444D01*
X446397223Y-298248443D01*
X446397222Y-298248443D01*
X446195053Y-298182754D01*
X446195051Y-298182753D01*
X446195050Y-298182753D01*
X446033767Y-298157208D01*
X445985097Y-298149500D01*
X445772523Y-298149500D01*
X445723852Y-298157208D01*
X445562570Y-298182753D01*
X445360395Y-298248444D01*
X445170989Y-298344951D01*
X444999023Y-298469890D01*
X444848700Y-298620213D01*
X444723759Y-298792182D01*
X444719294Y-298800946D01*
X444671319Y-298851742D01*
X444603498Y-298868536D01*
X444537363Y-298845998D01*
X444498326Y-298800946D01*
X444493860Y-298792182D01*
X444368919Y-298620213D01*
X444218596Y-298469890D01*
X444046630Y-298344951D01*
X443857224Y-298248444D01*
X443857223Y-298248443D01*
X443857222Y-298248443D01*
X443655053Y-298182754D01*
X443655051Y-298182753D01*
X443655050Y-298182753D01*
X443493767Y-298157208D01*
X443445097Y-298149500D01*
X443232523Y-298149500D01*
X443183852Y-298157208D01*
X443022570Y-298182753D01*
X442820395Y-298248444D01*
X442630989Y-298344951D01*
X442459023Y-298469890D01*
X442308700Y-298620213D01*
X442183759Y-298792182D01*
X442179294Y-298800946D01*
X442131319Y-298851742D01*
X442063498Y-298868536D01*
X441997363Y-298845998D01*
X441958326Y-298800946D01*
X441953860Y-298792182D01*
X441828919Y-298620213D01*
X441678596Y-298469890D01*
X441506630Y-298344951D01*
X441317224Y-298248444D01*
X441317223Y-298248443D01*
X441317222Y-298248443D01*
X441115053Y-298182754D01*
X441115051Y-298182753D01*
X441115050Y-298182753D01*
X440953767Y-298157208D01*
X440905097Y-298149500D01*
X440692523Y-298149500D01*
X440643852Y-298157208D01*
X440482570Y-298182753D01*
X440280395Y-298248444D01*
X440090989Y-298344951D01*
X439919023Y-298469890D01*
X439768700Y-298620213D01*
X439643759Y-298792182D01*
X439639294Y-298800946D01*
X439591319Y-298851742D01*
X439523498Y-298868536D01*
X439457363Y-298845998D01*
X439418326Y-298800946D01*
X439413860Y-298792182D01*
X439288919Y-298620213D01*
X439138596Y-298469890D01*
X438966630Y-298344951D01*
X438777224Y-298248444D01*
X438777223Y-298248443D01*
X438777222Y-298248443D01*
X438575053Y-298182754D01*
X438575051Y-298182753D01*
X438575050Y-298182753D01*
X438413767Y-298157208D01*
X438365097Y-298149500D01*
X438152523Y-298149500D01*
X438103852Y-298157208D01*
X437942570Y-298182753D01*
X437740395Y-298248444D01*
X437550989Y-298344951D01*
X437379023Y-298469890D01*
X437228700Y-298620213D01*
X437103759Y-298792182D01*
X437099294Y-298800946D01*
X437051319Y-298851742D01*
X436983498Y-298868536D01*
X436917363Y-298845998D01*
X436878326Y-298800946D01*
X436873860Y-298792182D01*
X436748919Y-298620213D01*
X436598596Y-298469890D01*
X436426630Y-298344951D01*
X436237224Y-298248444D01*
X436237223Y-298248443D01*
X436237222Y-298248443D01*
X436035053Y-298182754D01*
X436035051Y-298182753D01*
X436035050Y-298182753D01*
X435873767Y-298157208D01*
X435825097Y-298149500D01*
X435612523Y-298149500D01*
X435563852Y-298157208D01*
X435402570Y-298182753D01*
X435200395Y-298248444D01*
X435010989Y-298344951D01*
X434839023Y-298469890D01*
X434688700Y-298620213D01*
X434563759Y-298792182D01*
X434559294Y-298800946D01*
X434511319Y-298851742D01*
X434443498Y-298868536D01*
X434377363Y-298845998D01*
X434338326Y-298800946D01*
X434333860Y-298792182D01*
X434208919Y-298620213D01*
X434058596Y-298469890D01*
X433886630Y-298344951D01*
X433697224Y-298248444D01*
X433697223Y-298248443D01*
X433697222Y-298248443D01*
X433495053Y-298182754D01*
X433495051Y-298182753D01*
X433495050Y-298182753D01*
X433333767Y-298157208D01*
X433285097Y-298149500D01*
X433072523Y-298149500D01*
X433023852Y-298157208D01*
X432862570Y-298182753D01*
X432660395Y-298248444D01*
X432470989Y-298344951D01*
X432299023Y-298469890D01*
X432148700Y-298620213D01*
X432023761Y-298792179D01*
X431927254Y-298981585D01*
X431927253Y-298981587D01*
X431927253Y-298981588D01*
X431926974Y-298982446D01*
X431861563Y-299183760D01*
X431844640Y-299290609D01*
X431828310Y-299393713D01*
X428468876Y-299393713D01*
X428459394Y-299370821D01*
X428459393Y-299370820D01*
X428459390Y-299370814D01*
X428371789Y-299239711D01*
X428371786Y-299239707D01*
X428260292Y-299128213D01*
X428260288Y-299128210D01*
X428129185Y-299040609D01*
X428129172Y-299040602D01*
X427983501Y-298980264D01*
X427983489Y-298980261D01*
X427828845Y-298949500D01*
X427828842Y-298949500D01*
X427671158Y-298949500D01*
X427671155Y-298949500D01*
X427516510Y-298980261D01*
X427516498Y-298980264D01*
X427370827Y-299040602D01*
X427370814Y-299040609D01*
X427239711Y-299128210D01*
X427239707Y-299128213D01*
X427160708Y-299207213D01*
X427099385Y-299240698D01*
X427029693Y-299235714D01*
X427004136Y-299222634D01*
X426942985Y-299181774D01*
X426942972Y-299181767D01*
X426797301Y-299121429D01*
X426797289Y-299121426D01*
X426642645Y-299090665D01*
X426642642Y-299090665D01*
X426484958Y-299090665D01*
X426484955Y-299090665D01*
X426330310Y-299121426D01*
X426330298Y-299121429D01*
X426184627Y-299181767D01*
X426184614Y-299181774D01*
X426053511Y-299269375D01*
X426053507Y-299269378D01*
X425942013Y-299380872D01*
X425942010Y-299380876D01*
X425854409Y-299511979D01*
X425854402Y-299511992D01*
X425794064Y-299657663D01*
X425794061Y-299657675D01*
X425763300Y-299812318D01*
X402737089Y-299812318D01*
X402759265Y-299758779D01*
X402759265Y-299758778D01*
X402760226Y-299756458D01*
X402769737Y-299733497D01*
X402800500Y-299578842D01*
X402800500Y-299421158D01*
X402800500Y-299421155D01*
X402800499Y-299421153D01*
X402792487Y-299380876D01*
X402769737Y-299266503D01*
X402759048Y-299240698D01*
X402709397Y-299120827D01*
X402709390Y-299120814D01*
X402621789Y-298989711D01*
X402621786Y-298989707D01*
X402510292Y-298878213D01*
X402510288Y-298878210D01*
X402379185Y-298790609D01*
X402379172Y-298790602D01*
X402233501Y-298730264D01*
X402233489Y-298730261D01*
X402078845Y-298699500D01*
X402078842Y-298699500D01*
X401921158Y-298699500D01*
X401921155Y-298699500D01*
X401766510Y-298730261D01*
X401766498Y-298730264D01*
X401620827Y-298790602D01*
X401620814Y-298790609D01*
X401489711Y-298878210D01*
X401489707Y-298878213D01*
X401378213Y-298989707D01*
X401378210Y-298989711D01*
X401290609Y-299120814D01*
X401290602Y-299120827D01*
X401230264Y-299266498D01*
X401230261Y-299266510D01*
X401199500Y-299421153D01*
X318162125Y-299421153D01*
X318162125Y-299282783D01*
X318162125Y-299282780D01*
X318162124Y-299282778D01*
X318153557Y-299239711D01*
X318131362Y-299128128D01*
X318128335Y-299120821D01*
X318071022Y-298982452D01*
X318071015Y-298982439D01*
X317983414Y-298851336D01*
X317983411Y-298851332D01*
X317871917Y-298739838D01*
X317871913Y-298739835D01*
X317740810Y-298652234D01*
X317740797Y-298652227D01*
X317595126Y-298591889D01*
X317595114Y-298591886D01*
X317440470Y-298561125D01*
X317440467Y-298561125D01*
X317282783Y-298561125D01*
X317282780Y-298561125D01*
X317128135Y-298591886D01*
X317128123Y-298591889D01*
X316982452Y-298652227D01*
X316982439Y-298652234D01*
X316851336Y-298739835D01*
X316851332Y-298739838D01*
X316739838Y-298851332D01*
X316739835Y-298851336D01*
X316652234Y-298982439D01*
X316652227Y-298982452D01*
X316591889Y-299128123D01*
X316591886Y-299128135D01*
X316561125Y-299282778D01*
X233272974Y-299282778D01*
X233269738Y-299266510D01*
X233269737Y-299266503D01*
X233259048Y-299240698D01*
X233209397Y-299120827D01*
X233209390Y-299120814D01*
X233121789Y-298989711D01*
X233121786Y-298989707D01*
X233010292Y-298878213D01*
X233010288Y-298878210D01*
X232879185Y-298790609D01*
X232879172Y-298790602D01*
X232733501Y-298730264D01*
X232733489Y-298730261D01*
X232578845Y-298699500D01*
X232578842Y-298699500D01*
X232421158Y-298699500D01*
X232421155Y-298699500D01*
X232266510Y-298730261D01*
X232266498Y-298730264D01*
X232120827Y-298790602D01*
X232120814Y-298790609D01*
X231989711Y-298878210D01*
X231989707Y-298878213D01*
X231878213Y-298989707D01*
X231878210Y-298989711D01*
X231790609Y-299120814D01*
X231790602Y-299120827D01*
X231730264Y-299266498D01*
X231730261Y-299266510D01*
X231699500Y-299421153D01*
X148053232Y-299421153D01*
X148010292Y-299378213D01*
X148010288Y-299378210D01*
X147879185Y-299290609D01*
X147879172Y-299290602D01*
X147733501Y-299230264D01*
X147733489Y-299230261D01*
X147578845Y-299199500D01*
X147578842Y-299199500D01*
X147421158Y-299199500D01*
X147421155Y-299199500D01*
X147266510Y-299230261D01*
X147266498Y-299230264D01*
X147120827Y-299290602D01*
X147120814Y-299290609D01*
X146989711Y-299378210D01*
X146989707Y-299378213D01*
X146878213Y-299489707D01*
X146878210Y-299489711D01*
X146790609Y-299620814D01*
X146790602Y-299620827D01*
X146730264Y-299766498D01*
X146730261Y-299766510D01*
X146699500Y-299921153D01*
X145503942Y-299921153D01*
X145517386Y-299613226D01*
X145518326Y-299602495D01*
X145568152Y-299224025D01*
X145570025Y-299213405D01*
X145652649Y-298840709D01*
X145655440Y-298830295D01*
X145770230Y-298466227D01*
X145773917Y-298456095D01*
X145920003Y-298103412D01*
X145924561Y-298093638D01*
X146100822Y-297755045D01*
X146106217Y-297745700D01*
X146311325Y-297423744D01*
X146317515Y-297414905D01*
X146549896Y-297112060D01*
X146556834Y-297103791D01*
X146713539Y-296932778D01*
X149711125Y-296932778D01*
X149711125Y-297090471D01*
X149741886Y-297245114D01*
X149741889Y-297245126D01*
X149802227Y-297390797D01*
X149802234Y-297390810D01*
X149889835Y-297521913D01*
X149889838Y-297521917D01*
X150001332Y-297633411D01*
X150001336Y-297633414D01*
X150132439Y-297721015D01*
X150132452Y-297721022D01*
X150250065Y-297769738D01*
X150278128Y-297781362D01*
X150432778Y-297812124D01*
X150432781Y-297812125D01*
X150432783Y-297812125D01*
X150590469Y-297812125D01*
X150590470Y-297812124D01*
X150745122Y-297781362D01*
X150890804Y-297721019D01*
X151021914Y-297633414D01*
X151133414Y-297521914D01*
X151221019Y-297390804D01*
X151281362Y-297245122D01*
X151312125Y-297090467D01*
X151312125Y-296932783D01*
X151312125Y-296932780D01*
X151312124Y-296932778D01*
X234711125Y-296932778D01*
X234711125Y-297090471D01*
X234741886Y-297245114D01*
X234741889Y-297245126D01*
X234802227Y-297390797D01*
X234802234Y-297390810D01*
X234889835Y-297521913D01*
X234889838Y-297521917D01*
X235001332Y-297633411D01*
X235001336Y-297633414D01*
X235132439Y-297721015D01*
X235132452Y-297721022D01*
X235250065Y-297769738D01*
X235278128Y-297781362D01*
X235432778Y-297812124D01*
X235432781Y-297812125D01*
X235432783Y-297812125D01*
X235590469Y-297812125D01*
X235590470Y-297812124D01*
X235745122Y-297781362D01*
X235890804Y-297721019D01*
X236021914Y-297633414D01*
X236133414Y-297521914D01*
X236221019Y-297390804D01*
X236281362Y-297245122D01*
X236312125Y-297090467D01*
X236312125Y-296932783D01*
X236312125Y-296932780D01*
X236312124Y-296932778D01*
X319711125Y-296932778D01*
X319711125Y-297090471D01*
X319741886Y-297245114D01*
X319741889Y-297245126D01*
X319802227Y-297390797D01*
X319802234Y-297390810D01*
X319889835Y-297521913D01*
X319889838Y-297521917D01*
X320001332Y-297633411D01*
X320001336Y-297633414D01*
X320132439Y-297721015D01*
X320132452Y-297721022D01*
X320250065Y-297769738D01*
X320278128Y-297781362D01*
X320432778Y-297812124D01*
X320432781Y-297812125D01*
X320432783Y-297812125D01*
X320590469Y-297812125D01*
X320590470Y-297812124D01*
X320745122Y-297781362D01*
X320890804Y-297721019D01*
X321021914Y-297633414D01*
X321133414Y-297521914D01*
X321221019Y-297390804D01*
X321281362Y-297245122D01*
X321312125Y-297090467D01*
X321312125Y-296932783D01*
X321309812Y-296921153D01*
X404699500Y-296921153D01*
X404699500Y-297078846D01*
X404730261Y-297233489D01*
X404730264Y-297233501D01*
X404790602Y-297379172D01*
X404790609Y-297379185D01*
X404878210Y-297510288D01*
X404878213Y-297510292D01*
X404989707Y-297621786D01*
X404989711Y-297621789D01*
X405120814Y-297709390D01*
X405120827Y-297709397D01*
X405231062Y-297755057D01*
X405266503Y-297769737D01*
X405421153Y-297800499D01*
X405421156Y-297800500D01*
X405421158Y-297800500D01*
X405578844Y-297800500D01*
X405578845Y-297800499D01*
X405733497Y-297769737D01*
X405879179Y-297709394D01*
X406010289Y-297621789D01*
X406121789Y-297510289D01*
X406209394Y-297379179D01*
X406269737Y-297233497D01*
X406300500Y-297078842D01*
X406300500Y-296921158D01*
X406300500Y-296921155D01*
X406300499Y-296921153D01*
X406282137Y-296828842D01*
X406269737Y-296766503D01*
X406230242Y-296671153D01*
X417949500Y-296671153D01*
X417949500Y-296828846D01*
X417980261Y-296983489D01*
X417980264Y-296983501D01*
X418040602Y-297129172D01*
X418040609Y-297129185D01*
X418128210Y-297260288D01*
X418128213Y-297260292D01*
X418239707Y-297371786D01*
X418239711Y-297371789D01*
X418370814Y-297459390D01*
X418370827Y-297459397D01*
X418516498Y-297519735D01*
X418516503Y-297519737D01*
X418661923Y-297548663D01*
X418671153Y-297550499D01*
X418671156Y-297550500D01*
X418671158Y-297550500D01*
X418828844Y-297550500D01*
X418828845Y-297550499D01*
X418983497Y-297519737D01*
X419129179Y-297459394D01*
X419260289Y-297371789D01*
X419310925Y-297321153D01*
X429299500Y-297321153D01*
X429299500Y-297478846D01*
X429330261Y-297633489D01*
X429330264Y-297633501D01*
X429390602Y-297779172D01*
X429390609Y-297779185D01*
X429478210Y-297910288D01*
X429478213Y-297910292D01*
X429589707Y-298021786D01*
X429589711Y-298021789D01*
X429720814Y-298109390D01*
X429720827Y-298109397D01*
X429833119Y-298155909D01*
X429866503Y-298169737D01*
X430021153Y-298200499D01*
X430021156Y-298200500D01*
X430021158Y-298200500D01*
X430178844Y-298200500D01*
X430178845Y-298200499D01*
X430333497Y-298169737D01*
X430479179Y-298109394D01*
X430610289Y-298021789D01*
X430721789Y-297910289D01*
X430809394Y-297779179D01*
X430869737Y-297633497D01*
X430900500Y-297478842D01*
X430900500Y-297321158D01*
X430900500Y-297321155D01*
X430900499Y-297321153D01*
X430869738Y-297166510D01*
X430869737Y-297166503D01*
X430869735Y-297166498D01*
X430809397Y-297020827D01*
X430809390Y-297020814D01*
X430784763Y-296983957D01*
X430742798Y-296921153D01*
X489661125Y-296921153D01*
X489661125Y-297078846D01*
X489691886Y-297233489D01*
X489691889Y-297233501D01*
X489752227Y-297379172D01*
X489752234Y-297379185D01*
X489839835Y-297510288D01*
X489839838Y-297510292D01*
X489951332Y-297621786D01*
X489951336Y-297621789D01*
X490082439Y-297709390D01*
X490082452Y-297709397D01*
X490192687Y-297755057D01*
X490228128Y-297769737D01*
X490382778Y-297800499D01*
X490382781Y-297800500D01*
X490382783Y-297800500D01*
X490540469Y-297800500D01*
X490540470Y-297800499D01*
X490695122Y-297769737D01*
X490840804Y-297709394D01*
X490971914Y-297621789D01*
X491083414Y-297510289D01*
X491171019Y-297379179D01*
X491231362Y-297233497D01*
X491262125Y-297078842D01*
X491262125Y-296959528D01*
X574661125Y-296959528D01*
X574661125Y-297117221D01*
X574691886Y-297271864D01*
X574691889Y-297271876D01*
X574752227Y-297417547D01*
X574752234Y-297417560D01*
X574839835Y-297548663D01*
X574839838Y-297548667D01*
X574951332Y-297660161D01*
X574951336Y-297660164D01*
X575082439Y-297747765D01*
X575082452Y-297747772D01*
X575209748Y-297800499D01*
X575228128Y-297808112D01*
X575382778Y-297838874D01*
X575382781Y-297838875D01*
X575382783Y-297838875D01*
X575540469Y-297838875D01*
X575540470Y-297838874D01*
X575695122Y-297808112D01*
X575840804Y-297747769D01*
X575971914Y-297660164D01*
X576083414Y-297548664D01*
X576171019Y-297417554D01*
X576231362Y-297271872D01*
X576262125Y-297117217D01*
X576262125Y-296959533D01*
X576262125Y-296959530D01*
X576262124Y-296959528D01*
X659661125Y-296959528D01*
X659661125Y-297117221D01*
X659691886Y-297271864D01*
X659691889Y-297271876D01*
X659752227Y-297417547D01*
X659752234Y-297417560D01*
X659839835Y-297548663D01*
X659839838Y-297548667D01*
X659951332Y-297660161D01*
X659951336Y-297660164D01*
X660082439Y-297747765D01*
X660082452Y-297747772D01*
X660209748Y-297800499D01*
X660228128Y-297808112D01*
X660382778Y-297838874D01*
X660382781Y-297838875D01*
X660382783Y-297838875D01*
X660540469Y-297838875D01*
X660540470Y-297838874D01*
X660695122Y-297808112D01*
X660840804Y-297747769D01*
X660971914Y-297660164D01*
X661083414Y-297548664D01*
X661171019Y-297417554D01*
X661231362Y-297271872D01*
X661262125Y-297117217D01*
X661262125Y-296959533D01*
X661262125Y-296959530D01*
X661262124Y-296959528D01*
X744661125Y-296959528D01*
X744661125Y-297117221D01*
X744691886Y-297271864D01*
X744691889Y-297271876D01*
X744752227Y-297417547D01*
X744752234Y-297417560D01*
X744839835Y-297548663D01*
X744839838Y-297548667D01*
X744951332Y-297660161D01*
X744951336Y-297660164D01*
X745082439Y-297747765D01*
X745082452Y-297747772D01*
X745209748Y-297800499D01*
X745228128Y-297808112D01*
X745382778Y-297838874D01*
X745382781Y-297838875D01*
X745382783Y-297838875D01*
X745540469Y-297838875D01*
X745540470Y-297838874D01*
X745695122Y-297808112D01*
X745840804Y-297747769D01*
X745971914Y-297660164D01*
X746083414Y-297548664D01*
X746171019Y-297417554D01*
X746231362Y-297271872D01*
X746262125Y-297117217D01*
X746262125Y-296959533D01*
X746262125Y-296959530D01*
X746262124Y-296959528D01*
X746248236Y-296889711D01*
X746231362Y-296804878D01*
X746184031Y-296690609D01*
X746171022Y-296659202D01*
X746171015Y-296659189D01*
X746083414Y-296528086D01*
X746083411Y-296528082D01*
X745971917Y-296416588D01*
X745971913Y-296416585D01*
X745840810Y-296328984D01*
X745840797Y-296328977D01*
X745695126Y-296268639D01*
X745695114Y-296268636D01*
X745540470Y-296237875D01*
X745540467Y-296237875D01*
X745382783Y-296237875D01*
X745382780Y-296237875D01*
X745228135Y-296268636D01*
X745228123Y-296268639D01*
X745082452Y-296328977D01*
X745082439Y-296328984D01*
X744951336Y-296416585D01*
X744951332Y-296416588D01*
X744839838Y-296528082D01*
X744839835Y-296528086D01*
X744752234Y-296659189D01*
X744752227Y-296659202D01*
X744691889Y-296804873D01*
X744691886Y-296804885D01*
X744661125Y-296959528D01*
X661262124Y-296959528D01*
X661248236Y-296889711D01*
X661231362Y-296804878D01*
X661184031Y-296690609D01*
X661171022Y-296659202D01*
X661171015Y-296659189D01*
X661083414Y-296528086D01*
X661083411Y-296528082D01*
X660971917Y-296416588D01*
X660971913Y-296416585D01*
X660840810Y-296328984D01*
X660840797Y-296328977D01*
X660695126Y-296268639D01*
X660695114Y-296268636D01*
X660540470Y-296237875D01*
X660540467Y-296237875D01*
X660382783Y-296237875D01*
X660382780Y-296237875D01*
X660228135Y-296268636D01*
X660228123Y-296268639D01*
X660082452Y-296328977D01*
X660082439Y-296328984D01*
X659951336Y-296416585D01*
X659951332Y-296416588D01*
X659839838Y-296528082D01*
X659839835Y-296528086D01*
X659752234Y-296659189D01*
X659752227Y-296659202D01*
X659691889Y-296804873D01*
X659691886Y-296804885D01*
X659661125Y-296959528D01*
X576262124Y-296959528D01*
X576248236Y-296889711D01*
X576231362Y-296804878D01*
X576184031Y-296690609D01*
X576171022Y-296659202D01*
X576171015Y-296659189D01*
X576083414Y-296528086D01*
X576083411Y-296528082D01*
X575971917Y-296416588D01*
X575971913Y-296416585D01*
X575840810Y-296328984D01*
X575840797Y-296328977D01*
X575695126Y-296268639D01*
X575695114Y-296268636D01*
X575540470Y-296237875D01*
X575540467Y-296237875D01*
X575382783Y-296237875D01*
X575382780Y-296237875D01*
X575228135Y-296268636D01*
X575228123Y-296268639D01*
X575082452Y-296328977D01*
X575082439Y-296328984D01*
X574951336Y-296416585D01*
X574951332Y-296416588D01*
X574839838Y-296528082D01*
X574839835Y-296528086D01*
X574752234Y-296659189D01*
X574752227Y-296659202D01*
X574691889Y-296804873D01*
X574691886Y-296804885D01*
X574661125Y-296959528D01*
X491262125Y-296959528D01*
X491262125Y-296921158D01*
X491262125Y-296921155D01*
X491262124Y-296921153D01*
X491243762Y-296828842D01*
X491231362Y-296766503D01*
X491231360Y-296766498D01*
X491171022Y-296620827D01*
X491171015Y-296620814D01*
X491083414Y-296489711D01*
X491083411Y-296489707D01*
X490971917Y-296378213D01*
X490971913Y-296378210D01*
X490840810Y-296290609D01*
X490840797Y-296290602D01*
X490695126Y-296230264D01*
X490695114Y-296230261D01*
X490540470Y-296199500D01*
X490540467Y-296199500D01*
X490382783Y-296199500D01*
X490382780Y-296199500D01*
X490228135Y-296230261D01*
X490228123Y-296230264D01*
X490082452Y-296290602D01*
X490082439Y-296290609D01*
X489951336Y-296378210D01*
X489951332Y-296378213D01*
X489839838Y-296489707D01*
X489839835Y-296489711D01*
X489752234Y-296620814D01*
X489752227Y-296620827D01*
X489691889Y-296766498D01*
X489691886Y-296766510D01*
X489661125Y-296921153D01*
X430742798Y-296921153D01*
X430721789Y-296889711D01*
X430721786Y-296889707D01*
X430610292Y-296778213D01*
X430610288Y-296778210D01*
X430479185Y-296690609D01*
X430479172Y-296690602D01*
X430333501Y-296630264D01*
X430333489Y-296630261D01*
X430178845Y-296599500D01*
X430178842Y-296599500D01*
X430021158Y-296599500D01*
X430021155Y-296599500D01*
X429866510Y-296630261D01*
X429866498Y-296630264D01*
X429720827Y-296690602D01*
X429720814Y-296690609D01*
X429589711Y-296778210D01*
X429589707Y-296778213D01*
X429478213Y-296889707D01*
X429478210Y-296889711D01*
X429390609Y-297020814D01*
X429390602Y-297020827D01*
X429330264Y-297166498D01*
X429330261Y-297166510D01*
X429299500Y-297321153D01*
X419310925Y-297321153D01*
X419371789Y-297260289D01*
X419381924Y-297245122D01*
X419459390Y-297129185D01*
X419459390Y-297129184D01*
X419459394Y-297129179D01*
X419519737Y-296983497D01*
X419550500Y-296828842D01*
X419550500Y-296671158D01*
X419550500Y-296671155D01*
X419550499Y-296671153D01*
X419519738Y-296516510D01*
X419519737Y-296516503D01*
X419513453Y-296501332D01*
X419459397Y-296370827D01*
X419459390Y-296370814D01*
X419371789Y-296239711D01*
X419371786Y-296239707D01*
X419260292Y-296128213D01*
X419260288Y-296128210D01*
X419129185Y-296040609D01*
X419129172Y-296040602D01*
X418983501Y-295980264D01*
X418983489Y-295980261D01*
X418828845Y-295949500D01*
X418828842Y-295949500D01*
X418671158Y-295949500D01*
X418671155Y-295949500D01*
X418516510Y-295980261D01*
X418516498Y-295980264D01*
X418370827Y-296040602D01*
X418370814Y-296040609D01*
X418239711Y-296128210D01*
X418239707Y-296128213D01*
X418128213Y-296239707D01*
X418128210Y-296239711D01*
X418040609Y-296370814D01*
X418040602Y-296370827D01*
X417980264Y-296516498D01*
X417980261Y-296516510D01*
X417949500Y-296671153D01*
X406230242Y-296671153D01*
X406225289Y-296659196D01*
X406209397Y-296620827D01*
X406209390Y-296620814D01*
X406121789Y-296489711D01*
X406121786Y-296489707D01*
X406010292Y-296378213D01*
X406010288Y-296378210D01*
X405879185Y-296290609D01*
X405879172Y-296290602D01*
X405733501Y-296230264D01*
X405733489Y-296230261D01*
X405578845Y-296199500D01*
X405578842Y-296199500D01*
X405421158Y-296199500D01*
X405421155Y-296199500D01*
X405266510Y-296230261D01*
X405266498Y-296230264D01*
X405120827Y-296290602D01*
X405120814Y-296290609D01*
X404989711Y-296378210D01*
X404989707Y-296378213D01*
X404878213Y-296489707D01*
X404878210Y-296489711D01*
X404790609Y-296620814D01*
X404790602Y-296620827D01*
X404730264Y-296766498D01*
X404730261Y-296766510D01*
X404699500Y-296921153D01*
X321309812Y-296921153D01*
X321281362Y-296778128D01*
X321254186Y-296712519D01*
X321221022Y-296632452D01*
X321221015Y-296632439D01*
X321133414Y-296501336D01*
X321133411Y-296501332D01*
X321021917Y-296389838D01*
X321021913Y-296389835D01*
X320890810Y-296302234D01*
X320890797Y-296302227D01*
X320745126Y-296241889D01*
X320745114Y-296241886D01*
X320590470Y-296211125D01*
X320590467Y-296211125D01*
X320432783Y-296211125D01*
X320432780Y-296211125D01*
X320278135Y-296241886D01*
X320278123Y-296241889D01*
X320132452Y-296302227D01*
X320132439Y-296302234D01*
X320001336Y-296389835D01*
X320001332Y-296389838D01*
X319889838Y-296501332D01*
X319889835Y-296501336D01*
X319802234Y-296632439D01*
X319802227Y-296632452D01*
X319741889Y-296778123D01*
X319741886Y-296778135D01*
X319711125Y-296932778D01*
X236312124Y-296932778D01*
X236303557Y-296889711D01*
X236281362Y-296778128D01*
X236254186Y-296712519D01*
X236221022Y-296632452D01*
X236221015Y-296632439D01*
X236133414Y-296501336D01*
X236133411Y-296501332D01*
X236021917Y-296389838D01*
X236021913Y-296389835D01*
X235890810Y-296302234D01*
X235890797Y-296302227D01*
X235745126Y-296241889D01*
X235745114Y-296241886D01*
X235590470Y-296211125D01*
X235590467Y-296211125D01*
X235432783Y-296211125D01*
X235432780Y-296211125D01*
X235278135Y-296241886D01*
X235278123Y-296241889D01*
X235132452Y-296302227D01*
X235132439Y-296302234D01*
X235001336Y-296389835D01*
X235001332Y-296389838D01*
X234889838Y-296501332D01*
X234889835Y-296501336D01*
X234802234Y-296632439D01*
X234802227Y-296632452D01*
X234741889Y-296778123D01*
X234741886Y-296778135D01*
X234711125Y-296932778D01*
X151312124Y-296932778D01*
X151303557Y-296889711D01*
X151281362Y-296778128D01*
X151254186Y-296712519D01*
X151221022Y-296632452D01*
X151221015Y-296632439D01*
X151133414Y-296501336D01*
X151133411Y-296501332D01*
X151021917Y-296389838D01*
X151021913Y-296389835D01*
X150890810Y-296302234D01*
X150890797Y-296302227D01*
X150745126Y-296241889D01*
X150745114Y-296241886D01*
X150590470Y-296211125D01*
X150590467Y-296211125D01*
X150432783Y-296211125D01*
X150432780Y-296211125D01*
X150278135Y-296241886D01*
X150278123Y-296241889D01*
X150132452Y-296302227D01*
X150132439Y-296302234D01*
X150001336Y-296389835D01*
X150001332Y-296389838D01*
X149889838Y-296501332D01*
X149889835Y-296501336D01*
X149802234Y-296632439D01*
X149802227Y-296632452D01*
X149741889Y-296778123D01*
X149741886Y-296778135D01*
X149711125Y-296932778D01*
X146713539Y-296932778D01*
X146814736Y-296822341D01*
X146822352Y-296814726D01*
X147103791Y-296556834D01*
X147112060Y-296549896D01*
X147414905Y-296317515D01*
X147423744Y-296311325D01*
X147745700Y-296106217D01*
X147755045Y-296100822D01*
X148093638Y-295924561D01*
X148103412Y-295920003D01*
X148456095Y-295773917D01*
X148466227Y-295770230D01*
X148830295Y-295655440D01*
X148840709Y-295652649D01*
X149213405Y-295570025D01*
X149224025Y-295568152D01*
X149602495Y-295518326D01*
X149613226Y-295517386D01*
X149997297Y-295500617D01*
X150002706Y-295500500D01*
X150065892Y-295500500D01*
X744934108Y-295500500D01*
X744997294Y-295500500D01*
X745002702Y-295500617D01*
G37*
%TD.AperFunction*%
%TD*%
M02*
