M48
; DRILL file {KiCad 9.0.1-9.0.1-0~ubuntu22.04.1} date 2025-06-14T14:09:10+0200
; FORMAT={-:-/ absolute / inch / decimal}
; #@! TF.CreationDate,2025-06-14T14:09:10+02:00
; #@! TF.GenerationSoftware,Kicad,Pcbnew,9.0.1-9.0.1-0~ubuntu22.04.1
; #@! TF.FileFunction,Plated,1,2,Blind
FMAT,2
INCH
; #@! TA.AperFunction,Plated,Buried,ViaDrill
T1C0.0118
%
G90
G05
T1
X6.0236Y-11.7323
X6.0433Y-11.8701
X9.2598Y-11.9409
X9.3701Y-11.7323
X9.3898Y-11.8701
X12.7165Y-11.7323
X12.7362Y-11.8701
X15.9528Y-11.9409
X16.063Y-11.7323
X16.0827Y-11.8701
X16.2842Y-11.8248
X16.2862Y-11.9016
X16.3177Y-11.6929
X16.3374Y-11.9685
X16.437Y-11.8504
X16.5736Y-11.9685
X16.613Y-11.9685
X16.6543Y-11.7736
X16.735Y-11.813
X16.752Y-11.7126
X16.7781Y-11.8996
X19.4279Y-11.8689
X19.4291Y-11.7323
X22.6457Y-11.9488
X22.7756Y-11.7323
X22.7756Y-11.8701
X26.1024Y-11.7323
X26.122Y-11.8701
X29.3386Y-11.9409
X29.4488Y-11.7323
X29.4685Y-11.8701
M30
