M48
; DRILL file {KiCad 9.0.1-9.0.1-0~ubuntu22.04.1} date 2025-06-14T14:29:27+0200
; FORMAT={-:-/ absolute / inch / decimal}
; #@! TF.CreationDate,2025-06-14T14:29:27+02:00
; #@! TF.GenerationSoftware,Kicad,Pcbnew,9.0.1-9.0.1-0~ubuntu22.04.1
; #@! TF.FileFunction,Plated,1,4,PTH
FMAT,2
INCH
; #@! TA.AperFunction,Plated,PTH,ViaDrill
T1C0.0118
; #@! TA.AperFunction,Plated,PTH,ComponentDrill
T2C0.0394
%
G90
G05
T1
X0.0984Y0.5906
X3.4449Y0.6102
X6.7859Y0.6157
X10.1181Y0.6102
X10.8846Y0.4724
X11.0224Y0.3346
X11.0852Y0.5948
X11.1011Y0.374
X11.1319Y0.6004
X11.1661Y0.5698
X11.1734Y0.5392
X11.1799Y0.4921
X11.2008Y0.4134
X11.2244Y0.6929
X11.3583Y0.374
X13.4843Y0.5906
X16.8307Y0.6102
X20.1772Y0.5906
X23.5236Y0.6102
T2
X11.3456Y0.6102
X11.3456Y0.5102
X11.4456Y0.6102
X11.4456Y0.5102
X11.5456Y0.6102
X11.5456Y0.5102
X11.6456Y0.6102
X11.6456Y0.5102
X11.7456Y0.6102
X11.7456Y0.5102
X11.8456Y0.6102
X11.8456Y0.5102
X11.9456Y0.6102
X11.9456Y0.5102
X12.0456Y0.6102
X12.0456Y0.5102
X12.1456Y0.6102
X12.1456Y0.5102
X12.2456Y0.6102
X12.2456Y0.5102
X12.3456Y0.6102
X12.3456Y0.5102
X12.4456Y0.6102
X12.4456Y0.5102
X12.5456Y0.6102
X12.5456Y0.5102
X12.6456Y0.6102
X12.6456Y0.5102
X12.7456Y0.6102
X12.7456Y0.5102
X12.8456Y0.6102
X12.8456Y0.5102
X12.9456Y0.6102
X12.9456Y0.5102
X13.0456Y0.6102
X13.0456Y0.5102
X13.1456Y0.6102
X13.1456Y0.5102
X13.2456Y0.6102
X13.2456Y0.5102
M30
