%TF.GenerationSoftware,KiCad,Pcbnew,9.0.1-9.0.1-0~ubuntu22.04.1*%
%TF.CreationDate,2025-06-14T14:29:27+02:00*%
%TF.ProjectId,recorder,7265636f-7264-4657-922e-6b696361645f,rev?*%
%TF.SameCoordinates,Original*%
%TF.FileFunction,Legend,Bot*%
%TF.FilePolarity,Positive*%
%FSLAX46Y46*%
G04 Gerber Fmt 4.6, Leading zero omitted, Abs format (unit mm)*
G04 Created by KiCad (PCBNEW 9.0.1-9.0.1-0~ubuntu22.04.1) date 2025-06-14 14:29:27*
%MOMM*%
%LPD*%
G01*
G04 APERTURE LIST*
%ADD10C,0.100000*%
%ADD11C,2.200000*%
%ADD12C,0.800000*%
%ADD13R,1.700000X1.700000*%
%ADD14O,1.700000X1.700000*%
G04 APERTURE END LIST*
D10*
G36*
X598147662Y5510000D02*
G01*
X598147662Y6916473D01*
X599267637Y6916473D01*
X599267637Y5510000D01*
X599640230Y5510000D01*
X599640230Y8475902D01*
X599267637Y8475902D01*
X599267637Y7222387D01*
X598147662Y7222387D01*
X598147662Y8475902D01*
X597775069Y8475902D01*
X597775069Y5510000D01*
X598147662Y5510000D01*
G37*
G36*
X596304879Y8509959D02*
G01*
X596463240Y8472020D01*
X596603995Y8410757D01*
X596729832Y8326059D01*
X596874685Y8182185D01*
X596996424Y8002878D01*
X597094914Y7782375D01*
X597161279Y7548097D01*
X597203028Y7283811D01*
X597217646Y6985349D01*
X597202875Y6681074D01*
X597160984Y6415644D01*
X597094914Y6184111D01*
X596996385Y5966773D01*
X596874669Y5791051D01*
X596729832Y5651051D01*
X596604381Y5569391D01*
X596463742Y5510136D01*
X596305236Y5473358D01*
X596125514Y5460541D01*
X595946129Y5473615D01*
X595787780Y5511163D01*
X595647090Y5571756D01*
X595521379Y5655447D01*
X595376391Y5798059D01*
X595254668Y5975968D01*
X595156297Y6194919D01*
X595089988Y6427755D01*
X595048213Y6691261D01*
X595033565Y6989746D01*
X595425575Y6989746D01*
X595438057Y6683122D01*
X595472097Y6436536D01*
X595523280Y6240385D01*
X595588241Y6086108D01*
X595683416Y5949228D01*
X595801361Y5854111D01*
X595946081Y5795642D01*
X596125514Y5774882D01*
X596299339Y5795210D01*
X596441794Y5852868D01*
X596560038Y5947327D01*
X596657658Y6083910D01*
X596724791Y6237515D01*
X596777623Y6432999D01*
X596812753Y6679026D01*
X596825636Y6985349D01*
X596813218Y7291653D01*
X596779273Y7539268D01*
X596728096Y7737407D01*
X596662971Y7894299D01*
X596567387Y8033875D01*
X596449211Y8130556D01*
X596304555Y8189827D01*
X596125514Y8210838D01*
X595946326Y8189920D01*
X595801668Y8130951D01*
X595683618Y8034864D01*
X595588241Y7896314D01*
X595523179Y7740502D01*
X595472001Y7543210D01*
X595438018Y7296078D01*
X595425575Y6989746D01*
X595033565Y6989746D01*
X595048294Y7293982D01*
X595090147Y7560525D01*
X595156297Y7794099D01*
X595254860Y8013628D01*
X595376600Y8190689D01*
X595521379Y8331372D01*
X595646908Y8413628D01*
X595787542Y8473273D01*
X595945961Y8510274D01*
X596125514Y8523163D01*
X596304879Y8509959D01*
G37*
G36*
X593868710Y8169988D02*
G01*
X593868710Y7131895D01*
X592705504Y7131895D01*
X592705504Y6830377D01*
X593868710Y6830377D01*
X593868710Y5510000D01*
X594239105Y5510000D01*
X594239105Y8475902D01*
X592492280Y8475902D01*
X592537526Y8169988D01*
X593868710Y8169988D01*
G37*
G36*
X589968396Y8475902D02*
G01*
X589800418Y5510000D01*
X590160005Y5510000D01*
X590252695Y7058622D01*
X590268815Y7480674D01*
X590276325Y7871585D01*
X590276325Y8133352D01*
X590776046Y6041961D01*
X591150837Y6041961D01*
X591687194Y8133352D01*
X591680783Y7866272D01*
X591680783Y7465653D01*
X591691407Y7062835D01*
X591771092Y5510000D01*
X592122252Y5510000D01*
X591954274Y8475902D01*
X591432937Y8475902D01*
X590952634Y6444779D01*
X590493946Y8475902D01*
X589968396Y8475902D01*
G37*
G36*
X588756097Y8169988D02*
G01*
X588756097Y7170547D01*
X587657554Y7170547D01*
X587657554Y6862617D01*
X588756097Y6862617D01*
X588756097Y5809320D01*
X587407693Y5809320D01*
X587407693Y5510000D01*
X589130887Y5510000D01*
X589130887Y8475902D01*
X587446528Y8475902D01*
X587489576Y8169988D01*
X588756097Y8169988D01*
G37*
G36*
X584948473Y8475902D02*
G01*
X584948473Y8176400D01*
X585607562Y8176400D01*
X585607562Y5809320D01*
X584948473Y5809320D01*
X584948473Y5510000D01*
X586645655Y5510000D01*
X586645655Y5809320D01*
X585986566Y5809320D01*
X585986566Y8176400D01*
X586645655Y8176400D01*
X586645655Y8475902D01*
X584948473Y8475902D01*
G37*
G36*
X582196161Y6330656D02*
G01*
X582210811Y6163612D01*
X582253362Y6013971D01*
X582323290Y5878380D01*
X582418642Y5759291D01*
X582540449Y5657146D01*
X582692585Y5571367D01*
X582857784Y5511889D01*
X583051722Y5474005D01*
X583279501Y5460541D01*
X583494509Y5472085D01*
X583690086Y5505496D01*
X583868614Y5559460D01*
X584038250Y5635831D01*
X584187971Y5729142D01*
X584319792Y5839545D01*
X584097958Y6089406D01*
X583933911Y5960322D01*
X583744783Y5859878D01*
X583608625Y5814018D01*
X583452471Y5785073D01*
X583273089Y5774882D01*
X583096519Y5789945D01*
X582934935Y5834050D01*
X582791463Y5909850D01*
X582680678Y6015034D01*
X582628027Y6100920D01*
X582595326Y6202662D01*
X582583775Y6324245D01*
X582598498Y6459460D01*
X582639829Y6568610D01*
X582713197Y6661165D01*
X582838032Y6749594D01*
X582995690Y6822464D01*
X583234255Y6903467D01*
X583515540Y6998429D01*
X583741486Y7098373D01*
X583877879Y7179369D01*
X583987295Y7268398D01*
X584073229Y7365452D01*
X584137034Y7476460D01*
X584176678Y7606689D01*
X584190648Y7760759D01*
X584176697Y7904703D01*
X584135856Y8035038D01*
X584067916Y8154784D01*
X583977283Y8259812D01*
X583865166Y8349793D01*
X583728663Y8425161D01*
X583581292Y8478429D01*
X583416066Y8511605D01*
X583230041Y8523163D01*
X583025845Y8512652D01*
X582848624Y8482886D01*
X582694783Y8435969D01*
X582478367Y8329862D01*
X582282257Y8185009D01*
X582501892Y7941743D01*
X582669061Y8063926D01*
X582844443Y8146175D01*
X583029617Y8194763D01*
X583217035Y8210838D01*
X583376309Y8198100D01*
X583514352Y8161715D01*
X583634874Y8103127D01*
X583731420Y8019162D01*
X583788927Y7911943D01*
X583809263Y7773765D01*
X583791514Y7652188D01*
X583740387Y7552848D01*
X583654810Y7470024D01*
X583507929Y7383771D01*
X583328117Y7310074D01*
X583061880Y7224402D01*
X582837650Y7148496D01*
X582634516Y7057523D01*
X582510363Y6981915D01*
X582405087Y6891671D01*
X582316878Y6786047D01*
X582252476Y6666203D01*
X582211129Y6516834D01*
X582196161Y6330656D01*
G37*
G36*
X580453916Y8154967D02*
G01*
X580453916Y5510000D01*
X580826509Y5510000D01*
X580826509Y8154967D01*
X581752677Y8154967D01*
X581752677Y8475902D01*
X579514924Y8475902D01*
X579553576Y8154967D01*
X580453916Y8154967D01*
G37*
G36*
X578427555Y8169988D02*
G01*
X578427555Y7170547D01*
X577329012Y7170547D01*
X577329012Y6862617D01*
X578427555Y6862617D01*
X578427555Y5809320D01*
X577079152Y5809320D01*
X577079152Y5510000D01*
X578802346Y5510000D01*
X578802346Y8475902D01*
X577117986Y8475902D01*
X577161034Y8169988D01*
X578427555Y8169988D01*
G37*
G36*
X576323525Y5510000D02*
G01*
X575948735Y5510000D01*
X575948735Y6782933D01*
X575548115Y6782933D01*
X574738267Y5510000D01*
X574290387Y5510000D01*
X575169112Y6825981D01*
X574973348Y6890669D01*
X574802935Y6983507D01*
X574654370Y7104967D01*
X574564110Y7214040D01*
X574499381Y7338173D01*
X574459351Y7480299D01*
X574445359Y7644439D01*
X574845978Y7644439D01*
X574858912Y7490769D01*
X574894273Y7370914D01*
X574948904Y7277719D01*
X575022566Y7206084D01*
X575147020Y7137326D01*
X575308831Y7092384D01*
X575518073Y7075841D01*
X575948735Y7075841D01*
X575948735Y8178598D01*
X575518073Y8178598D01*
X575291941Y8161992D01*
X575127796Y8118235D01*
X575010842Y8053668D01*
X574941824Y7985328D01*
X574890814Y7897617D01*
X574857947Y7786073D01*
X574845978Y7644439D01*
X574445359Y7644439D01*
X574464690Y7845607D01*
X574519161Y8011885D01*
X574606531Y8150393D01*
X574728742Y8265793D01*
X574872975Y8351277D01*
X575054269Y8417036D01*
X575280541Y8460177D01*
X575561121Y8475902D01*
X576323525Y8475902D01*
X576323525Y5510000D01*
G37*
G36*
X571159255Y5510000D02*
G01*
X570784464Y5510000D01*
X570784464Y6782933D01*
X570383845Y6782933D01*
X569573996Y5510000D01*
X569126116Y5510000D01*
X570004841Y6825981D01*
X569809077Y6890669D01*
X569638665Y6983507D01*
X569490099Y7104967D01*
X569399839Y7214040D01*
X569335110Y7338173D01*
X569295080Y7480299D01*
X569281088Y7644439D01*
X569681707Y7644439D01*
X569694641Y7490769D01*
X569730002Y7370914D01*
X569784633Y7277719D01*
X569858295Y7206084D01*
X569982749Y7137326D01*
X570144560Y7092384D01*
X570353803Y7075841D01*
X570784464Y7075841D01*
X570784464Y8178598D01*
X570353803Y8178598D01*
X570127670Y8161992D01*
X569963525Y8118235D01*
X569846571Y8053668D01*
X569777554Y7985328D01*
X569726543Y7897617D01*
X569693676Y7786073D01*
X569681707Y7644439D01*
X569281088Y7644439D01*
X569300419Y7845607D01*
X569354890Y8011885D01*
X569442261Y8150393D01*
X569564471Y8265793D01*
X569708704Y8351277D01*
X569889998Y8417036D01*
X570116270Y8460177D01*
X570396851Y8475902D01*
X571159255Y8475902D01*
X571159255Y5510000D01*
G37*
G36*
X567901389Y8509959D02*
G01*
X568059750Y8472020D01*
X568200506Y8410757D01*
X568326343Y8326059D01*
X568471196Y8182185D01*
X568592935Y8002878D01*
X568691425Y7782375D01*
X568757789Y7548097D01*
X568799538Y7283811D01*
X568814157Y6985349D01*
X568799386Y6681074D01*
X568757495Y6415644D01*
X568691425Y6184111D01*
X568592896Y5966773D01*
X568471180Y5791051D01*
X568326343Y5651051D01*
X568200892Y5569391D01*
X568060253Y5510136D01*
X567901747Y5473358D01*
X567722025Y5460541D01*
X567542640Y5473615D01*
X567384290Y5511163D01*
X567243601Y5571756D01*
X567117890Y5655447D01*
X566972901Y5798059D01*
X566851179Y5975968D01*
X566752808Y6194919D01*
X566686499Y6427755D01*
X566644724Y6691261D01*
X566630076Y6989746D01*
X567022086Y6989746D01*
X567034567Y6683122D01*
X567068608Y6436536D01*
X567119790Y6240385D01*
X567184752Y6086108D01*
X567279927Y5949228D01*
X567397871Y5854111D01*
X567542592Y5795642D01*
X567722025Y5774882D01*
X567895849Y5795210D01*
X568038304Y5852868D01*
X568156549Y5947327D01*
X568254169Y6083910D01*
X568321301Y6237515D01*
X568374134Y6432999D01*
X568409263Y6679026D01*
X568422147Y6985349D01*
X568409729Y7291653D01*
X568375783Y7539268D01*
X568324607Y7737407D01*
X568259481Y7894299D01*
X568163898Y8033875D01*
X568045722Y8130556D01*
X567901065Y8189827D01*
X567722025Y8210838D01*
X567542837Y8189920D01*
X567398178Y8130951D01*
X567280129Y8034864D01*
X567184752Y7896314D01*
X567119690Y7740502D01*
X567068511Y7543210D01*
X567034529Y7296078D01*
X567022086Y6989746D01*
X566630076Y6989746D01*
X566644805Y7293982D01*
X566686658Y7560525D01*
X566752808Y7794099D01*
X566851371Y8013628D01*
X566973111Y8190689D01*
X567117890Y8331372D01*
X567243419Y8413628D01*
X567384053Y8473273D01*
X567542471Y8510274D01*
X567722025Y8523163D01*
X567901389Y8509959D01*
G37*
G36*
X566016599Y5510000D02*
G01*
X565219574Y5510000D01*
X565016496Y5520528D01*
X564818039Y5551949D01*
X564628518Y5608388D01*
X564460467Y5690984D01*
X564316263Y5804184D01*
X564204195Y5950370D01*
X564152612Y6062693D01*
X564119875Y6196553D01*
X564109157Y6343479D01*
X564502416Y6343479D01*
X564515420Y6200457D01*
X564550630Y6092172D01*
X564604815Y6010637D01*
X564718803Y5916106D01*
X564857789Y5857680D01*
X565008610Y5827719D01*
X565155094Y5817930D01*
X565644007Y5817930D01*
X565644007Y6905665D01*
X565137691Y6905665D01*
X564970014Y6893434D01*
X564821153Y6858221D01*
X564690893Y6792175D01*
X564589610Y6689144D01*
X564543800Y6603561D01*
X564513600Y6490817D01*
X564502416Y6343479D01*
X564109157Y6343479D01*
X564108208Y6356485D01*
X564120987Y6520379D01*
X564156148Y6650985D01*
X564210607Y6754906D01*
X564326988Y6885485D01*
X564469077Y6977839D01*
X564627836Y7040869D01*
X564788913Y7080238D01*
X564651160Y7124186D01*
X564520734Y7192162D01*
X564406970Y7284617D01*
X564316120Y7404287D01*
X564258290Y7547064D01*
X564239755Y7709102D01*
X564620935Y7709102D01*
X564638881Y7541368D01*
X564687128Y7419188D01*
X564761985Y7331014D01*
X564862553Y7268950D01*
X564994188Y7228619D01*
X565165718Y7213778D01*
X565644007Y7213778D01*
X565644007Y8174385D01*
X565202355Y8174385D01*
X565025438Y8160949D01*
X564886191Y8124218D01*
X564777006Y8067773D01*
X564693303Y7984937D01*
X564640465Y7869233D01*
X564620935Y7709102D01*
X564239755Y7709102D01*
X564237534Y7728519D01*
X564248381Y7871132D01*
X564278833Y7990337D01*
X564326927Y8090304D01*
X564431379Y8219544D01*
X564567079Y8319648D01*
X564724997Y8391701D01*
X564905233Y8440365D01*
X565093868Y8466984D01*
X565286435Y8475902D01*
X566016599Y8475902D01*
X566016599Y5510000D01*
G37*
G36*
X562737119Y8509959D02*
G01*
X562895480Y8472020D01*
X563036235Y8410757D01*
X563162072Y8326059D01*
X563306925Y8182185D01*
X563428664Y8002878D01*
X563527154Y7782375D01*
X563593519Y7548097D01*
X563635268Y7283811D01*
X563649886Y6985349D01*
X563635115Y6681074D01*
X563593225Y6415644D01*
X563527154Y6184111D01*
X563428625Y5966773D01*
X563306909Y5791051D01*
X563162072Y5651051D01*
X563036621Y5569391D01*
X562895982Y5510136D01*
X562737476Y5473358D01*
X562557754Y5460541D01*
X562378369Y5473615D01*
X562220020Y5511163D01*
X562079330Y5571756D01*
X561953620Y5655447D01*
X561808631Y5798059D01*
X561686908Y5975968D01*
X561588538Y6194919D01*
X561522228Y6427755D01*
X561480453Y6691261D01*
X561465806Y6989746D01*
X561857815Y6989746D01*
X561870297Y6683122D01*
X561904337Y6436536D01*
X561955520Y6240385D01*
X562020481Y6086108D01*
X562115656Y5949228D01*
X562233601Y5854111D01*
X562378322Y5795642D01*
X562557754Y5774882D01*
X562731579Y5795210D01*
X562874034Y5852868D01*
X562992278Y5947327D01*
X563089898Y6083910D01*
X563157031Y6237515D01*
X563209863Y6432999D01*
X563244993Y6679026D01*
X563257876Y6985349D01*
X563245458Y7291653D01*
X563211513Y7539268D01*
X563160336Y7737407D01*
X563095211Y7894299D01*
X562999627Y8033875D01*
X562881451Y8130556D01*
X562736795Y8189827D01*
X562557754Y8210838D01*
X562378566Y8189920D01*
X562233908Y8130951D01*
X562115858Y8034864D01*
X562020481Y7896314D01*
X561955419Y7740502D01*
X561904241Y7543210D01*
X561870258Y7296078D01*
X561857815Y6989746D01*
X561465806Y6989746D01*
X561480534Y7293982D01*
X561522388Y7560525D01*
X561588538Y7794099D01*
X561687100Y8013628D01*
X561808841Y8190689D01*
X561953620Y8331372D01*
X562079148Y8413628D01*
X562219782Y8473273D01*
X562378201Y8510274D01*
X562557754Y8523163D01*
X562737119Y8509959D01*
G37*
G36*
X559796833Y8154967D02*
G01*
X559796833Y5510000D01*
X560169426Y5510000D01*
X560169426Y8154967D01*
X561095594Y8154967D01*
X561095594Y8475902D01*
X558857841Y8475902D01*
X558896493Y8154967D01*
X559796833Y8154967D01*
G37*
G36*
X556544984Y8475902D02*
G01*
X556544984Y8176400D01*
X557204073Y8176400D01*
X557204073Y5809320D01*
X556544984Y5809320D01*
X556544984Y5510000D01*
X558242166Y5510000D01*
X558242166Y5809320D01*
X557583077Y5809320D01*
X557583077Y8176400D01*
X558242166Y8176400D01*
X558242166Y8475902D01*
X556544984Y8475902D01*
G37*
G36*
X554561488Y8523163D02*
G01*
X554368087Y8514037D01*
X554207481Y8488744D01*
X554074773Y8449891D01*
X553885446Y8360588D01*
X553702180Y8234652D01*
X553911008Y7991203D01*
X554057199Y8093884D01*
X554207397Y8160280D01*
X554366250Y8198090D01*
X554533461Y8210838D01*
X554692753Y8197858D01*
X554842104Y8159513D01*
X554983722Y8095616D01*
X555108614Y8005710D01*
X555219414Y7880796D01*
X555316564Y7714414D01*
X555382229Y7532384D01*
X555426144Y7296387D01*
X555442411Y6993959D01*
X555427098Y6700170D01*
X555385517Y6467638D01*
X555322976Y6285410D01*
X555229839Y6118107D01*
X555121879Y5991707D01*
X554998743Y5899812D01*
X554858249Y5834496D01*
X554706894Y5794970D01*
X554542070Y5781476D01*
X554377968Y5790842D01*
X554242831Y5816779D01*
X554131926Y5856764D01*
X553977847Y5939452D01*
X553852939Y6029139D01*
X553659132Y5783491D01*
X553810001Y5664399D01*
X554012308Y5556346D01*
X554160465Y5505168D01*
X554336828Y5472299D01*
X554546467Y5460541D01*
X554782718Y5480552D01*
X554998952Y5539137D01*
X555199145Y5636030D01*
X555376753Y5768985D01*
X555530001Y5939858D01*
X555660031Y6153886D01*
X555751304Y6388263D01*
X555809482Y6665585D01*
X555830207Y6993959D01*
X555809073Y7323664D01*
X555749814Y7601188D01*
X555656917Y7834948D01*
X555525032Y8048530D01*
X555371380Y8218320D01*
X555194931Y8349690D01*
X554996483Y8445973D01*
X554786500Y8503638D01*
X554561488Y8523163D01*
G37*
G36*
X551210537Y6330656D02*
G01*
X551225186Y6163612D01*
X551267737Y6013971D01*
X551337665Y5878380D01*
X551433018Y5759291D01*
X551554825Y5657146D01*
X551706960Y5571367D01*
X551872159Y5511889D01*
X552066097Y5474005D01*
X552293876Y5460541D01*
X552508885Y5472085D01*
X552704461Y5505496D01*
X552882990Y5559460D01*
X553052625Y5635831D01*
X553202347Y5729142D01*
X553334167Y5839545D01*
X553112334Y6089406D01*
X552948286Y5960322D01*
X552759159Y5859878D01*
X552623001Y5814018D01*
X552466847Y5785073D01*
X552287465Y5774882D01*
X552110894Y5789945D01*
X551949310Y5834050D01*
X551805838Y5909850D01*
X551695054Y6015034D01*
X551642403Y6100920D01*
X551609702Y6202662D01*
X551598150Y6324245D01*
X551612873Y6459460D01*
X551654204Y6568610D01*
X551727572Y6661165D01*
X551852407Y6749594D01*
X552010065Y6822464D01*
X552248630Y6903467D01*
X552529915Y6998429D01*
X552755861Y7098373D01*
X552892254Y7179369D01*
X553001670Y7268398D01*
X553087604Y7365452D01*
X553151409Y7476460D01*
X553191053Y7606689D01*
X553205024Y7760759D01*
X553191072Y7904703D01*
X553150232Y8035038D01*
X553082292Y8154784D01*
X552991659Y8259812D01*
X552879541Y8349793D01*
X552743039Y8425161D01*
X552595667Y8478429D01*
X552430441Y8511605D01*
X552244417Y8523163D01*
X552040221Y8512652D01*
X551862999Y8482886D01*
X551709159Y8435969D01*
X551492742Y8329862D01*
X551296632Y8185009D01*
X551516268Y7941743D01*
X551683437Y8063926D01*
X551858818Y8146175D01*
X552043992Y8194763D01*
X552231411Y8210838D01*
X552390684Y8198100D01*
X552528728Y8161715D01*
X552649249Y8103127D01*
X552745795Y8019162D01*
X552803302Y7911943D01*
X552823639Y7773765D01*
X552805890Y7652188D01*
X552754762Y7552848D01*
X552669185Y7470024D01*
X552522304Y7383771D01*
X552342492Y7310074D01*
X552076256Y7224402D01*
X551852025Y7148496D01*
X551648892Y7057523D01*
X551524738Y6981915D01*
X551419463Y6891671D01*
X551331254Y6786047D01*
X551266852Y6666203D01*
X551225504Y6516834D01*
X551210537Y6330656D01*
G37*
%LPC*%
D11*
%TO.C,REF\u002A\u002A*%
X317126451Y7500000D03*
%TD*%
D12*
%TO.C,U7*%
X431700000Y13500000D03*
%TD*%
%TO.C,U5*%
X261700000Y13500000D03*
%TD*%
%TO.C,U4*%
X176700000Y13500000D03*
%TD*%
D11*
%TO.C,REF\u002A\u002A*%
X335500000Y3000000D03*
%TD*%
D13*
%TO.C,J1*%
X336438810Y15500000D03*
D14*
X336438810Y12960000D03*
X333898810Y15500000D03*
X333898810Y12960000D03*
X331358810Y15500000D03*
X331358810Y12960000D03*
X328818810Y15500000D03*
X328818810Y12960000D03*
X326278810Y15500000D03*
X326278810Y12960000D03*
X323738810Y15500000D03*
X323738810Y12960000D03*
X321198810Y15500000D03*
X321198810Y12960000D03*
X318658810Y15500000D03*
X318658810Y12960000D03*
X316118810Y15500000D03*
X316118810Y12960000D03*
X313578810Y15500000D03*
X313578810Y12960000D03*
X311038810Y15500000D03*
X311038810Y12960000D03*
X308498810Y15500000D03*
X308498810Y12960000D03*
X305958810Y15500000D03*
X305958810Y12960000D03*
X303418810Y15500000D03*
X303418810Y12960000D03*
X300878810Y15500000D03*
X300878810Y12960000D03*
X298338810Y15500000D03*
X298338810Y12960000D03*
X295798810Y15500000D03*
X295798810Y12960000D03*
X293258810Y15500000D03*
X293258810Y12960000D03*
X290718810Y15500000D03*
X290718810Y12960000D03*
X288178810Y15500000D03*
X288178810Y12960000D03*
%TD*%
D11*
%TO.C,REF\u002A\u002A*%
X272500000Y3000000D03*
%TD*%
D12*
%TO.C,U8*%
X516700000Y13500000D03*
%TD*%
%TO.C,U1*%
X6700000Y13500000D03*
%TD*%
%TO.C,U9*%
X601700000Y13500000D03*
%TD*%
D11*
%TO.C,REF\u002A\u002A*%
X290878324Y7500000D03*
%TD*%
D12*
%TO.C,U6*%
X346700000Y13500000D03*
%TD*%
%TO.C,U3*%
X91700000Y13500000D03*
%TD*%
%LPD*%
M02*
