%TF.GenerationSoftware,KiCad,Pcbnew,9.0.1-9.0.1-0~ubuntu22.04.1*%
%TF.CreationDate,2025-06-14T14:29:27+02:00*%
%TF.ProjectId,recorder,7265636f-7264-4657-922e-6b696361645f,rev?*%
%TF.SameCoordinates,Original*%
%TF.FileFunction,Soldermask,Top*%
%TF.FilePolarity,Negative*%
%FSLAX46Y46*%
G04 Gerber Fmt 4.6, Leading zero omitted, Abs format (unit mm)*
G04 Created by KiCad (PCBNEW 9.0.1-9.0.1-0~ubuntu22.04.1) date 2025-06-14 14:29:27*
%MOMM*%
%LPD*%
G01*
G04 APERTURE LIST*
G04 Aperture macros list*
%AMRoundRect*
0 Rectangle with rounded corners*
0 $1 Rounding radius*
0 $2 $3 $4 $5 $6 $7 $8 $9 X,Y pos of 4 corners*
0 Add a 4 corners polygon primitive as box body*
4,1,4,$2,$3,$4,$5,$6,$7,$8,$9,$2,$3,0*
0 Add four circle primitives for the rounded corners*
1,1,$1+$1,$2,$3*
1,1,$1+$1,$4,$5*
1,1,$1+$1,$6,$7*
1,1,$1+$1,$8,$9*
0 Add four rect primitives between the rounded corners*
20,1,$1+$1,$2,$3,$4,$5,0*
20,1,$1+$1,$4,$5,$6,$7,0*
20,1,$1+$1,$6,$7,$8,$9,0*
20,1,$1+$1,$8,$9,$2,$3,0*%
%AMFreePoly0*
4,1,92,0.117526,0.333263,0.309794,0.295018,0.328553,0.289328,0.509665,0.214309,0.526954,0.205068,0.689950,0.096157,0.705104,0.083721,0.843721,-0.054896,0.856157,-0.070050,0.965068,-0.233046,0.974309,-0.250335,1.049328,-0.431447,1.055018,-0.450206,1.093263,-0.642474,1.095185,-0.661983,1.095185,-0.858017,1.093263,-0.877526,1.055018,-1.069794,1.049328,-1.088553,0.974309,-1.269665,
0.965068,-1.286954,0.856157,-1.449950,0.843721,-1.465104,0.705104,-1.603721,0.689950,-1.616157,0.526954,-1.725068,0.509665,-1.734309,0.328553,-1.809328,0.309794,-1.815018,0.117526,-1.853263,0.098017,-1.855185,-0.098017,-1.855185,-0.117526,-1.853263,-0.309794,-1.815018,-0.328553,-1.809328,-0.509665,-1.734309,-0.526954,-1.725068,-0.689950,-1.616157,-0.705104,-1.603721,-0.843721,-1.465104,
-0.856157,-1.449950,-0.965068,-1.286954,-0.974309,-1.269665,-1.049328,-1.088553,-1.055018,-1.069794,-1.093263,-0.877526,-1.095185,-0.858017,-1.095185,-0.694175,-0.500000,-0.694175,-0.500000,-0.825824,-0.465924,-0.952995,-0.400101,-1.067003,-0.307003,-1.160101,-0.192995,-1.225924,-0.065824,-1.260000,0.065824,-1.260000,0.192995,-1.225924,0.307003,-1.160101,0.400101,-1.067003,0.465924,-0.952995,
0.500000,-0.825824,0.500000,-0.694175,0.465924,-0.567004,0.400101,-0.452996,0.307003,-0.359898,0.192995,-0.294075,0.065824,-0.260000,-0.065824,-0.260000,-0.192995,-0.294075,-0.307003,-0.359898,-0.400101,-0.452996,-0.465924,-0.567004,-0.500000,-0.694175,-1.095185,-0.694175,-1.095185,-0.661983,-1.093263,-0.642474,-1.055018,-0.450206,-1.049328,-0.431447,-0.974309,-0.250335,-0.965068,-0.233046,
-0.856157,-0.070050,-0.843721,-0.054896,-0.705104,0.083721,-0.689950,0.096157,-0.526954,0.205068,-0.509665,0.214309,-0.328553,0.289328,-0.309794,0.295018,-0.117526,0.333263,-0.098017,0.335185,0.098017,0.335185,0.117526,0.333263,0.117526,0.333263,$1*%
G04 Aperture macros list end*
%ADD10RoundRect,0.225000X0.225000X0.250000X-0.225000X0.250000X-0.225000X-0.250000X0.225000X-0.250000X0*%
%ADD11RoundRect,0.200000X0.275000X-0.200000X0.275000X0.200000X-0.275000X0.200000X-0.275000X-0.200000X0*%
%ADD12RoundRect,0.090000X0.210000X-0.360000X0.210000X0.360000X-0.210000X0.360000X-0.210000X-0.360000X0*%
%ADD13FreePoly0,90.000000*%
%ADD14RoundRect,0.225000X0.250000X-0.225000X0.250000X0.225000X-0.250000X0.225000X-0.250000X-0.225000X0*%
%ADD15R,1.700000X1.700000*%
%ADD16O,1.700000X1.700000*%
%ADD17RoundRect,0.200000X0.200000X0.275000X-0.200000X0.275000X-0.200000X-0.275000X0.200000X-0.275000X0*%
%ADD18RoundRect,0.200000X-0.200000X-0.275000X0.200000X-0.275000X0.200000X0.275000X-0.200000X0.275000X0*%
%ADD19O,0.264000X0.960000*%
%ADD20O,0.960000X0.264000*%
%ADD21R,1.750000X1.750000*%
%ADD22RoundRect,0.225000X-0.250000X0.225000X-0.250000X-0.225000X0.250000X-0.225000X0.250000X0.225000X0*%
%ADD23RoundRect,0.200000X-0.275000X0.200000X-0.275000X-0.200000X0.275000X-0.200000X0.275000X0.200000X0*%
%ADD24RoundRect,0.225000X-0.225000X-0.250000X0.225000X-0.250000X0.225000X0.250000X-0.225000X0.250000X0*%
%ADD25R,0.315831X1.207120*%
%ADD26R,1.207120X0.315831*%
%ADD27R,3.149999X3.149999*%
G04 APERTURE END LIST*
D10*
%TO.C,C13*%
X272390000Y18000000D03*
X270840000Y18000000D03*
%TD*%
D11*
%TO.C,R14*%
X285500000Y12350000D03*
X285500000Y14000000D03*
%TD*%
D12*
%TO.C,U7*%
X429500000Y14350000D03*
X430200000Y14350000D03*
X429500000Y12650000D03*
X430200000Y12650000D03*
D13*
X430920000Y13500000D03*
%TD*%
D12*
%TO.C,U5*%
X259500000Y14350000D03*
X260200000Y14350000D03*
X259500000Y12650000D03*
X260200000Y12650000D03*
D13*
X260920000Y13500000D03*
%TD*%
D14*
%TO.C,C11*%
X279500000Y15950000D03*
X279500000Y17500000D03*
%TD*%
D12*
%TO.C,U4*%
X174500000Y14350000D03*
X175200000Y14350000D03*
X174500000Y12650000D03*
X175200000Y12650000D03*
D13*
X175920000Y13500000D03*
%TD*%
D15*
%TO.C,J1*%
X336438810Y15500000D03*
D16*
X336438810Y12960000D03*
X333898810Y15500000D03*
X333898810Y12960000D03*
X331358810Y15500000D03*
X331358810Y12960000D03*
X328818810Y15500000D03*
X328818810Y12960000D03*
X326278810Y15500000D03*
X326278810Y12960000D03*
X323738810Y15500000D03*
X323738810Y12960000D03*
X321198810Y15500000D03*
X321198810Y12960000D03*
X318658810Y15500000D03*
X318658810Y12960000D03*
X316118810Y15500000D03*
X316118810Y12960000D03*
X313578810Y15500000D03*
X313578810Y12960000D03*
X311038810Y15500000D03*
X311038810Y12960000D03*
X308498810Y15500000D03*
X308498810Y12960000D03*
X305958810Y15500000D03*
X305958810Y12960000D03*
X303418810Y15500000D03*
X303418810Y12960000D03*
X300878810Y15500000D03*
X300878810Y12960000D03*
X298338810Y15500000D03*
X298338810Y12960000D03*
X295798810Y15500000D03*
X295798810Y12960000D03*
X293258810Y15500000D03*
X293258810Y12960000D03*
X290718810Y15500000D03*
X290718810Y12960000D03*
X288178810Y15500000D03*
X288178810Y12960000D03*
%TD*%
D17*
%TO.C,R6*%
X429000000Y17000001D03*
X427350000Y17000001D03*
%TD*%
%TO.C,R8*%
X599011625Y17000001D03*
X597361625Y17000001D03*
%TD*%
D18*
%TO.C,R13*%
X286000000Y5000000D03*
X287650000Y5000000D03*
%TD*%
D17*
%TO.C,R3*%
X174011625Y17000001D03*
X172361625Y17000001D03*
%TD*%
%TO.C,R5*%
X344011625Y17000001D03*
X342361625Y17000001D03*
%TD*%
D19*
%TO.C,U2*%
X280413800Y11265400D03*
X280913800Y11265400D03*
X281413800Y11265400D03*
X281913800Y11265400D03*
D20*
X282648400Y12000000D03*
X282648400Y12500000D03*
X282648400Y13000000D03*
X282648400Y13500000D03*
D19*
X281913800Y14234600D03*
X281413800Y14234600D03*
X280913800Y14234600D03*
X280413800Y14234600D03*
D20*
X279679200Y13500000D03*
X279679200Y13000000D03*
X279679200Y12500000D03*
X279679200Y12000000D03*
D21*
X281163800Y12750000D03*
%TD*%
D22*
%TO.C,C10*%
X278019200Y11775000D03*
X278019200Y10225000D03*
%TD*%
D10*
%TO.C,C14*%
X271840000Y10000000D03*
X270290000Y10000000D03*
%TD*%
D17*
%TO.C,R7*%
X514000000Y17000001D03*
X512350000Y17000001D03*
%TD*%
%TO.C,R1*%
X4000000Y17000000D03*
X2350000Y17000000D03*
%TD*%
D12*
%TO.C,U8*%
X514500000Y14350000D03*
X515200000Y14350000D03*
X514500000Y12650000D03*
X515200000Y12650000D03*
D13*
X515920000Y13500000D03*
%TD*%
D12*
%TO.C,U1*%
X4500000Y14350000D03*
X5200000Y14350000D03*
X4500000Y12650000D03*
X5200000Y12650000D03*
D13*
X5920000Y13500000D03*
%TD*%
D23*
%TO.C,R9*%
X276469200Y14500000D03*
X276469200Y12850000D03*
%TD*%
D17*
%TO.C,R12*%
X276150000Y6500000D03*
X274500000Y6500000D03*
%TD*%
D24*
%TO.C,C4*%
X260500000Y17000000D03*
X262050000Y17000000D03*
%TD*%
%TO.C,C12*%
X273290000Y10000000D03*
X274840000Y10000000D03*
%TD*%
D25*
%TO.C,U10*%
X273800000Y16375550D03*
X273149999Y16375550D03*
X272500000Y16375550D03*
X271849999Y16375550D03*
X271200000Y16375550D03*
D26*
X270124450Y15300000D03*
X270124450Y14649999D03*
X270124450Y14000000D03*
X270124450Y13349999D03*
X270124450Y12700000D03*
D25*
X271200000Y11624450D03*
X271849999Y11624450D03*
X272500000Y11624450D03*
X273149999Y11624450D03*
X273800000Y11624450D03*
D26*
X274875550Y12700000D03*
X274875550Y13349999D03*
X274875550Y14000000D03*
X274875550Y14649999D03*
X274875550Y15300000D03*
D27*
X272500000Y14000000D03*
%TD*%
D24*
%TO.C,C2*%
X90511625Y17000001D03*
X92061625Y17000001D03*
%TD*%
D12*
%TO.C,U9*%
X599500000Y14350000D03*
X600200000Y14350000D03*
X599500000Y12650000D03*
X600200000Y12650000D03*
D13*
X600920000Y13500000D03*
%TD*%
D17*
%TO.C,R4*%
X259000000Y17000000D03*
X257350000Y17000000D03*
%TD*%
D12*
%TO.C,U6*%
X344500000Y14350000D03*
X345200000Y14350000D03*
X344500000Y12650000D03*
X345200000Y12650000D03*
D13*
X345920000Y13500000D03*
%TD*%
D24*
%TO.C,C5*%
X345461625Y17000001D03*
X347011625Y17000001D03*
%TD*%
D14*
%TO.C,C9*%
X278019200Y13500000D03*
X278019200Y15050000D03*
%TD*%
D17*
%TO.C,R2*%
X89011625Y17000001D03*
X87361625Y17000001D03*
%TD*%
D24*
%TO.C,C8*%
X600461625Y17000001D03*
X602011625Y17000001D03*
%TD*%
D12*
%TO.C,U3*%
X89500000Y14350000D03*
X90200000Y14350000D03*
X89500000Y12650000D03*
X90200000Y12650000D03*
D13*
X90920000Y13500000D03*
%TD*%
D24*
%TO.C,C6*%
X430461625Y17000001D03*
X432011625Y17000001D03*
%TD*%
%TO.C,C1*%
X5511625Y17000001D03*
X7061625Y17000001D03*
%TD*%
%TO.C,C7*%
X515461625Y17000001D03*
X517011625Y17000001D03*
%TD*%
%TO.C,C3*%
X175511625Y17000001D03*
X177061625Y17000001D03*
%TD*%
M02*
