%TF.GenerationSoftware,KiCad,Pcbnew,9.0.1-9.0.1-0~ubuntu22.04.1*%
%TF.CreationDate,2025-06-14T14:09:09+02:00*%
%TF.ProjectId,recorder,7265636f-7264-4657-922e-6b696361645f,rev?*%
%TF.SameCoordinates,Original*%
%TF.FileFunction,Legend,Top*%
%TF.FilePolarity,Positive*%
%FSLAX46Y46*%
G04 Gerber Fmt 4.6, Leading zero omitted, Abs format (unit mm)*
G04 Created by KiCad (PCBNEW 9.0.1-9.0.1-0~ubuntu22.04.1) date 2025-06-14 14:09:09*
%MOMM*%
%LPD*%
G01*
G04 APERTURE LIST*
G04 Aperture macros list*
%AMRoundRect*
0 Rectangle with rounded corners*
0 $1 Rounding radius*
0 $2 $3 $4 $5 $6 $7 $8 $9 X,Y pos of 4 corners*
0 Add a 4 corners polygon primitive as box body*
4,1,4,$2,$3,$4,$5,$6,$7,$8,$9,$2,$3,0*
0 Add four circle primitives for the rounded corners*
1,1,$1+$1,$2,$3*
1,1,$1+$1,$4,$5*
1,1,$1+$1,$6,$7*
1,1,$1+$1,$8,$9*
0 Add four rect primitives between the rounded corners*
20,1,$1+$1,$2,$3,$4,$5,0*
20,1,$1+$1,$4,$5,$6,$7,0*
20,1,$1+$1,$6,$7,$8,$9,0*
20,1,$1+$1,$8,$9,$2,$3,0*%
%AMFreePoly0*
4,1,92,0.117526,0.333263,0.309794,0.295018,0.328553,0.289328,0.509665,0.214309,0.526954,0.205068,0.689950,0.096157,0.705104,0.083721,0.843721,-0.054896,0.856157,-0.070050,0.965068,-0.233046,0.974309,-0.250335,1.049328,-0.431447,1.055018,-0.450206,1.093263,-0.642474,1.095185,-0.661983,1.095185,-0.858017,1.093263,-0.877526,1.055018,-1.069794,1.049328,-1.088553,0.974309,-1.269665,
0.965068,-1.286954,0.856157,-1.449950,0.843721,-1.465104,0.705104,-1.603721,0.689950,-1.616157,0.526954,-1.725068,0.509665,-1.734309,0.328553,-1.809328,0.309794,-1.815018,0.117526,-1.853263,0.098017,-1.855185,-0.098017,-1.855185,-0.117526,-1.853263,-0.309794,-1.815018,-0.328553,-1.809328,-0.509665,-1.734309,-0.526954,-1.725068,-0.689950,-1.616157,-0.705104,-1.603721,-0.843721,-1.465104,
-0.856157,-1.449950,-0.965068,-1.286954,-0.974309,-1.269665,-1.049328,-1.088553,-1.055018,-1.069794,-1.093263,-0.877526,-1.095185,-0.858017,-1.095185,-0.694175,-0.500000,-0.694175,-0.500000,-0.825824,-0.465924,-0.952995,-0.400101,-1.067003,-0.307003,-1.160101,-0.192995,-1.225924,-0.065824,-1.260000,0.065824,-1.260000,0.192995,-1.225924,0.307003,-1.160101,0.400101,-1.067003,0.465924,-0.952995,
0.500000,-0.825824,0.500000,-0.694175,0.465924,-0.567004,0.400101,-0.452996,0.307003,-0.359898,0.192995,-0.294075,0.065824,-0.260000,-0.065824,-0.260000,-0.192995,-0.294075,-0.307003,-0.359898,-0.400101,-0.452996,-0.465924,-0.567004,-0.500000,-0.694175,-1.095185,-0.694175,-1.095185,-0.661983,-1.093263,-0.642474,-1.055018,-0.450206,-1.049328,-0.431447,-0.974309,-0.250335,-0.965068,-0.233046,
-0.856157,-0.070050,-0.843721,-0.054896,-0.705104,0.083721,-0.689950,0.096157,-0.526954,0.205068,-0.509665,0.214309,-0.328553,0.289328,-0.309794,0.295018,-0.117526,0.333263,-0.098017,0.335185,0.098017,0.335185,0.117526,0.333263,0.117526,0.333263,$1*%
G04 Aperture macros list end*
%ADD10C,0.100000*%
%ADD11C,0.150000*%
%ADD12C,0.120000*%
%ADD13C,0.200000*%
%ADD14C,0.050000*%
%ADD15C,0.250000*%
%ADD16RoundRect,0.225000X-0.225000X-0.250000X0.225000X-0.250000X0.225000X0.250000X-0.225000X0.250000X0*%
%ADD17FreePoly0,90.000000*%
%ADD18RoundRect,0.090000X0.210000X-0.360000X0.210000X0.360000X-0.210000X0.360000X-0.210000X-0.360000X0*%
%ADD19C,0.800000*%
%ADD20RoundRect,0.200000X0.200000X0.275000X-0.200000X0.275000X-0.200000X-0.275000X0.200000X-0.275000X0*%
%ADD21RoundRect,0.225000X0.250000X-0.225000X0.250000X0.225000X-0.250000X0.225000X-0.250000X-0.225000X0*%
%ADD22C,2.200000*%
%ADD23R,3.149999X3.149999*%
%ADD24R,1.207120X0.315831*%
%ADD25R,0.315831X1.207120*%
%ADD26RoundRect,0.200000X-0.275000X0.200000X-0.275000X-0.200000X0.275000X-0.200000X0.275000X0.200000X0*%
%ADD27RoundRect,0.225000X0.225000X0.250000X-0.225000X0.250000X-0.225000X-0.250000X0.225000X-0.250000X0*%
%ADD28RoundRect,0.225000X-0.250000X0.225000X-0.250000X-0.225000X0.250000X-0.225000X0.250000X0.225000X0*%
%ADD29R,1.750000X1.750000*%
%ADD30O,0.960000X0.264000*%
%ADD31O,0.264000X0.960000*%
%ADD32RoundRect,0.200000X-0.200000X-0.275000X0.200000X-0.275000X0.200000X0.275000X-0.200000X0.275000X0*%
%ADD33O,1.700000X1.700000*%
%ADD34R,1.700000X1.700000*%
%ADD35RoundRect,0.200000X0.275000X-0.200000X0.275000X0.200000X-0.275000X0.200000X-0.275000X-0.200000X0*%
G04 APERTURE END LIST*
D10*
G36*
X150234891Y-312160000D02*
G01*
X150234891Y-311222351D01*
X149488241Y-311222351D01*
X149488241Y-312160000D01*
X149239846Y-312160000D01*
X149239846Y-310182732D01*
X149488241Y-310182732D01*
X149488241Y-311018408D01*
X150234891Y-311018408D01*
X150234891Y-310182732D01*
X150483286Y-310182732D01*
X150483286Y-312160000D01*
X150234891Y-312160000D01*
G37*
G36*
X151702692Y-310159817D02*
G01*
X151808304Y-310184484D01*
X151902061Y-310224248D01*
X151985746Y-310279085D01*
X152082266Y-310372874D01*
X152163426Y-310490914D01*
X152229134Y-310637267D01*
X152273234Y-310792983D01*
X152301136Y-310970678D01*
X152310956Y-311173503D01*
X152301190Y-311372492D01*
X152273340Y-311548163D01*
X152229134Y-311703387D01*
X152163554Y-311849354D01*
X152082405Y-311967961D01*
X151985746Y-312063035D01*
X151901939Y-312118829D01*
X151808146Y-312159224D01*
X151702580Y-312184257D01*
X151582990Y-312192972D01*
X151463175Y-312184428D01*
X151357504Y-312159909D01*
X151263745Y-312120406D01*
X151180111Y-312065966D01*
X151083553Y-311972633D01*
X151002409Y-311855484D01*
X150936723Y-311710593D01*
X150892676Y-311556237D01*
X150864749Y-311379284D01*
X150854902Y-311176434D01*
X151116242Y-311176434D01*
X151124831Y-311380649D01*
X151148250Y-311544667D01*
X151183472Y-311674990D01*
X151228227Y-311777393D01*
X151293307Y-311868449D01*
X151372137Y-311931421D01*
X151467107Y-311969860D01*
X151582990Y-311983412D01*
X151702612Y-311969572D01*
X151799092Y-311930593D01*
X151877722Y-311867181D01*
X151941172Y-311775928D01*
X151984479Y-311673076D01*
X152018601Y-311542309D01*
X152041295Y-311377918D01*
X152049616Y-311173503D01*
X152041321Y-310969281D01*
X152018665Y-310804527D01*
X151984546Y-310672998D01*
X151941172Y-310569124D01*
X151877587Y-310476757D01*
X151798887Y-310412699D01*
X151702449Y-310373386D01*
X151582990Y-310359441D01*
X151463629Y-310373449D01*
X151367192Y-310412962D01*
X151288408Y-310477416D01*
X151224685Y-310570467D01*
X151181268Y-310675062D01*
X151147151Y-310807154D01*
X151124520Y-310972231D01*
X151116242Y-311176434D01*
X150854902Y-311176434D01*
X150864647Y-310977459D01*
X150892480Y-310801268D01*
X150936723Y-310645083D01*
X151002383Y-310498081D01*
X151083542Y-310378543D01*
X151180111Y-310282627D01*
X151264002Y-310226162D01*
X151357839Y-310185320D01*
X151463413Y-310160027D01*
X151582990Y-310151224D01*
X151702692Y-310159817D01*
G37*
G36*
X153087526Y-310386674D02*
G01*
X153087526Y-311078736D01*
X153862997Y-311078736D01*
X153862997Y-311279748D01*
X153087526Y-311279748D01*
X153087526Y-312160000D01*
X152840596Y-312160000D01*
X152840596Y-310182732D01*
X154005146Y-310182732D01*
X153974982Y-310386674D01*
X153087526Y-310386674D01*
G37*
G36*
X155687735Y-310182732D02*
G01*
X155799720Y-312160000D01*
X155559996Y-312160000D01*
X155498203Y-311127585D01*
X155487456Y-310846217D01*
X155482449Y-310585610D01*
X155482449Y-310411099D01*
X155149302Y-311805359D01*
X154899441Y-311805359D01*
X154541870Y-310411099D01*
X154546144Y-310589152D01*
X154546144Y-310856231D01*
X154539061Y-311124776D01*
X154485938Y-312160000D01*
X154251831Y-312160000D01*
X154363817Y-310182732D01*
X154711374Y-310182732D01*
X155031577Y-311536814D01*
X155337369Y-310182732D01*
X155687735Y-310182732D01*
G37*
G36*
X156495935Y-310386674D02*
G01*
X156495935Y-311052969D01*
X157228297Y-311052969D01*
X157228297Y-311258255D01*
X156495935Y-311258255D01*
X156495935Y-311960453D01*
X157394870Y-311960453D01*
X157394870Y-312160000D01*
X156246074Y-312160000D01*
X156246074Y-310182732D01*
X157368981Y-310182732D01*
X157340282Y-310386674D01*
X156495935Y-310386674D01*
G37*
G36*
X159034351Y-310182732D02*
G01*
X159034351Y-310382400D01*
X158594958Y-310382400D01*
X158594958Y-311960453D01*
X159034351Y-311960453D01*
X159034351Y-312160000D01*
X157902896Y-312160000D01*
X157902896Y-311960453D01*
X158342288Y-311960453D01*
X158342288Y-310382400D01*
X157902896Y-310382400D01*
X157902896Y-310182732D01*
X159034351Y-310182732D01*
G37*
G36*
X160869225Y-311612896D02*
G01*
X160859459Y-311724258D01*
X160831091Y-311824019D01*
X160784473Y-311914413D01*
X160720904Y-311993806D01*
X160639700Y-312061903D01*
X160538276Y-312119089D01*
X160428143Y-312158741D01*
X160298851Y-312183996D01*
X160146999Y-312192972D01*
X160003660Y-312185277D01*
X159873275Y-312163002D01*
X159754256Y-312127027D01*
X159641166Y-312076112D01*
X159541352Y-312013905D01*
X159453471Y-311940303D01*
X159601360Y-311773729D01*
X159710725Y-311859785D01*
X159836810Y-311926748D01*
X159927582Y-311957321D01*
X160031685Y-311976618D01*
X160151273Y-311983412D01*
X160268987Y-311973370D01*
X160376709Y-311943967D01*
X160472357Y-311893433D01*
X160546214Y-311823311D01*
X160581314Y-311766053D01*
X160603115Y-311698225D01*
X160610816Y-311617170D01*
X160601001Y-311527026D01*
X160573447Y-311454260D01*
X160524535Y-311392557D01*
X160441311Y-311333604D01*
X160336206Y-311285024D01*
X160177163Y-311231022D01*
X159989639Y-311167714D01*
X159839009Y-311101085D01*
X159748080Y-311047087D01*
X159675136Y-310987734D01*
X159617847Y-310923032D01*
X159575310Y-310849027D01*
X159548881Y-310762207D01*
X159539567Y-310659494D01*
X159548868Y-310563531D01*
X159576095Y-310476641D01*
X159621388Y-310396810D01*
X159681810Y-310326792D01*
X159756555Y-310266804D01*
X159847557Y-310216559D01*
X159945805Y-310181047D01*
X160055955Y-310158930D01*
X160179972Y-310151224D01*
X160316102Y-310158232D01*
X160434250Y-310178076D01*
X160536810Y-310209354D01*
X160681088Y-310280092D01*
X160811828Y-310376660D01*
X160665404Y-310538838D01*
X160553958Y-310457382D01*
X160437037Y-310402550D01*
X160313588Y-310370158D01*
X160188642Y-310359441D01*
X160082460Y-310367933D01*
X159990431Y-310392190D01*
X159910083Y-310431249D01*
X159845719Y-310487225D01*
X159807381Y-310558705D01*
X159793824Y-310650823D01*
X159805656Y-310731875D01*
X159839741Y-310798101D01*
X159896793Y-310853317D01*
X159994713Y-310910819D01*
X160114588Y-310959950D01*
X160292079Y-311017065D01*
X160441566Y-311067669D01*
X160576988Y-311128318D01*
X160659757Y-311178723D01*
X160729941Y-311238886D01*
X160788747Y-311309302D01*
X160831682Y-311389198D01*
X160859247Y-311488777D01*
X160869225Y-311612896D01*
G37*
G36*
X162030722Y-310396688D02*
G01*
X162030722Y-312160000D01*
X161782327Y-312160000D01*
X161782327Y-310396688D01*
X161164881Y-310396688D01*
X161164881Y-310182732D01*
X162656716Y-310182732D01*
X162630949Y-310396688D01*
X162030722Y-310396688D01*
G37*
G36*
X163381629Y-310386674D02*
G01*
X163381629Y-311052969D01*
X164113991Y-311052969D01*
X164113991Y-311258255D01*
X163381629Y-311258255D01*
X163381629Y-311960453D01*
X164280565Y-311960453D01*
X164280565Y-312160000D01*
X163131769Y-312160000D01*
X163131769Y-310182732D01*
X164254675Y-310182732D01*
X164225976Y-310386674D01*
X163381629Y-310386674D01*
G37*
G36*
X165479639Y-310193215D02*
G01*
X165630487Y-310221976D01*
X165751349Y-310265815D01*
X165847505Y-310322805D01*
X165928978Y-310399738D01*
X165987225Y-310492077D01*
X166023539Y-310602928D01*
X166036427Y-310737041D01*
X166027098Y-310846467D01*
X166000412Y-310941218D01*
X165957259Y-311023973D01*
X165897086Y-311096688D01*
X165798042Y-311177662D01*
X165684434Y-311239554D01*
X165553925Y-311282679D01*
X166139741Y-312160000D01*
X165841154Y-312160000D01*
X165301256Y-311311378D01*
X165034176Y-311311378D01*
X165034176Y-312160000D01*
X164784316Y-312160000D01*
X164784316Y-311116106D01*
X165034176Y-311116106D01*
X165321284Y-311116106D01*
X165460778Y-311105077D01*
X165568653Y-311075116D01*
X165651622Y-311029277D01*
X165700730Y-310981520D01*
X165737151Y-310919390D01*
X165760725Y-310839487D01*
X165769347Y-310737041D01*
X165761368Y-310642618D01*
X165739457Y-310568255D01*
X165705450Y-310509781D01*
X165659438Y-310464221D01*
X165581468Y-310421177D01*
X165472038Y-310392005D01*
X165321284Y-310380935D01*
X165034176Y-310380935D01*
X165034176Y-311116106D01*
X164784316Y-311116106D01*
X164784316Y-310182732D01*
X165292585Y-310182732D01*
X165479639Y-310193215D01*
G37*
G36*
X168922486Y-310193215D02*
G01*
X169073334Y-310221976D01*
X169194196Y-310265815D01*
X169290352Y-310322805D01*
X169371825Y-310399738D01*
X169430073Y-310492077D01*
X169466386Y-310602928D01*
X169479274Y-310737041D01*
X169469946Y-310846467D01*
X169443259Y-310941218D01*
X169400106Y-311023973D01*
X169339933Y-311096688D01*
X169240889Y-311177662D01*
X169127281Y-311239554D01*
X168996772Y-311282679D01*
X169582588Y-312160000D01*
X169284002Y-312160000D01*
X168744103Y-311311378D01*
X168477023Y-311311378D01*
X168477023Y-312160000D01*
X168227163Y-312160000D01*
X168227163Y-311116106D01*
X168477023Y-311116106D01*
X168764131Y-311116106D01*
X168903626Y-311105077D01*
X169011500Y-311075116D01*
X169094469Y-311029277D01*
X169143577Y-310981520D01*
X169179998Y-310919390D01*
X169203572Y-310839487D01*
X169212194Y-310737041D01*
X169204215Y-310642618D01*
X169182304Y-310568255D01*
X169148297Y-310509781D01*
X169102285Y-310464221D01*
X169024316Y-310421177D01*
X168914886Y-310392005D01*
X168764131Y-310380935D01*
X168477023Y-310380935D01*
X168477023Y-311116106D01*
X168227163Y-311116106D01*
X168227163Y-310182732D01*
X168735432Y-310182732D01*
X168922486Y-310193215D01*
G37*
G36*
X170638352Y-310159817D02*
G01*
X170743964Y-310184484D01*
X170837720Y-310224248D01*
X170921406Y-310279085D01*
X171017925Y-310372874D01*
X171099085Y-310490914D01*
X171164794Y-310637267D01*
X171208894Y-310792983D01*
X171236796Y-310970678D01*
X171246615Y-311173503D01*
X171236850Y-311372492D01*
X171209000Y-311548163D01*
X171164794Y-311703387D01*
X171099213Y-311849354D01*
X171018065Y-311967961D01*
X170921406Y-312063035D01*
X170837599Y-312118829D01*
X170743806Y-312159224D01*
X170638239Y-312184257D01*
X170518649Y-312192972D01*
X170398835Y-312184428D01*
X170293164Y-312159909D01*
X170199405Y-312120406D01*
X170115771Y-312065966D01*
X170019212Y-311972633D01*
X169938069Y-311855484D01*
X169872383Y-311710593D01*
X169828336Y-311556237D01*
X169800409Y-311379284D01*
X169790561Y-311176434D01*
X170051901Y-311176434D01*
X170060490Y-311380649D01*
X170083910Y-311544667D01*
X170119132Y-311674990D01*
X170163886Y-311777393D01*
X170228966Y-311868449D01*
X170307796Y-311931421D01*
X170402766Y-311969860D01*
X170518649Y-311983412D01*
X170638271Y-311969572D01*
X170734752Y-311930593D01*
X170813381Y-311867181D01*
X170876831Y-311775928D01*
X170920139Y-311673076D01*
X170954260Y-311542309D01*
X170976954Y-311377918D01*
X170985275Y-311173503D01*
X170976980Y-310969281D01*
X170954325Y-310804527D01*
X170920206Y-310672998D01*
X170876831Y-310569124D01*
X170813247Y-310476757D01*
X170734547Y-310412699D01*
X170638108Y-310373386D01*
X170518649Y-310359441D01*
X170399289Y-310373449D01*
X170302851Y-310412962D01*
X170224067Y-310477416D01*
X170160345Y-310570467D01*
X170116928Y-310675062D01*
X170082810Y-310807154D01*
X170060180Y-310972231D01*
X170051901Y-311176434D01*
X169790561Y-311176434D01*
X169800307Y-310977459D01*
X169828140Y-310801268D01*
X169872383Y-310645083D01*
X169938042Y-310498081D01*
X170019202Y-310378543D01*
X170115771Y-310282627D01*
X170199662Y-310226162D01*
X170293499Y-310185320D01*
X170399073Y-310160027D01*
X170518649Y-310151224D01*
X170638352Y-310159817D01*
G37*
G36*
X172270754Y-310188677D02*
G01*
X172396510Y-310206423D01*
X172516668Y-310238866D01*
X172621946Y-310286901D01*
X172712413Y-310353637D01*
X172782048Y-310439797D01*
X172814110Y-310506442D01*
X172834412Y-310585912D01*
X172841643Y-310680987D01*
X172827806Y-310801957D01*
X172789253Y-310897142D01*
X172728686Y-310976922D01*
X172652843Y-311038558D01*
X172565892Y-311083876D01*
X172474057Y-311113175D01*
X172581442Y-311139420D01*
X172687281Y-311181441D01*
X172782007Y-311243010D01*
X172859595Y-311330062D01*
X172895900Y-311399343D01*
X172919341Y-311486414D01*
X172927861Y-311595676D01*
X172920083Y-311702298D01*
X172898258Y-311791538D01*
X172863869Y-311866420D01*
X172789157Y-311963877D01*
X172693021Y-312039344D01*
X172580987Y-312094408D01*
X172454640Y-312132034D01*
X172322335Y-312152981D01*
X172186950Y-312160000D01*
X171655600Y-312160000D01*
X171655600Y-311954713D01*
X171903995Y-311954713D01*
X172229937Y-311954713D01*
X172327593Y-311948187D01*
X172428140Y-311928213D01*
X172520797Y-311889262D01*
X172596789Y-311826242D01*
X172632913Y-311771885D01*
X172656386Y-311699695D01*
X172665055Y-311604347D01*
X172657599Y-311506122D01*
X172637466Y-311430959D01*
X172606926Y-311373904D01*
X172539404Y-311305216D01*
X172452564Y-311261186D01*
X172353323Y-311237710D01*
X172241538Y-311229556D01*
X171903995Y-311229556D01*
X171903995Y-311954713D01*
X171655600Y-311954713D01*
X171655600Y-311024148D01*
X171903995Y-311024148D01*
X172222854Y-311024148D01*
X172337207Y-311014254D01*
X172424964Y-310987366D01*
X172492009Y-310945990D01*
X172541914Y-310887208D01*
X172574079Y-310805754D01*
X172586043Y-310693932D01*
X172573022Y-310587178D01*
X172537797Y-310510042D01*
X172481995Y-310454818D01*
X172409205Y-310417188D01*
X172316374Y-310392700D01*
X172198429Y-310383743D01*
X171903995Y-310383743D01*
X171903995Y-311024148D01*
X171655600Y-311024148D01*
X171655600Y-310182732D01*
X172142376Y-310182732D01*
X172270754Y-310188677D01*
G37*
G36*
X174081199Y-310159817D02*
G01*
X174186811Y-310184484D01*
X174280567Y-310224248D01*
X174364253Y-310279085D01*
X174460772Y-310372874D01*
X174541932Y-310490914D01*
X174607641Y-310637267D01*
X174651741Y-310792983D01*
X174679643Y-310970678D01*
X174689462Y-311173503D01*
X174679697Y-311372492D01*
X174651847Y-311548163D01*
X174607641Y-311703387D01*
X174542060Y-311849354D01*
X174460912Y-311967961D01*
X174364253Y-312063035D01*
X174280446Y-312118829D01*
X174186653Y-312159224D01*
X174081086Y-312184257D01*
X173961496Y-312192972D01*
X173841682Y-312184428D01*
X173736011Y-312159909D01*
X173642252Y-312120406D01*
X173558618Y-312065966D01*
X173462060Y-311972633D01*
X173380916Y-311855484D01*
X173315230Y-311710593D01*
X173271183Y-311556237D01*
X173243256Y-311379284D01*
X173233408Y-311176434D01*
X173494748Y-311176434D01*
X173503337Y-311380649D01*
X173526757Y-311544667D01*
X173561979Y-311674990D01*
X173606734Y-311777393D01*
X173671814Y-311868449D01*
X173750643Y-311931421D01*
X173845613Y-311969860D01*
X173961496Y-311983412D01*
X174081118Y-311969572D01*
X174177599Y-311930593D01*
X174256228Y-311867181D01*
X174319678Y-311775928D01*
X174362986Y-311673076D01*
X174397108Y-311542309D01*
X174419801Y-311377918D01*
X174428122Y-311173503D01*
X174419827Y-310969281D01*
X174397172Y-310804527D01*
X174363053Y-310672998D01*
X174319678Y-310569124D01*
X174256094Y-310476757D01*
X174177394Y-310412699D01*
X174080955Y-310373386D01*
X173961496Y-310359441D01*
X173842136Y-310373449D01*
X173745699Y-310412962D01*
X173666915Y-310477416D01*
X173603192Y-310570467D01*
X173559775Y-310675062D01*
X173525657Y-310807154D01*
X173503027Y-310972231D01*
X173494748Y-311176434D01*
X173233408Y-311176434D01*
X173243154Y-310977459D01*
X173270987Y-310801268D01*
X173315230Y-310645083D01*
X173380890Y-310498081D01*
X173462049Y-310378543D01*
X173558618Y-310282627D01*
X173642509Y-310226162D01*
X173736346Y-310185320D01*
X173841920Y-310160027D01*
X173961496Y-310151224D01*
X174081199Y-310159817D01*
G37*
G36*
X175802110Y-310396688D02*
G01*
X175802110Y-312160000D01*
X175553715Y-312160000D01*
X175553715Y-310396688D01*
X174936270Y-310396688D01*
X174936270Y-310182732D01*
X176428105Y-310182732D01*
X176402337Y-310396688D01*
X175802110Y-310396688D01*
G37*
G36*
X177970010Y-310182732D02*
G01*
X177970010Y-310382400D01*
X177530617Y-310382400D01*
X177530617Y-311960453D01*
X177970010Y-311960453D01*
X177970010Y-312160000D01*
X176838555Y-312160000D01*
X176838555Y-311960453D01*
X177277948Y-311960453D01*
X177277948Y-310382400D01*
X176838555Y-310382400D01*
X176838555Y-310182732D01*
X177970010Y-310182732D01*
G37*
G36*
X179292341Y-310151224D02*
G01*
X179421274Y-310157309D01*
X179528345Y-310174171D01*
X179616817Y-310200073D01*
X179743035Y-310259608D01*
X179865212Y-310343565D01*
X179725994Y-310505865D01*
X179628533Y-310437411D01*
X179528401Y-310393147D01*
X179422499Y-310367940D01*
X179311025Y-310359441D01*
X179204831Y-310368094D01*
X179105263Y-310393658D01*
X179010851Y-310436256D01*
X178927590Y-310496193D01*
X178853723Y-310579469D01*
X178788956Y-310690390D01*
X178745180Y-310811744D01*
X178715903Y-310969075D01*
X178705059Y-311170694D01*
X178715267Y-311366553D01*
X178742988Y-311521575D01*
X178784682Y-311643060D01*
X178846773Y-311754595D01*
X178918747Y-311838862D01*
X179000837Y-311900125D01*
X179094500Y-311943669D01*
X179195403Y-311970020D01*
X179305286Y-311979016D01*
X179414687Y-311972772D01*
X179504779Y-311955480D01*
X179578715Y-311928824D01*
X179681434Y-311873698D01*
X179764706Y-311813907D01*
X179893911Y-311977672D01*
X179793332Y-312057067D01*
X179658461Y-312129103D01*
X179559689Y-312163221D01*
X179442114Y-312185134D01*
X179302355Y-312192972D01*
X179144854Y-312179632D01*
X179000698Y-312140575D01*
X178867236Y-312075980D01*
X178748830Y-311987343D01*
X178646665Y-311873428D01*
X178559979Y-311730743D01*
X178499130Y-311574491D01*
X178460344Y-311389610D01*
X178446528Y-311170694D01*
X178460617Y-310950890D01*
X178500123Y-310765875D01*
X178562055Y-310610034D01*
X178649978Y-310467647D01*
X178752412Y-310354453D01*
X178870045Y-310266873D01*
X179002344Y-310202685D01*
X179142333Y-310164241D01*
X179292341Y-310151224D01*
G37*
G36*
X181526308Y-311612896D02*
G01*
X181516542Y-311724258D01*
X181488174Y-311824019D01*
X181441556Y-311914413D01*
X181377987Y-311993806D01*
X181296783Y-312061903D01*
X181195359Y-312119089D01*
X181085227Y-312158741D01*
X180955934Y-312183996D01*
X180804082Y-312192972D01*
X180660743Y-312185277D01*
X180530358Y-312163002D01*
X180411339Y-312127027D01*
X180298249Y-312076112D01*
X180198435Y-312013905D01*
X180110554Y-311940303D01*
X180258443Y-311773729D01*
X180367808Y-311859785D01*
X180493893Y-311926748D01*
X180584665Y-311957321D01*
X180688768Y-311976618D01*
X180808356Y-311983412D01*
X180926070Y-311973370D01*
X181033792Y-311943967D01*
X181129440Y-311893433D01*
X181203297Y-311823311D01*
X181238397Y-311766053D01*
X181260198Y-311698225D01*
X181267899Y-311617170D01*
X181258084Y-311527026D01*
X181230530Y-311454260D01*
X181181618Y-311392557D01*
X181098394Y-311333604D01*
X180993289Y-311285024D01*
X180834246Y-311231022D01*
X180646723Y-311167714D01*
X180496092Y-311101085D01*
X180405163Y-311047087D01*
X180332219Y-310987734D01*
X180274930Y-310923032D01*
X180232393Y-310849027D01*
X180205964Y-310762207D01*
X180196650Y-310659494D01*
X180205951Y-310563531D01*
X180233178Y-310476641D01*
X180278471Y-310396810D01*
X180338893Y-310326792D01*
X180413638Y-310266804D01*
X180504640Y-310216559D01*
X180602888Y-310181047D01*
X180713038Y-310158930D01*
X180837055Y-310151224D01*
X180973185Y-310158232D01*
X181091333Y-310178076D01*
X181193893Y-310209354D01*
X181338171Y-310280092D01*
X181468911Y-310376660D01*
X181322487Y-310538838D01*
X181211041Y-310457382D01*
X181094120Y-310402550D01*
X180970671Y-310370158D01*
X180845725Y-310359441D01*
X180739543Y-310367933D01*
X180647514Y-310392190D01*
X180567166Y-310431249D01*
X180502802Y-310487225D01*
X180464464Y-310558705D01*
X180450907Y-310650823D01*
X180462739Y-310731875D01*
X180496824Y-310798101D01*
X180553876Y-310853317D01*
X180651796Y-310910819D01*
X180771671Y-310959950D01*
X180949162Y-311017065D01*
X181098649Y-311067669D01*
X181234071Y-311128318D01*
X181316840Y-311178723D01*
X181387024Y-311238886D01*
X181445830Y-311309302D01*
X181488765Y-311389198D01*
X181516330Y-311488777D01*
X181526308Y-311612896D01*
G37*
D11*
X321119958Y-296929579D02*
X321072339Y-296977199D01*
X321072339Y-296977199D02*
X320929482Y-297024818D01*
X320929482Y-297024818D02*
X320834244Y-297024818D01*
X320834244Y-297024818D02*
X320691387Y-296977199D01*
X320691387Y-296977199D02*
X320596149Y-296881960D01*
X320596149Y-296881960D02*
X320548530Y-296786722D01*
X320548530Y-296786722D02*
X320500911Y-296596246D01*
X320500911Y-296596246D02*
X320500911Y-296453389D01*
X320500911Y-296453389D02*
X320548530Y-296262913D01*
X320548530Y-296262913D02*
X320596149Y-296167675D01*
X320596149Y-296167675D02*
X320691387Y-296072437D01*
X320691387Y-296072437D02*
X320834244Y-296024818D01*
X320834244Y-296024818D02*
X320929482Y-296024818D01*
X320929482Y-296024818D02*
X321072339Y-296072437D01*
X321072339Y-296072437D02*
X321119958Y-296120056D01*
X321453292Y-296024818D02*
X322072339Y-296024818D01*
X322072339Y-296024818D02*
X321739006Y-296405770D01*
X321739006Y-296405770D02*
X321881863Y-296405770D01*
X321881863Y-296405770D02*
X321977101Y-296453389D01*
X321977101Y-296453389D02*
X322024720Y-296501008D01*
X322024720Y-296501008D02*
X322072339Y-296596246D01*
X322072339Y-296596246D02*
X322072339Y-296834341D01*
X322072339Y-296834341D02*
X322024720Y-296929579D01*
X322024720Y-296929579D02*
X321977101Y-296977199D01*
X321977101Y-296977199D02*
X321881863Y-297024818D01*
X321881863Y-297024818D02*
X321596149Y-297024818D01*
X321596149Y-297024818D02*
X321500911Y-296977199D01*
X321500911Y-296977199D02*
X321453292Y-296929579D01*
X661069958Y-296929579D02*
X661022339Y-296977199D01*
X661022339Y-296977199D02*
X660879482Y-297024818D01*
X660879482Y-297024818D02*
X660784244Y-297024818D01*
X660784244Y-297024818D02*
X660641387Y-296977199D01*
X660641387Y-296977199D02*
X660546149Y-296881960D01*
X660546149Y-296881960D02*
X660498530Y-296786722D01*
X660498530Y-296786722D02*
X660450911Y-296596246D01*
X660450911Y-296596246D02*
X660450911Y-296453389D01*
X660450911Y-296453389D02*
X660498530Y-296262913D01*
X660498530Y-296262913D02*
X660546149Y-296167675D01*
X660546149Y-296167675D02*
X660641387Y-296072437D01*
X660641387Y-296072437D02*
X660784244Y-296024818D01*
X660784244Y-296024818D02*
X660879482Y-296024818D01*
X660879482Y-296024818D02*
X661022339Y-296072437D01*
X661022339Y-296072437D02*
X661069958Y-296120056D01*
X661403292Y-296024818D02*
X662069958Y-296024818D01*
X662069958Y-296024818D02*
X661641387Y-297024818D01*
X151119958Y-296929579D02*
X151072339Y-296977199D01*
X151072339Y-296977199D02*
X150929482Y-297024818D01*
X150929482Y-297024818D02*
X150834244Y-297024818D01*
X150834244Y-297024818D02*
X150691387Y-296977199D01*
X150691387Y-296977199D02*
X150596149Y-296881960D01*
X150596149Y-296881960D02*
X150548530Y-296786722D01*
X150548530Y-296786722D02*
X150500911Y-296596246D01*
X150500911Y-296596246D02*
X150500911Y-296453389D01*
X150500911Y-296453389D02*
X150548530Y-296262913D01*
X150548530Y-296262913D02*
X150596149Y-296167675D01*
X150596149Y-296167675D02*
X150691387Y-296072437D01*
X150691387Y-296072437D02*
X150834244Y-296024818D01*
X150834244Y-296024818D02*
X150929482Y-296024818D01*
X150929482Y-296024818D02*
X151072339Y-296072437D01*
X151072339Y-296072437D02*
X151119958Y-296120056D01*
X152072339Y-297024818D02*
X151500911Y-297024818D01*
X151786625Y-297024818D02*
X151786625Y-296024818D01*
X151786625Y-296024818D02*
X151691387Y-296167675D01*
X151691387Y-296167675D02*
X151596149Y-296262913D01*
X151596149Y-296262913D02*
X151500911Y-296310532D01*
X576069958Y-296929579D02*
X576022339Y-296977199D01*
X576022339Y-296977199D02*
X575879482Y-297024818D01*
X575879482Y-297024818D02*
X575784244Y-297024818D01*
X575784244Y-297024818D02*
X575641387Y-296977199D01*
X575641387Y-296977199D02*
X575546149Y-296881960D01*
X575546149Y-296881960D02*
X575498530Y-296786722D01*
X575498530Y-296786722D02*
X575450911Y-296596246D01*
X575450911Y-296596246D02*
X575450911Y-296453389D01*
X575450911Y-296453389D02*
X575498530Y-296262913D01*
X575498530Y-296262913D02*
X575546149Y-296167675D01*
X575546149Y-296167675D02*
X575641387Y-296072437D01*
X575641387Y-296072437D02*
X575784244Y-296024818D01*
X575784244Y-296024818D02*
X575879482Y-296024818D01*
X575879482Y-296024818D02*
X576022339Y-296072437D01*
X576022339Y-296072437D02*
X576069958Y-296120056D01*
X576927101Y-296024818D02*
X576736625Y-296024818D01*
X576736625Y-296024818D02*
X576641387Y-296072437D01*
X576641387Y-296072437D02*
X576593768Y-296120056D01*
X576593768Y-296120056D02*
X576498530Y-296262913D01*
X576498530Y-296262913D02*
X576450911Y-296453389D01*
X576450911Y-296453389D02*
X576450911Y-296834341D01*
X576450911Y-296834341D02*
X576498530Y-296929579D01*
X576498530Y-296929579D02*
X576546149Y-296977199D01*
X576546149Y-296977199D02*
X576641387Y-297024818D01*
X576641387Y-297024818D02*
X576831863Y-297024818D01*
X576831863Y-297024818D02*
X576927101Y-296977199D01*
X576927101Y-296977199D02*
X576974720Y-296929579D01*
X576974720Y-296929579D02*
X577022339Y-296834341D01*
X577022339Y-296834341D02*
X577022339Y-296596246D01*
X577022339Y-296596246D02*
X576974720Y-296501008D01*
X576974720Y-296501008D02*
X576927101Y-296453389D01*
X576927101Y-296453389D02*
X576831863Y-296405770D01*
X576831863Y-296405770D02*
X576641387Y-296405770D01*
X576641387Y-296405770D02*
X576546149Y-296453389D01*
X576546149Y-296453389D02*
X576498530Y-296501008D01*
X576498530Y-296501008D02*
X576450911Y-296596246D01*
D10*
X239157419Y-302261904D02*
X239966942Y-302261904D01*
X239966942Y-302261904D02*
X240062180Y-302214285D01*
X240062180Y-302214285D02*
X240109800Y-302166666D01*
X240109800Y-302166666D02*
X240157419Y-302071428D01*
X240157419Y-302071428D02*
X240157419Y-301880952D01*
X240157419Y-301880952D02*
X240109800Y-301785714D01*
X240109800Y-301785714D02*
X240062180Y-301738095D01*
X240062180Y-301738095D02*
X239966942Y-301690476D01*
X239966942Y-301690476D02*
X239157419Y-301690476D01*
X239157419Y-301309523D02*
X239157419Y-300690476D01*
X239157419Y-300690476D02*
X239538371Y-301023809D01*
X239538371Y-301023809D02*
X239538371Y-300880952D01*
X239538371Y-300880952D02*
X239585990Y-300785714D01*
X239585990Y-300785714D02*
X239633609Y-300738095D01*
X239633609Y-300738095D02*
X239728847Y-300690476D01*
X239728847Y-300690476D02*
X239966942Y-300690476D01*
X239966942Y-300690476D02*
X240062180Y-300738095D01*
X240062180Y-300738095D02*
X240109800Y-300785714D01*
X240109800Y-300785714D02*
X240157419Y-300880952D01*
X240157419Y-300880952D02*
X240157419Y-301166666D01*
X240157419Y-301166666D02*
X240109800Y-301261904D01*
X240109800Y-301261904D02*
X240062180Y-301309523D01*
D11*
X746069958Y-296929579D02*
X746022339Y-296977199D01*
X746022339Y-296977199D02*
X745879482Y-297024818D01*
X745879482Y-297024818D02*
X745784244Y-297024818D01*
X745784244Y-297024818D02*
X745641387Y-296977199D01*
X745641387Y-296977199D02*
X745546149Y-296881960D01*
X745546149Y-296881960D02*
X745498530Y-296786722D01*
X745498530Y-296786722D02*
X745450911Y-296596246D01*
X745450911Y-296596246D02*
X745450911Y-296453389D01*
X745450911Y-296453389D02*
X745498530Y-296262913D01*
X745498530Y-296262913D02*
X745546149Y-296167675D01*
X745546149Y-296167675D02*
X745641387Y-296072437D01*
X745641387Y-296072437D02*
X745784244Y-296024818D01*
X745784244Y-296024818D02*
X745879482Y-296024818D01*
X745879482Y-296024818D02*
X746022339Y-296072437D01*
X746022339Y-296072437D02*
X746069958Y-296120056D01*
X746641387Y-296453389D02*
X746546149Y-296405770D01*
X746546149Y-296405770D02*
X746498530Y-296358151D01*
X746498530Y-296358151D02*
X746450911Y-296262913D01*
X746450911Y-296262913D02*
X746450911Y-296215294D01*
X746450911Y-296215294D02*
X746498530Y-296120056D01*
X746498530Y-296120056D02*
X746546149Y-296072437D01*
X746546149Y-296072437D02*
X746641387Y-296024818D01*
X746641387Y-296024818D02*
X746831863Y-296024818D01*
X746831863Y-296024818D02*
X746927101Y-296072437D01*
X746927101Y-296072437D02*
X746974720Y-296120056D01*
X746974720Y-296120056D02*
X747022339Y-296215294D01*
X747022339Y-296215294D02*
X747022339Y-296262913D01*
X747022339Y-296262913D02*
X746974720Y-296358151D01*
X746974720Y-296358151D02*
X746927101Y-296405770D01*
X746927101Y-296405770D02*
X746831863Y-296453389D01*
X746831863Y-296453389D02*
X746641387Y-296453389D01*
X746641387Y-296453389D02*
X746546149Y-296501008D01*
X746546149Y-296501008D02*
X746498530Y-296548627D01*
X746498530Y-296548627D02*
X746450911Y-296643865D01*
X746450911Y-296643865D02*
X746450911Y-296834341D01*
X746450911Y-296834341D02*
X746498530Y-296929579D01*
X746498530Y-296929579D02*
X746546149Y-296977199D01*
X746546149Y-296977199D02*
X746641387Y-297024818D01*
X746641387Y-297024818D02*
X746831863Y-297024818D01*
X746831863Y-297024818D02*
X746927101Y-296977199D01*
X746927101Y-296977199D02*
X746974720Y-296929579D01*
X746974720Y-296929579D02*
X747022339Y-296834341D01*
X747022339Y-296834341D02*
X747022339Y-296643865D01*
X747022339Y-296643865D02*
X746974720Y-296548627D01*
X746974720Y-296548627D02*
X746927101Y-296501008D01*
X746927101Y-296501008D02*
X746831863Y-296453389D01*
X232333333Y-301454819D02*
X232000000Y-300978628D01*
X231761905Y-301454819D02*
X231761905Y-300454819D01*
X231761905Y-300454819D02*
X232142857Y-300454819D01*
X232142857Y-300454819D02*
X232238095Y-300502438D01*
X232238095Y-300502438D02*
X232285714Y-300550057D01*
X232285714Y-300550057D02*
X232333333Y-300645295D01*
X232333333Y-300645295D02*
X232333333Y-300788152D01*
X232333333Y-300788152D02*
X232285714Y-300883390D01*
X232285714Y-300883390D02*
X232238095Y-300931009D01*
X232238095Y-300931009D02*
X232142857Y-300978628D01*
X232142857Y-300978628D02*
X231761905Y-300978628D01*
X232714286Y-300550057D02*
X232761905Y-300502438D01*
X232761905Y-300502438D02*
X232857143Y-300454819D01*
X232857143Y-300454819D02*
X233095238Y-300454819D01*
X233095238Y-300454819D02*
X233190476Y-300502438D01*
X233190476Y-300502438D02*
X233238095Y-300550057D01*
X233238095Y-300550057D02*
X233285714Y-300645295D01*
X233285714Y-300645295D02*
X233285714Y-300740533D01*
X233285714Y-300740533D02*
X233238095Y-300883390D01*
X233238095Y-300883390D02*
X232666667Y-301454819D01*
X232666667Y-301454819D02*
X233285714Y-301454819D01*
X423359580Y-297166666D02*
X423407200Y-297214285D01*
X423407200Y-297214285D02*
X423454819Y-297357142D01*
X423454819Y-297357142D02*
X423454819Y-297452380D01*
X423454819Y-297452380D02*
X423407200Y-297595237D01*
X423407200Y-297595237D02*
X423311961Y-297690475D01*
X423311961Y-297690475D02*
X423216723Y-297738094D01*
X423216723Y-297738094D02*
X423026247Y-297785713D01*
X423026247Y-297785713D02*
X422883390Y-297785713D01*
X422883390Y-297785713D02*
X422692914Y-297738094D01*
X422692914Y-297738094D02*
X422597676Y-297690475D01*
X422597676Y-297690475D02*
X422502438Y-297595237D01*
X422502438Y-297595237D02*
X422454819Y-297452380D01*
X422454819Y-297452380D02*
X422454819Y-297357142D01*
X422454819Y-297357142D02*
X422502438Y-297214285D01*
X422502438Y-297214285D02*
X422550057Y-297166666D01*
X423454819Y-296690475D02*
X423454819Y-296499999D01*
X423454819Y-296499999D02*
X423407200Y-296404761D01*
X423407200Y-296404761D02*
X423359580Y-296357142D01*
X423359580Y-296357142D02*
X423216723Y-296261904D01*
X423216723Y-296261904D02*
X423026247Y-296214285D01*
X423026247Y-296214285D02*
X422645295Y-296214285D01*
X422645295Y-296214285D02*
X422550057Y-296261904D01*
X422550057Y-296261904D02*
X422502438Y-296309523D01*
X422502438Y-296309523D02*
X422454819Y-296404761D01*
X422454819Y-296404761D02*
X422454819Y-296595237D01*
X422454819Y-296595237D02*
X422502438Y-296690475D01*
X422502438Y-296690475D02*
X422550057Y-296738094D01*
X422550057Y-296738094D02*
X422645295Y-296785713D01*
X422645295Y-296785713D02*
X422883390Y-296785713D01*
X422883390Y-296785713D02*
X422978628Y-296738094D01*
X422978628Y-296738094D02*
X423026247Y-296690475D01*
X423026247Y-296690475D02*
X423073866Y-296595237D01*
X423073866Y-296595237D02*
X423073866Y-296404761D01*
X423073866Y-296404761D02*
X423026247Y-296309523D01*
X423026247Y-296309523D02*
X422978628Y-296261904D01*
X422978628Y-296261904D02*
X422883390Y-296214285D01*
X491069958Y-296929579D02*
X491022339Y-296977199D01*
X491022339Y-296977199D02*
X490879482Y-297024818D01*
X490879482Y-297024818D02*
X490784244Y-297024818D01*
X490784244Y-297024818D02*
X490641387Y-296977199D01*
X490641387Y-296977199D02*
X490546149Y-296881960D01*
X490546149Y-296881960D02*
X490498530Y-296786722D01*
X490498530Y-296786722D02*
X490450911Y-296596246D01*
X490450911Y-296596246D02*
X490450911Y-296453389D01*
X490450911Y-296453389D02*
X490498530Y-296262913D01*
X490498530Y-296262913D02*
X490546149Y-296167675D01*
X490546149Y-296167675D02*
X490641387Y-296072437D01*
X490641387Y-296072437D02*
X490784244Y-296024818D01*
X490784244Y-296024818D02*
X490879482Y-296024818D01*
X490879482Y-296024818D02*
X491022339Y-296072437D01*
X491022339Y-296072437D02*
X491069958Y-296120056D01*
X491974720Y-296024818D02*
X491498530Y-296024818D01*
X491498530Y-296024818D02*
X491450911Y-296501008D01*
X491450911Y-296501008D02*
X491498530Y-296453389D01*
X491498530Y-296453389D02*
X491593768Y-296405770D01*
X491593768Y-296405770D02*
X491831863Y-296405770D01*
X491831863Y-296405770D02*
X491927101Y-296453389D01*
X491927101Y-296453389D02*
X491974720Y-296501008D01*
X491974720Y-296501008D02*
X492022339Y-296596246D01*
X492022339Y-296596246D02*
X492022339Y-296834341D01*
X492022339Y-296834341D02*
X491974720Y-296929579D01*
X491974720Y-296929579D02*
X491927101Y-296977199D01*
X491927101Y-296977199D02*
X491831863Y-297024818D01*
X491831863Y-297024818D02*
X491593768Y-297024818D01*
X491593768Y-297024818D02*
X491498530Y-296977199D01*
X491498530Y-296977199D02*
X491450911Y-296929579D01*
D10*
X494157419Y-302261904D02*
X494966942Y-302261904D01*
X494966942Y-302261904D02*
X495062180Y-302214285D01*
X495062180Y-302214285D02*
X495109800Y-302166666D01*
X495109800Y-302166666D02*
X495157419Y-302071428D01*
X495157419Y-302071428D02*
X495157419Y-301880952D01*
X495157419Y-301880952D02*
X495109800Y-301785714D01*
X495109800Y-301785714D02*
X495062180Y-301738095D01*
X495062180Y-301738095D02*
X494966942Y-301690476D01*
X494966942Y-301690476D02*
X494157419Y-301690476D01*
X494157419Y-300785714D02*
X494157419Y-300976190D01*
X494157419Y-300976190D02*
X494205038Y-301071428D01*
X494205038Y-301071428D02*
X494252657Y-301119047D01*
X494252657Y-301119047D02*
X494395514Y-301214285D01*
X494395514Y-301214285D02*
X494585990Y-301261904D01*
X494585990Y-301261904D02*
X494966942Y-301261904D01*
X494966942Y-301261904D02*
X495062180Y-301214285D01*
X495062180Y-301214285D02*
X495109800Y-301166666D01*
X495109800Y-301166666D02*
X495157419Y-301071428D01*
X495157419Y-301071428D02*
X495157419Y-300880952D01*
X495157419Y-300880952D02*
X495109800Y-300785714D01*
X495109800Y-300785714D02*
X495062180Y-300738095D01*
X495062180Y-300738095D02*
X494966942Y-300690476D01*
X494966942Y-300690476D02*
X494728847Y-300690476D01*
X494728847Y-300690476D02*
X494633609Y-300738095D01*
X494633609Y-300738095D02*
X494585990Y-300785714D01*
X494585990Y-300785714D02*
X494538371Y-300880952D01*
X494538371Y-300880952D02*
X494538371Y-301071428D01*
X494538371Y-301071428D02*
X494585990Y-301166666D01*
X494585990Y-301166666D02*
X494633609Y-301214285D01*
X494633609Y-301214285D02*
X494728847Y-301261904D01*
D11*
X434544990Y-305054819D02*
X434211657Y-304578628D01*
X433973562Y-305054819D02*
X433973562Y-304054819D01*
X433973562Y-304054819D02*
X434354514Y-304054819D01*
X434354514Y-304054819D02*
X434449752Y-304102438D01*
X434449752Y-304102438D02*
X434497371Y-304150057D01*
X434497371Y-304150057D02*
X434544990Y-304245295D01*
X434544990Y-304245295D02*
X434544990Y-304388152D01*
X434544990Y-304388152D02*
X434497371Y-304483390D01*
X434497371Y-304483390D02*
X434449752Y-304531009D01*
X434449752Y-304531009D02*
X434354514Y-304578628D01*
X434354514Y-304578628D02*
X433973562Y-304578628D01*
X434973562Y-304531009D02*
X435306895Y-304531009D01*
X435449752Y-305054819D02*
X434973562Y-305054819D01*
X434973562Y-305054819D02*
X434973562Y-304054819D01*
X434973562Y-304054819D02*
X435449752Y-304054819D01*
X436211657Y-304531009D02*
X435878324Y-304531009D01*
X435878324Y-305054819D02*
X435878324Y-304054819D01*
X435878324Y-304054819D02*
X436354514Y-304054819D01*
X436878324Y-304054819D02*
X436878324Y-304292914D01*
X436640229Y-304197676D02*
X436878324Y-304292914D01*
X436878324Y-304292914D02*
X437116419Y-304197676D01*
X436735467Y-304483390D02*
X436878324Y-304292914D01*
X436878324Y-304292914D02*
X437021181Y-304483390D01*
X437640229Y-304054819D02*
X437640229Y-304292914D01*
X437402134Y-304197676D02*
X437640229Y-304292914D01*
X437640229Y-304292914D02*
X437878324Y-304197676D01*
X437497372Y-304483390D02*
X437640229Y-304292914D01*
X437640229Y-304292914D02*
X437783086Y-304483390D01*
X403008333Y-299884819D02*
X402675000Y-299408628D01*
X402436905Y-299884819D02*
X402436905Y-298884819D01*
X402436905Y-298884819D02*
X402817857Y-298884819D01*
X402817857Y-298884819D02*
X402913095Y-298932438D01*
X402913095Y-298932438D02*
X402960714Y-298980057D01*
X402960714Y-298980057D02*
X403008333Y-299075295D01*
X403008333Y-299075295D02*
X403008333Y-299218152D01*
X403008333Y-299218152D02*
X402960714Y-299313390D01*
X402960714Y-299313390D02*
X402913095Y-299361009D01*
X402913095Y-299361009D02*
X402817857Y-299408628D01*
X402817857Y-299408628D02*
X402436905Y-299408628D01*
X403865476Y-299218152D02*
X403865476Y-299884819D01*
X403627381Y-298837200D02*
X403389286Y-299551485D01*
X403389286Y-299551485D02*
X404008333Y-299551485D01*
D10*
X746738095Y-303457419D02*
X746738095Y-304266942D01*
X746738095Y-304266942D02*
X746785714Y-304362180D01*
X746785714Y-304362180D02*
X746833333Y-304409800D01*
X746833333Y-304409800D02*
X746928571Y-304457419D01*
X746928571Y-304457419D02*
X747119047Y-304457419D01*
X747119047Y-304457419D02*
X747214285Y-304409800D01*
X747214285Y-304409800D02*
X747261904Y-304362180D01*
X747261904Y-304362180D02*
X747309523Y-304266942D01*
X747309523Y-304266942D02*
X747309523Y-303457419D01*
X747833333Y-304457419D02*
X748023809Y-304457419D01*
X748023809Y-304457419D02*
X748119047Y-304409800D01*
X748119047Y-304409800D02*
X748166666Y-304362180D01*
X748166666Y-304362180D02*
X748261904Y-304219323D01*
X748261904Y-304219323D02*
X748309523Y-304028847D01*
X748309523Y-304028847D02*
X748309523Y-303647895D01*
X748309523Y-303647895D02*
X748261904Y-303552657D01*
X748261904Y-303552657D02*
X748214285Y-303505038D01*
X748214285Y-303505038D02*
X748119047Y-303457419D01*
X748119047Y-303457419D02*
X747928571Y-303457419D01*
X747928571Y-303457419D02*
X747833333Y-303505038D01*
X747833333Y-303505038D02*
X747785714Y-303552657D01*
X747785714Y-303552657D02*
X747738095Y-303647895D01*
X747738095Y-303647895D02*
X747738095Y-303885990D01*
X747738095Y-303885990D02*
X747785714Y-303981228D01*
X747785714Y-303981228D02*
X747833333Y-304028847D01*
X747833333Y-304028847D02*
X747928571Y-304076466D01*
X747928571Y-304076466D02*
X748119047Y-304076466D01*
X748119047Y-304076466D02*
X748214285Y-304028847D01*
X748214285Y-304028847D02*
X748261904Y-303981228D01*
X748261904Y-303981228D02*
X748309523Y-303885990D01*
D11*
X236119958Y-296929579D02*
X236072339Y-296977199D01*
X236072339Y-296977199D02*
X235929482Y-297024818D01*
X235929482Y-297024818D02*
X235834244Y-297024818D01*
X235834244Y-297024818D02*
X235691387Y-296977199D01*
X235691387Y-296977199D02*
X235596149Y-296881960D01*
X235596149Y-296881960D02*
X235548530Y-296786722D01*
X235548530Y-296786722D02*
X235500911Y-296596246D01*
X235500911Y-296596246D02*
X235500911Y-296453389D01*
X235500911Y-296453389D02*
X235548530Y-296262913D01*
X235548530Y-296262913D02*
X235596149Y-296167675D01*
X235596149Y-296167675D02*
X235691387Y-296072437D01*
X235691387Y-296072437D02*
X235834244Y-296024818D01*
X235834244Y-296024818D02*
X235929482Y-296024818D01*
X235929482Y-296024818D02*
X236072339Y-296072437D01*
X236072339Y-296072437D02*
X236119958Y-296120056D01*
X236500911Y-296120056D02*
X236548530Y-296072437D01*
X236548530Y-296072437D02*
X236643768Y-296024818D01*
X236643768Y-296024818D02*
X236881863Y-296024818D01*
X236881863Y-296024818D02*
X236977101Y-296072437D01*
X236977101Y-296072437D02*
X237024720Y-296120056D01*
X237024720Y-296120056D02*
X237072339Y-296215294D01*
X237072339Y-296215294D02*
X237072339Y-296310532D01*
X237072339Y-296310532D02*
X237024720Y-296453389D01*
X237024720Y-296453389D02*
X236453292Y-297024818D01*
X236453292Y-297024818D02*
X237072339Y-297024818D01*
X413545180Y-303261905D02*
X412735657Y-303261905D01*
X412735657Y-303261905D02*
X412640419Y-303309524D01*
X412640419Y-303309524D02*
X412592800Y-303357143D01*
X412592800Y-303357143D02*
X412545180Y-303452381D01*
X412545180Y-303452381D02*
X412545180Y-303642857D01*
X412545180Y-303642857D02*
X412592800Y-303738095D01*
X412592800Y-303738095D02*
X412640419Y-303785714D01*
X412640419Y-303785714D02*
X412735657Y-303833333D01*
X412735657Y-303833333D02*
X413545180Y-303833333D01*
X412545180Y-304833333D02*
X412545180Y-304261905D01*
X412545180Y-304547619D02*
X413545180Y-304547619D01*
X413545180Y-304547619D02*
X413402323Y-304452381D01*
X413402323Y-304452381D02*
X413307085Y-304357143D01*
X413307085Y-304357143D02*
X413259466Y-304261905D01*
X413545180Y-305452381D02*
X413545180Y-305547619D01*
X413545180Y-305547619D02*
X413497561Y-305642857D01*
X413497561Y-305642857D02*
X413449942Y-305690476D01*
X413449942Y-305690476D02*
X413354704Y-305738095D01*
X413354704Y-305738095D02*
X413164228Y-305785714D01*
X413164228Y-305785714D02*
X412926133Y-305785714D01*
X412926133Y-305785714D02*
X412735657Y-305738095D01*
X412735657Y-305738095D02*
X412640419Y-305690476D01*
X412640419Y-305690476D02*
X412592800Y-305642857D01*
X412592800Y-305642857D02*
X412545180Y-305547619D01*
X412545180Y-305547619D02*
X412545180Y-305452381D01*
X412545180Y-305452381D02*
X412592800Y-305357143D01*
X412592800Y-305357143D02*
X412640419Y-305309524D01*
X412640419Y-305309524D02*
X412735657Y-305261905D01*
X412735657Y-305261905D02*
X412926133Y-305214286D01*
X412926133Y-305214286D02*
X413164228Y-305214286D01*
X413164228Y-305214286D02*
X413354704Y-305261905D01*
X413354704Y-305261905D02*
X413449942Y-305309524D01*
X413449942Y-305309524D02*
X413497561Y-305357143D01*
X413497561Y-305357143D02*
X413545180Y-305452381D01*
X418422142Y-306859580D02*
X418374523Y-306907200D01*
X418374523Y-306907200D02*
X418231666Y-306954819D01*
X418231666Y-306954819D02*
X418136428Y-306954819D01*
X418136428Y-306954819D02*
X417993571Y-306907200D01*
X417993571Y-306907200D02*
X417898333Y-306811961D01*
X417898333Y-306811961D02*
X417850714Y-306716723D01*
X417850714Y-306716723D02*
X417803095Y-306526247D01*
X417803095Y-306526247D02*
X417803095Y-306383390D01*
X417803095Y-306383390D02*
X417850714Y-306192914D01*
X417850714Y-306192914D02*
X417898333Y-306097676D01*
X417898333Y-306097676D02*
X417993571Y-306002438D01*
X417993571Y-306002438D02*
X418136428Y-305954819D01*
X418136428Y-305954819D02*
X418231666Y-305954819D01*
X418231666Y-305954819D02*
X418374523Y-306002438D01*
X418374523Y-306002438D02*
X418422142Y-306050057D01*
X419374523Y-306954819D02*
X418803095Y-306954819D01*
X419088809Y-306954819D02*
X419088809Y-305954819D01*
X419088809Y-305954819D02*
X418993571Y-306097676D01*
X418993571Y-306097676D02*
X418898333Y-306192914D01*
X418898333Y-306192914D02*
X418803095Y-306240533D01*
X419755476Y-306050057D02*
X419803095Y-306002438D01*
X419803095Y-306002438D02*
X419898333Y-305954819D01*
X419898333Y-305954819D02*
X420136428Y-305954819D01*
X420136428Y-305954819D02*
X420231666Y-306002438D01*
X420231666Y-306002438D02*
X420279285Y-306050057D01*
X420279285Y-306050057D02*
X420326904Y-306145295D01*
X420326904Y-306145295D02*
X420326904Y-306240533D01*
X420326904Y-306240533D02*
X420279285Y-306383390D01*
X420279285Y-306383390D02*
X419707857Y-306954819D01*
X419707857Y-306954819D02*
X420326904Y-306954819D01*
X406108333Y-296929580D02*
X406060714Y-296977200D01*
X406060714Y-296977200D02*
X405917857Y-297024819D01*
X405917857Y-297024819D02*
X405822619Y-297024819D01*
X405822619Y-297024819D02*
X405679762Y-296977200D01*
X405679762Y-296977200D02*
X405584524Y-296881961D01*
X405584524Y-296881961D02*
X405536905Y-296786723D01*
X405536905Y-296786723D02*
X405489286Y-296596247D01*
X405489286Y-296596247D02*
X405489286Y-296453390D01*
X405489286Y-296453390D02*
X405536905Y-296262914D01*
X405536905Y-296262914D02*
X405584524Y-296167676D01*
X405584524Y-296167676D02*
X405679762Y-296072438D01*
X405679762Y-296072438D02*
X405822619Y-296024819D01*
X405822619Y-296024819D02*
X405917857Y-296024819D01*
X405917857Y-296024819D02*
X406060714Y-296072438D01*
X406060714Y-296072438D02*
X406108333Y-296120057D01*
X406965476Y-296358152D02*
X406965476Y-297024819D01*
X406727381Y-295977200D02*
X406489286Y-296691485D01*
X406489286Y-296691485D02*
X407108333Y-296691485D01*
X419682142Y-310384819D02*
X419348809Y-309908628D01*
X419110714Y-310384819D02*
X419110714Y-309384819D01*
X419110714Y-309384819D02*
X419491666Y-309384819D01*
X419491666Y-309384819D02*
X419586904Y-309432438D01*
X419586904Y-309432438D02*
X419634523Y-309480057D01*
X419634523Y-309480057D02*
X419682142Y-309575295D01*
X419682142Y-309575295D02*
X419682142Y-309718152D01*
X419682142Y-309718152D02*
X419634523Y-309813390D01*
X419634523Y-309813390D02*
X419586904Y-309861009D01*
X419586904Y-309861009D02*
X419491666Y-309908628D01*
X419491666Y-309908628D02*
X419110714Y-309908628D01*
X420634523Y-310384819D02*
X420063095Y-310384819D01*
X420348809Y-310384819D02*
X420348809Y-309384819D01*
X420348809Y-309384819D02*
X420253571Y-309527676D01*
X420253571Y-309527676D02*
X420158333Y-309622914D01*
X420158333Y-309622914D02*
X420063095Y-309670533D01*
X421015476Y-309480057D02*
X421063095Y-309432438D01*
X421063095Y-309432438D02*
X421158333Y-309384819D01*
X421158333Y-309384819D02*
X421396428Y-309384819D01*
X421396428Y-309384819D02*
X421491666Y-309432438D01*
X421491666Y-309432438D02*
X421539285Y-309480057D01*
X421539285Y-309480057D02*
X421586904Y-309575295D01*
X421586904Y-309575295D02*
X421586904Y-309670533D01*
X421586904Y-309670533D02*
X421539285Y-309813390D01*
X421539285Y-309813390D02*
X420967857Y-310384819D01*
X420967857Y-310384819D02*
X421586904Y-310384819D01*
X421954819Y-297666666D02*
X421478628Y-297999999D01*
X421954819Y-298238094D02*
X420954819Y-298238094D01*
X420954819Y-298238094D02*
X420954819Y-297857142D01*
X420954819Y-297857142D02*
X421002438Y-297761904D01*
X421002438Y-297761904D02*
X421050057Y-297714285D01*
X421050057Y-297714285D02*
X421145295Y-297666666D01*
X421145295Y-297666666D02*
X421288152Y-297666666D01*
X421288152Y-297666666D02*
X421383390Y-297714285D01*
X421383390Y-297714285D02*
X421431009Y-297761904D01*
X421431009Y-297761904D02*
X421478628Y-297857142D01*
X421478628Y-297857142D02*
X421478628Y-298238094D01*
X421954819Y-297190475D02*
X421954819Y-296999999D01*
X421954819Y-296999999D02*
X421907200Y-296904761D01*
X421907200Y-296904761D02*
X421859580Y-296857142D01*
X421859580Y-296857142D02*
X421716723Y-296761904D01*
X421716723Y-296761904D02*
X421526247Y-296714285D01*
X421526247Y-296714285D02*
X421145295Y-296714285D01*
X421145295Y-296714285D02*
X421050057Y-296761904D01*
X421050057Y-296761904D02*
X421002438Y-296809523D01*
X421002438Y-296809523D02*
X420954819Y-296904761D01*
X420954819Y-296904761D02*
X420954819Y-297095237D01*
X420954819Y-297095237D02*
X421002438Y-297190475D01*
X421002438Y-297190475D02*
X421050057Y-297238094D01*
X421050057Y-297238094D02*
X421145295Y-297285713D01*
X421145295Y-297285713D02*
X421383390Y-297285713D01*
X421383390Y-297285713D02*
X421478628Y-297238094D01*
X421478628Y-297238094D02*
X421526247Y-297190475D01*
X421526247Y-297190475D02*
X421573866Y-297095237D01*
X421573866Y-297095237D02*
X421573866Y-296904761D01*
X421573866Y-296904761D02*
X421526247Y-296809523D01*
X421526247Y-296809523D02*
X421478628Y-296761904D01*
X421478628Y-296761904D02*
X421383390Y-296714285D01*
D10*
X154157419Y-302261904D02*
X154966942Y-302261904D01*
X154966942Y-302261904D02*
X155062180Y-302214285D01*
X155062180Y-302214285D02*
X155109800Y-302166666D01*
X155109800Y-302166666D02*
X155157419Y-302071428D01*
X155157419Y-302071428D02*
X155157419Y-301880952D01*
X155157419Y-301880952D02*
X155109800Y-301785714D01*
X155109800Y-301785714D02*
X155062180Y-301738095D01*
X155062180Y-301738095D02*
X154966942Y-301690476D01*
X154966942Y-301690476D02*
X154157419Y-301690476D01*
X155157419Y-300690476D02*
X155157419Y-301261904D01*
X155157419Y-300976190D02*
X154157419Y-300976190D01*
X154157419Y-300976190D02*
X154300276Y-301071428D01*
X154300276Y-301071428D02*
X154395514Y-301166666D01*
X154395514Y-301166666D02*
X154443133Y-301261904D01*
X664157419Y-302261904D02*
X664966942Y-302261904D01*
X664966942Y-302261904D02*
X665062180Y-302214285D01*
X665062180Y-302214285D02*
X665109800Y-302166666D01*
X665109800Y-302166666D02*
X665157419Y-302071428D01*
X665157419Y-302071428D02*
X665157419Y-301880952D01*
X665157419Y-301880952D02*
X665109800Y-301785714D01*
X665109800Y-301785714D02*
X665062180Y-301738095D01*
X665062180Y-301738095D02*
X664966942Y-301690476D01*
X664966942Y-301690476D02*
X664157419Y-301690476D01*
X664585990Y-301071428D02*
X664538371Y-301166666D01*
X664538371Y-301166666D02*
X664490752Y-301214285D01*
X664490752Y-301214285D02*
X664395514Y-301261904D01*
X664395514Y-301261904D02*
X664347895Y-301261904D01*
X664347895Y-301261904D02*
X664252657Y-301214285D01*
X664252657Y-301214285D02*
X664205038Y-301166666D01*
X664205038Y-301166666D02*
X664157419Y-301071428D01*
X664157419Y-301071428D02*
X664157419Y-300880952D01*
X664157419Y-300880952D02*
X664205038Y-300785714D01*
X664205038Y-300785714D02*
X664252657Y-300738095D01*
X664252657Y-300738095D02*
X664347895Y-300690476D01*
X664347895Y-300690476D02*
X664395514Y-300690476D01*
X664395514Y-300690476D02*
X664490752Y-300738095D01*
X664490752Y-300738095D02*
X664538371Y-300785714D01*
X664538371Y-300785714D02*
X664585990Y-300880952D01*
X664585990Y-300880952D02*
X664585990Y-301071428D01*
X664585990Y-301071428D02*
X664633609Y-301166666D01*
X664633609Y-301166666D02*
X664681228Y-301214285D01*
X664681228Y-301214285D02*
X664776466Y-301261904D01*
X664776466Y-301261904D02*
X664966942Y-301261904D01*
X664966942Y-301261904D02*
X665062180Y-301214285D01*
X665062180Y-301214285D02*
X665109800Y-301166666D01*
X665109800Y-301166666D02*
X665157419Y-301071428D01*
X665157419Y-301071428D02*
X665157419Y-300880952D01*
X665157419Y-300880952D02*
X665109800Y-300785714D01*
X665109800Y-300785714D02*
X665062180Y-300738095D01*
X665062180Y-300738095D02*
X664966942Y-300690476D01*
X664966942Y-300690476D02*
X664776466Y-300690476D01*
X664776466Y-300690476D02*
X664681228Y-300738095D01*
X664681228Y-300738095D02*
X664633609Y-300785714D01*
X664633609Y-300785714D02*
X664585990Y-300880952D01*
D11*
X146333333Y-301954819D02*
X146000000Y-301478628D01*
X145761905Y-301954819D02*
X145761905Y-300954819D01*
X145761905Y-300954819D02*
X146142857Y-300954819D01*
X146142857Y-300954819D02*
X146238095Y-301002438D01*
X146238095Y-301002438D02*
X146285714Y-301050057D01*
X146285714Y-301050057D02*
X146333333Y-301145295D01*
X146333333Y-301145295D02*
X146333333Y-301288152D01*
X146333333Y-301288152D02*
X146285714Y-301383390D01*
X146285714Y-301383390D02*
X146238095Y-301431009D01*
X146238095Y-301431009D02*
X146142857Y-301478628D01*
X146142857Y-301478628D02*
X145761905Y-301478628D01*
X147285714Y-301954819D02*
X146714286Y-301954819D01*
X147000000Y-301954819D02*
X147000000Y-300954819D01*
X147000000Y-300954819D02*
X146904762Y-301097676D01*
X146904762Y-301097676D02*
X146809524Y-301192914D01*
X146809524Y-301192914D02*
X146714286Y-301240533D01*
X657333333Y-302454819D02*
X657000000Y-301978628D01*
X656761905Y-302454819D02*
X656761905Y-301454819D01*
X656761905Y-301454819D02*
X657142857Y-301454819D01*
X657142857Y-301454819D02*
X657238095Y-301502438D01*
X657238095Y-301502438D02*
X657285714Y-301550057D01*
X657285714Y-301550057D02*
X657333333Y-301645295D01*
X657333333Y-301645295D02*
X657333333Y-301788152D01*
X657333333Y-301788152D02*
X657285714Y-301883390D01*
X657285714Y-301883390D02*
X657238095Y-301931009D01*
X657238095Y-301931009D02*
X657142857Y-301978628D01*
X657142857Y-301978628D02*
X656761905Y-301978628D01*
X657666667Y-301454819D02*
X658333333Y-301454819D01*
X658333333Y-301454819D02*
X657904762Y-302454819D01*
X415422142Y-306789580D02*
X415374523Y-306837200D01*
X415374523Y-306837200D02*
X415231666Y-306884819D01*
X415231666Y-306884819D02*
X415136428Y-306884819D01*
X415136428Y-306884819D02*
X414993571Y-306837200D01*
X414993571Y-306837200D02*
X414898333Y-306741961D01*
X414898333Y-306741961D02*
X414850714Y-306646723D01*
X414850714Y-306646723D02*
X414803095Y-306456247D01*
X414803095Y-306456247D02*
X414803095Y-306313390D01*
X414803095Y-306313390D02*
X414850714Y-306122914D01*
X414850714Y-306122914D02*
X414898333Y-306027676D01*
X414898333Y-306027676D02*
X414993571Y-305932438D01*
X414993571Y-305932438D02*
X415136428Y-305884819D01*
X415136428Y-305884819D02*
X415231666Y-305884819D01*
X415231666Y-305884819D02*
X415374523Y-305932438D01*
X415374523Y-305932438D02*
X415422142Y-305980057D01*
X416374523Y-306884819D02*
X415803095Y-306884819D01*
X416088809Y-306884819D02*
X416088809Y-305884819D01*
X416088809Y-305884819D02*
X415993571Y-306027676D01*
X415993571Y-306027676D02*
X415898333Y-306122914D01*
X415898333Y-306122914D02*
X415803095Y-306170533D01*
X417231666Y-306218152D02*
X417231666Y-306884819D01*
X416993571Y-305837200D02*
X416755476Y-306551485D01*
X416755476Y-306551485D02*
X417374523Y-306551485D01*
X423359580Y-307642857D02*
X423407200Y-307690476D01*
X423407200Y-307690476D02*
X423454819Y-307833333D01*
X423454819Y-307833333D02*
X423454819Y-307928571D01*
X423454819Y-307928571D02*
X423407200Y-308071428D01*
X423407200Y-308071428D02*
X423311961Y-308166666D01*
X423311961Y-308166666D02*
X423216723Y-308214285D01*
X423216723Y-308214285D02*
X423026247Y-308261904D01*
X423026247Y-308261904D02*
X422883390Y-308261904D01*
X422883390Y-308261904D02*
X422692914Y-308214285D01*
X422692914Y-308214285D02*
X422597676Y-308166666D01*
X422597676Y-308166666D02*
X422502438Y-308071428D01*
X422502438Y-308071428D02*
X422454819Y-307928571D01*
X422454819Y-307928571D02*
X422454819Y-307833333D01*
X422454819Y-307833333D02*
X422502438Y-307690476D01*
X422502438Y-307690476D02*
X422550057Y-307642857D01*
X423454819Y-306690476D02*
X423454819Y-307261904D01*
X423454819Y-306976190D02*
X422454819Y-306976190D01*
X422454819Y-306976190D02*
X422597676Y-307071428D01*
X422597676Y-307071428D02*
X422692914Y-307166666D01*
X422692914Y-307166666D02*
X422740533Y-307261904D01*
X422454819Y-306071428D02*
X422454819Y-305976190D01*
X422454819Y-305976190D02*
X422502438Y-305880952D01*
X422502438Y-305880952D02*
X422550057Y-305833333D01*
X422550057Y-305833333D02*
X422645295Y-305785714D01*
X422645295Y-305785714D02*
X422835771Y-305738095D01*
X422835771Y-305738095D02*
X423073866Y-305738095D01*
X423073866Y-305738095D02*
X423264342Y-305785714D01*
X423264342Y-305785714D02*
X423359580Y-305833333D01*
X423359580Y-305833333D02*
X423407200Y-305880952D01*
X423407200Y-305880952D02*
X423454819Y-305976190D01*
X423454819Y-305976190D02*
X423454819Y-306071428D01*
X423454819Y-306071428D02*
X423407200Y-306166666D01*
X423407200Y-306166666D02*
X423359580Y-306214285D01*
X423359580Y-306214285D02*
X423264342Y-306261904D01*
X423264342Y-306261904D02*
X423073866Y-306309523D01*
X423073866Y-306309523D02*
X422835771Y-306309523D01*
X422835771Y-306309523D02*
X422645295Y-306261904D01*
X422645295Y-306261904D02*
X422550057Y-306214285D01*
X422550057Y-306214285D02*
X422502438Y-306166666D01*
X422502438Y-306166666D02*
X422454819Y-306071428D01*
X425954819Y-308261904D02*
X426764342Y-308261904D01*
X426764342Y-308261904D02*
X426859580Y-308214285D01*
X426859580Y-308214285D02*
X426907200Y-308166666D01*
X426907200Y-308166666D02*
X426954819Y-308071428D01*
X426954819Y-308071428D02*
X426954819Y-307880952D01*
X426954819Y-307880952D02*
X426907200Y-307785714D01*
X426907200Y-307785714D02*
X426859580Y-307738095D01*
X426859580Y-307738095D02*
X426764342Y-307690476D01*
X426764342Y-307690476D02*
X425954819Y-307690476D01*
X426050057Y-307261904D02*
X426002438Y-307214285D01*
X426002438Y-307214285D02*
X425954819Y-307119047D01*
X425954819Y-307119047D02*
X425954819Y-306880952D01*
X425954819Y-306880952D02*
X426002438Y-306785714D01*
X426002438Y-306785714D02*
X426050057Y-306738095D01*
X426050057Y-306738095D02*
X426145295Y-306690476D01*
X426145295Y-306690476D02*
X426240533Y-306690476D01*
X426240533Y-306690476D02*
X426383390Y-306738095D01*
X426383390Y-306738095D02*
X426954819Y-307309523D01*
X426954819Y-307309523D02*
X426954819Y-306690476D01*
X487333333Y-301954819D02*
X487000000Y-301478628D01*
X486761905Y-301954819D02*
X486761905Y-300954819D01*
X486761905Y-300954819D02*
X487142857Y-300954819D01*
X487142857Y-300954819D02*
X487238095Y-301002438D01*
X487238095Y-301002438D02*
X487285714Y-301050057D01*
X487285714Y-301050057D02*
X487333333Y-301145295D01*
X487333333Y-301145295D02*
X487333333Y-301288152D01*
X487333333Y-301288152D02*
X487285714Y-301383390D01*
X487285714Y-301383390D02*
X487238095Y-301431009D01*
X487238095Y-301431009D02*
X487142857Y-301478628D01*
X487142857Y-301478628D02*
X486761905Y-301478628D01*
X488238095Y-300954819D02*
X487761905Y-300954819D01*
X487761905Y-300954819D02*
X487714286Y-301431009D01*
X487714286Y-301431009D02*
X487761905Y-301383390D01*
X487761905Y-301383390D02*
X487857143Y-301335771D01*
X487857143Y-301335771D02*
X488095238Y-301335771D01*
X488095238Y-301335771D02*
X488190476Y-301383390D01*
X488190476Y-301383390D02*
X488238095Y-301431009D01*
X488238095Y-301431009D02*
X488285714Y-301526247D01*
X488285714Y-301526247D02*
X488285714Y-301764342D01*
X488285714Y-301764342D02*
X488238095Y-301859580D01*
X488238095Y-301859580D02*
X488190476Y-301907200D01*
X488190476Y-301907200D02*
X488095238Y-301954819D01*
X488095238Y-301954819D02*
X487857143Y-301954819D01*
X487857143Y-301954819D02*
X487761905Y-301907200D01*
X487761905Y-301907200D02*
X487714286Y-301859580D01*
X316833333Y-301454819D02*
X316500000Y-300978628D01*
X316261905Y-301454819D02*
X316261905Y-300454819D01*
X316261905Y-300454819D02*
X316642857Y-300454819D01*
X316642857Y-300454819D02*
X316738095Y-300502438D01*
X316738095Y-300502438D02*
X316785714Y-300550057D01*
X316785714Y-300550057D02*
X316833333Y-300645295D01*
X316833333Y-300645295D02*
X316833333Y-300788152D01*
X316833333Y-300788152D02*
X316785714Y-300883390D01*
X316785714Y-300883390D02*
X316738095Y-300931009D01*
X316738095Y-300931009D02*
X316642857Y-300978628D01*
X316642857Y-300978628D02*
X316261905Y-300978628D01*
X317166667Y-300454819D02*
X317785714Y-300454819D01*
X317785714Y-300454819D02*
X317452381Y-300835771D01*
X317452381Y-300835771D02*
X317595238Y-300835771D01*
X317595238Y-300835771D02*
X317690476Y-300883390D01*
X317690476Y-300883390D02*
X317738095Y-300931009D01*
X317738095Y-300931009D02*
X317785714Y-301026247D01*
X317785714Y-301026247D02*
X317785714Y-301264342D01*
X317785714Y-301264342D02*
X317738095Y-301359580D01*
X317738095Y-301359580D02*
X317690476Y-301407200D01*
X317690476Y-301407200D02*
X317595238Y-301454819D01*
X317595238Y-301454819D02*
X317309524Y-301454819D01*
X317309524Y-301454819D02*
X317214286Y-301407200D01*
X317214286Y-301407200D02*
X317166667Y-301359580D01*
X431182142Y-309024819D02*
X430848809Y-308548628D01*
X430610714Y-309024819D02*
X430610714Y-308024819D01*
X430610714Y-308024819D02*
X430991666Y-308024819D01*
X430991666Y-308024819D02*
X431086904Y-308072438D01*
X431086904Y-308072438D02*
X431134523Y-308120057D01*
X431134523Y-308120057D02*
X431182142Y-308215295D01*
X431182142Y-308215295D02*
X431182142Y-308358152D01*
X431182142Y-308358152D02*
X431134523Y-308453390D01*
X431134523Y-308453390D02*
X431086904Y-308501009D01*
X431086904Y-308501009D02*
X430991666Y-308548628D01*
X430991666Y-308548628D02*
X430610714Y-308548628D01*
X432134523Y-309024819D02*
X431563095Y-309024819D01*
X431848809Y-309024819D02*
X431848809Y-308024819D01*
X431848809Y-308024819D02*
X431753571Y-308167676D01*
X431753571Y-308167676D02*
X431658333Y-308262914D01*
X431658333Y-308262914D02*
X431563095Y-308310533D01*
X432467857Y-308024819D02*
X433086904Y-308024819D01*
X433086904Y-308024819D02*
X432753571Y-308405771D01*
X432753571Y-308405771D02*
X432896428Y-308405771D01*
X432896428Y-308405771D02*
X432991666Y-308453390D01*
X432991666Y-308453390D02*
X433039285Y-308501009D01*
X433039285Y-308501009D02*
X433086904Y-308596247D01*
X433086904Y-308596247D02*
X433086904Y-308834342D01*
X433086904Y-308834342D02*
X433039285Y-308929580D01*
X433039285Y-308929580D02*
X432991666Y-308977200D01*
X432991666Y-308977200D02*
X432896428Y-309024819D01*
X432896428Y-309024819D02*
X432610714Y-309024819D01*
X432610714Y-309024819D02*
X432515476Y-308977200D01*
X432515476Y-308977200D02*
X432467857Y-308929580D01*
X741833333Y-301954819D02*
X741500000Y-301478628D01*
X741261905Y-301954819D02*
X741261905Y-300954819D01*
X741261905Y-300954819D02*
X741642857Y-300954819D01*
X741642857Y-300954819D02*
X741738095Y-301002438D01*
X741738095Y-301002438D02*
X741785714Y-301050057D01*
X741785714Y-301050057D02*
X741833333Y-301145295D01*
X741833333Y-301145295D02*
X741833333Y-301288152D01*
X741833333Y-301288152D02*
X741785714Y-301383390D01*
X741785714Y-301383390D02*
X741738095Y-301431009D01*
X741738095Y-301431009D02*
X741642857Y-301478628D01*
X741642857Y-301478628D02*
X741261905Y-301478628D01*
X742404762Y-301383390D02*
X742309524Y-301335771D01*
X742309524Y-301335771D02*
X742261905Y-301288152D01*
X742261905Y-301288152D02*
X742214286Y-301192914D01*
X742214286Y-301192914D02*
X742214286Y-301145295D01*
X742214286Y-301145295D02*
X742261905Y-301050057D01*
X742261905Y-301050057D02*
X742309524Y-301002438D01*
X742309524Y-301002438D02*
X742404762Y-300954819D01*
X742404762Y-300954819D02*
X742595238Y-300954819D01*
X742595238Y-300954819D02*
X742690476Y-301002438D01*
X742690476Y-301002438D02*
X742738095Y-301050057D01*
X742738095Y-301050057D02*
X742785714Y-301145295D01*
X742785714Y-301145295D02*
X742785714Y-301192914D01*
X742785714Y-301192914D02*
X742738095Y-301288152D01*
X742738095Y-301288152D02*
X742690476Y-301335771D01*
X742690476Y-301335771D02*
X742595238Y-301383390D01*
X742595238Y-301383390D02*
X742404762Y-301383390D01*
X742404762Y-301383390D02*
X742309524Y-301431009D01*
X742309524Y-301431009D02*
X742261905Y-301478628D01*
X742261905Y-301478628D02*
X742214286Y-301573866D01*
X742214286Y-301573866D02*
X742214286Y-301764342D01*
X742214286Y-301764342D02*
X742261905Y-301859580D01*
X742261905Y-301859580D02*
X742309524Y-301907200D01*
X742309524Y-301907200D02*
X742404762Y-301954819D01*
X742404762Y-301954819D02*
X742595238Y-301954819D01*
X742595238Y-301954819D02*
X742690476Y-301907200D01*
X742690476Y-301907200D02*
X742738095Y-301859580D01*
X742738095Y-301859580D02*
X742785714Y-301764342D01*
X742785714Y-301764342D02*
X742785714Y-301573866D01*
X742785714Y-301573866D02*
X742738095Y-301478628D01*
X742738095Y-301478628D02*
X742690476Y-301431009D01*
X742690476Y-301431009D02*
X742595238Y-301383390D01*
X413166666Y-310454819D02*
X412833333Y-309978628D01*
X412595238Y-310454819D02*
X412595238Y-309454819D01*
X412595238Y-309454819D02*
X412976190Y-309454819D01*
X412976190Y-309454819D02*
X413071428Y-309502438D01*
X413071428Y-309502438D02*
X413119047Y-309550057D01*
X413119047Y-309550057D02*
X413166666Y-309645295D01*
X413166666Y-309645295D02*
X413166666Y-309788152D01*
X413166666Y-309788152D02*
X413119047Y-309883390D01*
X413119047Y-309883390D02*
X413071428Y-309931009D01*
X413071428Y-309931009D02*
X412976190Y-309978628D01*
X412976190Y-309978628D02*
X412595238Y-309978628D01*
X413595238Y-309931009D02*
X413928571Y-309931009D01*
X414071428Y-310454819D02*
X413595238Y-310454819D01*
X413595238Y-310454819D02*
X413595238Y-309454819D01*
X413595238Y-309454819D02*
X414071428Y-309454819D01*
X414833333Y-309931009D02*
X414500000Y-309931009D01*
X414500000Y-310454819D02*
X414500000Y-309454819D01*
X414500000Y-309454819D02*
X414976190Y-309454819D01*
X415500000Y-309454819D02*
X415500000Y-309692914D01*
X415261905Y-309597676D02*
X415500000Y-309692914D01*
X415500000Y-309692914D02*
X415738095Y-309597676D01*
X415357143Y-309883390D02*
X415500000Y-309692914D01*
X415500000Y-309692914D02*
X415642857Y-309883390D01*
X416261905Y-309454819D02*
X416261905Y-309692914D01*
X416023810Y-309597676D02*
X416261905Y-309692914D01*
X416261905Y-309692914D02*
X416500000Y-309597676D01*
X416119048Y-309883390D02*
X416261905Y-309692914D01*
X416261905Y-309692914D02*
X416404762Y-309883390D01*
X572333333Y-301954819D02*
X572000000Y-301478628D01*
X571761905Y-301954819D02*
X571761905Y-300954819D01*
X571761905Y-300954819D02*
X572142857Y-300954819D01*
X572142857Y-300954819D02*
X572238095Y-301002438D01*
X572238095Y-301002438D02*
X572285714Y-301050057D01*
X572285714Y-301050057D02*
X572333333Y-301145295D01*
X572333333Y-301145295D02*
X572333333Y-301288152D01*
X572333333Y-301288152D02*
X572285714Y-301383390D01*
X572285714Y-301383390D02*
X572238095Y-301431009D01*
X572238095Y-301431009D02*
X572142857Y-301478628D01*
X572142857Y-301478628D02*
X571761905Y-301478628D01*
X573190476Y-300954819D02*
X573000000Y-300954819D01*
X573000000Y-300954819D02*
X572904762Y-301002438D01*
X572904762Y-301002438D02*
X572857143Y-301050057D01*
X572857143Y-301050057D02*
X572761905Y-301192914D01*
X572761905Y-301192914D02*
X572714286Y-301383390D01*
X572714286Y-301383390D02*
X572714286Y-301764342D01*
X572714286Y-301764342D02*
X572761905Y-301859580D01*
X572761905Y-301859580D02*
X572809524Y-301907200D01*
X572809524Y-301907200D02*
X572904762Y-301954819D01*
X572904762Y-301954819D02*
X573095238Y-301954819D01*
X573095238Y-301954819D02*
X573190476Y-301907200D01*
X573190476Y-301907200D02*
X573238095Y-301859580D01*
X573238095Y-301859580D02*
X573285714Y-301764342D01*
X573285714Y-301764342D02*
X573285714Y-301526247D01*
X573285714Y-301526247D02*
X573238095Y-301431009D01*
X573238095Y-301431009D02*
X573190476Y-301383390D01*
X573190476Y-301383390D02*
X573095238Y-301335771D01*
X573095238Y-301335771D02*
X572904762Y-301335771D01*
X572904762Y-301335771D02*
X572809524Y-301383390D01*
X572809524Y-301383390D02*
X572761905Y-301431009D01*
X572761905Y-301431009D02*
X572714286Y-301526247D01*
X483223629Y-301103333D02*
X483937914Y-301103333D01*
X483937914Y-301103333D02*
X484080771Y-301150952D01*
X484080771Y-301150952D02*
X484176010Y-301246190D01*
X484176010Y-301246190D02*
X484223629Y-301389047D01*
X484223629Y-301389047D02*
X484223629Y-301484285D01*
X484223629Y-300103333D02*
X484223629Y-300674761D01*
X484223629Y-300389047D02*
X483223629Y-300389047D01*
X483223629Y-300389047D02*
X483366486Y-300484285D01*
X483366486Y-300484285D02*
X483461724Y-300579523D01*
X483461724Y-300579523D02*
X483509343Y-300674761D01*
X479166666Y-309554819D02*
X478833333Y-309078628D01*
X478595238Y-309554819D02*
X478595238Y-308554819D01*
X478595238Y-308554819D02*
X478976190Y-308554819D01*
X478976190Y-308554819D02*
X479071428Y-308602438D01*
X479071428Y-308602438D02*
X479119047Y-308650057D01*
X479119047Y-308650057D02*
X479166666Y-308745295D01*
X479166666Y-308745295D02*
X479166666Y-308888152D01*
X479166666Y-308888152D02*
X479119047Y-308983390D01*
X479119047Y-308983390D02*
X479071428Y-309031009D01*
X479071428Y-309031009D02*
X478976190Y-309078628D01*
X478976190Y-309078628D02*
X478595238Y-309078628D01*
X479595238Y-309031009D02*
X479928571Y-309031009D01*
X480071428Y-309554819D02*
X479595238Y-309554819D01*
X479595238Y-309554819D02*
X479595238Y-308554819D01*
X479595238Y-308554819D02*
X480071428Y-308554819D01*
X480833333Y-309031009D02*
X480500000Y-309031009D01*
X480500000Y-309554819D02*
X480500000Y-308554819D01*
X480500000Y-308554819D02*
X480976190Y-308554819D01*
X481500000Y-308554819D02*
X481500000Y-308792914D01*
X481261905Y-308697676D02*
X481500000Y-308792914D01*
X481500000Y-308792914D02*
X481738095Y-308697676D01*
X481357143Y-308983390D02*
X481500000Y-308792914D01*
X481500000Y-308792914D02*
X481642857Y-308983390D01*
X482261905Y-308554819D02*
X482261905Y-308792914D01*
X482023810Y-308697676D02*
X482261905Y-308792914D01*
X482261905Y-308792914D02*
X482500000Y-308697676D01*
X482119048Y-308983390D02*
X482261905Y-308792914D01*
X482261905Y-308792914D02*
X482404762Y-308983390D01*
D10*
X324157419Y-302261904D02*
X324966942Y-302261904D01*
X324966942Y-302261904D02*
X325062180Y-302214285D01*
X325062180Y-302214285D02*
X325109800Y-302166666D01*
X325109800Y-302166666D02*
X325157419Y-302071428D01*
X325157419Y-302071428D02*
X325157419Y-301880952D01*
X325157419Y-301880952D02*
X325109800Y-301785714D01*
X325109800Y-301785714D02*
X325062180Y-301738095D01*
X325062180Y-301738095D02*
X324966942Y-301690476D01*
X324966942Y-301690476D02*
X324157419Y-301690476D01*
X324490752Y-300785714D02*
X325157419Y-300785714D01*
X324109800Y-301023809D02*
X324824085Y-301261904D01*
X324824085Y-301261904D02*
X324824085Y-300642857D01*
D11*
X427859580Y-297642857D02*
X427907200Y-297690476D01*
X427907200Y-297690476D02*
X427954819Y-297833333D01*
X427954819Y-297833333D02*
X427954819Y-297928571D01*
X427954819Y-297928571D02*
X427907200Y-298071428D01*
X427907200Y-298071428D02*
X427811961Y-298166666D01*
X427811961Y-298166666D02*
X427716723Y-298214285D01*
X427716723Y-298214285D02*
X427526247Y-298261904D01*
X427526247Y-298261904D02*
X427383390Y-298261904D01*
X427383390Y-298261904D02*
X427192914Y-298214285D01*
X427192914Y-298214285D02*
X427097676Y-298166666D01*
X427097676Y-298166666D02*
X427002438Y-298071428D01*
X427002438Y-298071428D02*
X426954819Y-297928571D01*
X426954819Y-297928571D02*
X426954819Y-297833333D01*
X426954819Y-297833333D02*
X427002438Y-297690476D01*
X427002438Y-297690476D02*
X427050057Y-297642857D01*
X427954819Y-296690476D02*
X427954819Y-297261904D01*
X427954819Y-296976190D02*
X426954819Y-296976190D01*
X426954819Y-296976190D02*
X427097676Y-297071428D01*
X427097676Y-297071428D02*
X427192914Y-297166666D01*
X427192914Y-297166666D02*
X427240533Y-297261904D01*
X427954819Y-295738095D02*
X427954819Y-296309523D01*
X427954819Y-296023809D02*
X426954819Y-296023809D01*
X426954819Y-296023809D02*
X427097676Y-296119047D01*
X427097676Y-296119047D02*
X427192914Y-296214285D01*
X427192914Y-296214285D02*
X427240533Y-296309523D01*
D10*
X409157419Y-302261904D02*
X409966942Y-302261904D01*
X409966942Y-302261904D02*
X410062180Y-302214285D01*
X410062180Y-302214285D02*
X410109800Y-302166666D01*
X410109800Y-302166666D02*
X410157419Y-302071428D01*
X410157419Y-302071428D02*
X410157419Y-301880952D01*
X410157419Y-301880952D02*
X410109800Y-301785714D01*
X410109800Y-301785714D02*
X410062180Y-301738095D01*
X410062180Y-301738095D02*
X409966942Y-301690476D01*
X409966942Y-301690476D02*
X409157419Y-301690476D01*
X409157419Y-300738095D02*
X409157419Y-301214285D01*
X409157419Y-301214285D02*
X409633609Y-301261904D01*
X409633609Y-301261904D02*
X409585990Y-301214285D01*
X409585990Y-301214285D02*
X409538371Y-301119047D01*
X409538371Y-301119047D02*
X409538371Y-300880952D01*
X409538371Y-300880952D02*
X409585990Y-300785714D01*
X409585990Y-300785714D02*
X409633609Y-300738095D01*
X409633609Y-300738095D02*
X409728847Y-300690476D01*
X409728847Y-300690476D02*
X409966942Y-300690476D01*
X409966942Y-300690476D02*
X410062180Y-300738095D01*
X410062180Y-300738095D02*
X410109800Y-300785714D01*
X410109800Y-300785714D02*
X410157419Y-300880952D01*
X410157419Y-300880952D02*
X410157419Y-301119047D01*
X410157419Y-301119047D02*
X410109800Y-301214285D01*
X410109800Y-301214285D02*
X410062180Y-301261904D01*
X579157419Y-302261904D02*
X579966942Y-302261904D01*
X579966942Y-302261904D02*
X580062180Y-302214285D01*
X580062180Y-302214285D02*
X580109800Y-302166666D01*
X580109800Y-302166666D02*
X580157419Y-302071428D01*
X580157419Y-302071428D02*
X580157419Y-301880952D01*
X580157419Y-301880952D02*
X580109800Y-301785714D01*
X580109800Y-301785714D02*
X580062180Y-301738095D01*
X580062180Y-301738095D02*
X579966942Y-301690476D01*
X579966942Y-301690476D02*
X579157419Y-301690476D01*
X579157419Y-301309523D02*
X579157419Y-300642857D01*
X579157419Y-300642857D02*
X580157419Y-301071428D01*
D11*
X460793117Y-305054819D02*
X460459784Y-304578628D01*
X460221689Y-305054819D02*
X460221689Y-304054819D01*
X460221689Y-304054819D02*
X460602641Y-304054819D01*
X460602641Y-304054819D02*
X460697879Y-304102438D01*
X460697879Y-304102438D02*
X460745498Y-304150057D01*
X460745498Y-304150057D02*
X460793117Y-304245295D01*
X460793117Y-304245295D02*
X460793117Y-304388152D01*
X460793117Y-304388152D02*
X460745498Y-304483390D01*
X460745498Y-304483390D02*
X460697879Y-304531009D01*
X460697879Y-304531009D02*
X460602641Y-304578628D01*
X460602641Y-304578628D02*
X460221689Y-304578628D01*
X461221689Y-304531009D02*
X461555022Y-304531009D01*
X461697879Y-305054819D02*
X461221689Y-305054819D01*
X461221689Y-305054819D02*
X461221689Y-304054819D01*
X461221689Y-304054819D02*
X461697879Y-304054819D01*
X462459784Y-304531009D02*
X462126451Y-304531009D01*
X462126451Y-305054819D02*
X462126451Y-304054819D01*
X462126451Y-304054819D02*
X462602641Y-304054819D01*
X463126451Y-304054819D02*
X463126451Y-304292914D01*
X462888356Y-304197676D02*
X463126451Y-304292914D01*
X463126451Y-304292914D02*
X463364546Y-304197676D01*
X462983594Y-304483390D02*
X463126451Y-304292914D01*
X463126451Y-304292914D02*
X463269308Y-304483390D01*
X463888356Y-304054819D02*
X463888356Y-304292914D01*
X463650261Y-304197676D02*
X463888356Y-304292914D01*
X463888356Y-304292914D02*
X464126451Y-304197676D01*
X463745499Y-304483390D02*
X463888356Y-304292914D01*
X463888356Y-304292914D02*
X464031213Y-304483390D01*
X429524819Y-302467857D02*
X429048628Y-302801190D01*
X429524819Y-303039285D02*
X428524819Y-303039285D01*
X428524819Y-303039285D02*
X428524819Y-302658333D01*
X428524819Y-302658333D02*
X428572438Y-302563095D01*
X428572438Y-302563095D02*
X428620057Y-302515476D01*
X428620057Y-302515476D02*
X428715295Y-302467857D01*
X428715295Y-302467857D02*
X428858152Y-302467857D01*
X428858152Y-302467857D02*
X428953390Y-302515476D01*
X428953390Y-302515476D02*
X429001009Y-302563095D01*
X429001009Y-302563095D02*
X429048628Y-302658333D01*
X429048628Y-302658333D02*
X429048628Y-303039285D01*
X429524819Y-301515476D02*
X429524819Y-302086904D01*
X429524819Y-301801190D02*
X428524819Y-301801190D01*
X428524819Y-301801190D02*
X428667676Y-301896428D01*
X428667676Y-301896428D02*
X428762914Y-301991666D01*
X428762914Y-301991666D02*
X428810533Y-302086904D01*
X428858152Y-300658333D02*
X429524819Y-300658333D01*
X428477200Y-300896428D02*
X429191485Y-301134523D01*
X429191485Y-301134523D02*
X429191485Y-300515476D01*
X412357142Y-298359580D02*
X412309523Y-298407200D01*
X412309523Y-298407200D02*
X412166666Y-298454819D01*
X412166666Y-298454819D02*
X412071428Y-298454819D01*
X412071428Y-298454819D02*
X411928571Y-298407200D01*
X411928571Y-298407200D02*
X411833333Y-298311961D01*
X411833333Y-298311961D02*
X411785714Y-298216723D01*
X411785714Y-298216723D02*
X411738095Y-298026247D01*
X411738095Y-298026247D02*
X411738095Y-297883390D01*
X411738095Y-297883390D02*
X411785714Y-297692914D01*
X411785714Y-297692914D02*
X411833333Y-297597676D01*
X411833333Y-297597676D02*
X411928571Y-297502438D01*
X411928571Y-297502438D02*
X412071428Y-297454819D01*
X412071428Y-297454819D02*
X412166666Y-297454819D01*
X412166666Y-297454819D02*
X412309523Y-297502438D01*
X412309523Y-297502438D02*
X412357142Y-297550057D01*
X413309523Y-298454819D02*
X412738095Y-298454819D01*
X413023809Y-298454819D02*
X413023809Y-297454819D01*
X413023809Y-297454819D02*
X412928571Y-297597676D01*
X412928571Y-297597676D02*
X412833333Y-297692914D01*
X412833333Y-297692914D02*
X412738095Y-297740533D01*
X413642857Y-297454819D02*
X414261904Y-297454819D01*
X414261904Y-297454819D02*
X413928571Y-297835771D01*
X413928571Y-297835771D02*
X414071428Y-297835771D01*
X414071428Y-297835771D02*
X414166666Y-297883390D01*
X414166666Y-297883390D02*
X414214285Y-297931009D01*
X414214285Y-297931009D02*
X414261904Y-298026247D01*
X414261904Y-298026247D02*
X414261904Y-298264342D01*
X414261904Y-298264342D02*
X414214285Y-298359580D01*
X414214285Y-298359580D02*
X414166666Y-298407200D01*
X414166666Y-298407200D02*
X414071428Y-298454819D01*
X414071428Y-298454819D02*
X413785714Y-298454819D01*
X413785714Y-298454819D02*
X413690476Y-298407200D01*
X413690476Y-298407200D02*
X413642857Y-298359580D01*
D12*
%TO.C,C3*%
X321146045Y-298509999D02*
X321427205Y-298509999D01*
X321146045Y-297489999D02*
X321427205Y-297489999D01*
%TO.C,C7*%
X661096045Y-298509999D02*
X661377205Y-298509999D01*
X661096045Y-297489999D02*
X661377205Y-297489999D01*
%TO.C,C1*%
X151146045Y-298509999D02*
X151427205Y-298509999D01*
X151146045Y-297489999D02*
X151427205Y-297489999D01*
%TO.C,C6*%
X576096045Y-298509999D02*
X576377205Y-298509999D01*
X576096045Y-297489999D02*
X576377205Y-297489999D01*
D13*
%TO.C,U3*%
X233800000Y-300000000D02*
G75*
G02*
X233600000Y-300000000I-100000J0D01*
G01*
X233600000Y-300000000D02*
G75*
G02*
X233800000Y-300000000I100000J0D01*
G01*
D14*
X238000000Y-303000000D02*
X238000000Y-300000000D01*
X238000000Y-303000000D02*
X234000000Y-303000000D01*
X238000000Y-300000000D02*
X234000000Y-300000000D01*
X234000000Y-303000000D02*
X234000000Y-300000000D01*
D12*
%TO.C,C8*%
X746096045Y-298509999D02*
X746377205Y-298509999D01*
X746096045Y-297489999D02*
X746377205Y-297489999D01*
%TO.C,R2*%
X233423883Y-298522499D02*
X232949367Y-298522499D01*
X233423883Y-297477499D02*
X232949367Y-297477499D01*
%TO.C,C9*%
X423529200Y-300865580D02*
X423529200Y-300584420D01*
X422509200Y-300865580D02*
X422509200Y-300584420D01*
%TO.C,C5*%
X491096045Y-298509999D02*
X491377205Y-298509999D01*
X491096045Y-297489999D02*
X491377205Y-297489999D01*
D13*
%TO.C,U6*%
X488800000Y-300000000D02*
G75*
G02*
X488600000Y-300000000I-100000J0D01*
G01*
X488600000Y-300000000D02*
G75*
G02*
X488800000Y-300000000I100000J0D01*
G01*
D14*
X493000000Y-303000000D02*
X493000000Y-300000000D01*
X493000000Y-303000000D02*
X489000000Y-303000000D01*
X493000000Y-300000000D02*
X489000000Y-300000000D01*
X489000000Y-303000000D02*
X489000000Y-300000000D01*
D12*
%TO.C,R4*%
X403412258Y-298522500D02*
X402937742Y-298522500D01*
X403412258Y-297477500D02*
X402937742Y-297477500D01*
D13*
%TO.C,U9*%
X743800000Y-300000000D02*
G75*
G02*
X743600000Y-300000000I-100000J0D01*
G01*
X743600000Y-300000000D02*
G75*
G02*
X743800000Y-300000000I100000J0D01*
G01*
D14*
X748000000Y-303000000D02*
X748000000Y-300000000D01*
X748000000Y-303000000D02*
X744000000Y-303000000D01*
X748000000Y-300000000D02*
X744000000Y-300000000D01*
X744000000Y-303000000D02*
X744000000Y-300000000D01*
D12*
%TO.C,C2*%
X236146045Y-298509999D02*
X236427205Y-298509999D01*
X236146045Y-297489999D02*
X236427205Y-297489999D01*
D15*
%TO.C,U10*%
X418925001Y-297470891D02*
G75*
G02*
X418674999Y-297470891I-125001J0D01*
G01*
X418674999Y-297470891D02*
G75*
G02*
X418925001Y-297470891I125001J0D01*
G01*
D11*
X420000000Y-302832915D02*
X420000000Y-303500000D01*
X420000000Y-298500000D02*
X420000000Y-299167085D01*
X419332915Y-303500000D02*
X420000000Y-303500000D01*
X419332915Y-298500000D02*
X420000000Y-298500000D01*
X415000000Y-303500000D02*
X415667085Y-303500000D01*
X415000000Y-302832915D02*
X415000000Y-303500000D01*
X415000000Y-298500000D02*
X415667085Y-298500000D01*
X415000000Y-298500000D02*
X415000000Y-299167085D01*
D12*
%TO.C,C12*%
X418924420Y-305510000D02*
X419205580Y-305510000D01*
X418924420Y-304490000D02*
X419205580Y-304490000D01*
%TO.C,C4*%
X406134420Y-298510000D02*
X406415580Y-298510000D01*
X406134420Y-297490000D02*
X406415580Y-297490000D01*
%TO.C,R12*%
X420562258Y-309022500D02*
X420087742Y-309022500D01*
X420562258Y-307977500D02*
X420087742Y-307977500D01*
%TO.C,R9*%
X421991700Y-301087742D02*
X421991700Y-301562258D01*
X420946700Y-301087742D02*
X420946700Y-301562258D01*
D13*
%TO.C,U1*%
X148800000Y-300000000D02*
G75*
G02*
X148600000Y-300000000I-100000J0D01*
G01*
X148600000Y-300000000D02*
G75*
G02*
X148800000Y-300000000I100000J0D01*
G01*
D14*
X153000000Y-303000000D02*
X153000000Y-300000000D01*
X153000000Y-303000000D02*
X149000000Y-303000000D01*
X153000000Y-300000000D02*
X149000000Y-300000000D01*
X149000000Y-303000000D02*
X149000000Y-300000000D01*
D13*
%TO.C,U8*%
X658800000Y-300000000D02*
G75*
G02*
X658600000Y-300000000I-100000J0D01*
G01*
X658600000Y-300000000D02*
G75*
G02*
X658800000Y-300000000I100000J0D01*
G01*
D14*
X663000000Y-303000000D02*
X663000000Y-300000000D01*
X663000000Y-303000000D02*
X659000000Y-303000000D01*
X663000000Y-300000000D02*
X659000000Y-300000000D01*
X659000000Y-303000000D02*
X659000000Y-300000000D01*
D12*
%TO.C,R1*%
X148412258Y-298522500D02*
X147937742Y-298522500D01*
X148412258Y-297477500D02*
X147937742Y-297477500D01*
%TO.C,R7*%
X658412258Y-298522499D02*
X657937742Y-298522499D01*
X658412258Y-297477499D02*
X657937742Y-297477499D01*
%TO.C,C14*%
X416205580Y-305510000D02*
X415924420Y-305510000D01*
X416205580Y-304490000D02*
X415924420Y-304490000D01*
%TO.C,C10*%
X423529200Y-303859420D02*
X423529200Y-304140580D01*
X422509200Y-303859420D02*
X422509200Y-304140580D01*
%TO.C,U2*%
D15*
X424902800Y-304304000D02*
G75*
G02*
X424652800Y-304304000I-125000J0D01*
G01*
X424652800Y-304304000D02*
G75*
G02*
X424902800Y-304304000I125000J0D01*
G01*
D12*
X427713800Y-303800000D02*
X427713800Y-303386000D01*
X427713800Y-300700000D02*
X427713800Y-301114000D01*
X427299800Y-303800000D02*
X427713800Y-303800000D01*
X427299800Y-300700000D02*
X427713800Y-300700000D01*
X425027800Y-303800000D02*
X424613800Y-303800000D01*
X425027800Y-300700000D02*
X424613800Y-300700000D01*
X424613800Y-303800000D02*
X424613800Y-303386000D01*
X424613800Y-300700000D02*
X424613800Y-301114000D01*
%TO.C,R5*%
X488423883Y-298522499D02*
X487949367Y-298522499D01*
X488423883Y-297477499D02*
X487949367Y-297477499D01*
%TO.C,R3*%
X318423883Y-298522499D02*
X317949367Y-298522499D01*
X318423883Y-297477499D02*
X317949367Y-297477499D01*
%TO.C,R13*%
X431587742Y-310522500D02*
X432062258Y-310522500D01*
X431587742Y-309477500D02*
X432062258Y-309477500D01*
%TO.C,R8*%
X743423883Y-298522499D02*
X742949367Y-298522499D01*
X743423883Y-297477499D02*
X742949367Y-297477499D01*
%TO.C,R6*%
X573412258Y-298522499D02*
X572937742Y-298522499D01*
X573412258Y-297477499D02*
X572937742Y-297477499D01*
%TO.C,J1*%
X482768810Y-303370000D02*
X431848810Y-303370000D01*
X482768810Y-300770000D02*
X482768810Y-303370000D01*
X482768810Y-298170000D02*
X482768810Y-299500000D01*
X481438810Y-298170000D02*
X482768810Y-298170000D01*
X480168810Y-300770000D02*
X482768810Y-300770000D01*
X480168810Y-298170000D02*
X480168810Y-300770000D01*
X480168810Y-298170000D02*
X431848810Y-298170000D01*
X431848810Y-298170000D02*
X431848810Y-303370000D01*
D13*
%TO.C,U4*%
X318800000Y-300000000D02*
G75*
G02*
X318600000Y-300000000I-100000J0D01*
G01*
X318600000Y-300000000D02*
G75*
G02*
X318800000Y-300000000I100000J0D01*
G01*
D14*
X323000000Y-303000000D02*
X323000000Y-300000000D01*
X323000000Y-303000000D02*
X319000000Y-303000000D01*
X323000000Y-300000000D02*
X319000000Y-300000000D01*
X319000000Y-303000000D02*
X319000000Y-300000000D01*
D12*
%TO.C,C11*%
X425010000Y-298415580D02*
X425010000Y-298134420D01*
X423990000Y-298415580D02*
X423990000Y-298134420D01*
D13*
%TO.C,U5*%
X403800000Y-300000000D02*
G75*
G02*
X403600000Y-300000000I-100000J0D01*
G01*
X403600000Y-300000000D02*
G75*
G02*
X403800000Y-300000000I100000J0D01*
G01*
D14*
X408000000Y-303000000D02*
X408000000Y-300000000D01*
X408000000Y-303000000D02*
X404000000Y-303000000D01*
X408000000Y-300000000D02*
X404000000Y-300000000D01*
X404000000Y-303000000D02*
X404000000Y-300000000D01*
D13*
%TO.C,U7*%
X573800000Y-300000000D02*
G75*
G02*
X573600000Y-300000000I-100000J0D01*
G01*
X573600000Y-300000000D02*
G75*
G02*
X573800000Y-300000000I100000J0D01*
G01*
D14*
X578000000Y-303000000D02*
X578000000Y-300000000D01*
X578000000Y-303000000D02*
X574000000Y-303000000D01*
X578000000Y-300000000D02*
X574000000Y-300000000D01*
X574000000Y-303000000D02*
X574000000Y-300000000D01*
D12*
%TO.C,R14*%
X431022500Y-302062258D02*
X431022500Y-301587742D01*
X429977500Y-302062258D02*
X429977500Y-301587742D01*
%TO.C,C13*%
X416755580Y-297510000D02*
X416474420Y-297510000D01*
X416755580Y-296490000D02*
X416474420Y-296490000D01*
%TD*%
%LPC*%
D16*
%TO.C,C3*%
X322061625Y-297999999D03*
X320511625Y-297999999D03*
%TD*%
%TO.C,C7*%
X662011625Y-297999999D03*
X660461625Y-297999999D03*
%TD*%
%TO.C,C1*%
X152061625Y-297999999D03*
X150511625Y-297999999D03*
%TD*%
%TO.C,C6*%
X577011625Y-297999999D03*
X575461625Y-297999999D03*
%TD*%
D17*
%TO.C,U3*%
X235920000Y-301500000D03*
D18*
X235200000Y-302350000D03*
X234500000Y-302350000D03*
X235200000Y-300650000D03*
X234500000Y-300650000D03*
D19*
X236700000Y-301500000D03*
%TD*%
D16*
%TO.C,C8*%
X747011625Y-297999999D03*
X745461625Y-297999999D03*
%TD*%
D20*
%TO.C,R2*%
X232361625Y-297999999D03*
X234011625Y-297999999D03*
%TD*%
D21*
%TO.C,C9*%
X423019200Y-299950000D03*
X423019200Y-301500000D03*
%TD*%
D16*
%TO.C,C5*%
X492011625Y-297999999D03*
X490461625Y-297999999D03*
%TD*%
D17*
%TO.C,U6*%
X490920000Y-301500000D03*
D18*
X490200000Y-302350000D03*
X489500000Y-302350000D03*
X490200000Y-300650000D03*
X489500000Y-300650000D03*
D19*
X491700000Y-301500000D03*
%TD*%
D22*
%TO.C,REF\u002A\u002A*%
X435878324Y-307500000D03*
%TD*%
D20*
%TO.C,R4*%
X402350000Y-298000000D03*
X404000000Y-298000000D03*
%TD*%
D17*
%TO.C,U9*%
X745920000Y-301500000D03*
D18*
X745200000Y-302350000D03*
X744500000Y-302350000D03*
X745200000Y-300650000D03*
X744500000Y-300650000D03*
D19*
X746700000Y-301500000D03*
%TD*%
D16*
%TO.C,C2*%
X237061625Y-297999999D03*
X235511625Y-297999999D03*
%TD*%
D23*
%TO.C,U10*%
X417500000Y-301000000D03*
D24*
X419875550Y-299700000D03*
X419875550Y-300350001D03*
X419875550Y-301000000D03*
X419875550Y-301650001D03*
X419875550Y-302300000D03*
D25*
X418800000Y-303375550D03*
X418149999Y-303375550D03*
X417500000Y-303375550D03*
X416849999Y-303375550D03*
X416200000Y-303375550D03*
D24*
X415124450Y-302300000D03*
X415124450Y-301650001D03*
X415124450Y-301000000D03*
X415124450Y-300350001D03*
X415124450Y-299700000D03*
D25*
X416200000Y-298624450D03*
X416849999Y-298624450D03*
X417500000Y-298624450D03*
X418149999Y-298624450D03*
X418800000Y-298624450D03*
%TD*%
D16*
%TO.C,C12*%
X419840000Y-305000000D03*
X418290000Y-305000000D03*
%TD*%
%TO.C,C4*%
X407050000Y-298000000D03*
X405500000Y-298000000D03*
%TD*%
D20*
%TO.C,R12*%
X419500000Y-308500000D03*
X421150000Y-308500000D03*
%TD*%
D26*
%TO.C,R9*%
X421469200Y-302150000D03*
X421469200Y-300500000D03*
%TD*%
D17*
%TO.C,U1*%
X150920000Y-301500000D03*
D18*
X150200000Y-302350000D03*
X149500000Y-302350000D03*
X150200000Y-300650000D03*
X149500000Y-300650000D03*
D19*
X151700000Y-301500000D03*
%TD*%
D17*
%TO.C,U8*%
X660920000Y-301500000D03*
D18*
X660200000Y-302350000D03*
X659500000Y-302350000D03*
X660200000Y-300650000D03*
X659500000Y-300650000D03*
D19*
X661700000Y-301500000D03*
%TD*%
D20*
%TO.C,R1*%
X147350000Y-298000000D03*
X149000000Y-298000000D03*
%TD*%
%TO.C,R7*%
X657350000Y-297999999D03*
X659000000Y-297999999D03*
%TD*%
D27*
%TO.C,C14*%
X415290000Y-305000000D03*
X416840000Y-305000000D03*
%TD*%
D28*
%TO.C,C10*%
X423019200Y-304775000D03*
X423019200Y-303225000D03*
%TD*%
D29*
%TO.C,U2*%
X426163800Y-302250000D03*
D30*
X424679200Y-303000000D03*
X424679200Y-302500000D03*
X424679200Y-302000000D03*
X424679200Y-301500000D03*
D31*
X425413800Y-300765400D03*
X425913800Y-300765400D03*
X426413800Y-300765400D03*
X426913800Y-300765400D03*
D30*
X427648400Y-301500000D03*
X427648400Y-302000000D03*
X427648400Y-302500000D03*
X427648400Y-303000000D03*
D31*
X426913800Y-303734600D03*
X426413800Y-303734600D03*
X425913800Y-303734600D03*
X425413800Y-303734600D03*
%TD*%
D20*
%TO.C,R5*%
X487361625Y-297999999D03*
X489011625Y-297999999D03*
%TD*%
%TO.C,R3*%
X317361625Y-297999999D03*
X319011625Y-297999999D03*
%TD*%
D32*
%TO.C,R13*%
X432650000Y-310000000D03*
X431000000Y-310000000D03*
%TD*%
D20*
%TO.C,R8*%
X742361625Y-297999999D03*
X744011625Y-297999999D03*
%TD*%
D22*
%TO.C,REF\u002A\u002A*%
X417500000Y-312000000D03*
%TD*%
D20*
%TO.C,R6*%
X572350000Y-297999999D03*
X574000000Y-297999999D03*
%TD*%
D33*
%TO.C,J1*%
X433178810Y-302040000D03*
X433178810Y-299500000D03*
X435718810Y-302040000D03*
X435718810Y-299500000D03*
X438258810Y-302040000D03*
X438258810Y-299500000D03*
X440798810Y-302040000D03*
X440798810Y-299500000D03*
X443338810Y-302040000D03*
X443338810Y-299500000D03*
X445878810Y-302040000D03*
X445878810Y-299500000D03*
X448418810Y-302040000D03*
X448418810Y-299500000D03*
X450958810Y-302040000D03*
X450958810Y-299500000D03*
X453498810Y-302040000D03*
X453498810Y-299500000D03*
X456038810Y-302040000D03*
X456038810Y-299500000D03*
X458578810Y-302040000D03*
X458578810Y-299500000D03*
X461118810Y-302040000D03*
X461118810Y-299500000D03*
X463658810Y-302040000D03*
X463658810Y-299500000D03*
X466198810Y-302040000D03*
X466198810Y-299500000D03*
X468738810Y-302040000D03*
X468738810Y-299500000D03*
X471278810Y-302040000D03*
X471278810Y-299500000D03*
X473818810Y-302040000D03*
X473818810Y-299500000D03*
X476358810Y-302040000D03*
X476358810Y-299500000D03*
X478898810Y-302040000D03*
X478898810Y-299500000D03*
X481438810Y-302040000D03*
D34*
X481438810Y-299500000D03*
%TD*%
D22*
%TO.C,REF\u002A\u002A*%
X480500000Y-312000000D03*
%TD*%
D17*
%TO.C,U4*%
X320920000Y-301500000D03*
D18*
X320200000Y-302350000D03*
X319500000Y-302350000D03*
X320200000Y-300650000D03*
X319500000Y-300650000D03*
D19*
X321700000Y-301500000D03*
%TD*%
D21*
%TO.C,C11*%
X424500000Y-297500000D03*
X424500000Y-299050000D03*
%TD*%
D17*
%TO.C,U5*%
X405920000Y-301500000D03*
D18*
X405200000Y-302350000D03*
X404500000Y-302350000D03*
X405200000Y-300650000D03*
X404500000Y-300650000D03*
D19*
X406700000Y-301500000D03*
%TD*%
D17*
%TO.C,U7*%
X575920000Y-301500000D03*
D18*
X575200000Y-302350000D03*
X574500000Y-302350000D03*
X575200000Y-300650000D03*
X574500000Y-300650000D03*
D19*
X576700000Y-301500000D03*
%TD*%
D22*
%TO.C,REF\u002A\u002A*%
X462126451Y-307500000D03*
%TD*%
D35*
%TO.C,R14*%
X430500000Y-301000000D03*
X430500000Y-302650000D03*
%TD*%
D27*
%TO.C,C13*%
X415840000Y-297000000D03*
X417390000Y-297000000D03*
%TD*%
%LPD*%
M02*
