%TF.GenerationSoftware,KiCad,Pcbnew,9.0.1-9.0.1-0~ubuntu22.04.1*%
%TF.CreationDate,2025-06-14T14:09:10+02:00*%
%TF.ProjectId,recorder,7265636f-7264-4657-922e-6b696361645f,rev?*%
%TF.SameCoordinates,Original*%
%TF.FileFunction,Legend,Bot*%
%TF.FilePolarity,Positive*%
%FSLAX46Y46*%
G04 Gerber Fmt 4.6, Leading zero omitted, Abs format (unit mm)*
G04 Created by KiCad (PCBNEW 9.0.1-9.0.1-0~ubuntu22.04.1) date 2025-06-14 14:09:10*
%MOMM*%
%LPD*%
G01*
G04 APERTURE LIST*
%ADD10C,0.100000*%
%ADD11C,0.800000*%
%ADD12C,2.200000*%
%ADD13O,1.700000X1.700000*%
%ADD14R,1.700000X1.700000*%
G04 APERTURE END LIST*
D10*
G36*
X743147662Y-309490000D02*
G01*
X743147662Y-308083527D01*
X744267637Y-308083527D01*
X744267637Y-309490000D01*
X744640230Y-309490000D01*
X744640230Y-306524098D01*
X744267637Y-306524098D01*
X744267637Y-307777613D01*
X743147662Y-307777613D01*
X743147662Y-306524098D01*
X742775069Y-306524098D01*
X742775069Y-309490000D01*
X743147662Y-309490000D01*
G37*
G36*
X741304879Y-306490041D02*
G01*
X741463240Y-306527980D01*
X741603995Y-306589243D01*
X741729832Y-306673941D01*
X741874685Y-306817815D01*
X741996424Y-306997122D01*
X742094914Y-307217625D01*
X742161279Y-307451903D01*
X742203028Y-307716189D01*
X742217646Y-308014651D01*
X742202875Y-308318926D01*
X742160984Y-308584356D01*
X742094914Y-308815889D01*
X741996385Y-309033227D01*
X741874669Y-309208949D01*
X741729832Y-309348949D01*
X741604381Y-309430609D01*
X741463742Y-309489864D01*
X741305236Y-309526642D01*
X741125514Y-309539459D01*
X740946129Y-309526385D01*
X740787780Y-309488837D01*
X740647090Y-309428244D01*
X740521379Y-309344553D01*
X740376391Y-309201941D01*
X740254668Y-309024032D01*
X740156297Y-308805081D01*
X740089988Y-308572245D01*
X740048213Y-308308739D01*
X740033565Y-308010254D01*
X740425575Y-308010254D01*
X740438057Y-308316878D01*
X740472097Y-308563464D01*
X740523280Y-308759615D01*
X740588241Y-308913892D01*
X740683416Y-309050772D01*
X740801361Y-309145889D01*
X740946081Y-309204358D01*
X741125514Y-309225118D01*
X741299339Y-309204790D01*
X741441794Y-309147132D01*
X741560038Y-309052673D01*
X741657658Y-308916090D01*
X741724791Y-308762485D01*
X741777623Y-308567001D01*
X741812753Y-308320974D01*
X741825636Y-308014651D01*
X741813218Y-307708347D01*
X741779273Y-307460732D01*
X741728096Y-307262593D01*
X741662971Y-307105701D01*
X741567387Y-306966125D01*
X741449211Y-306869444D01*
X741304555Y-306810173D01*
X741125514Y-306789162D01*
X740946326Y-306810080D01*
X740801668Y-306869049D01*
X740683618Y-306965136D01*
X740588241Y-307103686D01*
X740523179Y-307259498D01*
X740472001Y-307456790D01*
X740438018Y-307703922D01*
X740425575Y-308010254D01*
X740033565Y-308010254D01*
X740048294Y-307706018D01*
X740090147Y-307439475D01*
X740156297Y-307205901D01*
X740254860Y-306986372D01*
X740376600Y-306809311D01*
X740521379Y-306668628D01*
X740646908Y-306586372D01*
X740787542Y-306526727D01*
X740945961Y-306489726D01*
X741125514Y-306476837D01*
X741304879Y-306490041D01*
G37*
G36*
X738868710Y-306830012D02*
G01*
X738868710Y-307868105D01*
X737705504Y-307868105D01*
X737705504Y-308169623D01*
X738868710Y-308169623D01*
X738868710Y-309490000D01*
X739239105Y-309490000D01*
X739239105Y-306524098D01*
X737492280Y-306524098D01*
X737537526Y-306830012D01*
X738868710Y-306830012D01*
G37*
G36*
X734968396Y-306524098D02*
G01*
X734800418Y-309490000D01*
X735160005Y-309490000D01*
X735252695Y-307941378D01*
X735268815Y-307519326D01*
X735276325Y-307128415D01*
X735276325Y-306866648D01*
X735776046Y-308958039D01*
X736150837Y-308958039D01*
X736687194Y-306866648D01*
X736680783Y-307133728D01*
X736680783Y-307534347D01*
X736691407Y-307937165D01*
X736771092Y-309490000D01*
X737122252Y-309490000D01*
X736954274Y-306524098D01*
X736432937Y-306524098D01*
X735952634Y-308555221D01*
X735493946Y-306524098D01*
X734968396Y-306524098D01*
G37*
G36*
X733756097Y-306830012D02*
G01*
X733756097Y-307829453D01*
X732657554Y-307829453D01*
X732657554Y-308137383D01*
X733756097Y-308137383D01*
X733756097Y-309190680D01*
X732407693Y-309190680D01*
X732407693Y-309490000D01*
X734130887Y-309490000D01*
X734130887Y-306524098D01*
X732446528Y-306524098D01*
X732489576Y-306830012D01*
X733756097Y-306830012D01*
G37*
G36*
X729948473Y-306524098D02*
G01*
X729948473Y-306823600D01*
X730607562Y-306823600D01*
X730607562Y-309190680D01*
X729948473Y-309190680D01*
X729948473Y-309490000D01*
X731645655Y-309490000D01*
X731645655Y-309190680D01*
X730986566Y-309190680D01*
X730986566Y-306823600D01*
X731645655Y-306823600D01*
X731645655Y-306524098D01*
X729948473Y-306524098D01*
G37*
G36*
X727196161Y-308669344D02*
G01*
X727210811Y-308836388D01*
X727253362Y-308986029D01*
X727323290Y-309121620D01*
X727418642Y-309240709D01*
X727540449Y-309342854D01*
X727692585Y-309428633D01*
X727857784Y-309488111D01*
X728051722Y-309525995D01*
X728279501Y-309539459D01*
X728494509Y-309527915D01*
X728690086Y-309494504D01*
X728868614Y-309440540D01*
X729038250Y-309364169D01*
X729187971Y-309270858D01*
X729319792Y-309160455D01*
X729097958Y-308910594D01*
X728933911Y-309039678D01*
X728744783Y-309140122D01*
X728608625Y-309185982D01*
X728452471Y-309214927D01*
X728273089Y-309225118D01*
X728096519Y-309210055D01*
X727934935Y-309165950D01*
X727791463Y-309090150D01*
X727680678Y-308984966D01*
X727628027Y-308899080D01*
X727595326Y-308797338D01*
X727583775Y-308675755D01*
X727598498Y-308540540D01*
X727639829Y-308431390D01*
X727713197Y-308338835D01*
X727838032Y-308250406D01*
X727995690Y-308177536D01*
X728234255Y-308096533D01*
X728515540Y-308001571D01*
X728741486Y-307901627D01*
X728877879Y-307820631D01*
X728987295Y-307731602D01*
X729073229Y-307634548D01*
X729137034Y-307523540D01*
X729176678Y-307393311D01*
X729190648Y-307239241D01*
X729176697Y-307095297D01*
X729135856Y-306964962D01*
X729067916Y-306845216D01*
X728977283Y-306740188D01*
X728865166Y-306650207D01*
X728728663Y-306574839D01*
X728581292Y-306521571D01*
X728416066Y-306488395D01*
X728230041Y-306476837D01*
X728025845Y-306487348D01*
X727848624Y-306517114D01*
X727694783Y-306564031D01*
X727478367Y-306670138D01*
X727282257Y-306814991D01*
X727501892Y-307058257D01*
X727669061Y-306936074D01*
X727844443Y-306853825D01*
X728029617Y-306805237D01*
X728217035Y-306789162D01*
X728376309Y-306801900D01*
X728514352Y-306838285D01*
X728634874Y-306896873D01*
X728731420Y-306980838D01*
X728788927Y-307088057D01*
X728809263Y-307226235D01*
X728791514Y-307347812D01*
X728740387Y-307447152D01*
X728654810Y-307529976D01*
X728507929Y-307616229D01*
X728328117Y-307689926D01*
X728061880Y-307775598D01*
X727837650Y-307851504D01*
X727634516Y-307942477D01*
X727510363Y-308018085D01*
X727405087Y-308108329D01*
X727316878Y-308213953D01*
X727252476Y-308333797D01*
X727211129Y-308483166D01*
X727196161Y-308669344D01*
G37*
G36*
X725453916Y-306845033D02*
G01*
X725453916Y-309490000D01*
X725826509Y-309490000D01*
X725826509Y-306845033D01*
X726752677Y-306845033D01*
X726752677Y-306524098D01*
X724514924Y-306524098D01*
X724553576Y-306845033D01*
X725453916Y-306845033D01*
G37*
G36*
X723427555Y-306830012D02*
G01*
X723427555Y-307829453D01*
X722329012Y-307829453D01*
X722329012Y-308137383D01*
X723427555Y-308137383D01*
X723427555Y-309190680D01*
X722079152Y-309190680D01*
X722079152Y-309490000D01*
X723802346Y-309490000D01*
X723802346Y-306524098D01*
X722117986Y-306524098D01*
X722161034Y-306830012D01*
X723427555Y-306830012D01*
G37*
G36*
X721323525Y-309490000D02*
G01*
X720948735Y-309490000D01*
X720948735Y-308217067D01*
X720548115Y-308217067D01*
X719738267Y-309490000D01*
X719290387Y-309490000D01*
X720169112Y-308174019D01*
X719973348Y-308109331D01*
X719802935Y-308016493D01*
X719654370Y-307895033D01*
X719564110Y-307785960D01*
X719499381Y-307661827D01*
X719459351Y-307519701D01*
X719445359Y-307355561D01*
X719845978Y-307355561D01*
X719858912Y-307509231D01*
X719894273Y-307629086D01*
X719948904Y-307722281D01*
X720022566Y-307793916D01*
X720147020Y-307862674D01*
X720308831Y-307907616D01*
X720518073Y-307924159D01*
X720948735Y-307924159D01*
X720948735Y-306821402D01*
X720518073Y-306821402D01*
X720291941Y-306838008D01*
X720127796Y-306881765D01*
X720010842Y-306946332D01*
X719941824Y-307014672D01*
X719890814Y-307102383D01*
X719857947Y-307213927D01*
X719845978Y-307355561D01*
X719445359Y-307355561D01*
X719464690Y-307154393D01*
X719519161Y-306988115D01*
X719606531Y-306849607D01*
X719728742Y-306734207D01*
X719872975Y-306648723D01*
X720054269Y-306582964D01*
X720280541Y-306539823D01*
X720561121Y-306524098D01*
X721323525Y-306524098D01*
X721323525Y-309490000D01*
G37*
G36*
X716159255Y-309490000D02*
G01*
X715784464Y-309490000D01*
X715784464Y-308217067D01*
X715383845Y-308217067D01*
X714573996Y-309490000D01*
X714126116Y-309490000D01*
X715004841Y-308174019D01*
X714809077Y-308109331D01*
X714638665Y-308016493D01*
X714490099Y-307895033D01*
X714399839Y-307785960D01*
X714335110Y-307661827D01*
X714295080Y-307519701D01*
X714281088Y-307355561D01*
X714681707Y-307355561D01*
X714694641Y-307509231D01*
X714730002Y-307629086D01*
X714784633Y-307722281D01*
X714858295Y-307793916D01*
X714982749Y-307862674D01*
X715144560Y-307907616D01*
X715353803Y-307924159D01*
X715784464Y-307924159D01*
X715784464Y-306821402D01*
X715353803Y-306821402D01*
X715127670Y-306838008D01*
X714963525Y-306881765D01*
X714846571Y-306946332D01*
X714777554Y-307014672D01*
X714726543Y-307102383D01*
X714693676Y-307213927D01*
X714681707Y-307355561D01*
X714281088Y-307355561D01*
X714300419Y-307154393D01*
X714354890Y-306988115D01*
X714442261Y-306849607D01*
X714564471Y-306734207D01*
X714708704Y-306648723D01*
X714889998Y-306582964D01*
X715116270Y-306539823D01*
X715396851Y-306524098D01*
X716159255Y-306524098D01*
X716159255Y-309490000D01*
G37*
G36*
X712901389Y-306490041D02*
G01*
X713059750Y-306527980D01*
X713200506Y-306589243D01*
X713326343Y-306673941D01*
X713471196Y-306817815D01*
X713592935Y-306997122D01*
X713691425Y-307217625D01*
X713757789Y-307451903D01*
X713799538Y-307716189D01*
X713814157Y-308014651D01*
X713799386Y-308318926D01*
X713757495Y-308584356D01*
X713691425Y-308815889D01*
X713592896Y-309033227D01*
X713471180Y-309208949D01*
X713326343Y-309348949D01*
X713200892Y-309430609D01*
X713060253Y-309489864D01*
X712901747Y-309526642D01*
X712722025Y-309539459D01*
X712542640Y-309526385D01*
X712384290Y-309488837D01*
X712243601Y-309428244D01*
X712117890Y-309344553D01*
X711972901Y-309201941D01*
X711851179Y-309024032D01*
X711752808Y-308805081D01*
X711686499Y-308572245D01*
X711644724Y-308308739D01*
X711630076Y-308010254D01*
X712022086Y-308010254D01*
X712034567Y-308316878D01*
X712068608Y-308563464D01*
X712119790Y-308759615D01*
X712184752Y-308913892D01*
X712279927Y-309050772D01*
X712397871Y-309145889D01*
X712542592Y-309204358D01*
X712722025Y-309225118D01*
X712895849Y-309204790D01*
X713038304Y-309147132D01*
X713156549Y-309052673D01*
X713254169Y-308916090D01*
X713321301Y-308762485D01*
X713374134Y-308567001D01*
X713409263Y-308320974D01*
X713422147Y-308014651D01*
X713409729Y-307708347D01*
X713375783Y-307460732D01*
X713324607Y-307262593D01*
X713259481Y-307105701D01*
X713163898Y-306966125D01*
X713045722Y-306869444D01*
X712901065Y-306810173D01*
X712722025Y-306789162D01*
X712542837Y-306810080D01*
X712398178Y-306869049D01*
X712280129Y-306965136D01*
X712184752Y-307103686D01*
X712119690Y-307259498D01*
X712068511Y-307456790D01*
X712034529Y-307703922D01*
X712022086Y-308010254D01*
X711630076Y-308010254D01*
X711644805Y-307706018D01*
X711686658Y-307439475D01*
X711752808Y-307205901D01*
X711851371Y-306986372D01*
X711973111Y-306809311D01*
X712117890Y-306668628D01*
X712243419Y-306586372D01*
X712384053Y-306526727D01*
X712542471Y-306489726D01*
X712722025Y-306476837D01*
X712901389Y-306490041D01*
G37*
G36*
X711016599Y-309490000D02*
G01*
X710219574Y-309490000D01*
X710016496Y-309479472D01*
X709818039Y-309448051D01*
X709628518Y-309391612D01*
X709460467Y-309309016D01*
X709316263Y-309195816D01*
X709204195Y-309049630D01*
X709152612Y-308937307D01*
X709119875Y-308803447D01*
X709109157Y-308656521D01*
X709502416Y-308656521D01*
X709515420Y-308799543D01*
X709550630Y-308907828D01*
X709604815Y-308989363D01*
X709718803Y-309083894D01*
X709857789Y-309142320D01*
X710008610Y-309172281D01*
X710155094Y-309182070D01*
X710644007Y-309182070D01*
X710644007Y-308094335D01*
X710137691Y-308094335D01*
X709970014Y-308106566D01*
X709821153Y-308141779D01*
X709690893Y-308207825D01*
X709589610Y-308310856D01*
X709543800Y-308396439D01*
X709513600Y-308509183D01*
X709502416Y-308656521D01*
X709109157Y-308656521D01*
X709108208Y-308643515D01*
X709120987Y-308479621D01*
X709156148Y-308349015D01*
X709210607Y-308245094D01*
X709326988Y-308114515D01*
X709469077Y-308022161D01*
X709627836Y-307959131D01*
X709788913Y-307919762D01*
X709651160Y-307875814D01*
X709520734Y-307807838D01*
X709406970Y-307715383D01*
X709316120Y-307595713D01*
X709258290Y-307452936D01*
X709239755Y-307290898D01*
X709620935Y-307290898D01*
X709638881Y-307458632D01*
X709687128Y-307580812D01*
X709761985Y-307668986D01*
X709862553Y-307731050D01*
X709994188Y-307771381D01*
X710165718Y-307786222D01*
X710644007Y-307786222D01*
X710644007Y-306825615D01*
X710202355Y-306825615D01*
X710025438Y-306839051D01*
X709886191Y-306875782D01*
X709777006Y-306932227D01*
X709693303Y-307015063D01*
X709640465Y-307130767D01*
X709620935Y-307290898D01*
X709239755Y-307290898D01*
X709237534Y-307271481D01*
X709248381Y-307128868D01*
X709278833Y-307009663D01*
X709326927Y-306909696D01*
X709431379Y-306780456D01*
X709567079Y-306680352D01*
X709724997Y-306608299D01*
X709905233Y-306559635D01*
X710093868Y-306533016D01*
X710286435Y-306524098D01*
X711016599Y-306524098D01*
X711016599Y-309490000D01*
G37*
G36*
X707737119Y-306490041D02*
G01*
X707895480Y-306527980D01*
X708036235Y-306589243D01*
X708162072Y-306673941D01*
X708306925Y-306817815D01*
X708428664Y-306997122D01*
X708527154Y-307217625D01*
X708593519Y-307451903D01*
X708635268Y-307716189D01*
X708649886Y-308014651D01*
X708635115Y-308318926D01*
X708593225Y-308584356D01*
X708527154Y-308815889D01*
X708428625Y-309033227D01*
X708306909Y-309208949D01*
X708162072Y-309348949D01*
X708036621Y-309430609D01*
X707895982Y-309489864D01*
X707737476Y-309526642D01*
X707557754Y-309539459D01*
X707378369Y-309526385D01*
X707220020Y-309488837D01*
X707079330Y-309428244D01*
X706953620Y-309344553D01*
X706808631Y-309201941D01*
X706686908Y-309024032D01*
X706588538Y-308805081D01*
X706522228Y-308572245D01*
X706480453Y-308308739D01*
X706465806Y-308010254D01*
X706857815Y-308010254D01*
X706870297Y-308316878D01*
X706904337Y-308563464D01*
X706955520Y-308759615D01*
X707020481Y-308913892D01*
X707115656Y-309050772D01*
X707233601Y-309145889D01*
X707378322Y-309204358D01*
X707557754Y-309225118D01*
X707731579Y-309204790D01*
X707874034Y-309147132D01*
X707992278Y-309052673D01*
X708089898Y-308916090D01*
X708157031Y-308762485D01*
X708209863Y-308567001D01*
X708244993Y-308320974D01*
X708257876Y-308014651D01*
X708245458Y-307708347D01*
X708211513Y-307460732D01*
X708160336Y-307262593D01*
X708095211Y-307105701D01*
X707999627Y-306966125D01*
X707881451Y-306869444D01*
X707736795Y-306810173D01*
X707557754Y-306789162D01*
X707378566Y-306810080D01*
X707233908Y-306869049D01*
X707115858Y-306965136D01*
X707020481Y-307103686D01*
X706955419Y-307259498D01*
X706904241Y-307456790D01*
X706870258Y-307703922D01*
X706857815Y-308010254D01*
X706465806Y-308010254D01*
X706480534Y-307706018D01*
X706522388Y-307439475D01*
X706588538Y-307205901D01*
X706687100Y-306986372D01*
X706808841Y-306809311D01*
X706953620Y-306668628D01*
X707079148Y-306586372D01*
X707219782Y-306526727D01*
X707378201Y-306489726D01*
X707557754Y-306476837D01*
X707737119Y-306490041D01*
G37*
G36*
X704796833Y-306845033D02*
G01*
X704796833Y-309490000D01*
X705169426Y-309490000D01*
X705169426Y-306845033D01*
X706095594Y-306845033D01*
X706095594Y-306524098D01*
X703857841Y-306524098D01*
X703896493Y-306845033D01*
X704796833Y-306845033D01*
G37*
G36*
X701544984Y-306524098D02*
G01*
X701544984Y-306823600D01*
X702204073Y-306823600D01*
X702204073Y-309190680D01*
X701544984Y-309190680D01*
X701544984Y-309490000D01*
X703242166Y-309490000D01*
X703242166Y-309190680D01*
X702583077Y-309190680D01*
X702583077Y-306823600D01*
X703242166Y-306823600D01*
X703242166Y-306524098D01*
X701544984Y-306524098D01*
G37*
G36*
X699561488Y-306476837D02*
G01*
X699368087Y-306485963D01*
X699207481Y-306511256D01*
X699074773Y-306550109D01*
X698885446Y-306639412D01*
X698702180Y-306765348D01*
X698911008Y-307008797D01*
X699057199Y-306906116D01*
X699207397Y-306839720D01*
X699366250Y-306801910D01*
X699533461Y-306789162D01*
X699692753Y-306802142D01*
X699842104Y-306840487D01*
X699983722Y-306904384D01*
X700108614Y-306994290D01*
X700219414Y-307119204D01*
X700316564Y-307285586D01*
X700382229Y-307467616D01*
X700426144Y-307703613D01*
X700442411Y-308006041D01*
X700427098Y-308299830D01*
X700385517Y-308532362D01*
X700322976Y-308714590D01*
X700229839Y-308881893D01*
X700121879Y-309008293D01*
X699998743Y-309100188D01*
X699858249Y-309165504D01*
X699706894Y-309205030D01*
X699542070Y-309218524D01*
X699377968Y-309209158D01*
X699242831Y-309183221D01*
X699131926Y-309143236D01*
X698977847Y-309060548D01*
X698852939Y-308970861D01*
X698659132Y-309216509D01*
X698810001Y-309335601D01*
X699012308Y-309443654D01*
X699160465Y-309494832D01*
X699336828Y-309527701D01*
X699546467Y-309539459D01*
X699782718Y-309519448D01*
X699998952Y-309460863D01*
X700199145Y-309363970D01*
X700376753Y-309231015D01*
X700530001Y-309060142D01*
X700660031Y-308846114D01*
X700751304Y-308611737D01*
X700809482Y-308334415D01*
X700830207Y-308006041D01*
X700809073Y-307676336D01*
X700749814Y-307398812D01*
X700656917Y-307165052D01*
X700525032Y-306951470D01*
X700371380Y-306781680D01*
X700194931Y-306650310D01*
X699996483Y-306554027D01*
X699786500Y-306496362D01*
X699561488Y-306476837D01*
G37*
G36*
X696210537Y-308669344D02*
G01*
X696225186Y-308836388D01*
X696267737Y-308986029D01*
X696337665Y-309121620D01*
X696433018Y-309240709D01*
X696554825Y-309342854D01*
X696706960Y-309428633D01*
X696872159Y-309488111D01*
X697066097Y-309525995D01*
X697293876Y-309539459D01*
X697508885Y-309527915D01*
X697704461Y-309494504D01*
X697882990Y-309440540D01*
X698052625Y-309364169D01*
X698202347Y-309270858D01*
X698334167Y-309160455D01*
X698112334Y-308910594D01*
X697948286Y-309039678D01*
X697759159Y-309140122D01*
X697623001Y-309185982D01*
X697466847Y-309214927D01*
X697287465Y-309225118D01*
X697110894Y-309210055D01*
X696949310Y-309165950D01*
X696805838Y-309090150D01*
X696695054Y-308984966D01*
X696642403Y-308899080D01*
X696609702Y-308797338D01*
X696598150Y-308675755D01*
X696612873Y-308540540D01*
X696654204Y-308431390D01*
X696727572Y-308338835D01*
X696852407Y-308250406D01*
X697010065Y-308177536D01*
X697248630Y-308096533D01*
X697529915Y-308001571D01*
X697755861Y-307901627D01*
X697892254Y-307820631D01*
X698001670Y-307731602D01*
X698087604Y-307634548D01*
X698151409Y-307523540D01*
X698191053Y-307393311D01*
X698205024Y-307239241D01*
X698191072Y-307095297D01*
X698150232Y-306964962D01*
X698082292Y-306845216D01*
X697991659Y-306740188D01*
X697879541Y-306650207D01*
X697743039Y-306574839D01*
X697595667Y-306521571D01*
X697430441Y-306488395D01*
X697244417Y-306476837D01*
X697040221Y-306487348D01*
X696862999Y-306517114D01*
X696709159Y-306564031D01*
X696492742Y-306670138D01*
X696296632Y-306814991D01*
X696516268Y-307058257D01*
X696683437Y-306936074D01*
X696858818Y-306853825D01*
X697043992Y-306805237D01*
X697231411Y-306789162D01*
X697390684Y-306801900D01*
X697528728Y-306838285D01*
X697649249Y-306896873D01*
X697745795Y-306980838D01*
X697803302Y-307088057D01*
X697823639Y-307226235D01*
X697805890Y-307347812D01*
X697754762Y-307447152D01*
X697669185Y-307529976D01*
X697522304Y-307616229D01*
X697342492Y-307689926D01*
X697076256Y-307775598D01*
X696852025Y-307851504D01*
X696648892Y-307942477D01*
X696524738Y-308018085D01*
X696419463Y-308108329D01*
X696331254Y-308213953D01*
X696266852Y-308333797D01*
X696225504Y-308483166D01*
X696210537Y-308669344D01*
G37*
%LPC*%
D11*
%TO.C,U3*%
X236700000Y-301500000D03*
%TD*%
%TO.C,U6*%
X491700000Y-301500000D03*
%TD*%
D12*
%TO.C,REF\u002A\u002A*%
X435878324Y-307500000D03*
%TD*%
D11*
%TO.C,U9*%
X746700000Y-301500000D03*
%TD*%
%TO.C,U1*%
X151700000Y-301500000D03*
%TD*%
%TO.C,U8*%
X661700000Y-301500000D03*
%TD*%
D12*
%TO.C,REF\u002A\u002A*%
X417500000Y-312000000D03*
%TD*%
D13*
%TO.C,J1*%
X433178810Y-302040000D03*
X433178810Y-299500000D03*
X435718810Y-302040000D03*
X435718810Y-299500000D03*
X438258810Y-302040000D03*
X438258810Y-299500000D03*
X440798810Y-302040000D03*
X440798810Y-299500000D03*
X443338810Y-302040000D03*
X443338810Y-299500000D03*
X445878810Y-302040000D03*
X445878810Y-299500000D03*
X448418810Y-302040000D03*
X448418810Y-299500000D03*
X450958810Y-302040000D03*
X450958810Y-299500000D03*
X453498810Y-302040000D03*
X453498810Y-299500000D03*
X456038810Y-302040000D03*
X456038810Y-299500000D03*
X458578810Y-302040000D03*
X458578810Y-299500000D03*
X461118810Y-302040000D03*
X461118810Y-299500000D03*
X463658810Y-302040000D03*
X463658810Y-299500000D03*
X466198810Y-302040000D03*
X466198810Y-299500000D03*
X468738810Y-302040000D03*
X468738810Y-299500000D03*
X471278810Y-302040000D03*
X471278810Y-299500000D03*
X473818810Y-302040000D03*
X473818810Y-299500000D03*
X476358810Y-302040000D03*
X476358810Y-299500000D03*
X478898810Y-302040000D03*
X478898810Y-299500000D03*
X481438810Y-302040000D03*
D14*
X481438810Y-299500000D03*
%TD*%
D12*
%TO.C,REF\u002A\u002A*%
X480500000Y-312000000D03*
%TD*%
D11*
%TO.C,U4*%
X321700000Y-301500000D03*
%TD*%
%TO.C,U5*%
X406700000Y-301500000D03*
%TD*%
%TO.C,U7*%
X576700000Y-301500000D03*
%TD*%
D12*
%TO.C,REF\u002A\u002A*%
X462126451Y-307500000D03*
%TD*%
%LPD*%
M02*
