M48
; DRILL file {KiCad 9.0.1-9.0.1-0~ubuntu22.04.1} date 2025-06-14T14:29:27+0200
; FORMAT={-:-/ absolute / inch / decimal}
; #@! TF.CreationDate,2025-06-14T14:29:27+02:00
; #@! TF.GenerationSoftware,Kicad,Pcbnew,9.0.1-9.0.1-0~ubuntu22.04.1
; #@! TF.FileFunction,Plated,1,2,Blind
FMAT,2
INCH
; #@! TA.AperFunction,Plated,Buried,ViaDrill
T1C0.0118
%
G90
G05
T1
X0.315Y0.6693
X0.3346Y0.5315
X3.5512Y0.4606
X3.6614Y0.6693
X3.6811Y0.5315
X7.0079Y0.6693
X7.0276Y0.5315
X10.2441Y0.4606
X10.3543Y0.6693
X10.374Y0.5315
X10.5756Y0.5768
X10.5775Y0.5
X10.609Y0.7087
X10.6287Y0.4331
X10.7283Y0.5512
X10.8649Y0.4331
X10.9043Y0.4331
X10.9456Y0.628
X11.0263Y0.5886
X11.0433Y0.689
X11.0694Y0.502
X13.7193Y0.5327
X13.7205Y0.6693
X16.937Y0.4528
X17.0669Y0.6693
X17.0669Y0.5315
X20.3937Y0.6693
X20.4134Y0.5315
X23.6299Y0.4606
X23.7402Y0.6693
X23.7598Y0.5315
M30
