%TF.GenerationSoftware,KiCad,Pcbnew,9.0.1-9.0.1-0~ubuntu22.04.1*%
%TF.CreationDate,2025-06-14T14:29:27+02:00*%
%TF.ProjectId,recorder,7265636f-7264-4657-922e-6b696361645f,rev?*%
%TF.SameCoordinates,Original*%
%TF.FileFunction,Soldermask,Bot*%
%TF.FilePolarity,Negative*%
%FSLAX46Y46*%
G04 Gerber Fmt 4.6, Leading zero omitted, Abs format (unit mm)*
G04 Created by KiCad (PCBNEW 9.0.1-9.0.1-0~ubuntu22.04.1) date 2025-06-14 14:29:27*
%MOMM*%
%LPD*%
G01*
G04 APERTURE LIST*
%ADD10C,2.200000*%
%ADD11C,0.800000*%
%ADD12R,1.700000X1.700000*%
%ADD13O,1.700000X1.700000*%
G04 APERTURE END LIST*
D10*
%TO.C,REF\u002A\u002A*%
X317126451Y7500000D03*
%TD*%
D11*
%TO.C,U7*%
X431700000Y13500000D03*
%TD*%
%TO.C,U5*%
X261700000Y13500000D03*
%TD*%
%TO.C,U4*%
X176700000Y13500000D03*
%TD*%
D10*
%TO.C,REF\u002A\u002A*%
X335500000Y3000000D03*
%TD*%
D12*
%TO.C,J1*%
X336438810Y15500000D03*
D13*
X336438810Y12960000D03*
X333898810Y15500000D03*
X333898810Y12960000D03*
X331358810Y15500000D03*
X331358810Y12960000D03*
X328818810Y15500000D03*
X328818810Y12960000D03*
X326278810Y15500000D03*
X326278810Y12960000D03*
X323738810Y15500000D03*
X323738810Y12960000D03*
X321198810Y15500000D03*
X321198810Y12960000D03*
X318658810Y15500000D03*
X318658810Y12960000D03*
X316118810Y15500000D03*
X316118810Y12960000D03*
X313578810Y15500000D03*
X313578810Y12960000D03*
X311038810Y15500000D03*
X311038810Y12960000D03*
X308498810Y15500000D03*
X308498810Y12960000D03*
X305958810Y15500000D03*
X305958810Y12960000D03*
X303418810Y15500000D03*
X303418810Y12960000D03*
X300878810Y15500000D03*
X300878810Y12960000D03*
X298338810Y15500000D03*
X298338810Y12960000D03*
X295798810Y15500000D03*
X295798810Y12960000D03*
X293258810Y15500000D03*
X293258810Y12960000D03*
X290718810Y15500000D03*
X290718810Y12960000D03*
X288178810Y15500000D03*
X288178810Y12960000D03*
%TD*%
D10*
%TO.C,REF\u002A\u002A*%
X272500000Y3000000D03*
%TD*%
D11*
%TO.C,U8*%
X516700000Y13500000D03*
%TD*%
%TO.C,U1*%
X6700000Y13500000D03*
%TD*%
%TO.C,U9*%
X601700000Y13500000D03*
%TD*%
D10*
%TO.C,REF\u002A\u002A*%
X290878324Y7500000D03*
%TD*%
D11*
%TO.C,U6*%
X346700000Y13500000D03*
%TD*%
%TO.C,U3*%
X91700000Y13500000D03*
%TD*%
M02*
