%TF.GenerationSoftware,KiCad,Pcbnew,9.0.1-9.0.1-0~ubuntu22.04.1*%
%TF.CreationDate,2025-06-14T14:29:27+02:00*%
%TF.ProjectId,recorder,7265636f-7264-4657-922e-6b696361645f,rev?*%
%TF.SameCoordinates,Original*%
%TF.FileFunction,Legend,Top*%
%TF.FilePolarity,Positive*%
%FSLAX46Y46*%
G04 Gerber Fmt 4.6, Leading zero omitted, Abs format (unit mm)*
G04 Created by KiCad (PCBNEW 9.0.1-9.0.1-0~ubuntu22.04.1) date 2025-06-14 14:29:27*
%MOMM*%
%LPD*%
G01*
G04 APERTURE LIST*
G04 Aperture macros list*
%AMRoundRect*
0 Rectangle with rounded corners*
0 $1 Rounding radius*
0 $2 $3 $4 $5 $6 $7 $8 $9 X,Y pos of 4 corners*
0 Add a 4 corners polygon primitive as box body*
4,1,4,$2,$3,$4,$5,$6,$7,$8,$9,$2,$3,0*
0 Add four circle primitives for the rounded corners*
1,1,$1+$1,$2,$3*
1,1,$1+$1,$4,$5*
1,1,$1+$1,$6,$7*
1,1,$1+$1,$8,$9*
0 Add four rect primitives between the rounded corners*
20,1,$1+$1,$2,$3,$4,$5,0*
20,1,$1+$1,$4,$5,$6,$7,0*
20,1,$1+$1,$6,$7,$8,$9,0*
20,1,$1+$1,$8,$9,$2,$3,0*%
%AMFreePoly0*
4,1,92,0.117526,0.333263,0.309794,0.295018,0.328553,0.289328,0.509665,0.214309,0.526954,0.205068,0.689950,0.096157,0.705104,0.083721,0.843721,-0.054896,0.856157,-0.070050,0.965068,-0.233046,0.974309,-0.250335,1.049328,-0.431447,1.055018,-0.450206,1.093263,-0.642474,1.095185,-0.661983,1.095185,-0.858017,1.093263,-0.877526,1.055018,-1.069794,1.049328,-1.088553,0.974309,-1.269665,
0.965068,-1.286954,0.856157,-1.449950,0.843721,-1.465104,0.705104,-1.603721,0.689950,-1.616157,0.526954,-1.725068,0.509665,-1.734309,0.328553,-1.809328,0.309794,-1.815018,0.117526,-1.853263,0.098017,-1.855185,-0.098017,-1.855185,-0.117526,-1.853263,-0.309794,-1.815018,-0.328553,-1.809328,-0.509665,-1.734309,-0.526954,-1.725068,-0.689950,-1.616157,-0.705104,-1.603721,-0.843721,-1.465104,
-0.856157,-1.449950,-0.965068,-1.286954,-0.974309,-1.269665,-1.049328,-1.088553,-1.055018,-1.069794,-1.093263,-0.877526,-1.095185,-0.858017,-1.095185,-0.694175,-0.500000,-0.694175,-0.500000,-0.825824,-0.465924,-0.952995,-0.400101,-1.067003,-0.307003,-1.160101,-0.192995,-1.225924,-0.065824,-1.260000,0.065824,-1.260000,0.192995,-1.225924,0.307003,-1.160101,0.400101,-1.067003,0.465924,-0.952995,
0.500000,-0.825824,0.500000,-0.694175,0.465924,-0.567004,0.400101,-0.452996,0.307003,-0.359898,0.192995,-0.294075,0.065824,-0.260000,-0.065824,-0.260000,-0.192995,-0.294075,-0.307003,-0.359898,-0.400101,-0.452996,-0.465924,-0.567004,-0.500000,-0.694175,-1.095185,-0.694175,-1.095185,-0.661983,-1.093263,-0.642474,-1.055018,-0.450206,-1.049328,-0.431447,-0.974309,-0.250335,-0.965068,-0.233046,
-0.856157,-0.070050,-0.843721,-0.054896,-0.705104,0.083721,-0.689950,0.096157,-0.526954,0.205068,-0.509665,0.214309,-0.328553,0.289328,-0.309794,0.295018,-0.117526,0.333263,-0.098017,0.335185,0.098017,0.335185,0.117526,0.333263,0.117526,0.333263,$1*%
G04 Aperture macros list end*
%ADD10C,0.100000*%
%ADD11C,0.150000*%
%ADD12C,0.120000*%
%ADD13C,0.050000*%
%ADD14C,0.200000*%
%ADD15C,0.250000*%
%ADD16RoundRect,0.225000X0.225000X0.250000X-0.225000X0.250000X-0.225000X-0.250000X0.225000X-0.250000X0*%
%ADD17RoundRect,0.200000X0.275000X-0.200000X0.275000X0.200000X-0.275000X0.200000X-0.275000X-0.200000X0*%
%ADD18C,2.200000*%
%ADD19C,0.800000*%
%ADD20RoundRect,0.090000X0.210000X-0.360000X0.210000X0.360000X-0.210000X0.360000X-0.210000X-0.360000X0*%
%ADD21FreePoly0,90.000000*%
%ADD22RoundRect,0.225000X0.250000X-0.225000X0.250000X0.225000X-0.250000X0.225000X-0.250000X-0.225000X0*%
%ADD23R,1.700000X1.700000*%
%ADD24O,1.700000X1.700000*%
%ADD25RoundRect,0.200000X0.200000X0.275000X-0.200000X0.275000X-0.200000X-0.275000X0.200000X-0.275000X0*%
%ADD26RoundRect,0.200000X-0.200000X-0.275000X0.200000X-0.275000X0.200000X0.275000X-0.200000X0.275000X0*%
%ADD27O,0.264000X0.960000*%
%ADD28O,0.960000X0.264000*%
%ADD29R,1.750000X1.750000*%
%ADD30RoundRect,0.225000X-0.250000X0.225000X-0.250000X-0.225000X0.250000X-0.225000X0.250000X0.225000X0*%
%ADD31RoundRect,0.200000X-0.275000X0.200000X-0.275000X-0.200000X0.275000X-0.200000X0.275000X0.200000X0*%
%ADD32RoundRect,0.225000X-0.225000X-0.250000X0.225000X-0.250000X0.225000X0.250000X-0.225000X0.250000X0*%
%ADD33R,0.315831X1.207120*%
%ADD34R,1.207120X0.315831*%
%ADD35R,3.149999X3.149999*%
G04 APERTURE END LIST*
D10*
G36*
X5234891Y2840000D02*
G01*
X5234891Y3777649D01*
X4488241Y3777649D01*
X4488241Y2840000D01*
X4239846Y2840000D01*
X4239846Y4817268D01*
X4488241Y4817268D01*
X4488241Y3981592D01*
X5234891Y3981592D01*
X5234891Y4817268D01*
X5483286Y4817268D01*
X5483286Y2840000D01*
X5234891Y2840000D01*
G37*
G36*
X6702692Y4840183D02*
G01*
X6808304Y4815516D01*
X6902061Y4775752D01*
X6985746Y4720915D01*
X7082266Y4627126D01*
X7163426Y4509086D01*
X7229134Y4362733D01*
X7273234Y4207017D01*
X7301136Y4029322D01*
X7310956Y3826497D01*
X7301190Y3627508D01*
X7273340Y3451837D01*
X7229134Y3296613D01*
X7163554Y3150646D01*
X7082405Y3032039D01*
X6985746Y2936965D01*
X6901939Y2881171D01*
X6808146Y2840776D01*
X6702580Y2815743D01*
X6582990Y2807028D01*
X6463175Y2815572D01*
X6357504Y2840091D01*
X6263745Y2879594D01*
X6180111Y2934034D01*
X6083553Y3027367D01*
X6002409Y3144516D01*
X5936723Y3289407D01*
X5892676Y3443763D01*
X5864749Y3620716D01*
X5854902Y3823566D01*
X6116242Y3823566D01*
X6124831Y3619351D01*
X6148250Y3455333D01*
X6183472Y3325010D01*
X6228227Y3222607D01*
X6293307Y3131551D01*
X6372137Y3068579D01*
X6467107Y3030140D01*
X6582990Y3016588D01*
X6702612Y3030428D01*
X6799092Y3069407D01*
X6877722Y3132819D01*
X6941172Y3224072D01*
X6984479Y3326924D01*
X7018601Y3457691D01*
X7041295Y3622082D01*
X7049616Y3826497D01*
X7041321Y4030719D01*
X7018665Y4195473D01*
X6984546Y4327002D01*
X6941172Y4430876D01*
X6877587Y4523243D01*
X6798887Y4587301D01*
X6702449Y4626614D01*
X6582990Y4640559D01*
X6463629Y4626551D01*
X6367192Y4587038D01*
X6288408Y4522584D01*
X6224685Y4429533D01*
X6181268Y4324938D01*
X6147151Y4192846D01*
X6124520Y4027769D01*
X6116242Y3823566D01*
X5854902Y3823566D01*
X5864647Y4022541D01*
X5892480Y4198732D01*
X5936723Y4354917D01*
X6002383Y4501919D01*
X6083542Y4621457D01*
X6180111Y4717373D01*
X6264002Y4773838D01*
X6357839Y4814680D01*
X6463413Y4839973D01*
X6582990Y4848776D01*
X6702692Y4840183D01*
G37*
G36*
X8087526Y4613326D02*
G01*
X8087526Y3921264D01*
X8862997Y3921264D01*
X8862997Y3720252D01*
X8087526Y3720252D01*
X8087526Y2840000D01*
X7840596Y2840000D01*
X7840596Y4817268D01*
X9005146Y4817268D01*
X8974982Y4613326D01*
X8087526Y4613326D01*
G37*
G36*
X10687735Y4817268D02*
G01*
X10799720Y2840000D01*
X10559996Y2840000D01*
X10498203Y3872415D01*
X10487456Y4153783D01*
X10482449Y4414390D01*
X10482449Y4588901D01*
X10149302Y3194641D01*
X9899441Y3194641D01*
X9541870Y4588901D01*
X9546144Y4410848D01*
X9546144Y4143769D01*
X9539061Y3875224D01*
X9485938Y2840000D01*
X9251831Y2840000D01*
X9363817Y4817268D01*
X9711374Y4817268D01*
X10031577Y3463186D01*
X10337369Y4817268D01*
X10687735Y4817268D01*
G37*
G36*
X11495935Y4613326D02*
G01*
X11495935Y3947031D01*
X12228297Y3947031D01*
X12228297Y3741745D01*
X11495935Y3741745D01*
X11495935Y3039547D01*
X12394870Y3039547D01*
X12394870Y2840000D01*
X11246074Y2840000D01*
X11246074Y4817268D01*
X12368981Y4817268D01*
X12340282Y4613326D01*
X11495935Y4613326D01*
G37*
G36*
X14034351Y4817268D02*
G01*
X14034351Y4617600D01*
X13594958Y4617600D01*
X13594958Y3039547D01*
X14034351Y3039547D01*
X14034351Y2840000D01*
X12902896Y2840000D01*
X12902896Y3039547D01*
X13342288Y3039547D01*
X13342288Y4617600D01*
X12902896Y4617600D01*
X12902896Y4817268D01*
X14034351Y4817268D01*
G37*
G36*
X15869225Y3387104D02*
G01*
X15859459Y3275742D01*
X15831091Y3175981D01*
X15784473Y3085587D01*
X15720904Y3006194D01*
X15639700Y2938097D01*
X15538276Y2880911D01*
X15428143Y2841259D01*
X15298851Y2816004D01*
X15146999Y2807028D01*
X15003660Y2814723D01*
X14873275Y2836998D01*
X14754256Y2872973D01*
X14641166Y2923888D01*
X14541352Y2986095D01*
X14453471Y3059697D01*
X14601360Y3226271D01*
X14710725Y3140215D01*
X14836810Y3073252D01*
X14927582Y3042679D01*
X15031685Y3023382D01*
X15151273Y3016588D01*
X15268987Y3026630D01*
X15376709Y3056033D01*
X15472357Y3106567D01*
X15546214Y3176689D01*
X15581314Y3233947D01*
X15603115Y3301775D01*
X15610816Y3382830D01*
X15601001Y3472974D01*
X15573447Y3545740D01*
X15524535Y3607443D01*
X15441311Y3666396D01*
X15336206Y3714976D01*
X15177163Y3768978D01*
X14989639Y3832286D01*
X14839009Y3898915D01*
X14748080Y3952913D01*
X14675136Y4012266D01*
X14617847Y4076968D01*
X14575310Y4150973D01*
X14548881Y4237793D01*
X14539567Y4340506D01*
X14548868Y4436469D01*
X14576095Y4523359D01*
X14621388Y4603190D01*
X14681810Y4673208D01*
X14756555Y4733196D01*
X14847557Y4783441D01*
X14945805Y4818953D01*
X15055955Y4841070D01*
X15179972Y4848776D01*
X15316102Y4841768D01*
X15434250Y4821924D01*
X15536810Y4790646D01*
X15681088Y4719908D01*
X15811828Y4623340D01*
X15665404Y4461162D01*
X15553958Y4542618D01*
X15437037Y4597450D01*
X15313588Y4629842D01*
X15188642Y4640559D01*
X15082460Y4632067D01*
X14990431Y4607810D01*
X14910083Y4568751D01*
X14845719Y4512775D01*
X14807381Y4441295D01*
X14793824Y4349177D01*
X14805656Y4268125D01*
X14839741Y4201899D01*
X14896793Y4146683D01*
X14994713Y4089181D01*
X15114588Y4040050D01*
X15292079Y3982935D01*
X15441566Y3932331D01*
X15576988Y3871682D01*
X15659757Y3821277D01*
X15729941Y3761114D01*
X15788747Y3690698D01*
X15831682Y3610802D01*
X15859247Y3511223D01*
X15869225Y3387104D01*
G37*
G36*
X17030722Y4603312D02*
G01*
X17030722Y2840000D01*
X16782327Y2840000D01*
X16782327Y4603312D01*
X16164881Y4603312D01*
X16164881Y4817268D01*
X17656716Y4817268D01*
X17630949Y4603312D01*
X17030722Y4603312D01*
G37*
G36*
X18381629Y4613326D02*
G01*
X18381629Y3947031D01*
X19113991Y3947031D01*
X19113991Y3741745D01*
X18381629Y3741745D01*
X18381629Y3039547D01*
X19280565Y3039547D01*
X19280565Y2840000D01*
X18131769Y2840000D01*
X18131769Y4817268D01*
X19254675Y4817268D01*
X19225976Y4613326D01*
X18381629Y4613326D01*
G37*
G36*
X20479639Y4806785D02*
G01*
X20630487Y4778024D01*
X20751349Y4734185D01*
X20847505Y4677195D01*
X20928978Y4600262D01*
X20987225Y4507923D01*
X21023539Y4397072D01*
X21036427Y4262959D01*
X21027098Y4153533D01*
X21000412Y4058782D01*
X20957259Y3976027D01*
X20897086Y3903312D01*
X20798042Y3822338D01*
X20684434Y3760446D01*
X20553925Y3717321D01*
X21139741Y2840000D01*
X20841154Y2840000D01*
X20301256Y3688622D01*
X20034176Y3688622D01*
X20034176Y2840000D01*
X19784316Y2840000D01*
X19784316Y3883894D01*
X20034176Y3883894D01*
X20321284Y3883894D01*
X20460778Y3894923D01*
X20568653Y3924884D01*
X20651622Y3970723D01*
X20700730Y4018480D01*
X20737151Y4080610D01*
X20760725Y4160513D01*
X20769347Y4262959D01*
X20761368Y4357382D01*
X20739457Y4431745D01*
X20705450Y4490219D01*
X20659438Y4535779D01*
X20581468Y4578823D01*
X20472038Y4607995D01*
X20321284Y4619065D01*
X20034176Y4619065D01*
X20034176Y3883894D01*
X19784316Y3883894D01*
X19784316Y4817268D01*
X20292585Y4817268D01*
X20479639Y4806785D01*
G37*
G36*
X23922486Y4806785D02*
G01*
X24073334Y4778024D01*
X24194196Y4734185D01*
X24290352Y4677195D01*
X24371825Y4600262D01*
X24430073Y4507923D01*
X24466386Y4397072D01*
X24479274Y4262959D01*
X24469946Y4153533D01*
X24443259Y4058782D01*
X24400106Y3976027D01*
X24339933Y3903312D01*
X24240889Y3822338D01*
X24127281Y3760446D01*
X23996772Y3717321D01*
X24582588Y2840000D01*
X24284002Y2840000D01*
X23744103Y3688622D01*
X23477023Y3688622D01*
X23477023Y2840000D01*
X23227163Y2840000D01*
X23227163Y3883894D01*
X23477023Y3883894D01*
X23764131Y3883894D01*
X23903626Y3894923D01*
X24011500Y3924884D01*
X24094469Y3970723D01*
X24143577Y4018480D01*
X24179998Y4080610D01*
X24203572Y4160513D01*
X24212194Y4262959D01*
X24204215Y4357382D01*
X24182304Y4431745D01*
X24148297Y4490219D01*
X24102285Y4535779D01*
X24024316Y4578823D01*
X23914886Y4607995D01*
X23764131Y4619065D01*
X23477023Y4619065D01*
X23477023Y3883894D01*
X23227163Y3883894D01*
X23227163Y4817268D01*
X23735432Y4817268D01*
X23922486Y4806785D01*
G37*
G36*
X25638352Y4840183D02*
G01*
X25743964Y4815516D01*
X25837720Y4775752D01*
X25921406Y4720915D01*
X26017925Y4627126D01*
X26099085Y4509086D01*
X26164794Y4362733D01*
X26208894Y4207017D01*
X26236796Y4029322D01*
X26246615Y3826497D01*
X26236850Y3627508D01*
X26209000Y3451837D01*
X26164794Y3296613D01*
X26099213Y3150646D01*
X26018065Y3032039D01*
X25921406Y2936965D01*
X25837599Y2881171D01*
X25743806Y2840776D01*
X25638239Y2815743D01*
X25518649Y2807028D01*
X25398835Y2815572D01*
X25293164Y2840091D01*
X25199405Y2879594D01*
X25115771Y2934034D01*
X25019212Y3027367D01*
X24938069Y3144516D01*
X24872383Y3289407D01*
X24828336Y3443763D01*
X24800409Y3620716D01*
X24790561Y3823566D01*
X25051901Y3823566D01*
X25060490Y3619351D01*
X25083910Y3455333D01*
X25119132Y3325010D01*
X25163886Y3222607D01*
X25228966Y3131551D01*
X25307796Y3068579D01*
X25402766Y3030140D01*
X25518649Y3016588D01*
X25638271Y3030428D01*
X25734752Y3069407D01*
X25813381Y3132819D01*
X25876831Y3224072D01*
X25920139Y3326924D01*
X25954260Y3457691D01*
X25976954Y3622082D01*
X25985275Y3826497D01*
X25976980Y4030719D01*
X25954325Y4195473D01*
X25920206Y4327002D01*
X25876831Y4430876D01*
X25813247Y4523243D01*
X25734547Y4587301D01*
X25638108Y4626614D01*
X25518649Y4640559D01*
X25399289Y4626551D01*
X25302851Y4587038D01*
X25224067Y4522584D01*
X25160345Y4429533D01*
X25116928Y4324938D01*
X25082810Y4192846D01*
X25060180Y4027769D01*
X25051901Y3823566D01*
X24790561Y3823566D01*
X24800307Y4022541D01*
X24828140Y4198732D01*
X24872383Y4354917D01*
X24938042Y4501919D01*
X25019202Y4621457D01*
X25115771Y4717373D01*
X25199662Y4773838D01*
X25293499Y4814680D01*
X25399073Y4839973D01*
X25518649Y4848776D01*
X25638352Y4840183D01*
G37*
G36*
X27270754Y4811323D02*
G01*
X27396510Y4793577D01*
X27516668Y4761134D01*
X27621946Y4713099D01*
X27712413Y4646363D01*
X27782048Y4560203D01*
X27814110Y4493558D01*
X27834412Y4414088D01*
X27841643Y4319013D01*
X27827806Y4198043D01*
X27789253Y4102858D01*
X27728686Y4023078D01*
X27652843Y3961442D01*
X27565892Y3916124D01*
X27474057Y3886825D01*
X27581442Y3860580D01*
X27687281Y3818559D01*
X27782007Y3756990D01*
X27859595Y3669938D01*
X27895900Y3600657D01*
X27919341Y3513586D01*
X27927861Y3404324D01*
X27920083Y3297702D01*
X27898258Y3208462D01*
X27863869Y3133580D01*
X27789157Y3036123D01*
X27693021Y2960656D01*
X27580987Y2905592D01*
X27454640Y2867966D01*
X27322335Y2847019D01*
X27186950Y2840000D01*
X26655600Y2840000D01*
X26655600Y3045287D01*
X26903995Y3045287D01*
X27229937Y3045287D01*
X27327593Y3051813D01*
X27428140Y3071787D01*
X27520797Y3110738D01*
X27596789Y3173758D01*
X27632913Y3228115D01*
X27656386Y3300305D01*
X27665055Y3395653D01*
X27657599Y3493878D01*
X27637466Y3569041D01*
X27606926Y3626096D01*
X27539404Y3694784D01*
X27452564Y3738814D01*
X27353323Y3762290D01*
X27241538Y3770444D01*
X26903995Y3770444D01*
X26903995Y3045287D01*
X26655600Y3045287D01*
X26655600Y3975852D01*
X26903995Y3975852D01*
X27222854Y3975852D01*
X27337207Y3985746D01*
X27424964Y4012634D01*
X27492009Y4054010D01*
X27541914Y4112792D01*
X27574079Y4194246D01*
X27586043Y4306068D01*
X27573022Y4412822D01*
X27537797Y4489958D01*
X27481995Y4545182D01*
X27409205Y4582812D01*
X27316374Y4607300D01*
X27198429Y4616257D01*
X26903995Y4616257D01*
X26903995Y3975852D01*
X26655600Y3975852D01*
X26655600Y4817268D01*
X27142376Y4817268D01*
X27270754Y4811323D01*
G37*
G36*
X29081199Y4840183D02*
G01*
X29186811Y4815516D01*
X29280567Y4775752D01*
X29364253Y4720915D01*
X29460772Y4627126D01*
X29541932Y4509086D01*
X29607641Y4362733D01*
X29651741Y4207017D01*
X29679643Y4029322D01*
X29689462Y3826497D01*
X29679697Y3627508D01*
X29651847Y3451837D01*
X29607641Y3296613D01*
X29542060Y3150646D01*
X29460912Y3032039D01*
X29364253Y2936965D01*
X29280446Y2881171D01*
X29186653Y2840776D01*
X29081086Y2815743D01*
X28961496Y2807028D01*
X28841682Y2815572D01*
X28736011Y2840091D01*
X28642252Y2879594D01*
X28558618Y2934034D01*
X28462060Y3027367D01*
X28380916Y3144516D01*
X28315230Y3289407D01*
X28271183Y3443763D01*
X28243256Y3620716D01*
X28233408Y3823566D01*
X28494748Y3823566D01*
X28503337Y3619351D01*
X28526757Y3455333D01*
X28561979Y3325010D01*
X28606734Y3222607D01*
X28671814Y3131551D01*
X28750643Y3068579D01*
X28845613Y3030140D01*
X28961496Y3016588D01*
X29081118Y3030428D01*
X29177599Y3069407D01*
X29256228Y3132819D01*
X29319678Y3224072D01*
X29362986Y3326924D01*
X29397108Y3457691D01*
X29419801Y3622082D01*
X29428122Y3826497D01*
X29419827Y4030719D01*
X29397172Y4195473D01*
X29363053Y4327002D01*
X29319678Y4430876D01*
X29256094Y4523243D01*
X29177394Y4587301D01*
X29080955Y4626614D01*
X28961496Y4640559D01*
X28842136Y4626551D01*
X28745699Y4587038D01*
X28666915Y4522584D01*
X28603192Y4429533D01*
X28559775Y4324938D01*
X28525657Y4192846D01*
X28503027Y4027769D01*
X28494748Y3823566D01*
X28233408Y3823566D01*
X28243154Y4022541D01*
X28270987Y4198732D01*
X28315230Y4354917D01*
X28380890Y4501919D01*
X28462049Y4621457D01*
X28558618Y4717373D01*
X28642509Y4773838D01*
X28736346Y4814680D01*
X28841920Y4839973D01*
X28961496Y4848776D01*
X29081199Y4840183D01*
G37*
G36*
X30802110Y4603312D02*
G01*
X30802110Y2840000D01*
X30553715Y2840000D01*
X30553715Y4603312D01*
X29936270Y4603312D01*
X29936270Y4817268D01*
X31428105Y4817268D01*
X31402337Y4603312D01*
X30802110Y4603312D01*
G37*
G36*
X32970010Y4817268D02*
G01*
X32970010Y4617600D01*
X32530617Y4617600D01*
X32530617Y3039547D01*
X32970010Y3039547D01*
X32970010Y2840000D01*
X31838555Y2840000D01*
X31838555Y3039547D01*
X32277948Y3039547D01*
X32277948Y4617600D01*
X31838555Y4617600D01*
X31838555Y4817268D01*
X32970010Y4817268D01*
G37*
G36*
X34292341Y4848776D02*
G01*
X34421274Y4842691D01*
X34528345Y4825829D01*
X34616817Y4799927D01*
X34743035Y4740392D01*
X34865212Y4656435D01*
X34725994Y4494135D01*
X34628533Y4562589D01*
X34528401Y4606853D01*
X34422499Y4632060D01*
X34311025Y4640559D01*
X34204831Y4631906D01*
X34105263Y4606342D01*
X34010851Y4563744D01*
X33927590Y4503807D01*
X33853723Y4420531D01*
X33788956Y4309610D01*
X33745180Y4188256D01*
X33715903Y4030925D01*
X33705059Y3829306D01*
X33715267Y3633447D01*
X33742988Y3478425D01*
X33784682Y3356940D01*
X33846773Y3245405D01*
X33918747Y3161138D01*
X34000837Y3099875D01*
X34094500Y3056331D01*
X34195403Y3029980D01*
X34305286Y3020984D01*
X34414687Y3027228D01*
X34504779Y3044520D01*
X34578715Y3071176D01*
X34681434Y3126302D01*
X34764706Y3186093D01*
X34893911Y3022328D01*
X34793332Y2942933D01*
X34658461Y2870897D01*
X34559689Y2836779D01*
X34442114Y2814866D01*
X34302355Y2807028D01*
X34144854Y2820368D01*
X34000698Y2859425D01*
X33867236Y2924020D01*
X33748830Y3012657D01*
X33646665Y3126572D01*
X33559979Y3269257D01*
X33499130Y3425509D01*
X33460344Y3610390D01*
X33446528Y3829306D01*
X33460617Y4049110D01*
X33500123Y4234125D01*
X33562055Y4389966D01*
X33649978Y4532353D01*
X33752412Y4645547D01*
X33870045Y4733127D01*
X34002344Y4797315D01*
X34142333Y4835759D01*
X34292341Y4848776D01*
G37*
G36*
X36526308Y3387104D02*
G01*
X36516542Y3275742D01*
X36488174Y3175981D01*
X36441556Y3085587D01*
X36377987Y3006194D01*
X36296783Y2938097D01*
X36195359Y2880911D01*
X36085227Y2841259D01*
X35955934Y2816004D01*
X35804082Y2807028D01*
X35660743Y2814723D01*
X35530358Y2836998D01*
X35411339Y2872973D01*
X35298249Y2923888D01*
X35198435Y2986095D01*
X35110554Y3059697D01*
X35258443Y3226271D01*
X35367808Y3140215D01*
X35493893Y3073252D01*
X35584665Y3042679D01*
X35688768Y3023382D01*
X35808356Y3016588D01*
X35926070Y3026630D01*
X36033792Y3056033D01*
X36129440Y3106567D01*
X36203297Y3176689D01*
X36238397Y3233947D01*
X36260198Y3301775D01*
X36267899Y3382830D01*
X36258084Y3472974D01*
X36230530Y3545740D01*
X36181618Y3607443D01*
X36098394Y3666396D01*
X35993289Y3714976D01*
X35834246Y3768978D01*
X35646723Y3832286D01*
X35496092Y3898915D01*
X35405163Y3952913D01*
X35332219Y4012266D01*
X35274930Y4076968D01*
X35232393Y4150973D01*
X35205964Y4237793D01*
X35196650Y4340506D01*
X35205951Y4436469D01*
X35233178Y4523359D01*
X35278471Y4603190D01*
X35338893Y4673208D01*
X35413638Y4733196D01*
X35504640Y4783441D01*
X35602888Y4818953D01*
X35713038Y4841070D01*
X35837055Y4848776D01*
X35973185Y4841768D01*
X36091333Y4821924D01*
X36193893Y4790646D01*
X36338171Y4719908D01*
X36468911Y4623340D01*
X36322487Y4461162D01*
X36211041Y4542618D01*
X36094120Y4597450D01*
X35970671Y4629842D01*
X35845725Y4640559D01*
X35739543Y4632067D01*
X35647514Y4607810D01*
X35567166Y4568751D01*
X35502802Y4512775D01*
X35464464Y4441295D01*
X35450907Y4349177D01*
X35462739Y4268125D01*
X35496824Y4201899D01*
X35553876Y4146683D01*
X35651796Y4089181D01*
X35771671Y4040050D01*
X35949162Y3982935D01*
X36098649Y3932331D01*
X36234071Y3871682D01*
X36316840Y3821277D01*
X36387024Y3761114D01*
X36445830Y3690698D01*
X36488765Y3610802D01*
X36516330Y3511223D01*
X36526308Y3387104D01*
G37*
D11*
X267357142Y16640420D02*
X267309523Y16592800D01*
X267309523Y16592800D02*
X267166666Y16545181D01*
X267166666Y16545181D02*
X267071428Y16545181D01*
X267071428Y16545181D02*
X266928571Y16592800D01*
X266928571Y16592800D02*
X266833333Y16688039D01*
X266833333Y16688039D02*
X266785714Y16783277D01*
X266785714Y16783277D02*
X266738095Y16973753D01*
X266738095Y16973753D02*
X266738095Y17116610D01*
X266738095Y17116610D02*
X266785714Y17307086D01*
X266785714Y17307086D02*
X266833333Y17402324D01*
X266833333Y17402324D02*
X266928571Y17497562D01*
X266928571Y17497562D02*
X267071428Y17545181D01*
X267071428Y17545181D02*
X267166666Y17545181D01*
X267166666Y17545181D02*
X267309523Y17497562D01*
X267309523Y17497562D02*
X267357142Y17449943D01*
X268309523Y16545181D02*
X267738095Y16545181D01*
X268023809Y16545181D02*
X268023809Y17545181D01*
X268023809Y17545181D02*
X267928571Y17402324D01*
X267928571Y17402324D02*
X267833333Y17307086D01*
X267833333Y17307086D02*
X267738095Y17259467D01*
X268642857Y17545181D02*
X269261904Y17545181D01*
X269261904Y17545181D02*
X268928571Y17164229D01*
X268928571Y17164229D02*
X269071428Y17164229D01*
X269071428Y17164229D02*
X269166666Y17116610D01*
X269166666Y17116610D02*
X269214285Y17068991D01*
X269214285Y17068991D02*
X269261904Y16973753D01*
X269261904Y16973753D02*
X269261904Y16735658D01*
X269261904Y16735658D02*
X269214285Y16640420D01*
X269214285Y16640420D02*
X269166666Y16592800D01*
X269166666Y16592800D02*
X269071428Y16545181D01*
X269071428Y16545181D02*
X268785714Y16545181D01*
X268785714Y16545181D02*
X268690476Y16592800D01*
X268690476Y16592800D02*
X268642857Y16640420D01*
X284524819Y12532143D02*
X284048628Y12198810D01*
X284524819Y11960715D02*
X283524819Y11960715D01*
X283524819Y11960715D02*
X283524819Y12341667D01*
X283524819Y12341667D02*
X283572438Y12436905D01*
X283572438Y12436905D02*
X283620057Y12484524D01*
X283620057Y12484524D02*
X283715295Y12532143D01*
X283715295Y12532143D02*
X283858152Y12532143D01*
X283858152Y12532143D02*
X283953390Y12484524D01*
X283953390Y12484524D02*
X284001009Y12436905D01*
X284001009Y12436905D02*
X284048628Y12341667D01*
X284048628Y12341667D02*
X284048628Y11960715D01*
X284524819Y13484524D02*
X284524819Y12913096D01*
X284524819Y13198810D02*
X283524819Y13198810D01*
X283524819Y13198810D02*
X283667676Y13103572D01*
X283667676Y13103572D02*
X283762914Y13008334D01*
X283762914Y13008334D02*
X283810533Y12913096D01*
X283858152Y14341667D02*
X284524819Y14341667D01*
X283477200Y14103572D02*
X284191485Y13865477D01*
X284191485Y13865477D02*
X284191485Y14484524D01*
X315793117Y9945181D02*
X315459784Y10421372D01*
X315221689Y9945181D02*
X315221689Y10945181D01*
X315221689Y10945181D02*
X315602641Y10945181D01*
X315602641Y10945181D02*
X315697879Y10897562D01*
X315697879Y10897562D02*
X315745498Y10849943D01*
X315745498Y10849943D02*
X315793117Y10754705D01*
X315793117Y10754705D02*
X315793117Y10611848D01*
X315793117Y10611848D02*
X315745498Y10516610D01*
X315745498Y10516610D02*
X315697879Y10468991D01*
X315697879Y10468991D02*
X315602641Y10421372D01*
X315602641Y10421372D02*
X315221689Y10421372D01*
X316221689Y10468991D02*
X316555022Y10468991D01*
X316697879Y9945181D02*
X316221689Y9945181D01*
X316221689Y9945181D02*
X316221689Y10945181D01*
X316221689Y10945181D02*
X316697879Y10945181D01*
X317459784Y10468991D02*
X317126451Y10468991D01*
X317126451Y9945181D02*
X317126451Y10945181D01*
X317126451Y10945181D02*
X317602641Y10945181D01*
X318126451Y10945181D02*
X318126451Y10707086D01*
X317888356Y10802324D02*
X318126451Y10707086D01*
X318126451Y10707086D02*
X318364546Y10802324D01*
X317983594Y10516610D02*
X318126451Y10707086D01*
X318126451Y10707086D02*
X318269308Y10516610D01*
X318888356Y10945181D02*
X318888356Y10707086D01*
X318650261Y10802324D02*
X318888356Y10707086D01*
X318888356Y10707086D02*
X319126451Y10802324D01*
X318745499Y10516610D02*
X318888356Y10707086D01*
X318888356Y10707086D02*
X319031213Y10516610D01*
D10*
X434157419Y12738096D02*
X434966942Y12738096D01*
X434966942Y12738096D02*
X435062180Y12785715D01*
X435062180Y12785715D02*
X435109800Y12833334D01*
X435109800Y12833334D02*
X435157419Y12928572D01*
X435157419Y12928572D02*
X435157419Y13119048D01*
X435157419Y13119048D02*
X435109800Y13214286D01*
X435109800Y13214286D02*
X435062180Y13261905D01*
X435062180Y13261905D02*
X434966942Y13309524D01*
X434966942Y13309524D02*
X434157419Y13309524D01*
X434157419Y13690477D02*
X434157419Y14357143D01*
X434157419Y14357143D02*
X435157419Y13928572D01*
X264157419Y12738096D02*
X264966942Y12738096D01*
X264966942Y12738096D02*
X265062180Y12785715D01*
X265062180Y12785715D02*
X265109800Y12833334D01*
X265109800Y12833334D02*
X265157419Y12928572D01*
X265157419Y12928572D02*
X265157419Y13119048D01*
X265157419Y13119048D02*
X265109800Y13214286D01*
X265109800Y13214286D02*
X265062180Y13261905D01*
X265062180Y13261905D02*
X264966942Y13309524D01*
X264966942Y13309524D02*
X264157419Y13309524D01*
X264157419Y14261905D02*
X264157419Y13785715D01*
X264157419Y13785715D02*
X264633609Y13738096D01*
X264633609Y13738096D02*
X264585990Y13785715D01*
X264585990Y13785715D02*
X264538371Y13880953D01*
X264538371Y13880953D02*
X264538371Y14119048D01*
X264538371Y14119048D02*
X264585990Y14214286D01*
X264585990Y14214286D02*
X264633609Y14261905D01*
X264633609Y14261905D02*
X264728847Y14309524D01*
X264728847Y14309524D02*
X264966942Y14309524D01*
X264966942Y14309524D02*
X265062180Y14261905D01*
X265062180Y14261905D02*
X265109800Y14214286D01*
X265109800Y14214286D02*
X265157419Y14119048D01*
X265157419Y14119048D02*
X265157419Y13880953D01*
X265157419Y13880953D02*
X265109800Y13785715D01*
X265109800Y13785715D02*
X265062180Y13738096D01*
D11*
X282859580Y17357143D02*
X282907200Y17309524D01*
X282907200Y17309524D02*
X282954819Y17166667D01*
X282954819Y17166667D02*
X282954819Y17071429D01*
X282954819Y17071429D02*
X282907200Y16928572D01*
X282907200Y16928572D02*
X282811961Y16833334D01*
X282811961Y16833334D02*
X282716723Y16785715D01*
X282716723Y16785715D02*
X282526247Y16738096D01*
X282526247Y16738096D02*
X282383390Y16738096D01*
X282383390Y16738096D02*
X282192914Y16785715D01*
X282192914Y16785715D02*
X282097676Y16833334D01*
X282097676Y16833334D02*
X282002438Y16928572D01*
X282002438Y16928572D02*
X281954819Y17071429D01*
X281954819Y17071429D02*
X281954819Y17166667D01*
X281954819Y17166667D02*
X282002438Y17309524D01*
X282002438Y17309524D02*
X282050057Y17357143D01*
X282954819Y18309524D02*
X282954819Y17738096D01*
X282954819Y18023810D02*
X281954819Y18023810D01*
X281954819Y18023810D02*
X282097676Y17928572D01*
X282097676Y17928572D02*
X282192914Y17833334D01*
X282192914Y17833334D02*
X282240533Y17738096D01*
X282954819Y19261905D02*
X282954819Y18690477D01*
X282954819Y18976191D02*
X281954819Y18976191D01*
X281954819Y18976191D02*
X282097676Y18880953D01*
X282097676Y18880953D02*
X282192914Y18785715D01*
X282192914Y18785715D02*
X282240533Y18690477D01*
D10*
X179157419Y12738096D02*
X179966942Y12738096D01*
X179966942Y12738096D02*
X180062180Y12785715D01*
X180062180Y12785715D02*
X180109800Y12833334D01*
X180109800Y12833334D02*
X180157419Y12928572D01*
X180157419Y12928572D02*
X180157419Y13119048D01*
X180157419Y13119048D02*
X180109800Y13214286D01*
X180109800Y13214286D02*
X180062180Y13261905D01*
X180062180Y13261905D02*
X179966942Y13309524D01*
X179966942Y13309524D02*
X179157419Y13309524D01*
X179490752Y14214286D02*
X180157419Y14214286D01*
X179109800Y13976191D02*
X179824085Y13738096D01*
X179824085Y13738096D02*
X179824085Y14357143D01*
D11*
X334166666Y5445181D02*
X333833333Y5921372D01*
X333595238Y5445181D02*
X333595238Y6445181D01*
X333595238Y6445181D02*
X333976190Y6445181D01*
X333976190Y6445181D02*
X334071428Y6397562D01*
X334071428Y6397562D02*
X334119047Y6349943D01*
X334119047Y6349943D02*
X334166666Y6254705D01*
X334166666Y6254705D02*
X334166666Y6111848D01*
X334166666Y6111848D02*
X334119047Y6016610D01*
X334119047Y6016610D02*
X334071428Y5968991D01*
X334071428Y5968991D02*
X333976190Y5921372D01*
X333976190Y5921372D02*
X333595238Y5921372D01*
X334595238Y5968991D02*
X334928571Y5968991D01*
X335071428Y5445181D02*
X334595238Y5445181D01*
X334595238Y5445181D02*
X334595238Y6445181D01*
X334595238Y6445181D02*
X335071428Y6445181D01*
X335833333Y5968991D02*
X335500000Y5968991D01*
X335500000Y5445181D02*
X335500000Y6445181D01*
X335500000Y6445181D02*
X335976190Y6445181D01*
X336500000Y6445181D02*
X336500000Y6207086D01*
X336261905Y6302324D02*
X336500000Y6207086D01*
X336500000Y6207086D02*
X336738095Y6302324D01*
X336357143Y6016610D02*
X336500000Y6207086D01*
X336500000Y6207086D02*
X336642857Y6016610D01*
X337261905Y6445181D02*
X337261905Y6207086D01*
X337023810Y6302324D02*
X337261905Y6207086D01*
X337261905Y6207086D02*
X337500000Y6302324D01*
X337119048Y6016610D02*
X337261905Y6207086D01*
X337261905Y6207086D02*
X337404762Y6016610D01*
X338223629Y13896667D02*
X338937914Y13896667D01*
X338937914Y13896667D02*
X339080771Y13849048D01*
X339080771Y13849048D02*
X339176010Y13753810D01*
X339176010Y13753810D02*
X339223629Y13610953D01*
X339223629Y13610953D02*
X339223629Y13515715D01*
X339223629Y14896667D02*
X339223629Y14325239D01*
X339223629Y14610953D02*
X338223629Y14610953D01*
X338223629Y14610953D02*
X338366486Y14515715D01*
X338366486Y14515715D02*
X338461724Y14420477D01*
X338461724Y14420477D02*
X338509343Y14325239D01*
X427333333Y13045181D02*
X427000000Y13521372D01*
X426761905Y13045181D02*
X426761905Y14045181D01*
X426761905Y14045181D02*
X427142857Y14045181D01*
X427142857Y14045181D02*
X427238095Y13997562D01*
X427238095Y13997562D02*
X427285714Y13949943D01*
X427285714Y13949943D02*
X427333333Y13854705D01*
X427333333Y13854705D02*
X427333333Y13711848D01*
X427333333Y13711848D02*
X427285714Y13616610D01*
X427285714Y13616610D02*
X427238095Y13568991D01*
X427238095Y13568991D02*
X427142857Y13521372D01*
X427142857Y13521372D02*
X426761905Y13521372D01*
X428190476Y14045181D02*
X428000000Y14045181D01*
X428000000Y14045181D02*
X427904762Y13997562D01*
X427904762Y13997562D02*
X427857143Y13949943D01*
X427857143Y13949943D02*
X427761905Y13807086D01*
X427761905Y13807086D02*
X427714286Y13616610D01*
X427714286Y13616610D02*
X427714286Y13235658D01*
X427714286Y13235658D02*
X427761905Y13140420D01*
X427761905Y13140420D02*
X427809524Y13092800D01*
X427809524Y13092800D02*
X427904762Y13045181D01*
X427904762Y13045181D02*
X428095238Y13045181D01*
X428095238Y13045181D02*
X428190476Y13092800D01*
X428190476Y13092800D02*
X428238095Y13140420D01*
X428238095Y13140420D02*
X428285714Y13235658D01*
X428285714Y13235658D02*
X428285714Y13473753D01*
X428285714Y13473753D02*
X428238095Y13568991D01*
X428238095Y13568991D02*
X428190476Y13616610D01*
X428190476Y13616610D02*
X428095238Y13664229D01*
X428095238Y13664229D02*
X427904762Y13664229D01*
X427904762Y13664229D02*
X427809524Y13616610D01*
X427809524Y13616610D02*
X427761905Y13568991D01*
X427761905Y13568991D02*
X427714286Y13473753D01*
X268166666Y4545181D02*
X267833333Y5021372D01*
X267595238Y4545181D02*
X267595238Y5545181D01*
X267595238Y5545181D02*
X267976190Y5545181D01*
X267976190Y5545181D02*
X268071428Y5497562D01*
X268071428Y5497562D02*
X268119047Y5449943D01*
X268119047Y5449943D02*
X268166666Y5354705D01*
X268166666Y5354705D02*
X268166666Y5211848D01*
X268166666Y5211848D02*
X268119047Y5116610D01*
X268119047Y5116610D02*
X268071428Y5068991D01*
X268071428Y5068991D02*
X267976190Y5021372D01*
X267976190Y5021372D02*
X267595238Y5021372D01*
X268595238Y5068991D02*
X268928571Y5068991D01*
X269071428Y4545181D02*
X268595238Y4545181D01*
X268595238Y4545181D02*
X268595238Y5545181D01*
X268595238Y5545181D02*
X269071428Y5545181D01*
X269833333Y5068991D02*
X269500000Y5068991D01*
X269500000Y4545181D02*
X269500000Y5545181D01*
X269500000Y5545181D02*
X269976190Y5545181D01*
X270500000Y5545181D02*
X270500000Y5307086D01*
X270261905Y5402324D02*
X270500000Y5307086D01*
X270500000Y5307086D02*
X270738095Y5402324D01*
X270357143Y5116610D02*
X270500000Y5307086D01*
X270500000Y5307086D02*
X270642857Y5116610D01*
X271261905Y5545181D02*
X271261905Y5307086D01*
X271023810Y5402324D02*
X271261905Y5307086D01*
X271261905Y5307086D02*
X271500000Y5402324D01*
X271119048Y5116610D02*
X271261905Y5307086D01*
X271261905Y5307086D02*
X271404762Y5116610D01*
X596833333Y13045181D02*
X596500000Y13521372D01*
X596261905Y13045181D02*
X596261905Y14045181D01*
X596261905Y14045181D02*
X596642857Y14045181D01*
X596642857Y14045181D02*
X596738095Y13997562D01*
X596738095Y13997562D02*
X596785714Y13949943D01*
X596785714Y13949943D02*
X596833333Y13854705D01*
X596833333Y13854705D02*
X596833333Y13711848D01*
X596833333Y13711848D02*
X596785714Y13616610D01*
X596785714Y13616610D02*
X596738095Y13568991D01*
X596738095Y13568991D02*
X596642857Y13521372D01*
X596642857Y13521372D02*
X596261905Y13521372D01*
X597404762Y13616610D02*
X597309524Y13664229D01*
X597309524Y13664229D02*
X597261905Y13711848D01*
X597261905Y13711848D02*
X597214286Y13807086D01*
X597214286Y13807086D02*
X597214286Y13854705D01*
X597214286Y13854705D02*
X597261905Y13949943D01*
X597261905Y13949943D02*
X597309524Y13997562D01*
X597309524Y13997562D02*
X597404762Y14045181D01*
X597404762Y14045181D02*
X597595238Y14045181D01*
X597595238Y14045181D02*
X597690476Y13997562D01*
X597690476Y13997562D02*
X597738095Y13949943D01*
X597738095Y13949943D02*
X597785714Y13854705D01*
X597785714Y13854705D02*
X597785714Y13807086D01*
X597785714Y13807086D02*
X597738095Y13711848D01*
X597738095Y13711848D02*
X597690476Y13664229D01*
X597690476Y13664229D02*
X597595238Y13616610D01*
X597595238Y13616610D02*
X597404762Y13616610D01*
X597404762Y13616610D02*
X597309524Y13568991D01*
X597309524Y13568991D02*
X597261905Y13521372D01*
X597261905Y13521372D02*
X597214286Y13426134D01*
X597214286Y13426134D02*
X597214286Y13235658D01*
X597214286Y13235658D02*
X597261905Y13140420D01*
X597261905Y13140420D02*
X597309524Y13092800D01*
X597309524Y13092800D02*
X597404762Y13045181D01*
X597404762Y13045181D02*
X597595238Y13045181D01*
X597595238Y13045181D02*
X597690476Y13092800D01*
X597690476Y13092800D02*
X597738095Y13140420D01*
X597738095Y13140420D02*
X597785714Y13235658D01*
X597785714Y13235658D02*
X597785714Y13426134D01*
X597785714Y13426134D02*
X597738095Y13521372D01*
X597738095Y13521372D02*
X597690476Y13568991D01*
X597690476Y13568991D02*
X597595238Y13616610D01*
X286182142Y5975181D02*
X285848809Y6451372D01*
X285610714Y5975181D02*
X285610714Y6975181D01*
X285610714Y6975181D02*
X285991666Y6975181D01*
X285991666Y6975181D02*
X286086904Y6927562D01*
X286086904Y6927562D02*
X286134523Y6879943D01*
X286134523Y6879943D02*
X286182142Y6784705D01*
X286182142Y6784705D02*
X286182142Y6641848D01*
X286182142Y6641848D02*
X286134523Y6546610D01*
X286134523Y6546610D02*
X286086904Y6498991D01*
X286086904Y6498991D02*
X285991666Y6451372D01*
X285991666Y6451372D02*
X285610714Y6451372D01*
X287134523Y5975181D02*
X286563095Y5975181D01*
X286848809Y5975181D02*
X286848809Y6975181D01*
X286848809Y6975181D02*
X286753571Y6832324D01*
X286753571Y6832324D02*
X286658333Y6737086D01*
X286658333Y6737086D02*
X286563095Y6689467D01*
X287467857Y6975181D02*
X288086904Y6975181D01*
X288086904Y6975181D02*
X287753571Y6594229D01*
X287753571Y6594229D02*
X287896428Y6594229D01*
X287896428Y6594229D02*
X287991666Y6546610D01*
X287991666Y6546610D02*
X288039285Y6498991D01*
X288039285Y6498991D02*
X288086904Y6403753D01*
X288086904Y6403753D02*
X288086904Y6165658D01*
X288086904Y6165658D02*
X288039285Y6070420D01*
X288039285Y6070420D02*
X287991666Y6022800D01*
X287991666Y6022800D02*
X287896428Y5975181D01*
X287896428Y5975181D02*
X287610714Y5975181D01*
X287610714Y5975181D02*
X287515476Y6022800D01*
X287515476Y6022800D02*
X287467857Y6070420D01*
X171833333Y13545181D02*
X171500000Y14021372D01*
X171261905Y13545181D02*
X171261905Y14545181D01*
X171261905Y14545181D02*
X171642857Y14545181D01*
X171642857Y14545181D02*
X171738095Y14497562D01*
X171738095Y14497562D02*
X171785714Y14449943D01*
X171785714Y14449943D02*
X171833333Y14354705D01*
X171833333Y14354705D02*
X171833333Y14211848D01*
X171833333Y14211848D02*
X171785714Y14116610D01*
X171785714Y14116610D02*
X171738095Y14068991D01*
X171738095Y14068991D02*
X171642857Y14021372D01*
X171642857Y14021372D02*
X171261905Y14021372D01*
X172166667Y14545181D02*
X172785714Y14545181D01*
X172785714Y14545181D02*
X172452381Y14164229D01*
X172452381Y14164229D02*
X172595238Y14164229D01*
X172595238Y14164229D02*
X172690476Y14116610D01*
X172690476Y14116610D02*
X172738095Y14068991D01*
X172738095Y14068991D02*
X172785714Y13973753D01*
X172785714Y13973753D02*
X172785714Y13735658D01*
X172785714Y13735658D02*
X172738095Y13640420D01*
X172738095Y13640420D02*
X172690476Y13592800D01*
X172690476Y13592800D02*
X172595238Y13545181D01*
X172595238Y13545181D02*
X172309524Y13545181D01*
X172309524Y13545181D02*
X172214286Y13592800D01*
X172214286Y13592800D02*
X172166667Y13640420D01*
X342333333Y13045181D02*
X342000000Y13521372D01*
X341761905Y13045181D02*
X341761905Y14045181D01*
X341761905Y14045181D02*
X342142857Y14045181D01*
X342142857Y14045181D02*
X342238095Y13997562D01*
X342238095Y13997562D02*
X342285714Y13949943D01*
X342285714Y13949943D02*
X342333333Y13854705D01*
X342333333Y13854705D02*
X342333333Y13711848D01*
X342333333Y13711848D02*
X342285714Y13616610D01*
X342285714Y13616610D02*
X342238095Y13568991D01*
X342238095Y13568991D02*
X342142857Y13521372D01*
X342142857Y13521372D02*
X341761905Y13521372D01*
X343238095Y14045181D02*
X342761905Y14045181D01*
X342761905Y14045181D02*
X342714286Y13568991D01*
X342714286Y13568991D02*
X342761905Y13616610D01*
X342761905Y13616610D02*
X342857143Y13664229D01*
X342857143Y13664229D02*
X343095238Y13664229D01*
X343095238Y13664229D02*
X343190476Y13616610D01*
X343190476Y13616610D02*
X343238095Y13568991D01*
X343238095Y13568991D02*
X343285714Y13473753D01*
X343285714Y13473753D02*
X343285714Y13235658D01*
X343285714Y13235658D02*
X343238095Y13140420D01*
X343238095Y13140420D02*
X343190476Y13092800D01*
X343190476Y13092800D02*
X343095238Y13045181D01*
X343095238Y13045181D02*
X342857143Y13045181D01*
X342857143Y13045181D02*
X342761905Y13092800D01*
X342761905Y13092800D02*
X342714286Y13140420D01*
X280954819Y6738096D02*
X281764342Y6738096D01*
X281764342Y6738096D02*
X281859580Y6785715D01*
X281859580Y6785715D02*
X281907200Y6833334D01*
X281907200Y6833334D02*
X281954819Y6928572D01*
X281954819Y6928572D02*
X281954819Y7119048D01*
X281954819Y7119048D02*
X281907200Y7214286D01*
X281907200Y7214286D02*
X281859580Y7261905D01*
X281859580Y7261905D02*
X281764342Y7309524D01*
X281764342Y7309524D02*
X280954819Y7309524D01*
X281050057Y7738096D02*
X281002438Y7785715D01*
X281002438Y7785715D02*
X280954819Y7880953D01*
X280954819Y7880953D02*
X280954819Y8119048D01*
X280954819Y8119048D02*
X281002438Y8214286D01*
X281002438Y8214286D02*
X281050057Y8261905D01*
X281050057Y8261905D02*
X281145295Y8309524D01*
X281145295Y8309524D02*
X281240533Y8309524D01*
X281240533Y8309524D02*
X281383390Y8261905D01*
X281383390Y8261905D02*
X281954819Y7690477D01*
X281954819Y7690477D02*
X281954819Y8309524D01*
X278359580Y7357143D02*
X278407200Y7309524D01*
X278407200Y7309524D02*
X278454819Y7166667D01*
X278454819Y7166667D02*
X278454819Y7071429D01*
X278454819Y7071429D02*
X278407200Y6928572D01*
X278407200Y6928572D02*
X278311961Y6833334D01*
X278311961Y6833334D02*
X278216723Y6785715D01*
X278216723Y6785715D02*
X278026247Y6738096D01*
X278026247Y6738096D02*
X277883390Y6738096D01*
X277883390Y6738096D02*
X277692914Y6785715D01*
X277692914Y6785715D02*
X277597676Y6833334D01*
X277597676Y6833334D02*
X277502438Y6928572D01*
X277502438Y6928572D02*
X277454819Y7071429D01*
X277454819Y7071429D02*
X277454819Y7166667D01*
X277454819Y7166667D02*
X277502438Y7309524D01*
X277502438Y7309524D02*
X277550057Y7357143D01*
X278454819Y8309524D02*
X278454819Y7738096D01*
X278454819Y8023810D02*
X277454819Y8023810D01*
X277454819Y8023810D02*
X277597676Y7928572D01*
X277597676Y7928572D02*
X277692914Y7833334D01*
X277692914Y7833334D02*
X277740533Y7738096D01*
X277454819Y8928572D02*
X277454819Y9023810D01*
X277454819Y9023810D02*
X277502438Y9119048D01*
X277502438Y9119048D02*
X277550057Y9166667D01*
X277550057Y9166667D02*
X277645295Y9214286D01*
X277645295Y9214286D02*
X277835771Y9261905D01*
X277835771Y9261905D02*
X278073866Y9261905D01*
X278073866Y9261905D02*
X278264342Y9214286D01*
X278264342Y9214286D02*
X278359580Y9166667D01*
X278359580Y9166667D02*
X278407200Y9119048D01*
X278407200Y9119048D02*
X278454819Y9023810D01*
X278454819Y9023810D02*
X278454819Y8928572D01*
X278454819Y8928572D02*
X278407200Y8833334D01*
X278407200Y8833334D02*
X278359580Y8785715D01*
X278359580Y8785715D02*
X278264342Y8738096D01*
X278264342Y8738096D02*
X278073866Y8690477D01*
X278073866Y8690477D02*
X277835771Y8690477D01*
X277835771Y8690477D02*
X277645295Y8738096D01*
X277645295Y8738096D02*
X277550057Y8785715D01*
X277550057Y8785715D02*
X277502438Y8833334D01*
X277502438Y8833334D02*
X277454819Y8928572D01*
X270422142Y8210420D02*
X270374523Y8162800D01*
X270374523Y8162800D02*
X270231666Y8115181D01*
X270231666Y8115181D02*
X270136428Y8115181D01*
X270136428Y8115181D02*
X269993571Y8162800D01*
X269993571Y8162800D02*
X269898333Y8258039D01*
X269898333Y8258039D02*
X269850714Y8353277D01*
X269850714Y8353277D02*
X269803095Y8543753D01*
X269803095Y8543753D02*
X269803095Y8686610D01*
X269803095Y8686610D02*
X269850714Y8877086D01*
X269850714Y8877086D02*
X269898333Y8972324D01*
X269898333Y8972324D02*
X269993571Y9067562D01*
X269993571Y9067562D02*
X270136428Y9115181D01*
X270136428Y9115181D02*
X270231666Y9115181D01*
X270231666Y9115181D02*
X270374523Y9067562D01*
X270374523Y9067562D02*
X270422142Y9019943D01*
X271374523Y8115181D02*
X270803095Y8115181D01*
X271088809Y8115181D02*
X271088809Y9115181D01*
X271088809Y9115181D02*
X270993571Y8972324D01*
X270993571Y8972324D02*
X270898333Y8877086D01*
X270898333Y8877086D02*
X270803095Y8829467D01*
X272231666Y8781848D02*
X272231666Y8115181D01*
X271993571Y9162800D02*
X271755476Y8448515D01*
X271755476Y8448515D02*
X272374523Y8448515D01*
X512333333Y12545181D02*
X512000000Y13021372D01*
X511761905Y12545181D02*
X511761905Y13545181D01*
X511761905Y13545181D02*
X512142857Y13545181D01*
X512142857Y13545181D02*
X512238095Y13497562D01*
X512238095Y13497562D02*
X512285714Y13449943D01*
X512285714Y13449943D02*
X512333333Y13354705D01*
X512333333Y13354705D02*
X512333333Y13211848D01*
X512333333Y13211848D02*
X512285714Y13116610D01*
X512285714Y13116610D02*
X512238095Y13068991D01*
X512238095Y13068991D02*
X512142857Y13021372D01*
X512142857Y13021372D02*
X511761905Y13021372D01*
X512666667Y13545181D02*
X513333333Y13545181D01*
X513333333Y13545181D02*
X512904762Y12545181D01*
X1333333Y13045181D02*
X1000000Y13521372D01*
X761905Y13045181D02*
X761905Y14045181D01*
X761905Y14045181D02*
X1142857Y14045181D01*
X1142857Y14045181D02*
X1238095Y13997562D01*
X1238095Y13997562D02*
X1285714Y13949943D01*
X1285714Y13949943D02*
X1333333Y13854705D01*
X1333333Y13854705D02*
X1333333Y13711848D01*
X1333333Y13711848D02*
X1285714Y13616610D01*
X1285714Y13616610D02*
X1238095Y13568991D01*
X1238095Y13568991D02*
X1142857Y13521372D01*
X1142857Y13521372D02*
X761905Y13521372D01*
X2285714Y13045181D02*
X1714286Y13045181D01*
X2000000Y13045181D02*
X2000000Y14045181D01*
X2000000Y14045181D02*
X1904762Y13902324D01*
X1904762Y13902324D02*
X1809524Y13807086D01*
X1809524Y13807086D02*
X1714286Y13759467D01*
D10*
X519157419Y12738096D02*
X519966942Y12738096D01*
X519966942Y12738096D02*
X520062180Y12785715D01*
X520062180Y12785715D02*
X520109800Y12833334D01*
X520109800Y12833334D02*
X520157419Y12928572D01*
X520157419Y12928572D02*
X520157419Y13119048D01*
X520157419Y13119048D02*
X520109800Y13214286D01*
X520109800Y13214286D02*
X520062180Y13261905D01*
X520062180Y13261905D02*
X519966942Y13309524D01*
X519966942Y13309524D02*
X519157419Y13309524D01*
X519585990Y13928572D02*
X519538371Y13833334D01*
X519538371Y13833334D02*
X519490752Y13785715D01*
X519490752Y13785715D02*
X519395514Y13738096D01*
X519395514Y13738096D02*
X519347895Y13738096D01*
X519347895Y13738096D02*
X519252657Y13785715D01*
X519252657Y13785715D02*
X519205038Y13833334D01*
X519205038Y13833334D02*
X519157419Y13928572D01*
X519157419Y13928572D02*
X519157419Y14119048D01*
X519157419Y14119048D02*
X519205038Y14214286D01*
X519205038Y14214286D02*
X519252657Y14261905D01*
X519252657Y14261905D02*
X519347895Y14309524D01*
X519347895Y14309524D02*
X519395514Y14309524D01*
X519395514Y14309524D02*
X519490752Y14261905D01*
X519490752Y14261905D02*
X519538371Y14214286D01*
X519538371Y14214286D02*
X519585990Y14119048D01*
X519585990Y14119048D02*
X519585990Y13928572D01*
X519585990Y13928572D02*
X519633609Y13833334D01*
X519633609Y13833334D02*
X519681228Y13785715D01*
X519681228Y13785715D02*
X519776466Y13738096D01*
X519776466Y13738096D02*
X519966942Y13738096D01*
X519966942Y13738096D02*
X520062180Y13785715D01*
X520062180Y13785715D02*
X520109800Y13833334D01*
X520109800Y13833334D02*
X520157419Y13928572D01*
X520157419Y13928572D02*
X520157419Y14119048D01*
X520157419Y14119048D02*
X520109800Y14214286D01*
X520109800Y14214286D02*
X520062180Y14261905D01*
X520062180Y14261905D02*
X519966942Y14309524D01*
X519966942Y14309524D02*
X519776466Y14309524D01*
X519776466Y14309524D02*
X519681228Y14261905D01*
X519681228Y14261905D02*
X519633609Y14214286D01*
X519633609Y14214286D02*
X519585990Y14119048D01*
X9157419Y12738096D02*
X9966942Y12738096D01*
X9966942Y12738096D02*
X10062180Y12785715D01*
X10062180Y12785715D02*
X10109800Y12833334D01*
X10109800Y12833334D02*
X10157419Y12928572D01*
X10157419Y12928572D02*
X10157419Y13119048D01*
X10157419Y13119048D02*
X10109800Y13214286D01*
X10109800Y13214286D02*
X10062180Y13261905D01*
X10062180Y13261905D02*
X9966942Y13309524D01*
X9966942Y13309524D02*
X9157419Y13309524D01*
X10157419Y14309524D02*
X10157419Y13738096D01*
X10157419Y14023810D02*
X9157419Y14023810D01*
X9157419Y14023810D02*
X9300276Y13928572D01*
X9300276Y13928572D02*
X9395514Y13833334D01*
X9395514Y13833334D02*
X9443133Y13738096D01*
D11*
X276954819Y17333334D02*
X276478628Y17000001D01*
X276954819Y16761906D02*
X275954819Y16761906D01*
X275954819Y16761906D02*
X275954819Y17142858D01*
X275954819Y17142858D02*
X276002438Y17238096D01*
X276002438Y17238096D02*
X276050057Y17285715D01*
X276050057Y17285715D02*
X276145295Y17333334D01*
X276145295Y17333334D02*
X276288152Y17333334D01*
X276288152Y17333334D02*
X276383390Y17285715D01*
X276383390Y17285715D02*
X276431009Y17238096D01*
X276431009Y17238096D02*
X276478628Y17142858D01*
X276478628Y17142858D02*
X276478628Y16761906D01*
X276954819Y17809525D02*
X276954819Y18000001D01*
X276954819Y18000001D02*
X276907200Y18095239D01*
X276907200Y18095239D02*
X276859580Y18142858D01*
X276859580Y18142858D02*
X276716723Y18238096D01*
X276716723Y18238096D02*
X276526247Y18285715D01*
X276526247Y18285715D02*
X276145295Y18285715D01*
X276145295Y18285715D02*
X276050057Y18238096D01*
X276050057Y18238096D02*
X276002438Y18190477D01*
X276002438Y18190477D02*
X275954819Y18095239D01*
X275954819Y18095239D02*
X275954819Y17904763D01*
X275954819Y17904763D02*
X276002438Y17809525D01*
X276002438Y17809525D02*
X276050057Y17761906D01*
X276050057Y17761906D02*
X276145295Y17714287D01*
X276145295Y17714287D02*
X276383390Y17714287D01*
X276383390Y17714287D02*
X276478628Y17761906D01*
X276478628Y17761906D02*
X276526247Y17809525D01*
X276526247Y17809525D02*
X276573866Y17904763D01*
X276573866Y17904763D02*
X276573866Y18095239D01*
X276573866Y18095239D02*
X276526247Y18190477D01*
X276526247Y18190477D02*
X276478628Y18238096D01*
X276478628Y18238096D02*
X276383390Y18285715D01*
X274682142Y4615181D02*
X274348809Y5091372D01*
X274110714Y4615181D02*
X274110714Y5615181D01*
X274110714Y5615181D02*
X274491666Y5615181D01*
X274491666Y5615181D02*
X274586904Y5567562D01*
X274586904Y5567562D02*
X274634523Y5519943D01*
X274634523Y5519943D02*
X274682142Y5424705D01*
X274682142Y5424705D02*
X274682142Y5281848D01*
X274682142Y5281848D02*
X274634523Y5186610D01*
X274634523Y5186610D02*
X274586904Y5138991D01*
X274586904Y5138991D02*
X274491666Y5091372D01*
X274491666Y5091372D02*
X274110714Y5091372D01*
X275634523Y4615181D02*
X275063095Y4615181D01*
X275348809Y4615181D02*
X275348809Y5615181D01*
X275348809Y5615181D02*
X275253571Y5472324D01*
X275253571Y5472324D02*
X275158333Y5377086D01*
X275158333Y5377086D02*
X275063095Y5329467D01*
X276015476Y5519943D02*
X276063095Y5567562D01*
X276063095Y5567562D02*
X276158333Y5615181D01*
X276158333Y5615181D02*
X276396428Y5615181D01*
X276396428Y5615181D02*
X276491666Y5567562D01*
X276491666Y5567562D02*
X276539285Y5519943D01*
X276539285Y5519943D02*
X276586904Y5424705D01*
X276586904Y5424705D02*
X276586904Y5329467D01*
X276586904Y5329467D02*
X276539285Y5186610D01*
X276539285Y5186610D02*
X275967857Y4615181D01*
X275967857Y4615181D02*
X276586904Y4615181D01*
X261108333Y18070420D02*
X261060714Y18022800D01*
X261060714Y18022800D02*
X260917857Y17975181D01*
X260917857Y17975181D02*
X260822619Y17975181D01*
X260822619Y17975181D02*
X260679762Y18022800D01*
X260679762Y18022800D02*
X260584524Y18118039D01*
X260584524Y18118039D02*
X260536905Y18213277D01*
X260536905Y18213277D02*
X260489286Y18403753D01*
X260489286Y18403753D02*
X260489286Y18546610D01*
X260489286Y18546610D02*
X260536905Y18737086D01*
X260536905Y18737086D02*
X260584524Y18832324D01*
X260584524Y18832324D02*
X260679762Y18927562D01*
X260679762Y18927562D02*
X260822619Y18975181D01*
X260822619Y18975181D02*
X260917857Y18975181D01*
X260917857Y18975181D02*
X261060714Y18927562D01*
X261060714Y18927562D02*
X261108333Y18879943D01*
X261965476Y18641848D02*
X261965476Y17975181D01*
X261727381Y19022800D02*
X261489286Y18308515D01*
X261489286Y18308515D02*
X262108333Y18308515D01*
X273422142Y8140420D02*
X273374523Y8092800D01*
X273374523Y8092800D02*
X273231666Y8045181D01*
X273231666Y8045181D02*
X273136428Y8045181D01*
X273136428Y8045181D02*
X272993571Y8092800D01*
X272993571Y8092800D02*
X272898333Y8188039D01*
X272898333Y8188039D02*
X272850714Y8283277D01*
X272850714Y8283277D02*
X272803095Y8473753D01*
X272803095Y8473753D02*
X272803095Y8616610D01*
X272803095Y8616610D02*
X272850714Y8807086D01*
X272850714Y8807086D02*
X272898333Y8902324D01*
X272898333Y8902324D02*
X272993571Y8997562D01*
X272993571Y8997562D02*
X273136428Y9045181D01*
X273136428Y9045181D02*
X273231666Y9045181D01*
X273231666Y9045181D02*
X273374523Y8997562D01*
X273374523Y8997562D02*
X273422142Y8949943D01*
X274374523Y8045181D02*
X273803095Y8045181D01*
X274088809Y8045181D02*
X274088809Y9045181D01*
X274088809Y9045181D02*
X273993571Y8902324D01*
X273993571Y8902324D02*
X273898333Y8807086D01*
X273898333Y8807086D02*
X273803095Y8759467D01*
X274755476Y8949943D02*
X274803095Y8997562D01*
X274803095Y8997562D02*
X274898333Y9045181D01*
X274898333Y9045181D02*
X275136428Y9045181D01*
X275136428Y9045181D02*
X275231666Y8997562D01*
X275231666Y8997562D02*
X275279285Y8949943D01*
X275279285Y8949943D02*
X275326904Y8854705D01*
X275326904Y8854705D02*
X275326904Y8759467D01*
X275326904Y8759467D02*
X275279285Y8616610D01*
X275279285Y8616610D02*
X274707857Y8045181D01*
X274707857Y8045181D02*
X275326904Y8045181D01*
X268545180Y11738095D02*
X267735657Y11738095D01*
X267735657Y11738095D02*
X267640419Y11690476D01*
X267640419Y11690476D02*
X267592800Y11642857D01*
X267592800Y11642857D02*
X267545180Y11547619D01*
X267545180Y11547619D02*
X267545180Y11357143D01*
X267545180Y11357143D02*
X267592800Y11261905D01*
X267592800Y11261905D02*
X267640419Y11214286D01*
X267640419Y11214286D02*
X267735657Y11166667D01*
X267735657Y11166667D02*
X268545180Y11166667D01*
X267545180Y10166667D02*
X267545180Y10738095D01*
X267545180Y10452381D02*
X268545180Y10452381D01*
X268545180Y10452381D02*
X268402323Y10547619D01*
X268402323Y10547619D02*
X268307085Y10642857D01*
X268307085Y10642857D02*
X268259466Y10738095D01*
X268545180Y9547619D02*
X268545180Y9452381D01*
X268545180Y9452381D02*
X268497561Y9357143D01*
X268497561Y9357143D02*
X268449942Y9309524D01*
X268449942Y9309524D02*
X268354704Y9261905D01*
X268354704Y9261905D02*
X268164228Y9214286D01*
X268164228Y9214286D02*
X267926133Y9214286D01*
X267926133Y9214286D02*
X267735657Y9261905D01*
X267735657Y9261905D02*
X267640419Y9309524D01*
X267640419Y9309524D02*
X267592800Y9357143D01*
X267592800Y9357143D02*
X267545180Y9452381D01*
X267545180Y9452381D02*
X267545180Y9547619D01*
X267545180Y9547619D02*
X267592800Y9642857D01*
X267592800Y9642857D02*
X267640419Y9690476D01*
X267640419Y9690476D02*
X267735657Y9738095D01*
X267735657Y9738095D02*
X267926133Y9785714D01*
X267926133Y9785714D02*
X268164228Y9785714D01*
X268164228Y9785714D02*
X268354704Y9738095D01*
X268354704Y9738095D02*
X268449942Y9690476D01*
X268449942Y9690476D02*
X268497561Y9642857D01*
X268497561Y9642857D02*
X268545180Y9547619D01*
X91119958Y18070421D02*
X91072339Y18022801D01*
X91072339Y18022801D02*
X90929482Y17975182D01*
X90929482Y17975182D02*
X90834244Y17975182D01*
X90834244Y17975182D02*
X90691387Y18022801D01*
X90691387Y18022801D02*
X90596149Y18118040D01*
X90596149Y18118040D02*
X90548530Y18213278D01*
X90548530Y18213278D02*
X90500911Y18403754D01*
X90500911Y18403754D02*
X90500911Y18546611D01*
X90500911Y18546611D02*
X90548530Y18737087D01*
X90548530Y18737087D02*
X90596149Y18832325D01*
X90596149Y18832325D02*
X90691387Y18927563D01*
X90691387Y18927563D02*
X90834244Y18975182D01*
X90834244Y18975182D02*
X90929482Y18975182D01*
X90929482Y18975182D02*
X91072339Y18927563D01*
X91072339Y18927563D02*
X91119958Y18879944D01*
X91500911Y18879944D02*
X91548530Y18927563D01*
X91548530Y18927563D02*
X91643768Y18975182D01*
X91643768Y18975182D02*
X91881863Y18975182D01*
X91881863Y18975182D02*
X91977101Y18927563D01*
X91977101Y18927563D02*
X92024720Y18879944D01*
X92024720Y18879944D02*
X92072339Y18784706D01*
X92072339Y18784706D02*
X92072339Y18689468D01*
X92072339Y18689468D02*
X92024720Y18546611D01*
X92024720Y18546611D02*
X91453292Y17975182D01*
X91453292Y17975182D02*
X92072339Y17975182D01*
D10*
X601738095Y11542581D02*
X601738095Y10733058D01*
X601738095Y10733058D02*
X601785714Y10637820D01*
X601785714Y10637820D02*
X601833333Y10590200D01*
X601833333Y10590200D02*
X601928571Y10542581D01*
X601928571Y10542581D02*
X602119047Y10542581D01*
X602119047Y10542581D02*
X602214285Y10590200D01*
X602214285Y10590200D02*
X602261904Y10637820D01*
X602261904Y10637820D02*
X602309523Y10733058D01*
X602309523Y10733058D02*
X602309523Y11542581D01*
X602833333Y10542581D02*
X603023809Y10542581D01*
X603023809Y10542581D02*
X603119047Y10590200D01*
X603119047Y10590200D02*
X603166666Y10637820D01*
X603166666Y10637820D02*
X603261904Y10780677D01*
X603261904Y10780677D02*
X603309523Y10971153D01*
X603309523Y10971153D02*
X603309523Y11352105D01*
X603309523Y11352105D02*
X603261904Y11447343D01*
X603261904Y11447343D02*
X603214285Y11494962D01*
X603214285Y11494962D02*
X603119047Y11542581D01*
X603119047Y11542581D02*
X602928571Y11542581D01*
X602928571Y11542581D02*
X602833333Y11494962D01*
X602833333Y11494962D02*
X602785714Y11447343D01*
X602785714Y11447343D02*
X602738095Y11352105D01*
X602738095Y11352105D02*
X602738095Y11114010D01*
X602738095Y11114010D02*
X602785714Y11018772D01*
X602785714Y11018772D02*
X602833333Y10971153D01*
X602833333Y10971153D02*
X602928571Y10923534D01*
X602928571Y10923534D02*
X603119047Y10923534D01*
X603119047Y10923534D02*
X603214285Y10971153D01*
X603214285Y10971153D02*
X603261904Y11018772D01*
X603261904Y11018772D02*
X603309523Y11114010D01*
D11*
X258008333Y15115181D02*
X257675000Y15591372D01*
X257436905Y15115181D02*
X257436905Y16115181D01*
X257436905Y16115181D02*
X257817857Y16115181D01*
X257817857Y16115181D02*
X257913095Y16067562D01*
X257913095Y16067562D02*
X257960714Y16019943D01*
X257960714Y16019943D02*
X258008333Y15924705D01*
X258008333Y15924705D02*
X258008333Y15781848D01*
X258008333Y15781848D02*
X257960714Y15686610D01*
X257960714Y15686610D02*
X257913095Y15638991D01*
X257913095Y15638991D02*
X257817857Y15591372D01*
X257817857Y15591372D02*
X257436905Y15591372D01*
X258865476Y15781848D02*
X258865476Y15115181D01*
X258627381Y16162800D02*
X258389286Y15448515D01*
X258389286Y15448515D02*
X259008333Y15448515D01*
X289544990Y9945181D02*
X289211657Y10421372D01*
X288973562Y9945181D02*
X288973562Y10945181D01*
X288973562Y10945181D02*
X289354514Y10945181D01*
X289354514Y10945181D02*
X289449752Y10897562D01*
X289449752Y10897562D02*
X289497371Y10849943D01*
X289497371Y10849943D02*
X289544990Y10754705D01*
X289544990Y10754705D02*
X289544990Y10611848D01*
X289544990Y10611848D02*
X289497371Y10516610D01*
X289497371Y10516610D02*
X289449752Y10468991D01*
X289449752Y10468991D02*
X289354514Y10421372D01*
X289354514Y10421372D02*
X288973562Y10421372D01*
X289973562Y10468991D02*
X290306895Y10468991D01*
X290449752Y9945181D02*
X289973562Y9945181D01*
X289973562Y9945181D02*
X289973562Y10945181D01*
X289973562Y10945181D02*
X290449752Y10945181D01*
X291211657Y10468991D02*
X290878324Y10468991D01*
X290878324Y9945181D02*
X290878324Y10945181D01*
X290878324Y10945181D02*
X291354514Y10945181D01*
X291878324Y10945181D02*
X291878324Y10707086D01*
X291640229Y10802324D02*
X291878324Y10707086D01*
X291878324Y10707086D02*
X292116419Y10802324D01*
X291735467Y10516610D02*
X291878324Y10707086D01*
X291878324Y10707086D02*
X292021181Y10516610D01*
X292640229Y10945181D02*
X292640229Y10707086D01*
X292402134Y10802324D02*
X292640229Y10707086D01*
X292640229Y10707086D02*
X292878324Y10802324D01*
X292497372Y10516610D02*
X292640229Y10707086D01*
X292640229Y10707086D02*
X292783086Y10516610D01*
D10*
X349157419Y12738096D02*
X349966942Y12738096D01*
X349966942Y12738096D02*
X350062180Y12785715D01*
X350062180Y12785715D02*
X350109800Y12833334D01*
X350109800Y12833334D02*
X350157419Y12928572D01*
X350157419Y12928572D02*
X350157419Y13119048D01*
X350157419Y13119048D02*
X350109800Y13214286D01*
X350109800Y13214286D02*
X350062180Y13261905D01*
X350062180Y13261905D02*
X349966942Y13309524D01*
X349966942Y13309524D02*
X349157419Y13309524D01*
X349157419Y14214286D02*
X349157419Y14023810D01*
X349157419Y14023810D02*
X349205038Y13928572D01*
X349205038Y13928572D02*
X349252657Y13880953D01*
X349252657Y13880953D02*
X349395514Y13785715D01*
X349395514Y13785715D02*
X349585990Y13738096D01*
X349585990Y13738096D02*
X349966942Y13738096D01*
X349966942Y13738096D02*
X350062180Y13785715D01*
X350062180Y13785715D02*
X350109800Y13833334D01*
X350109800Y13833334D02*
X350157419Y13928572D01*
X350157419Y13928572D02*
X350157419Y14119048D01*
X350157419Y14119048D02*
X350109800Y14214286D01*
X350109800Y14214286D02*
X350062180Y14261905D01*
X350062180Y14261905D02*
X349966942Y14309524D01*
X349966942Y14309524D02*
X349728847Y14309524D01*
X349728847Y14309524D02*
X349633609Y14261905D01*
X349633609Y14261905D02*
X349585990Y14214286D01*
X349585990Y14214286D02*
X349538371Y14119048D01*
X349538371Y14119048D02*
X349538371Y13928572D01*
X349538371Y13928572D02*
X349585990Y13833334D01*
X349585990Y13833334D02*
X349633609Y13785715D01*
X349633609Y13785715D02*
X349728847Y13738096D01*
D11*
X346069958Y18070421D02*
X346022339Y18022801D01*
X346022339Y18022801D02*
X345879482Y17975182D01*
X345879482Y17975182D02*
X345784244Y17975182D01*
X345784244Y17975182D02*
X345641387Y18022801D01*
X345641387Y18022801D02*
X345546149Y18118040D01*
X345546149Y18118040D02*
X345498530Y18213278D01*
X345498530Y18213278D02*
X345450911Y18403754D01*
X345450911Y18403754D02*
X345450911Y18546611D01*
X345450911Y18546611D02*
X345498530Y18737087D01*
X345498530Y18737087D02*
X345546149Y18832325D01*
X345546149Y18832325D02*
X345641387Y18927563D01*
X345641387Y18927563D02*
X345784244Y18975182D01*
X345784244Y18975182D02*
X345879482Y18975182D01*
X345879482Y18975182D02*
X346022339Y18927563D01*
X346022339Y18927563D02*
X346069958Y18879944D01*
X346974720Y18975182D02*
X346498530Y18975182D01*
X346498530Y18975182D02*
X346450911Y18498992D01*
X346450911Y18498992D02*
X346498530Y18546611D01*
X346498530Y18546611D02*
X346593768Y18594230D01*
X346593768Y18594230D02*
X346831863Y18594230D01*
X346831863Y18594230D02*
X346927101Y18546611D01*
X346927101Y18546611D02*
X346974720Y18498992D01*
X346974720Y18498992D02*
X347022339Y18403754D01*
X347022339Y18403754D02*
X347022339Y18165659D01*
X347022339Y18165659D02*
X346974720Y18070421D01*
X346974720Y18070421D02*
X346927101Y18022801D01*
X346927101Y18022801D02*
X346831863Y17975182D01*
X346831863Y17975182D02*
X346593768Y17975182D01*
X346593768Y17975182D02*
X346498530Y18022801D01*
X346498530Y18022801D02*
X346450911Y18070421D01*
X278359580Y17833334D02*
X278407200Y17785715D01*
X278407200Y17785715D02*
X278454819Y17642858D01*
X278454819Y17642858D02*
X278454819Y17547620D01*
X278454819Y17547620D02*
X278407200Y17404763D01*
X278407200Y17404763D02*
X278311961Y17309525D01*
X278311961Y17309525D02*
X278216723Y17261906D01*
X278216723Y17261906D02*
X278026247Y17214287D01*
X278026247Y17214287D02*
X277883390Y17214287D01*
X277883390Y17214287D02*
X277692914Y17261906D01*
X277692914Y17261906D02*
X277597676Y17309525D01*
X277597676Y17309525D02*
X277502438Y17404763D01*
X277502438Y17404763D02*
X277454819Y17547620D01*
X277454819Y17547620D02*
X277454819Y17642858D01*
X277454819Y17642858D02*
X277502438Y17785715D01*
X277502438Y17785715D02*
X277550057Y17833334D01*
X278454819Y18309525D02*
X278454819Y18500001D01*
X278454819Y18500001D02*
X278407200Y18595239D01*
X278407200Y18595239D02*
X278359580Y18642858D01*
X278359580Y18642858D02*
X278216723Y18738096D01*
X278216723Y18738096D02*
X278026247Y18785715D01*
X278026247Y18785715D02*
X277645295Y18785715D01*
X277645295Y18785715D02*
X277550057Y18738096D01*
X277550057Y18738096D02*
X277502438Y18690477D01*
X277502438Y18690477D02*
X277454819Y18595239D01*
X277454819Y18595239D02*
X277454819Y18404763D01*
X277454819Y18404763D02*
X277502438Y18309525D01*
X277502438Y18309525D02*
X277550057Y18261906D01*
X277550057Y18261906D02*
X277645295Y18214287D01*
X277645295Y18214287D02*
X277883390Y18214287D01*
X277883390Y18214287D02*
X277978628Y18261906D01*
X277978628Y18261906D02*
X278026247Y18309525D01*
X278026247Y18309525D02*
X278073866Y18404763D01*
X278073866Y18404763D02*
X278073866Y18595239D01*
X278073866Y18595239D02*
X278026247Y18690477D01*
X278026247Y18690477D02*
X277978628Y18738096D01*
X277978628Y18738096D02*
X277883390Y18785715D01*
X87333333Y13545181D02*
X87000000Y14021372D01*
X86761905Y13545181D02*
X86761905Y14545181D01*
X86761905Y14545181D02*
X87142857Y14545181D01*
X87142857Y14545181D02*
X87238095Y14497562D01*
X87238095Y14497562D02*
X87285714Y14449943D01*
X87285714Y14449943D02*
X87333333Y14354705D01*
X87333333Y14354705D02*
X87333333Y14211848D01*
X87333333Y14211848D02*
X87285714Y14116610D01*
X87285714Y14116610D02*
X87238095Y14068991D01*
X87238095Y14068991D02*
X87142857Y14021372D01*
X87142857Y14021372D02*
X86761905Y14021372D01*
X87714286Y14449943D02*
X87761905Y14497562D01*
X87761905Y14497562D02*
X87857143Y14545181D01*
X87857143Y14545181D02*
X88095238Y14545181D01*
X88095238Y14545181D02*
X88190476Y14497562D01*
X88190476Y14497562D02*
X88238095Y14449943D01*
X88238095Y14449943D02*
X88285714Y14354705D01*
X88285714Y14354705D02*
X88285714Y14259467D01*
X88285714Y14259467D02*
X88238095Y14116610D01*
X88238095Y14116610D02*
X87666667Y13545181D01*
X87666667Y13545181D02*
X88285714Y13545181D01*
X601069958Y18070421D02*
X601022339Y18022801D01*
X601022339Y18022801D02*
X600879482Y17975182D01*
X600879482Y17975182D02*
X600784244Y17975182D01*
X600784244Y17975182D02*
X600641387Y18022801D01*
X600641387Y18022801D02*
X600546149Y18118040D01*
X600546149Y18118040D02*
X600498530Y18213278D01*
X600498530Y18213278D02*
X600450911Y18403754D01*
X600450911Y18403754D02*
X600450911Y18546611D01*
X600450911Y18546611D02*
X600498530Y18737087D01*
X600498530Y18737087D02*
X600546149Y18832325D01*
X600546149Y18832325D02*
X600641387Y18927563D01*
X600641387Y18927563D02*
X600784244Y18975182D01*
X600784244Y18975182D02*
X600879482Y18975182D01*
X600879482Y18975182D02*
X601022339Y18927563D01*
X601022339Y18927563D02*
X601069958Y18879944D01*
X601641387Y18546611D02*
X601546149Y18594230D01*
X601546149Y18594230D02*
X601498530Y18641849D01*
X601498530Y18641849D02*
X601450911Y18737087D01*
X601450911Y18737087D02*
X601450911Y18784706D01*
X601450911Y18784706D02*
X601498530Y18879944D01*
X601498530Y18879944D02*
X601546149Y18927563D01*
X601546149Y18927563D02*
X601641387Y18975182D01*
X601641387Y18975182D02*
X601831863Y18975182D01*
X601831863Y18975182D02*
X601927101Y18927563D01*
X601927101Y18927563D02*
X601974720Y18879944D01*
X601974720Y18879944D02*
X602022339Y18784706D01*
X602022339Y18784706D02*
X602022339Y18737087D01*
X602022339Y18737087D02*
X601974720Y18641849D01*
X601974720Y18641849D02*
X601927101Y18594230D01*
X601927101Y18594230D02*
X601831863Y18546611D01*
X601831863Y18546611D02*
X601641387Y18546611D01*
X601641387Y18546611D02*
X601546149Y18498992D01*
X601546149Y18498992D02*
X601498530Y18451373D01*
X601498530Y18451373D02*
X601450911Y18356135D01*
X601450911Y18356135D02*
X601450911Y18165659D01*
X601450911Y18165659D02*
X601498530Y18070421D01*
X601498530Y18070421D02*
X601546149Y18022801D01*
X601546149Y18022801D02*
X601641387Y17975182D01*
X601641387Y17975182D02*
X601831863Y17975182D01*
X601831863Y17975182D02*
X601927101Y18022801D01*
X601927101Y18022801D02*
X601974720Y18070421D01*
X601974720Y18070421D02*
X602022339Y18165659D01*
X602022339Y18165659D02*
X602022339Y18356135D01*
X602022339Y18356135D02*
X601974720Y18451373D01*
X601974720Y18451373D02*
X601927101Y18498992D01*
X601927101Y18498992D02*
X601831863Y18546611D01*
D10*
X94157419Y12738096D02*
X94966942Y12738096D01*
X94966942Y12738096D02*
X95062180Y12785715D01*
X95062180Y12785715D02*
X95109800Y12833334D01*
X95109800Y12833334D02*
X95157419Y12928572D01*
X95157419Y12928572D02*
X95157419Y13119048D01*
X95157419Y13119048D02*
X95109800Y13214286D01*
X95109800Y13214286D02*
X95062180Y13261905D01*
X95062180Y13261905D02*
X94966942Y13309524D01*
X94966942Y13309524D02*
X94157419Y13309524D01*
X94157419Y13690477D02*
X94157419Y14309524D01*
X94157419Y14309524D02*
X94538371Y13976191D01*
X94538371Y13976191D02*
X94538371Y14119048D01*
X94538371Y14119048D02*
X94585990Y14214286D01*
X94585990Y14214286D02*
X94633609Y14261905D01*
X94633609Y14261905D02*
X94728847Y14309524D01*
X94728847Y14309524D02*
X94966942Y14309524D01*
X94966942Y14309524D02*
X95062180Y14261905D01*
X95062180Y14261905D02*
X95109800Y14214286D01*
X95109800Y14214286D02*
X95157419Y14119048D01*
X95157419Y14119048D02*
X95157419Y13833334D01*
X95157419Y13833334D02*
X95109800Y13738096D01*
X95109800Y13738096D02*
X95062180Y13690477D01*
D11*
X431069958Y18070421D02*
X431022339Y18022801D01*
X431022339Y18022801D02*
X430879482Y17975182D01*
X430879482Y17975182D02*
X430784244Y17975182D01*
X430784244Y17975182D02*
X430641387Y18022801D01*
X430641387Y18022801D02*
X430546149Y18118040D01*
X430546149Y18118040D02*
X430498530Y18213278D01*
X430498530Y18213278D02*
X430450911Y18403754D01*
X430450911Y18403754D02*
X430450911Y18546611D01*
X430450911Y18546611D02*
X430498530Y18737087D01*
X430498530Y18737087D02*
X430546149Y18832325D01*
X430546149Y18832325D02*
X430641387Y18927563D01*
X430641387Y18927563D02*
X430784244Y18975182D01*
X430784244Y18975182D02*
X430879482Y18975182D01*
X430879482Y18975182D02*
X431022339Y18927563D01*
X431022339Y18927563D02*
X431069958Y18879944D01*
X431927101Y18975182D02*
X431736625Y18975182D01*
X431736625Y18975182D02*
X431641387Y18927563D01*
X431641387Y18927563D02*
X431593768Y18879944D01*
X431593768Y18879944D02*
X431498530Y18737087D01*
X431498530Y18737087D02*
X431450911Y18546611D01*
X431450911Y18546611D02*
X431450911Y18165659D01*
X431450911Y18165659D02*
X431498530Y18070421D01*
X431498530Y18070421D02*
X431546149Y18022801D01*
X431546149Y18022801D02*
X431641387Y17975182D01*
X431641387Y17975182D02*
X431831863Y17975182D01*
X431831863Y17975182D02*
X431927101Y18022801D01*
X431927101Y18022801D02*
X431974720Y18070421D01*
X431974720Y18070421D02*
X432022339Y18165659D01*
X432022339Y18165659D02*
X432022339Y18403754D01*
X432022339Y18403754D02*
X431974720Y18498992D01*
X431974720Y18498992D02*
X431927101Y18546611D01*
X431927101Y18546611D02*
X431831863Y18594230D01*
X431831863Y18594230D02*
X431641387Y18594230D01*
X431641387Y18594230D02*
X431546149Y18546611D01*
X431546149Y18546611D02*
X431498530Y18498992D01*
X431498530Y18498992D02*
X431450911Y18403754D01*
X6119958Y18070421D02*
X6072339Y18022801D01*
X6072339Y18022801D02*
X5929482Y17975182D01*
X5929482Y17975182D02*
X5834244Y17975182D01*
X5834244Y17975182D02*
X5691387Y18022801D01*
X5691387Y18022801D02*
X5596149Y18118040D01*
X5596149Y18118040D02*
X5548530Y18213278D01*
X5548530Y18213278D02*
X5500911Y18403754D01*
X5500911Y18403754D02*
X5500911Y18546611D01*
X5500911Y18546611D02*
X5548530Y18737087D01*
X5548530Y18737087D02*
X5596149Y18832325D01*
X5596149Y18832325D02*
X5691387Y18927563D01*
X5691387Y18927563D02*
X5834244Y18975182D01*
X5834244Y18975182D02*
X5929482Y18975182D01*
X5929482Y18975182D02*
X6072339Y18927563D01*
X6072339Y18927563D02*
X6119958Y18879944D01*
X7072339Y17975182D02*
X6500911Y17975182D01*
X6786625Y17975182D02*
X6786625Y18975182D01*
X6786625Y18975182D02*
X6691387Y18832325D01*
X6691387Y18832325D02*
X6596149Y18737087D01*
X6596149Y18737087D02*
X6500911Y18689468D01*
X516069958Y18070421D02*
X516022339Y18022801D01*
X516022339Y18022801D02*
X515879482Y17975182D01*
X515879482Y17975182D02*
X515784244Y17975182D01*
X515784244Y17975182D02*
X515641387Y18022801D01*
X515641387Y18022801D02*
X515546149Y18118040D01*
X515546149Y18118040D02*
X515498530Y18213278D01*
X515498530Y18213278D02*
X515450911Y18403754D01*
X515450911Y18403754D02*
X515450911Y18546611D01*
X515450911Y18546611D02*
X515498530Y18737087D01*
X515498530Y18737087D02*
X515546149Y18832325D01*
X515546149Y18832325D02*
X515641387Y18927563D01*
X515641387Y18927563D02*
X515784244Y18975182D01*
X515784244Y18975182D02*
X515879482Y18975182D01*
X515879482Y18975182D02*
X516022339Y18927563D01*
X516022339Y18927563D02*
X516069958Y18879944D01*
X516403292Y18975182D02*
X517069958Y18975182D01*
X517069958Y18975182D02*
X516641387Y17975182D01*
X176119958Y18070421D02*
X176072339Y18022801D01*
X176072339Y18022801D02*
X175929482Y17975182D01*
X175929482Y17975182D02*
X175834244Y17975182D01*
X175834244Y17975182D02*
X175691387Y18022801D01*
X175691387Y18022801D02*
X175596149Y18118040D01*
X175596149Y18118040D02*
X175548530Y18213278D01*
X175548530Y18213278D02*
X175500911Y18403754D01*
X175500911Y18403754D02*
X175500911Y18546611D01*
X175500911Y18546611D02*
X175548530Y18737087D01*
X175548530Y18737087D02*
X175596149Y18832325D01*
X175596149Y18832325D02*
X175691387Y18927563D01*
X175691387Y18927563D02*
X175834244Y18975182D01*
X175834244Y18975182D02*
X175929482Y18975182D01*
X175929482Y18975182D02*
X176072339Y18927563D01*
X176072339Y18927563D02*
X176119958Y18879944D01*
X176453292Y18975182D02*
X177072339Y18975182D01*
X177072339Y18975182D02*
X176739006Y18594230D01*
X176739006Y18594230D02*
X176881863Y18594230D01*
X176881863Y18594230D02*
X176977101Y18546611D01*
X176977101Y18546611D02*
X177024720Y18498992D01*
X177024720Y18498992D02*
X177072339Y18403754D01*
X177072339Y18403754D02*
X177072339Y18165659D01*
X177072339Y18165659D02*
X177024720Y18070421D01*
X177024720Y18070421D02*
X176977101Y18022801D01*
X176977101Y18022801D02*
X176881863Y17975182D01*
X176881863Y17975182D02*
X176596149Y17975182D01*
X176596149Y17975182D02*
X176500911Y18022801D01*
X176500911Y18022801D02*
X176453292Y18070421D01*
D12*
%TO.C,C13*%
X271755580Y18510000D02*
X271474420Y18510000D01*
X271755580Y17490000D02*
X271474420Y17490000D01*
%TO.C,R14*%
X284977500Y12937742D02*
X284977500Y13412258D01*
X286022500Y12937742D02*
X286022500Y13412258D01*
D13*
%TO.C,U7*%
X429000000Y12000000D02*
X429000000Y15000000D01*
X433000000Y15000000D02*
X429000000Y15000000D01*
X433000000Y12000000D02*
X429000000Y12000000D01*
X433000000Y12000000D02*
X433000000Y15000000D01*
D14*
X428800000Y15000000D02*
G75*
G02*
X428600000Y15000000I-100000J0D01*
G01*
X428600000Y15000000D02*
G75*
G02*
X428800000Y15000000I100000J0D01*
G01*
D13*
%TO.C,U5*%
X259000000Y12000000D02*
X259000000Y15000000D01*
X263000000Y15000000D02*
X259000000Y15000000D01*
X263000000Y12000000D02*
X259000000Y12000000D01*
X263000000Y12000000D02*
X263000000Y15000000D01*
D14*
X258800000Y15000000D02*
G75*
G02*
X258600000Y15000000I-100000J0D01*
G01*
X258600000Y15000000D02*
G75*
G02*
X258800000Y15000000I100000J0D01*
G01*
D12*
%TO.C,C11*%
X278990000Y16584420D02*
X278990000Y16865580D01*
X280010000Y16584420D02*
X280010000Y16865580D01*
D13*
%TO.C,U4*%
X174000000Y12000000D02*
X174000000Y15000000D01*
X178000000Y15000000D02*
X174000000Y15000000D01*
X178000000Y12000000D02*
X174000000Y12000000D01*
X178000000Y12000000D02*
X178000000Y15000000D01*
D14*
X173800000Y15000000D02*
G75*
G02*
X173600000Y15000000I-100000J0D01*
G01*
X173600000Y15000000D02*
G75*
G02*
X173800000Y15000000I100000J0D01*
G01*
D12*
%TO.C,J1*%
X286848810Y16830000D02*
X286848810Y11630000D01*
X335168810Y16830000D02*
X286848810Y16830000D01*
X335168810Y16830000D02*
X335168810Y14230000D01*
X335168810Y14230000D02*
X337768810Y14230000D01*
X336438810Y16830000D02*
X337768810Y16830000D01*
X337768810Y16830000D02*
X337768810Y15500000D01*
X337768810Y14230000D02*
X337768810Y11630000D01*
X337768810Y11630000D02*
X286848810Y11630000D01*
%TO.C,R6*%
X428412258Y17522501D02*
X427937742Y17522501D01*
X428412258Y16477501D02*
X427937742Y16477501D01*
%TO.C,R8*%
X598423883Y17522501D02*
X597949367Y17522501D01*
X598423883Y16477501D02*
X597949367Y16477501D01*
%TO.C,R13*%
X286587742Y5522500D02*
X287062258Y5522500D01*
X286587742Y4477500D02*
X287062258Y4477500D01*
%TO.C,R3*%
X173423883Y17522501D02*
X172949367Y17522501D01*
X173423883Y16477501D02*
X172949367Y16477501D01*
%TO.C,R5*%
X343423883Y17522501D02*
X342949367Y17522501D01*
X343423883Y16477501D02*
X342949367Y16477501D01*
%TO.C,U2*%
X279613800Y14300000D02*
X279613800Y13886000D01*
X279613800Y11200000D02*
X279613800Y11614000D01*
X280027800Y14300000D02*
X279613800Y14300000D01*
X280027800Y11200000D02*
X279613800Y11200000D01*
X282299800Y14300000D02*
X282713800Y14300000D01*
X282299800Y11200000D02*
X282713800Y11200000D01*
X282713800Y14300000D02*
X282713800Y13886000D01*
X282713800Y11200000D02*
X282713800Y11614000D01*
D15*
X279902800Y10696000D02*
G75*
G02*
X279652800Y10696000I-125000J0D01*
G01*
X279652800Y10696000D02*
G75*
G02*
X279902800Y10696000I125000J0D01*
G01*
D12*
%TO.C,C10*%
X277509200Y11140580D02*
X277509200Y10859420D01*
X278529200Y11140580D02*
X278529200Y10859420D01*
%TO.C,C14*%
X271205580Y10510000D02*
X270924420Y10510000D01*
X271205580Y9490000D02*
X270924420Y9490000D01*
%TO.C,R7*%
X513412258Y17522501D02*
X512937742Y17522501D01*
X513412258Y16477501D02*
X512937742Y16477501D01*
%TO.C,R1*%
X3412258Y17522500D02*
X2937742Y17522500D01*
X3412258Y16477500D02*
X2937742Y16477500D01*
D13*
%TO.C,U8*%
X514000000Y12000000D02*
X514000000Y15000000D01*
X518000000Y15000000D02*
X514000000Y15000000D01*
X518000000Y12000000D02*
X514000000Y12000000D01*
X518000000Y12000000D02*
X518000000Y15000000D01*
D14*
X513800000Y15000000D02*
G75*
G02*
X513600000Y15000000I-100000J0D01*
G01*
X513600000Y15000000D02*
G75*
G02*
X513800000Y15000000I100000J0D01*
G01*
D13*
%TO.C,U1*%
X4000000Y12000000D02*
X4000000Y15000000D01*
X8000000Y15000000D02*
X4000000Y15000000D01*
X8000000Y12000000D02*
X4000000Y12000000D01*
X8000000Y12000000D02*
X8000000Y15000000D01*
D14*
X3800000Y15000000D02*
G75*
G02*
X3600000Y15000000I-100000J0D01*
G01*
X3600000Y15000000D02*
G75*
G02*
X3800000Y15000000I100000J0D01*
G01*
D12*
%TO.C,R9*%
X275946700Y13912258D02*
X275946700Y13437742D01*
X276991700Y13912258D02*
X276991700Y13437742D01*
%TO.C,R12*%
X275562258Y7022500D02*
X275087742Y7022500D01*
X275562258Y5977500D02*
X275087742Y5977500D01*
%TO.C,C4*%
X261134420Y17510000D02*
X261415580Y17510000D01*
X261134420Y16490000D02*
X261415580Y16490000D01*
%TO.C,C12*%
X273924420Y10510000D02*
X274205580Y10510000D01*
X273924420Y9490000D02*
X274205580Y9490000D01*
D11*
%TO.C,U10*%
X270000000Y16500000D02*
X270000000Y15832915D01*
X270000000Y16500000D02*
X270667085Y16500000D01*
X270000000Y12167085D02*
X270000000Y11500000D01*
X270000000Y11500000D02*
X270667085Y11500000D01*
X274332915Y16500000D02*
X275000000Y16500000D01*
X274332915Y11500000D02*
X275000000Y11500000D01*
X275000000Y16500000D02*
X275000000Y15832915D01*
X275000000Y12167085D02*
X275000000Y11500000D01*
D15*
X273925001Y17529109D02*
G75*
G02*
X273674999Y17529109I-125001J0D01*
G01*
X273674999Y17529109D02*
G75*
G02*
X273925001Y17529109I125001J0D01*
G01*
D12*
%TO.C,C2*%
X91146045Y17510001D02*
X91427205Y17510001D01*
X91146045Y16490001D02*
X91427205Y16490001D01*
D13*
%TO.C,U9*%
X599000000Y12000000D02*
X599000000Y15000000D01*
X603000000Y15000000D02*
X599000000Y15000000D01*
X603000000Y12000000D02*
X599000000Y12000000D01*
X603000000Y12000000D02*
X603000000Y15000000D01*
D14*
X598800000Y15000000D02*
G75*
G02*
X598600000Y15000000I-100000J0D01*
G01*
X598600000Y15000000D02*
G75*
G02*
X598800000Y15000000I100000J0D01*
G01*
D12*
%TO.C,R4*%
X258412258Y17522500D02*
X257937742Y17522500D01*
X258412258Y16477500D02*
X257937742Y16477500D01*
D13*
%TO.C,U6*%
X344000000Y12000000D02*
X344000000Y15000000D01*
X348000000Y15000000D02*
X344000000Y15000000D01*
X348000000Y12000000D02*
X344000000Y12000000D01*
X348000000Y12000000D02*
X348000000Y15000000D01*
D14*
X343800000Y15000000D02*
G75*
G02*
X343600000Y15000000I-100000J0D01*
G01*
X343600000Y15000000D02*
G75*
G02*
X343800000Y15000000I100000J0D01*
G01*
D12*
%TO.C,C5*%
X346096045Y17510001D02*
X346377205Y17510001D01*
X346096045Y16490001D02*
X346377205Y16490001D01*
%TO.C,C9*%
X277509200Y14134420D02*
X277509200Y14415580D01*
X278529200Y14134420D02*
X278529200Y14415580D01*
%TO.C,R2*%
X88423883Y17522501D02*
X87949367Y17522501D01*
X88423883Y16477501D02*
X87949367Y16477501D01*
%TO.C,C8*%
X601096045Y17510001D02*
X601377205Y17510001D01*
X601096045Y16490001D02*
X601377205Y16490001D01*
D13*
%TO.C,U3*%
X89000000Y12000000D02*
X89000000Y15000000D01*
X93000000Y15000000D02*
X89000000Y15000000D01*
X93000000Y12000000D02*
X89000000Y12000000D01*
X93000000Y12000000D02*
X93000000Y15000000D01*
D14*
X88800000Y15000000D02*
G75*
G02*
X88600000Y15000000I-100000J0D01*
G01*
X88600000Y15000000D02*
G75*
G02*
X88800000Y15000000I100000J0D01*
G01*
D12*
%TO.C,C6*%
X431096045Y17510001D02*
X431377205Y17510001D01*
X431096045Y16490001D02*
X431377205Y16490001D01*
%TO.C,C1*%
X6146045Y17510001D02*
X6427205Y17510001D01*
X6146045Y16490001D02*
X6427205Y16490001D01*
%TO.C,C7*%
X516096045Y17510001D02*
X516377205Y17510001D01*
X516096045Y16490001D02*
X516377205Y16490001D01*
%TO.C,C3*%
X176146045Y17510001D02*
X176427205Y17510001D01*
X176146045Y16490001D02*
X176427205Y16490001D01*
%TD*%
%LPC*%
D16*
%TO.C,C13*%
X272390000Y18000000D03*
X270840000Y18000000D03*
%TD*%
D17*
%TO.C,R14*%
X285500000Y12350000D03*
X285500000Y14000000D03*
%TD*%
D18*
%TO.C,REF\u002A\u002A*%
X317126451Y7500000D03*
%TD*%
D19*
%TO.C,U7*%
X431700000Y13500000D03*
D20*
X429500000Y14350000D03*
X430200000Y14350000D03*
X429500000Y12650000D03*
X430200000Y12650000D03*
D21*
X430920000Y13500000D03*
%TD*%
D19*
%TO.C,U5*%
X261700000Y13500000D03*
D20*
X259500000Y14350000D03*
X260200000Y14350000D03*
X259500000Y12650000D03*
X260200000Y12650000D03*
D21*
X260920000Y13500000D03*
%TD*%
D22*
%TO.C,C11*%
X279500000Y15950000D03*
X279500000Y17500000D03*
%TD*%
D19*
%TO.C,U4*%
X176700000Y13500000D03*
D20*
X174500000Y14350000D03*
X175200000Y14350000D03*
X174500000Y12650000D03*
X175200000Y12650000D03*
D21*
X175920000Y13500000D03*
%TD*%
D18*
%TO.C,REF\u002A\u002A*%
X335500000Y3000000D03*
%TD*%
D23*
%TO.C,J1*%
X336438810Y15500000D03*
D24*
X336438810Y12960000D03*
X333898810Y15500000D03*
X333898810Y12960000D03*
X331358810Y15500000D03*
X331358810Y12960000D03*
X328818810Y15500000D03*
X328818810Y12960000D03*
X326278810Y15500000D03*
X326278810Y12960000D03*
X323738810Y15500000D03*
X323738810Y12960000D03*
X321198810Y15500000D03*
X321198810Y12960000D03*
X318658810Y15500000D03*
X318658810Y12960000D03*
X316118810Y15500000D03*
X316118810Y12960000D03*
X313578810Y15500000D03*
X313578810Y12960000D03*
X311038810Y15500000D03*
X311038810Y12960000D03*
X308498810Y15500000D03*
X308498810Y12960000D03*
X305958810Y15500000D03*
X305958810Y12960000D03*
X303418810Y15500000D03*
X303418810Y12960000D03*
X300878810Y15500000D03*
X300878810Y12960000D03*
X298338810Y15500000D03*
X298338810Y12960000D03*
X295798810Y15500000D03*
X295798810Y12960000D03*
X293258810Y15500000D03*
X293258810Y12960000D03*
X290718810Y15500000D03*
X290718810Y12960000D03*
X288178810Y15500000D03*
X288178810Y12960000D03*
%TD*%
D25*
%TO.C,R6*%
X429000000Y17000001D03*
X427350000Y17000001D03*
%TD*%
D18*
%TO.C,REF\u002A\u002A*%
X272500000Y3000000D03*
%TD*%
D25*
%TO.C,R8*%
X599011625Y17000001D03*
X597361625Y17000001D03*
%TD*%
D26*
%TO.C,R13*%
X286000000Y5000000D03*
X287650000Y5000000D03*
%TD*%
D25*
%TO.C,R3*%
X174011625Y17000001D03*
X172361625Y17000001D03*
%TD*%
%TO.C,R5*%
X344011625Y17000001D03*
X342361625Y17000001D03*
%TD*%
D27*
%TO.C,U2*%
X280413800Y11265400D03*
X280913800Y11265400D03*
X281413800Y11265400D03*
X281913800Y11265400D03*
D28*
X282648400Y12000000D03*
X282648400Y12500000D03*
X282648400Y13000000D03*
X282648400Y13500000D03*
D27*
X281913800Y14234600D03*
X281413800Y14234600D03*
X280913800Y14234600D03*
X280413800Y14234600D03*
D28*
X279679200Y13500000D03*
X279679200Y13000000D03*
X279679200Y12500000D03*
X279679200Y12000000D03*
D29*
X281163800Y12750000D03*
%TD*%
D30*
%TO.C,C10*%
X278019200Y11775000D03*
X278019200Y10225000D03*
%TD*%
D16*
%TO.C,C14*%
X271840000Y10000000D03*
X270290000Y10000000D03*
%TD*%
D25*
%TO.C,R7*%
X514000000Y17000001D03*
X512350000Y17000001D03*
%TD*%
%TO.C,R1*%
X4000000Y17000000D03*
X2350000Y17000000D03*
%TD*%
D19*
%TO.C,U8*%
X516700000Y13500000D03*
D20*
X514500000Y14350000D03*
X515200000Y14350000D03*
X514500000Y12650000D03*
X515200000Y12650000D03*
D21*
X515920000Y13500000D03*
%TD*%
D19*
%TO.C,U1*%
X6700000Y13500000D03*
D20*
X4500000Y14350000D03*
X5200000Y14350000D03*
X4500000Y12650000D03*
X5200000Y12650000D03*
D21*
X5920000Y13500000D03*
%TD*%
D31*
%TO.C,R9*%
X276469200Y14500000D03*
X276469200Y12850000D03*
%TD*%
D25*
%TO.C,R12*%
X276150000Y6500000D03*
X274500000Y6500000D03*
%TD*%
D32*
%TO.C,C4*%
X260500000Y17000000D03*
X262050000Y17000000D03*
%TD*%
%TO.C,C12*%
X273290000Y10000000D03*
X274840000Y10000000D03*
%TD*%
D33*
%TO.C,U10*%
X273800000Y16375550D03*
X273149999Y16375550D03*
X272500000Y16375550D03*
X271849999Y16375550D03*
X271200000Y16375550D03*
D34*
X270124450Y15300000D03*
X270124450Y14649999D03*
X270124450Y14000000D03*
X270124450Y13349999D03*
X270124450Y12700000D03*
D33*
X271200000Y11624450D03*
X271849999Y11624450D03*
X272500000Y11624450D03*
X273149999Y11624450D03*
X273800000Y11624450D03*
D34*
X274875550Y12700000D03*
X274875550Y13349999D03*
X274875550Y14000000D03*
X274875550Y14649999D03*
X274875550Y15300000D03*
D35*
X272500000Y14000000D03*
%TD*%
D32*
%TO.C,C2*%
X90511625Y17000001D03*
X92061625Y17000001D03*
%TD*%
D19*
%TO.C,U9*%
X601700000Y13500000D03*
D20*
X599500000Y14350000D03*
X600200000Y14350000D03*
X599500000Y12650000D03*
X600200000Y12650000D03*
D21*
X600920000Y13500000D03*
%TD*%
D25*
%TO.C,R4*%
X259000000Y17000000D03*
X257350000Y17000000D03*
%TD*%
D18*
%TO.C,REF\u002A\u002A*%
X290878324Y7500000D03*
%TD*%
D19*
%TO.C,U6*%
X346700000Y13500000D03*
D20*
X344500000Y14350000D03*
X345200000Y14350000D03*
X344500000Y12650000D03*
X345200000Y12650000D03*
D21*
X345920000Y13500000D03*
%TD*%
D32*
%TO.C,C5*%
X345461625Y17000001D03*
X347011625Y17000001D03*
%TD*%
D22*
%TO.C,C9*%
X278019200Y13500000D03*
X278019200Y15050000D03*
%TD*%
D25*
%TO.C,R2*%
X89011625Y17000001D03*
X87361625Y17000001D03*
%TD*%
D32*
%TO.C,C8*%
X600461625Y17000001D03*
X602011625Y17000001D03*
%TD*%
D19*
%TO.C,U3*%
X91700000Y13500000D03*
D20*
X89500000Y14350000D03*
X90200000Y14350000D03*
X89500000Y12650000D03*
X90200000Y12650000D03*
D21*
X90920000Y13500000D03*
%TD*%
D32*
%TO.C,C6*%
X430461625Y17000001D03*
X432011625Y17000001D03*
%TD*%
%TO.C,C1*%
X5511625Y17000001D03*
X7061625Y17000001D03*
%TD*%
%TO.C,C7*%
X515461625Y17000001D03*
X517011625Y17000001D03*
%TD*%
%TO.C,C3*%
X175511625Y17000001D03*
X177061625Y17000001D03*
%TD*%
%LPD*%
M02*
