%TF.GenerationSoftware,KiCad,Pcbnew,9.0.1-9.0.1-0~ubuntu22.04.1*%
%TF.CreationDate,2025-06-14T14:09:10+02:00*%
%TF.ProjectId,recorder,7265636f-7264-4657-922e-6b696361645f,rev?*%
%TF.SameCoordinates,Original*%
%TF.FileFunction,Soldermask,Bot*%
%TF.FilePolarity,Negative*%
%FSLAX46Y46*%
G04 Gerber Fmt 4.6, Leading zero omitted, Abs format (unit mm)*
G04 Created by KiCad (PCBNEW 9.0.1-9.0.1-0~ubuntu22.04.1) date 2025-06-14 14:09:10*
%MOMM*%
%LPD*%
G01*
G04 APERTURE LIST*
%ADD10C,0.800000*%
%ADD11C,2.200000*%
%ADD12O,1.700000X1.700000*%
%ADD13R,1.700000X1.700000*%
G04 APERTURE END LIST*
D10*
%TO.C,U3*%
X236700000Y-301500000D03*
%TD*%
%TO.C,U6*%
X491700000Y-301500000D03*
%TD*%
D11*
%TO.C,REF\u002A\u002A*%
X435878324Y-307500000D03*
%TD*%
D10*
%TO.C,U9*%
X746700000Y-301500000D03*
%TD*%
%TO.C,U1*%
X151700000Y-301500000D03*
%TD*%
%TO.C,U8*%
X661700000Y-301500000D03*
%TD*%
D11*
%TO.C,REF\u002A\u002A*%
X417500000Y-312000000D03*
%TD*%
D12*
%TO.C,J1*%
X433178810Y-302040000D03*
X433178810Y-299500000D03*
X435718810Y-302040000D03*
X435718810Y-299500000D03*
X438258810Y-302040000D03*
X438258810Y-299500000D03*
X440798810Y-302040000D03*
X440798810Y-299500000D03*
X443338810Y-302040000D03*
X443338810Y-299500000D03*
X445878810Y-302040000D03*
X445878810Y-299500000D03*
X448418810Y-302040000D03*
X448418810Y-299500000D03*
X450958810Y-302040000D03*
X450958810Y-299500000D03*
X453498810Y-302040000D03*
X453498810Y-299500000D03*
X456038810Y-302040000D03*
X456038810Y-299500000D03*
X458578810Y-302040000D03*
X458578810Y-299500000D03*
X461118810Y-302040000D03*
X461118810Y-299500000D03*
X463658810Y-302040000D03*
X463658810Y-299500000D03*
X466198810Y-302040000D03*
X466198810Y-299500000D03*
X468738810Y-302040000D03*
X468738810Y-299500000D03*
X471278810Y-302040000D03*
X471278810Y-299500000D03*
X473818810Y-302040000D03*
X473818810Y-299500000D03*
X476358810Y-302040000D03*
X476358810Y-299500000D03*
X478898810Y-302040000D03*
X478898810Y-299500000D03*
X481438810Y-302040000D03*
D13*
X481438810Y-299500000D03*
%TD*%
D11*
%TO.C,REF\u002A\u002A*%
X480500000Y-312000000D03*
%TD*%
D10*
%TO.C,U4*%
X321700000Y-301500000D03*
%TD*%
%TO.C,U5*%
X406700000Y-301500000D03*
%TD*%
%TO.C,U7*%
X576700000Y-301500000D03*
%TD*%
D11*
%TO.C,REF\u002A\u002A*%
X462126451Y-307500000D03*
%TD*%
M02*
